<svg xmlns="http://www.w3.org/2000/svg" viewBox="0 0 372.3 125.8" style="enable-background:new 0 0 372.3 125.8" xml:space="preserve"><path d="m125.8 60.2-.2-2.7-.3-2.7-.4-2.7-.5-2.7-.7-2.7-.8-2.6-.9-2.6-1-2.6-1.1-2.5-1.2-2.5-1.3-2.4-1.4-2.4-1.5-2.3-1.6-2.2-1.7-2.1-1.8-2.1-1.9-2-2-1.9-2.1-1.8-2.1-1.7-2.3-1.6-2.3-1.5-2.4-1.4L92 7.1l-2.5-1.2L87 4.8l-2.6-1-2.6-.9-2.6-.8-2.7-.6-2.7-.5-2.7-.4-2.7-.3-2.7-.2-2.8-.1-2.7.1-2.7.2-2.7.3L52 1l-2.7.5-2.7.6-2.6.8-2.6.9-2.6 1-2.5 1.1-2.5 1.2-2.4 1.3-2.3 1.4-2.3 1.5-2.2 1.7-2.1 1.7-2.1 1.8-2 1.9-1.9 2-1.8 2.1-1.7 2.1-1.6 2.2-1.5 2.3-1.4 2.4-1.3 2.4L6 36.4l-1.1 2.5-1 2.6-1 2.5-.8 2.6-.7 2.7L1 52l-.4 2.7-.3 2.7-.2 2.7-.1 2.8.1 2.7.2 2.7.3 2.7.4 2.8.5 2.7.7 2.7.8 2.6.9 2.6 1 2.6L6 89.5 7.1 92l1.3 2.4 1.4 2.4 1.5 2.3 1.6 2.2 1.7 2.1 1.8 2.1 1.9 2 2 1.9 2.1 1.8 2.1 1.7 2.2 1.6L29 116l2.3 1.4 2.4 1.3 2.5 1.2 2.5 1.1 2.6 1 2.6.9 2.6.8 2.7.6 2.7.5 2.7.4 2.7.3 2.7.2 2.7.1 2.8-.1 2.7-.2 2.7-.3 2.7-.4 2.7-.5 2.7-.6 2.6-.8 2.6-.9 2.6-1 2.5-1.1 2.5-1.2 2.4-1.3 2.4-1.4 2.3-1.5 2.2-1.6 2.1-1.7 2.1-1.8 2-1.9 1.9-2 1.8-2.1 1.7-2.1 1.6-2.2 1.5-2.3 1.4-2.4 1.3-2.4 1.2-2.5 1.1-2.5 1-2.6.9-2.6.8-2.6.7-2.7.5-2.7.4-2.7.3-2.7.2-2.7.1-2.7.1-2.8zM96.6 33.1l.2.1.1.2.2.6.3.5.4.4.5.3.6.2.6.1h.6l.6-.1.5-.3.5-.3.4-.4.3-.5.2-.6.1-.6v-.6l-.1-.6-.3-.5-.4-.5-.1-.2v-.2l.1-.2.2-.1 1-.1h1l1 .1 1 .2 1 .3.9.4.9.5.8.6.8.7.7.8.6.8.5.9.4.9.3 1 .2 1 .1 1v1l-.1 1-.2 1-.3 1-.4.9-.5.9-.6.8-.2.1h-.2l-.2-.1-.1-.2-.2-.6-.3-.5-.4-.4-.5-.3-.6-.2-.6-.1h-.6l-.6.1-.6.2-.5.3-.4.4-.3.5-.2.6-.1.6v.6l.2.6.2.5.4.5.1.2v.2l-.1.2-.2.1-1 .1h-1l-1-.1-1-.2-1-.3-.8-.3-.9-.5-.8-.6-.8-.7-.7-.8-.6-.8-.5-.9-.4-.9-.3-1-.2-1-.1-1v-1l.1-1 .2-1 .3-1 .4-.9.5-.9.6-.8.2-.1h.2zM76.8 21.6l.1-1 .1-.2.2-.1h.2l.2.1.5.4.5.3.6.1h.6l.6-.1.6-.2.5-.3.4-.4.4-.5.2-.5.1-.6V18l-.1-.6-.2-.6-.3-.5-.4-.4-.5-.3-.6-.2-.2-.1-.1-.2v-.2l.1-.2.8-.6.9-.5.9-.4 1-.3 1-.2 1-.1h1l1 .1 1 .2 1 .3.9.4.9.5.8.6.7.7.7.8.6.8.5.9.4.9.3 1 .2 1 .1 1v1l-.1 1 .1-.1-.2.1h-.2l-.2-.1-.5-.4-.6-.3h-1.1l-.6.1-.6.2-.5.3-.4.4-.4.5-.2.5-.1.6v.6l.1.6.2.6.3.5.4.4.5.3.6.2.2.1.1.2v.2l-.1.2-.8.6-.9.5-1 .5-1 .3-1 .2-1 .1h-1l-1-.1-1-.2-1-.3-.9-.4-.9-.5-.8-.6-.8-.7-.6-.7-.6-.8-.5-.9-.4-.9-.3-1-.2-1-.1-1-.1-1zM58 15.4v-.3l-.1-.3-.1-.3-.2-.3-.2-.3-.2-.2-.2-.2-.3-.2-.3-.3-.4-.1-.3-.1-.3-.1h-.6l-.3.1h-.2l-.3-.1-.1-.1-.1-.1v-.2l.3-.6.3-.5.3-.5.3-.5.4-.5.4-.5.4-.4.5-.4.5-.4.5-.4.5-.3.5-.3.6-.2.6-.2.6-.2.6-.1.6-.1.6-.2h1.2l.6.1.6.1.6.1.6.2.6.2.6.2.5.3.5.3.5.4.5.4.4.4.5.4.4.5.4.5.3.5.3.5.3.5.2.6V12.5l-.1.1-.1.1h-.2l-.3-.1h-.6l-.3.1-.3.1-.5.2-.3.2-.3.2-.3.2-.2.2-.2.3-.2.3v.3l-.1.3-.1.3v.6l.1.3.1.3.1.3.2.3.2.3.2.3.3.2.3.2.3.2.3.1.3.1.3.1h.6l.3-.1h.2l.1.1.1.1V19l-.2.6-.3.5-.3.5-.3.5-.4.5-.3.8-.4.4-.4.4-.5.4-.5.3-.5.3-.5.3-.6.2-.7.3-.6.2-.6.1-.6.1-.6.1h-1.2l-.6-.1-.6-.1-.6-.1-.6-.2-.6-.2-.6-.2-.5-.3-.5-.3-.5-.3-.5-.4-.5-.4-.4-.4-.4-.5-.4-.6-.3-.5-.3-.5-.3-.5-.3-.6v-.2l.1-.1.1-.1.1-.1h.2l.3.1h.6l.3-.1.3-.1.3-.1.3-.2.3-.2.2-.2.2-.3.2-.3.2-.3.1-.3.1-.3.1-.3v-.3l.2-.5zm-28.4 6.1.1-1 .2-1 .3-1 .4-.9.5-.9.6-.8.7-.8.8-.7.8-.6.9-.5.9-.4 1-.3 1-.2 1-.1h1l1 .1 1 .2 1 .3.9.4.9.5.8.6.1.2v.2l-.1.2-.2.1-.5.2-.5.3-.4.4-.3.5-.2.6-.1.6v.6l.1.6.2.5.3.5.5.4.5.3.6.2.6.1h.6l.6-.1.5-.3.5-.4.2-.1h.2l.2.1.1.2.1 1v1l-.1 1-.2 1-.3 1-.4 1.2-.5.9-.6.8-.7.8-.8.7-.8.6-.9.5-.9.4-1 .3-1 .2-1 .1h-1l-1-.1-1-.2-1-.3-.9-.4-.9-.5-.8-.6-.1-.2v-.2l.1-.2.2-.1.6-.2.5-.3.4-.4.3-.5.2-.6.1-.6v-.6l-.1-.8-.3-.5-.3-.5-.4-.4-.5-.3-.6-.2-.6-.1h-.6l-.6.1-.5.3-.5.4-.2.1h-.2l-.2-.1-.1-.2-.1-1-.1-1.1zM12.3 38.8l.1-1 .2-1 .3-1 .4-.9.5-.9.6-.8.7-.8.8-.7.8-.6.9-.5.9-.4 1-.3 1-.2 1-.1h1l1 .1.2.1.1.2v.2l-.1.2-.3.5-.3.5-.1.7v.6l.1.6.2.6.3.5.4.4.5.3.5.3.6.1h.6l.6-.1.6-.2.5-.3.4-.4.3-.5.2-.6.1-.2.2-.1h.2l.2.1.6.8.5.9.4.9.3 1 .2 1 .1 1v1l-.1 1-.2 1-.3 1-.4.9-.5.9-.6.8-.7.8-.7.7-.8.6-.8.5-.9.4-1 .3-1 .2-1 .1h-1l-1-.1-.2-.1-.1-.2v-.2l.1-.2.3-.5.3-.5.1-.6V46l-.1-.6-.2-.6-.3-.5-.4-.4-.5-.3-.5-.2-.6-.1h-.6l-.6.1-.6.2-.5.3-.4.4-.3.5-.2.6-.1.2-.2.1h-.2l-.2-.1-.6-.8-.5-.9-.5-1.1-.3-1-.2-1-.1-1-.1-1zm-1 32.8-.9-.6-.8-.6-.8-.7-.6-.7-.6-.8-.5-.9-.4-.9-.3-1-.2-1-.1-1v-1l.1-1 .2-1 .3-1 .4-.9.5-.9.6-.8.7-.8.8-.7.8-.6.9-.5.9-.4h.2l.2.1.1.2v.2l-.1.7v.6l.2.6.3.5.4.5.5.4.5.3.6.2.6.1.6-.1.6-.2.5-.3.5-.4.4-.5.3-.5.2-.6V55l-.1-.6v-.2l.1-.2.2-.1h.2l.9.4.9.5.8.6.8.7.7.8.6.8.5.9.4.9.3 1 .2 1 .1 1v1l-.1 1-.2 1-.3 1-.4.9-.5.9-.7.7-.7.8-.8.7-.7.5-.9.5-.9.5H19l-.2-.1-.1-.2v-.2l.1-.6v-.6l-.2-.6-.3-.5-.4-.5-.5-.4-.5-.3-.6-.2-.6-.1-.6.1-.5.2-.6.3-.5.4-.4.5-.3.5-.2.6v.6l.1.6v.2l-.1.2-.2.1h-.2l-.9-.4zm17.9 21.2-.2-.2-.1-.2-.2-.6-.3-.5-.5-.3-.5-.3-.6-.2-.6-.1h-.6l-.6.1-.5.3-.5.3-.4.4-.3.5-.2.6-.1.6v.6l.1.6.3.5.3.5.1.2v.2l-.1.2-.2.1-1 .1h-1l-1-.1-1-.2-1-.3-.9-.4-.9-.5-.8-.7-.8-.7-.7-.8-.6-.8-.5-.9-.3-.8-.3-1-.2-1-.1-1v-1l.1-1 .2-1 .3-1 .4-.9.5-.9.6-.8.2-.1h.2l.2.1.1.2.2.6.3.5.4.4.5.3.6.2.6.1h.6l.6-.1.5-.2.5-.4.4-.4.3-.5.2-.6.1-.6v-.6l-.1-.6-.3-.5-.3-.5-.1-.2v-.2l.1-.2.2-.1 1-.1h1l1 .1 1 .2 1 .3.9.4.9.5.8.6.7.7.7.8.6.8.5.9.4.9.3 1 .2 1 .1 1v1l-.1 1-.2 1-.3 1-.4.9-.5.9-.6.8-.2.1h-.1zm19.7 12.5-.1.2-.2.1h-.2l-.2-.1-.5-.4-.5-.3-.6-.1H46l-.6.1-.6.2-.5.3-.5.4-.3.5-.2.6-.1.6v.6l.1.6.2.6.3.5.4.4.5.3.5.2.2.1.1.2v.2l-.1.2-.8.6-.9.5-.9.4-1 .3-1 .2-1 .1h-1l-1-.1-1-.2-1-.3-.9-.4-.9-.5-.8-.6-.8-.7-.7-.8-.6-.8-.5-.9-.4-.9-.3-1-.2-1-.1-1v-1l.1-1 .1-.2.2-.1h.2l.2.1.5.4.5.3.6.1h.6l.6-.1.6-.2.5-.3.4-.4.3-.5.3-.5.1-.6V99l-.2-.6-.3-.4-.4-.4-.5-.3-.6-.3-.2-.1-.1-.2v-.2l.1-.2.8-.6.9-.5.9-.4 1-.3 1-.2 1-.1h1l1 .1 1 .2 1 .3.9.4.9.5.8.6.8.7.7.8.6.8.5.9.4.9.3 1 .2 1 .1 1v1l-.1.9zm18.9 5.4.2.6.3.5.4.5.5.4.5.3.6.2h.6l.6-.1h.2l.2.1.1.2v.2l-.4.9-.5.9-.6.8-.7.7-.8.7-.8.6-.9.5-.9.4-1 .3-1 .2-1 .1h-1l-1-.1-1-.2-1-.3-.9-.4-.9-.5-.8-.6-.7-.7-.7-.7-.6-.8-.5-.9-.4-.9v-.2l.1-.2.2-.1h.2l.6.1h.6l.6-.2.5-.3.5-.4.4-.5.3-.5.2-.6.1-.6-.1-.6-.2-.6-.3-.5-.4-.4-.5-.4-.5-.3-.6-.2-.6-.1-.6.1h-.2l-.2-.1-.1-.2v-.2l.4-.9.5-.9.6-.8.7-.8.7-.7.8-.6.9-.5.9-.4 1-.3 1-.2 1-.1h1l1 .1 1 .2 1 .3.9.4.9.5.8.6.8.7.7.8.6.8.5.9.4.9v.2l-.1.2-.2.1h-.2l-.6-.1-.6.1-.6.2-.5.3-.5.4-.4.4-.3.5-.2.6v1.2zM76 91.5l-.8.4-.8.3-.8.3-.8.3-.9.3-.8.2-1.1.2-.9.2-.9.2-.8.1-.9.1-.9.1-.9.1h-3.6l-.9-.1-.9-.1-.8-.1-.9-.1-.9-.2-.9-.2-.9-.2-.9-.2-.9-.3-.9-.3-.8-.3-.8-.3-.8-.4-.8-.4-.8-.4-.8-.4-.8-.5-.8-.5-.7-.5-.7-.5-.7-.5-.7-.5-.7-.6-.7-.6-.6-.6-.6-.6-.6-.7-.6-.7-.6-.7-.6-.7-.5-.7-.5-.7-.5-.7-.5-.8-.5-.8-.4-.8-.4-.8-.4-.8-.4-.8-.3-.8-.3-.8-.3-1-.3-.9-.2-.9-.2-.8-.2-.9-.2-.9-.1-.9-.1-.9-.1-.9-.1-.9V61l.1-.9.1-.9.1-.9.1-.9.2-.9.2-.9.2-.9.2-.9.3-.9.3-.8.3-.8.3-.8.4-.8.4-.8.4-.8.4-.8.5-.8.5-.8.5-.7.5-.7.5-.7.6-.7.6-.7.6-.7.6-.7.6-.6.6-.6.7-.6.7-.6.7-.6.7-.5.7-.5.7-.5.8-.5.8-.4.8-.4.8-.4.8-.4.8-.4.8-.3.8-.3.9-.3.9-.3.9-.2.9-.2.9-.2.9-.2.9-.1.9-.1.9-.1.9-.1h3.6l.9.1.9.1.9.1.9.1.9.2.9.2.9.2.8.2.9.3.8.3.8.3.8.3.8.4.8.4.8.4.8.4.8.4.8.5.8.5.7.5.7.5.7.6.7.6.7.6.7.6.6.6.6.7.6.7.6.7.6.7.5.7.5.7.5.7.5.8.5.8.4.8.4.8.4.8.3.8.3.8.3.8.3.8.3.9.2.9.2.9.2.9.2.9.1.9.1.9.1.9.1.9v3.6l-.1.9-.1.9-.1.9-.1.9-.2.9-.2.9-.2.9-.2.9-.3.9-.3.9-.3.8-.3.8-.4.8-.4.8-.4.8-.4.8-.5.8-.5.8-.5.7-.5.7-.5.7-.6.7-.6.7-.6.7-.6.7-.6.6-.7.6-.7.6-.7.6-.7.6-.7.5-.7.5-.8.5-.8.5-.8.5-.8.4-.8.4-.7.3zm20.2 12.8-.1 1-.2 1-.3 1-.4.9-.5.9-.6.8-.7.8-.7.7-.8.6-.9.5-.9.4-1 .3-1 .2-1 .1h-1l-1-.1-1-.2-1-.3-.9-.4-.9-.5-.8-.6-.1-.2v-.2l.1-.2.2-.1.6-.2.5-.3.4-.4.3-.5.2-.6.1-.6v-.6l-.1-.6-.2-.6-.4-.5-.4-.4-.7-.4-.6-.2-.6-.1h-.6l-.6.1-.5.3-.5.4-.2.1h-.2l-.2-.1-.1-.2-.1-1v-1l.1-1 .2-1 .3-1 .4-.9.5-.9.6-.8.7-.8.8-.7.8-.6.9-.5.9-.4 1-.3 1-.2 1-.1h1l1 .1 1 .2 1 .3.9.4.9.5.8.6.1.2v.2l-.1.2-.1.2-.6.2-.5.3-.4.5-.3.5-.3.5-.1.6v.6l.1.6.3.5.4.5.4.4.5.3.6.2.6.1h.6l.6-.1.6-.3.5-.4.2-.1h.2l.2.1.1.2.1 1-.1 1.1zM113.5 87l-.1 1-.2 1-.3 1-.4.9-.5.9-.6.8-.7.8-.8.7-.8.6-.9.5-.9.4-1 .3-1 .2-1 .1h-1l-1-.1-.2-.1-.1-.2v-.2l.1-.2.4-.5.3-.5.1-.6v-.6l-.1-.6-.2-.6-.3-.5-.4-.4-.5-.3-.5-.3-.6-.1H99l-.6.2-.4.4-.4.4-.3.5-.3.5-.1.2-.2.1h-.2l-.2-.1-.6-.8-.5-.9-.5-.9-.3-1-.2-1-.1-1v-1l.1-1 .2-1 .3-1 .4-.9.5-.9.6-.8.7-.8.8-.7.8-.6.9-.5.9-.4 1-.3 1-.2 1-.1h1l1 .1.2.1.1.2v.2l-.1.2-.4.5-.2.5-.2.6v.6l.1.6.2.6.3.5.4.4.5.4.6.2.6.1h.6l.6-.1.6-.2.5-.3.4-.4.3-.5.2-.6.1-.2.2-.1h.2l.2.1.6.8.5.9.4.9.3 1 .2 1 .1 1 .1 1.1zm6.3-23.6-.1 1-.2 1-.3 1-.4.9-.5.9-.6.8-.7.8-.8.7-.8.6-.9.5-.9.4h-.2l-.2-.1-.1-.2v-.2l.1-.6-.1-.6-.2-.6-.3-.5-.4-.5-.4-.4-.5-.3-.6-.2-.6-.1-.6.1-.6.2-.5.3-.5.4-.4.5-.3.5-.2.6v.6l.1.6v.2l-.1.2-.2.1h-.2l-.9-.4-.9-.5-.8-.6-.8-.7-.7-.8-.6-.8-.5-.9-.4-.9-.3-1-.2-1-.1-1v-1l.1-1 .2-1 .3-1 .4-.9.5-.9.6-.8.7-.8.8-.7.8-.6.9-.5.9-.4h.2l.2.1.1.2v.2l-.1.6v.6l.2.6.3.5.4.5.5.4.5.3.6.2.6.1.6-.1.6-.2.5-.3.4-.4.4-.5.3-.5.2-.6.1-.6-.1-.6v-.2l.1-.2.2-.1h.2l.9.4.9.5.8.6.8.7.7.8.6.8.5.9.4.9.3 1 .2 1 .1 1v1z"/><path d="m84.1 79.2.5-.2.3-.5v-.6L67.2 41.1l-.5-.4h-.6l-4.3 1.2-.5.4L41 77.9l-.1.6.3.5.6.2h3.9l.8-.5 16.2-28.5.5-.4h.6l.4.4 1.2 2.5v.8L51.5 77.9l-.1.6.3.5.6.2h3.9l.8-.5 10.5-18.5.5-.4h.6l.5.4 8.8 18.5.8.5zM216.9 47.3c3.1 0 11.7 1.3 11.7 5.2 0 1.5-1.3 3.6-2.5 4.9h-.4s-4.1-6.6-10.4-6.6c-7.2 0-9.8 8-9.8 14.3 0 8.6 4.8 15.5 12.2 15.5 5.6 0 11.8-4.7 11.8-4.7l.3.3s-3.1 9.8-15.2 9.8c-9.7 0-17.6-8-17.6-18.2.1-11.2 8.1-20.5 19.9-20.5zM237 58.8c0-6.2-.5-6.5-3.4-7.4v-3.1c3.1 0 10.1-6.1 11-8.5l1.7.6-1.5 7.9h6c3 0 3.9-.7 3.9-.7.1.4.1 1.6.1 2 0 3.1-1.5 3.7-4.1 3.7-.8 0-5.9-.1-5.9-.1s-.2 8.6-.2 14.1c0 7.2.7 13.3 6.3 13.3 3.6 0 7.7-3.4 7.7-3.4l.4.3s-2.4 8.4-11.3 8.4c-8.5 0-11-6-11-14.1 0-4.7.3-10.2.3-13zM281.8 62.3v-.7c0-6.1-1.4-9.6-7-9.6-3.6 0-7.4 2-10.1 4.4l-.3-.3c1.2-4.4 7.1-8.9 13.5-8.9 10.4 0 11.7 6.2 11.7 12.8 0 3.9-.2 8.7-.2 12.8v.9c0 2.8.1 8.1 3.6 8.1 1.5 0 2.8-1 2.8-1l.3.2s-1.8 4.5-8.1 4.5c-3 0-6.1-1.2-6.2-5.1l-.3-.1c-1.7 3.1-5.3 5.6-9.9 5.6-6.1 0-9.7-4.4-9.7-9.8.1-10.5 12-13.6 19.9-13.8zm-6.7 18.5c2.5 0 6.5-2.3 6.5-5 0-2.9.2-6.8.2-10.5-3 .5-11.6 1.8-11.6 9.5 0 4.4 2.4 6 4.9 6zM301.1 55.9c0-6.8-.1-13.4-.4-18.1-.4-6.7-1.3-8.2-1.3-8.2l.2-.3c4.9.1 9.4.9 9.4 5.4 0 7.4-.3 15-.3 22.7 0 6.5.1 13.1.3 19.5.1 2.5.7 4.8 3.3 4.8 1.5 0 2.8-1 2.8-1l.3.2s-1.8 4.5-8.1 4.5c-3.2 0-6.6-1.5-6.6-6.3.1-5.8.4-14.7.4-23.2zM320.6 67.2c0-16.6-1.7-18.9-1.8-18.9 1.2-.4 2.4-.7 3.6-.7 3.3 0 6.2 1.7 6.2 4.7 0 7.7-.4 16.5-.4 21.9 0 3.3.1 7.6 3.6 7.6 1.5 0 2.8-1 2.8-1l.3.2s-1.8 4.5-8.1 4.5c-3.2 0-6.6-1.5-6.6-5.9.1-4.1.4-8.3.4-12.4zm-1.1-30.6c0-2.7 2.3-5 4.9-5 2.7 0 5 2.3 5 5 0 2.6-2.3 4.9-5 4.9s-4.9-2.3-4.9-4.9zM357.9 62.3v-.7c0-6.1-1.4-9.6-7-9.6-3.6 0-7.4 2-10.1 4.4l-.3-.3c1.2-4.4 7.1-8.9 13.5-8.9 10.3 0 11.7 6.2 11.7 12.8 0 3.9-.2 8.7-.2 12.8v.9c0 2.8.1 8.1 3.6 8.1 1.5 0 2.8-1 2.8-1l.3.2s-1.8 4.5-8.1 4.5c-3 0-6.1-1.2-6.2-5.1l-.3-.1c-1.7 3.1-5.3 5.6-9.9 5.6-6.1 0-9.7-4.4-9.7-9.8.1-10.5 12-13.6 19.9-13.8zm-6.7 18.5c2.5 0 6.5-2.3 6.5-5 0-2.9.2-6.8.2-10.5-3 .5-11.6 1.8-11.6 9.5 0 4.4 2.4 6 4.9 6zM195.9 85.9l.8-.2.4-.7-.1-.7-23.8-49.4-.5-.6-.8-.1-5.9 1.7-.7.5-27.2 47.8-.1.8.4.7.8.2h5.2l1-.5L167.2 47l.7-.5h.8l.6.6 1.6 3.3v1.1l-18.6 32.7-.2.8.4.7.8.2h5.2l1.1-.5 14.1-24.9.7-.6.8.1.6.5 11.9 24.8 1.1.6z"/></svg>