<?xml version="1.0" encoding="utf-8"?>
<!-- Generator: Adobe Illustrator 24.0.2, SVG Export Plug-In . SVG Version: 6.00 Build 0)  -->
<svg version="1.1" id="Layer_1" xmlns="http://www.w3.org/2000/svg" xmlns:xlink="http://www.w3.org/1999/xlink" x="0px" y="0px"
	 viewBox="0 0 372.3 125.8" style="enable-background:new 0 0 372.3 125.8;" xml:space="preserve">
<style type="text/css">
	.st0{fill:#EDDCB2;}
</style>
<path class="st0" d="M125.8,60.2l-0.2-2.7l-0.3-2.7l-0.4-2.7l-0.5-2.7l-0.7-2.7l-0.8-2.6l-0.9-2.6l-1-2.6l-1.1-2.5l-1.2-2.5
	l-1.3-2.4l-1.4-2.4l-1.5-2.3l-1.6-2.2l-1.7-2.1l-1.8-2.1l-1.9-2l-2-1.9l-2.1-1.8l-2.1-1.7L99,11.4l-2.3-1.5l-2.4-1.4L92,7.1
	l-2.5-1.2L87,4.8l-2.6-1l-2.6-0.9l-2.6-0.8l-2.7-0.6L73.8,1l-2.7-0.4l-2.7-0.3l-2.7-0.2L62.9,0l-2.7,0.1l-2.7,0.2l-2.7,0.3L52,1
	l-2.7,0.5l-2.7,0.6L44,2.9l-2.6,0.9l-2.6,1l-2.5,1.1l-2.5,1.2l-2.4,1.3l-2.3,1.4l-2.3,1.5L24.6,13l-2.1,1.7l-2.1,1.8l-2,1.9l-1.9,2
	l-1.8,2.1L13,24.6l-1.6,2.2l-1.5,2.3l-1.4,2.4l-1.3,2.4l-1.2,2.5l-1.1,2.5l-1,2.6L2.9,44l-0.8,2.6l-0.7,2.7L1,52l-0.4,2.7l-0.3,2.7
	l-0.2,2.7L0,62.9l0.1,2.7l0.2,2.7l0.3,2.7L1,73.8l0.5,2.7l0.7,2.7l0.8,2.6l0.9,2.6l1,2.6l1.1,2.5L7.1,92l1.3,2.4l1.4,2.4l1.5,2.3
	l1.6,2.2l1.7,2.1l1.8,2.1l1.9,2l2,1.9l2.1,1.8l2.1,1.7l2.2,1.6l2.3,1.5l2.3,1.4l2.4,1.3l2.5,1.2l2.5,1.1l2.6,1l2.6,0.9l2.6,0.8
	l2.7,0.6l2.7,0.5l2.7,0.4l2.7,0.3l2.7,0.2l2.7,0.1l2.8-0.1l2.7-0.2l2.7-0.3l2.7-0.4l2.7-0.5l2.7-0.6l2.6-0.8l2.6-0.9l2.6-1l2.5-1.1
	l2.5-1.2l2.4-1.3l2.4-1.4l2.3-1.5l2.2-1.6l2.1-1.7l2.1-1.8l2-1.9l1.9-2l1.8-2.1l1.7-2.1l1.6-2.2l1.5-2.3l1.4-2.4l1.3-2.4l1.2-2.5
	l1.1-2.5l1-2.6l0.9-2.6l0.8-2.6l0.7-2.7l0.5-2.7l0.4-2.7l0.3-2.7l0.2-2.7l0.1-2.7L125.8,60.2z M96.6,33.1l0.2,0.1l0.1,0.2l0.2,0.6
	l0.3,0.5l0.4,0.4l0.5,0.3l0.6,0.2l0.6,0.1l0.6,0l0.6-0.1l0.5-0.3l0.5-0.3l0.4-0.4l0.3-0.5l0.2-0.6l0.1-0.6l0-0.6l-0.1-0.6l-0.3-0.5
	l-0.4-0.5l-0.1-0.2l0-0.2l0.1-0.2l0.2-0.1l1-0.1h1l1,0.1l1,0.2l1,0.3l0.9,0.4l0.9,0.5l0.8,0.6l0.8,0.7l0.7,0.8l0.6,0.8l0.5,0.9
	l0.4,0.9l0.3,1l0.2,1l0.1,1l0,1l-0.1,1l-0.2,1l-0.3,1l-0.4,0.9l-0.5,0.9l-0.6,0.8l-0.2,0.1l-0.2,0l-0.2-0.1l-0.1-0.2l-0.2-0.6
	l-0.3-0.5l-0.4-0.4l-0.5-0.3l-0.6-0.2l-0.6-0.1l-0.6,0l-0.6,0.1l-0.6,0.2l-0.5,0.3l-0.4,0.4l-0.3,0.5l-0.2,0.6l-0.1,0.6l0,0.6
	l0.2,0.6l0.2,0.5l0.4,0.5l0.1,0.2l0,0.2l-0.1,0.2l-0.2,0.1l-1,0.1h-1l-1-0.1l-1-0.2l-1-0.3L99.4,48l-0.9-0.5l-0.8-0.6l-0.8-0.7
	l-0.7-0.8l-0.6-0.8l-0.5-0.9l-0.4-0.9l-0.3-1l-0.2-1l-0.1-1v-1l0.1-1l0.2-1l0.3-1l0.4-0.9l0.5-0.9l0.6-0.8l0.2-0.1L96.6,33.1z
	 M76.8,21.6l0.1-1l0.1-0.2l0.2-0.1l0.2,0l0.2,0.1l0.5,0.4l0.5,0.3l0.6,0.1l0.6,0l0.6-0.1l0.6-0.2l0.5-0.3l0.4-0.4l0.4-0.5l0.2-0.5
	l0.1-0.6l0-0.6l-0.1-0.6l-0.2-0.6l-0.3-0.5l-0.4-0.4l-0.5-0.3l-0.6-0.2l-0.2-0.1l-0.1-0.2l0-0.2l0.1-0.2l0.8-0.6l0.9-0.5l0.9-0.4
	l1-0.3l1-0.2l1-0.1h1l1,0.1l1,0.2l1,0.3l0.9,0.4l0.9,0.5l0.8,0.6l0.7,0.7l0.7,0.8l0.6,0.8l0.5,0.9l0.4,0.9l0.3,1l0.2,1l0.1,1v1
	l-0.1,1L96,23.7l-0.2,0.1l-0.2,0l-0.2-0.1l-0.5-0.4l-0.6-0.3L93.8,23l-0.6,0l-0.6,0.1L92,23.3l-0.5,0.3L91.1,24l-0.4,0.5L90.5,25
	l-0.1,0.6l0,0.6l0.1,0.6l0.2,0.6l0.3,0.5l0.4,0.4l0.5,0.3l0.6,0.2l0.2,0.1l0.1,0.2l0,0.2l-0.1,0.2l-0.8,0.6l-0.9,0.5L90,31.1l-1,0.3
	l-1,0.2l-1,0.1h-1l-1-0.1l-1-0.2l-1-0.3l-0.9-0.4l-0.9-0.5l-0.8-0.6l-0.8-0.7L79,28.2l-0.6-0.8l-0.5-0.9l-0.4-0.9l-0.3-1l-0.2-1
	l-0.1-1V21.6z M58,15.4L58,15.1l-0.1-0.3l-0.1-0.3l-0.2-0.3l-0.2-0.3l-0.2-0.2l-0.2-0.2l-0.3-0.2L56.4,13L56,12.9l-0.3-0.1l-0.3-0.1
	l-0.3,0l-0.3,0l-0.3,0.1l-0.1,0l-0.1,0L54,12.7l-0.1-0.1l-0.1-0.1l0-0.1l0-0.1l0.3-0.6l0.3-0.5l0.3-0.5l0.3-0.5l0.4-0.5l0.4-0.5
	l0.4-0.4l0.5-0.4l0.5-0.4l0.5-0.4l0.5-0.3l0.5-0.3l0.6-0.2l0.6-0.2l0.6-0.2l0.6-0.1l0.6-0.1L62.3,6l0.6,0l0.6,0l0.6,0.1l0.6,0.1
	l0.6,0.1l0.6,0.2l0.6,0.2l0.6,0.2l0.5,0.3l0.5,0.3l0.5,0.4l0.5,0.4l0.4,0.4L70,9.1l0.4,0.5l0.4,0.5l0.3,0.5l0.3,0.5l0.3,0.5l0.2,0.6
	l0,0.1l0,0.1l0,0.1l-0.1,0.1l-0.1,0.1l-0.1,0l-0.1,0l-0.3-0.1l-0.3,0l-0.3,0l-0.3,0.1l-0.3,0.1L69.5,13l-0.3,0.2l-0.3,0.2l-0.3,0.2
	l-0.2,0.2l-0.2,0.3l-0.2,0.3L68,14.7l-0.1,0.3l-0.1,0.3l0,0.3l0,0.3l0.1,0.3l0.1,0.3l0.1,0.3l0.2,0.3l0.2,0.3l0.2,0.3l0.3,0.2
	l0.3,0.2l0.3,0.2l0.3,0.1l0.3,0.1l0.3,0.1l0.3,0l0.3,0l0.3-0.1l0.1,0l0.1,0l0.1,0.1l0.1,0.1l0,0.1l0,0.1l0,0.1l-0.2,0.6l-0.3,0.5
	l-0.3,0.5l-0.3,0.5l-0.4,0.5L70,22.4l-0.4,0.4l-0.4,0.4l-0.5,0.4l-0.5,0.3l-0.5,0.3l-0.5,0.3l-0.6,0.2L65.9,25l-0.6,0.2l-0.6,0.1
	l-0.6,0.1l-0.6,0.1l-0.6,0l-0.6,0l-0.6-0.1l-0.6-0.1l-0.6-0.1L59.9,25l-0.6-0.2l-0.6-0.2l-0.5-0.3l-0.5-0.3l-0.5-0.3l-0.5-0.4
	l-0.5-0.4l-0.4-0.4l-0.4-0.5L55,21.4l-0.3-0.5l-0.3-0.5l-0.3-0.5l-0.3-0.6l0-0.1l0-0.1l0.1-0.1l0.1-0.1l0.1-0.1l0.1,0l0.1,0l0.3,0.1
	l0.3,0l0.3,0l0.3-0.1l0.3-0.1l0.3-0.1l0.3-0.2l0.3-0.2l0.2-0.2l0.2-0.3l0.2-0.3l0.2-0.3l0.1-0.3l0.1-0.3l0.1-0.3l0-0.3L58,15.4z
	 M29.6,21.5l0.1-1l0.2-1l0.3-1l0.4-0.9l0.5-0.9l0.6-0.8l0.7-0.8l0.8-0.7l0.8-0.6l0.9-0.5l0.9-0.4l1-0.3l1-0.2l1-0.1h1l1,0.1l1,0.2
	l1,0.3l0.9,0.4l0.9,0.5l0.8,0.6l0.1,0.2l0,0.2l-0.1,0.2l-0.2,0.1l-0.5,0.2l-0.5,0.3l-0.4,0.4l-0.3,0.5l-0.2,0.6l-0.1,0.6l0,0.6
	l0.1,0.6l0.2,0.5l0.3,0.5l0.5,0.4l0.5,0.3l0.6,0.2l0.6,0.1l0.6,0l0.6-0.1l0.5-0.3l0.5-0.4l0.2-0.1l0.2,0l0.2,0.1l0.1,0.2l0.1,1l0,1
	l-0.1,1l-0.2,1l-0.3,1L48,26.5l-0.5,0.9l-0.6,0.8l-0.7,0.8l-0.8,0.7l-0.8,0.6l-0.9,0.5l-0.9,0.4l-1,0.3l-1,0.2l-1,0.1h-1l-1-0.1
	l-1-0.2l-1-0.3l-0.9-0.4l-0.9-0.5l-0.8-0.6l-0.1-0.2v-0.2l0.1-0.2l0.2-0.1l0.6-0.2l0.5-0.3l0.4-0.4l0.3-0.5l0.2-0.6l0.1-0.6l0-0.6
	L35.4,25l-0.3-0.5L34.8,24l-0.4-0.4l-0.5-0.3l-0.6-0.2L32.7,23l-0.6,0l-0.6,0.1l-0.5,0.3l-0.5,0.4l-0.2,0.1l-0.2,0l-0.2-0.1
	l-0.1-0.2l-0.1-1V21.5z M12.3,38.8l0.1-1l0.2-1l0.3-1l0.4-0.9l0.5-0.9l0.6-0.8l0.7-0.8l0.8-0.7l0.8-0.6l0.9-0.5l0.9-0.4l1-0.3l1-0.2
	l1-0.1h1l1,0.1l0.2,0.1l0.1,0.2l0,0.2l-0.1,0.2l-0.3,0.5l-0.3,0.5L23,32.1l0,0.6l0.1,0.6l0.2,0.6l0.3,0.5l0.4,0.4l0.5,0.3l0.5,0.3
	l0.6,0.1l0.6,0l0.6-0.1l0.6-0.2l0.5-0.3l0.4-0.4l0.3-0.5l0.2-0.6l0.1-0.2l0.2-0.1l0.2,0l0.2,0.1l0.6,0.8l0.5,0.9l0.4,0.9l0.3,1
	l0.2,1l0.1,1v1l-0.1,1l-0.2,1l-0.3,1l-0.4,0.9l-0.5,0.9l-0.6,0.8l-0.7,0.8l-0.7,0.7l-0.8,0.6L26.5,48l-0.9,0.4l-1,0.3l-1,0.2l-1,0.1
	h-1l-1-0.1l-0.2-0.1l-0.1-0.2l0-0.2l0.1-0.2l0.3-0.5l0.3-0.5l0.1-0.6l0-0.6L21,45.4l-0.2-0.6l-0.3-0.5l-0.4-0.4l-0.5-0.3l-0.5-0.2
	l-0.6-0.1l-0.6,0l-0.6,0.1l-0.6,0.2l-0.5,0.3l-0.4,0.4l-0.3,0.5l-0.2,0.6l-0.1,0.2l-0.2,0.1l-0.2,0l-0.2-0.1l-0.6-0.8l-0.5-0.9
	L13,42.8l-0.3-1l-0.2-1l-0.1-1V38.8z M11.3,71.6L10.4,71l-0.8-0.6l-0.8-0.7L8.2,69l-0.6-0.8l-0.5-0.9l-0.4-0.9l-0.3-1l-0.2-1l-0.1-1
	v-1l0.1-1l0.2-1l0.3-1l0.4-0.9l0.5-0.9l0.6-0.8l0.7-0.8l0.8-0.7l0.8-0.6l0.9-0.5l0.9-0.4l0.2,0l0.2,0.1l0.1,0.2l0,0.2L12.7,55l0,0.6
	l0.2,0.6l0.3,0.5l0.4,0.5l0.5,0.4l0.5,0.3l0.6,0.2l0.6,0.1l0.6-0.1l0.6-0.2l0.5-0.3l0.5-0.4l0.4-0.5l0.3-0.5l0.2-0.6l0-0.6l-0.1-0.6
	l0-0.2l0.1-0.2l0.2-0.1l0.2,0l0.9,0.4l0.9,0.5l0.8,0.6l0.8,0.7l0.7,0.8l0.6,0.8l0.5,0.9l0.4,0.9l0.3,1l0.2,1l0.1,1v1l-0.1,1l-0.2,1
	l-0.3,1l-0.4,0.9l-0.5,0.9L23.3,69l-0.7,0.8l-0.8,0.7L21.1,71l-0.9,0.5L19.3,72L19,72l-0.2-0.1l-0.1-0.2l0-0.2l0.1-0.6l0-0.6
	l-0.2-0.6l-0.3-0.5l-0.4-0.5l-0.5-0.4L16.9,68l-0.6-0.2l-0.6-0.1l-0.6,0.1L14.6,68L14,68.3l-0.5,0.4l-0.4,0.5l-0.3,0.5l-0.2,0.6
	l0,0.6l0.1,0.6l0,0.2l-0.1,0.2L12.4,72l-0.2,0L11.3,71.6z M29.2,92.8L29,92.6l-0.1-0.2l-0.2-0.6l-0.3-0.5L27.9,91l-0.5-0.3l-0.6-0.2
	l-0.6-0.1l-0.6,0L25,90.5l-0.5,0.3L24,91.1l-0.4,0.4L23.3,92l-0.2,0.6L23,93.2l0,0.6l0.1,0.6l0.3,0.5l0.3,0.5l0.1,0.2l0,0.2L23.7,96
	l-0.2,0.1l-1,0.1h-1l-1-0.1l-1-0.2l-1-0.3l-0.9-0.4l-0.9-0.5L15.9,94l-0.8-0.7l-0.7-0.8l-0.6-0.8l-0.5-0.9L13,90l-0.3-1l-0.2-1
	l-0.1-1v-1l0.1-1l0.2-1l0.3-1l0.4-0.9l0.5-0.9l0.6-0.8l0.2-0.1l0.2,0l0.2,0.1l0.1,0.2l0.2,0.6l0.3,0.5l0.4,0.4l0.5,0.3l0.6,0.2
	l0.6,0.1l0.6,0l0.6-0.1l0.5-0.2l0.5-0.4l0.4-0.4l0.3-0.5l0.2-0.6l0.1-0.6l0-0.6l-0.1-0.6l-0.3-0.5l-0.3-0.5l-0.1-0.2l0-0.2l0.1-0.2
	l0.2-0.1l1-0.1l1,0l1,0.1l1,0.2l1,0.3l0.9,0.4l0.9,0.5l0.8,0.6l0.7,0.7l0.7,0.8l0.6,0.8l0.5,0.9l0.4,0.9l0.3,1l0.2,1l0.1,1v1l-0.1,1
	l-0.2,1l-0.3,1l-0.4,0.9l-0.5,0.9l-0.6,0.8l-0.2,0.1L29.2,92.8z M48.9,105.3l-0.1,0.2l-0.2,0.1l-0.2,0l-0.2-0.1l-0.5-0.4l-0.5-0.3
	l-0.6-0.1l-0.6,0l-0.6,0.1l-0.6,0.2l-0.5,0.3l-0.5,0.4l-0.3,0.5l-0.2,0.6l-0.1,0.6l0,0.6l0.1,0.6l0.2,0.6l0.3,0.5l0.4,0.4l0.5,0.3
	l0.5,0.2l0.2,0.1l0.1,0.2l0,0.2l-0.1,0.2l-0.8,0.6l-0.9,0.5l-0.9,0.4l-1,0.3l-1,0.2l-1,0.1h-1l-1-0.1l-1-0.2l-1-0.3l-0.9-0.4
	l-0.9-0.5l-0.8-0.6l-0.8-0.7l-0.7-0.8l-0.6-0.8l-0.5-0.9l-0.4-0.9l-0.3-1l-0.2-1l-0.1-1v-1l0.1-1l0.1-0.2l0.2-0.1l0.2,0l0.2,0.1
	l0.5,0.4l0.5,0.3l0.6,0.1l0.6,0l0.6-0.1l0.6-0.2l0.5-0.3l0.4-0.4l0.3-0.5l0.3-0.5l0.1-0.6l0-0.6L35.4,99l-0.2-0.6L34.9,98l-0.4-0.4
	l-0.5-0.3L33.4,97l-0.2-0.1l-0.1-0.2v-0.2l0.1-0.2l0.8-0.6l0.9-0.5l0.9-0.4l1-0.3l1-0.2l1-0.1h1l1,0.1l1,0.2l1,0.3l0.9,0.4l0.9,0.5
	l0.8,0.6l0.8,0.7l0.7,0.8l0.6,0.8l0.5,0.9l0.4,0.9l0.3,1l0.2,1l0.1,1l0,1L48.9,105.3z M67.8,110.7l0.2,0.6l0.3,0.5l0.4,0.5l0.5,0.4
	l0.5,0.3l0.6,0.2l0.6,0l0.6-0.1l0.2,0l0.2,0.1l0.1,0.2l0,0.2l-0.4,0.9l-0.5,0.9l-0.6,0.8l-0.7,0.7l-0.8,0.7l-0.8,0.6l-0.9,0.5
	l-0.9,0.4l-1,0.3l-1,0.2l-1,0.1h-1l-1-0.1l-1-0.2l-1-0.3l-0.9-0.4l-0.9-0.5l-0.8-0.6l-0.7-0.7l-0.7-0.7l-0.6-0.8l-0.5-0.9l-0.4-0.9
	l0-0.2l0.1-0.2l0.2-0.1l0.2,0l0.6,0.1l0.6,0l0.6-0.2l0.5-0.3l0.5-0.4l0.4-0.5l0.3-0.5l0.2-0.6l0.1-0.6l-0.1-0.6l-0.2-0.6l-0.3-0.5
	l-0.4-0.4l-0.5-0.4l-0.5-0.3l-0.6-0.2l-0.6-0.1l-0.6,0.1l-0.2,0l-0.2-0.1l-0.1-0.2l0-0.2l0.4-0.9l0.5-0.9l0.6-0.8l0.7-0.8l0.7-0.7
	l0.8-0.6l0.9-0.5l0.9-0.4l1-0.3l1-0.2l1-0.1h1l1,0.1l1,0.2l1,0.3l0.9,0.4l0.9,0.5l0.8,0.6l0.8,0.7l0.7,0.8l0.6,0.8l0.5,0.9l0.4,0.9
	l0,0.2l-0.1,0.2l-0.2,0.1l-0.2,0l-0.6-0.1l-0.6,0.1l-0.6,0.2l-0.5,0.3l-0.5,0.4l-0.4,0.4l-0.3,0.5l-0.2,0.6l0,0.6L67.8,110.7z
	 M76,91.5l-0.8,0.4l-0.8,0.3l-0.8,0.3l-0.8,0.3l-0.9,0.3l-0.8,0.2L70,93.5l-0.9,0.2l-0.9,0.2L67.4,94l-0.9,0.1l-0.9,0.1l-0.9,0.1
	l-0.9,0l-0.9,0l-0.9,0l-0.9,0l-0.9-0.1l-0.9-0.1L58.5,94l-0.9-0.1l-0.9-0.2l-0.9-0.2l-0.9-0.2l-0.9-0.2l-0.9-0.3l-0.9-0.3l-0.8-0.3
	l-0.8-0.3l-0.8-0.4L49,91.1l-0.8-0.4l-0.8-0.4l-0.8-0.5l-0.8-0.5l-0.7-0.5l-0.7-0.5l-0.7-0.5L43,87.3l-0.7-0.6l-0.7-0.6L41,85.5
	l-0.6-0.6l-0.6-0.7l-0.6-0.7l-0.6-0.7L38,82.1l-0.5-0.7L37,80.7l-0.5-0.7L36,79.2l-0.5-0.8l-0.4-0.8l-0.4-0.8L34.3,76l-0.4-0.8
	l-0.3-0.8l-0.3-0.8L33,72.6l-0.3-0.9l-0.2-0.9L32.3,70l-0.2-0.9l-0.2-0.9l-0.1-0.9l-0.1-0.9l-0.1-0.9l-0.1-0.9l0-0.9l0-0.9l0-0.9
	l0-0.9l0.1-0.9l0.1-0.9l0.1-0.9l0.1-0.9l0.2-0.9l0.2-0.9l0.2-0.9l0.2-0.9l0.3-0.9l0.3-0.8l0.3-0.8l0.3-0.8l0.4-0.8l0.4-0.8l0.4-0.8
	l0.4-0.8l0.5-0.8l0.5-0.8l0.5-0.7l0.5-0.7l0.5-0.7l0.6-0.7l0.6-0.7l0.6-0.7l0.6-0.7l0.6-0.6l0.6-0.6l0.7-0.6l0.7-0.6l0.7-0.6
	l0.7-0.5l0.7-0.5l0.7-0.5l0.8-0.5l0.8-0.4l0.8-0.4l0.8-0.4l0.8-0.4l0.8-0.4l0.8-0.3l0.8-0.3l0.9-0.3l0.9-0.3l0.9-0.2l0.9-0.2
	l0.9-0.2l0.9-0.2l0.9-0.1l0.9-0.1l0.9-0.1l0.9-0.1l0.9,0l0.9,0l0.9,0l0.9,0l0.9,0.1l0.9,0.1l0.9,0.1l0.9,0.1l0.9,0.2l0.9,0.2
	l0.9,0.2l0.8,0.2l0.9,0.3l0.8,0.3l0.8,0.3l0.8,0.3l0.8,0.4l0.8,0.4l0.8,0.4l0.8,0.4l0.8,0.4l0.8,0.5l0.8,0.5l0.7,0.5l0.7,0.5
	l0.7,0.6l0.7,0.6l0.7,0.6l0.7,0.6l0.6,0.6l0.6,0.7l0.6,0.7l0.6,0.7l0.6,0.7l0.5,0.7l0.5,0.7l0.5,0.7l0.5,0.8l0.5,0.8l0.4,0.8
	l0.4,0.8l0.4,0.8l0.3,0.8l0.3,0.8l0.3,0.8l0.3,0.8l0.3,0.9l0.2,0.9l0.2,0.9l0.2,0.9l0.2,0.9l0.1,0.9l0.1,0.9l0.1,0.9l0.1,0.9l0,0.9
	l0,0.9l0,0.9l0,0.9l-0.1,0.9l-0.1,0.9l-0.1,0.9l-0.1,0.9l-0.2,0.9L93.6,70l-0.2,0.9l-0.2,0.9l-0.3,0.9l-0.3,0.9l-0.3,0.8l-0.3,0.8
	L91.6,76l-0.4,0.8l-0.4,0.8l-0.4,0.8l-0.5,0.8l-0.5,0.8l-0.5,0.7l-0.5,0.7l-0.5,0.7l-0.6,0.7l-0.6,0.7l-0.6,0.7l-0.6,0.7l-0.6,0.6
	l-0.7,0.6l-0.7,0.6l-0.7,0.6l-0.7,0.6l-0.7,0.5l-0.7,0.5l-0.8,0.5l-0.8,0.5l-0.8,0.5l-0.8,0.4l-0.8,0.4L76,91.5z M96.2,104.3l-0.1,1
	l-0.2,1l-0.3,1l-0.4,0.9l-0.5,0.9l-0.6,0.8l-0.7,0.8l-0.7,0.7l-0.8,0.6l-0.9,0.5l-0.9,0.4l-1,0.3l-1,0.2l-1,0.1h-1l-1-0.1l-1-0.2
	l-1-0.3l-0.9-0.4l-0.9-0.5l-0.8-0.6l-0.1-0.2l0-0.2l0.1-0.2l0.2-0.1l0.6-0.2l0.5-0.3l0.4-0.4l0.3-0.5l0.2-0.6l0.1-0.6l0-0.6
	l-0.1-0.6l-0.2-0.6l-0.4-0.5l-0.4-0.4L81,105l-0.6-0.2l-0.6-0.1l-0.6,0l-0.6,0.1l-0.5,0.3l-0.5,0.4l-0.2,0.1l-0.2,0l-0.2-0.1
	l-0.1-0.2l-0.1-1v-1l0.1-1l0.2-1l0.3-1l0.4-0.9l0.5-0.9l0.6-0.8l0.7-0.8l0.8-0.7l0.8-0.6l0.9-0.5l0.9-0.4l1-0.3l1-0.2l1-0.1h1l1,0.1
	l1,0.2l1,0.3l0.9,0.4l0.9,0.5l0.8,0.6l0.1,0.2l0,0.2l-0.1,0.2L92.5,97l-0.6,0.2l-0.5,0.3L91,98l-0.3,0.5L90.4,99l-0.1,0.6l0,0.6
	l0.1,0.6l0.3,0.5l0.4,0.5l0.4,0.4l0.5,0.3l0.6,0.2l0.6,0.1l0.6,0l0.6-0.1l0.6-0.3l0.5-0.4l0.2-0.1l0.2,0l0.2,0.1l0.1,0.2l0.1,1
	V104.3z M113.5,87l-0.1,1l-0.2,1l-0.3,1l-0.4,0.9l-0.5,0.9l-0.6,0.8l-0.7,0.8l-0.8,0.7l-0.8,0.6l-0.9,0.5l-0.9,0.4l-1,0.3l-1,0.2
	l-1,0.1h-1l-1-0.1l-0.2-0.1l-0.1-0.2l0-0.2l0.1-0.2l0.4-0.5l0.3-0.5l0.1-0.6l0-0.6l-0.1-0.6l-0.2-0.6l-0.3-0.5l-0.4-0.4l-0.5-0.3
	l-0.5-0.3l-0.6-0.1l-0.6,0L99,90.4l-0.6,0.2L98,91l-0.4,0.4l-0.3,0.5L97,92.4l-0.1,0.2l-0.2,0.1l-0.2,0l-0.2-0.1l-0.6-0.8l-0.5-0.9
	L94.7,90l-0.3-1l-0.2-1l-0.1-1v-1l0.1-1l0.2-1l0.3-1l0.4-0.9l0.5-0.9l0.6-0.8l0.7-0.8l0.8-0.7l0.8-0.6l0.9-0.5l0.9-0.4l1-0.3l1-0.2
	l1-0.1l1,0l1,0.1l0.2,0.1l0.1,0.2l0,0.2l-0.1,0.2l-0.4,0.5l-0.2,0.5l-0.2,0.6l0,0.6l0.1,0.6L105,81l0.3,0.5l0.4,0.4l0.5,0.4l0.6,0.2
	l0.6,0.1l0.6,0l0.6-0.1l0.6-0.2l0.5-0.3l0.4-0.4l0.3-0.5l0.2-0.6l0.1-0.2l0.2-0.1l0.2,0l0.2,0.1l0.6,0.8l0.5,0.9l0.4,0.9l0.3,1
	l0.2,1l0.1,1L113.5,87z M119.8,63.4l-0.1,1l-0.2,1l-0.3,1l-0.4,0.9l-0.5,0.9l-0.6,0.8l-0.7,0.8l-0.8,0.7l-0.8,0.6l-0.9,0.5l-0.9,0.4
	l-0.2,0l-0.2-0.1l-0.1-0.2l0-0.2l0.1-0.6l-0.1-0.6l-0.2-0.6l-0.3-0.5l-0.4-0.5l-0.4-0.4l-0.5-0.3l-0.6-0.2l-0.6-0.1l-0.6,0.1
	l-0.6,0.2l-0.5,0.3l-0.5,0.4l-0.4,0.5l-0.3,0.5l-0.2,0.6l0,0.6l0.1,0.6l0,0.2l-0.1,0.2l-0.2,0.1l-0.2,0l-0.9-0.4l-0.9-0.5l-0.8-0.6
	l-0.8-0.7l-0.7-0.8l-0.6-0.8l-0.5-0.9l-0.4-0.9l-0.3-1l-0.2-1l-0.1-1v-1l0.1-1l0.2-1l0.3-1l0.4-0.9l0.5-0.9l0.6-0.8l0.7-0.8l0.8-0.7
	l0.8-0.6l0.9-0.5l0.9-0.4l0.2,0l0.2,0.1l0.1,0.2l0,0.2l-0.1,0.6l0,0.6l0.2,0.6l0.3,0.5l0.4,0.5l0.5,0.4l0.5,0.3l0.6,0.2l0.6,0.1
	l0.6-0.1l0.6-0.2l0.5-0.3l0.4-0.4l0.4-0.5l0.3-0.5l0.2-0.6l0.1-0.6l-0.1-0.6l0-0.2l0.1-0.2l0.2-0.1l0.2,0l0.9,0.4l0.9,0.5l0.8,0.6
	l0.8,0.7l0.7,0.8l0.6,0.8l0.5,0.9l0.4,0.9l0.3,1l0.2,1l0.1,1V63.4z"/>
<g>
	<polygon class="st0" points="84.1,79.2 84.6,79 84.9,78.5 84.9,77.9 67.2,41.1 66.7,40.7 66.1,40.7 61.8,41.9 61.3,42.3 41,77.9 
		40.9,78.5 41.2,79 41.8,79.2 45.7,79.2 46.5,78.7 62.7,50.2 63.2,49.8 63.8,49.8 64.2,50.2 65.4,52.7 65.4,53.5 51.5,77.9 
		51.4,78.5 51.7,79 52.3,79.2 56.2,79.2 57,78.7 67.5,60.2 68,59.8 68.6,59.8 69.1,60.2 77.9,78.7 78.7,79.2 	"/>
	<g>
		<g>
			<path class="st0" d="M216.9,47.3c3.1,0,11.7,1.3,11.7,5.2c0,1.5-1.3,3.6-2.5,4.9h-0.4c0,0-4.1-6.6-10.4-6.6
				c-7.2,0-9.8,8-9.8,14.3c0,8.6,4.8,15.5,12.2,15.5c5.6,0,11.8-4.7,11.8-4.7l0.3,0.3c0,0-3.1,9.8-15.2,9.8c-9.7,0-17.6-8-17.6-18.2
				C197.1,56.6,205.1,47.3,216.9,47.3z"/>
		</g>
		<g>
			<path class="st0" d="M237,58.8c0-6.2-0.5-6.5-3.4-7.4v-3.1c3.1,0,10.1-6.1,11-8.5l1.7,0.6l-1.5,7.9h6c3,0,3.9-0.7,3.9-0.7
				c0.1,0.4,0.1,1.6,0.1,2c0,3.1-1.5,3.7-4.1,3.7c-0.8,0-5.9-0.1-5.9-0.1s-0.2,8.6-0.2,14.1c0,7.2,0.7,13.3,6.3,13.3
				c3.6,0,7.7-3.4,7.7-3.4l0.4,0.3c0,0-2.4,8.4-11.3,8.4c-8.5,0-11-6-11-14.1C236.7,67.1,237,61.6,237,58.8z"/>
		</g>
		<g>
			<path class="st0" d="M281.8,62.3v-0.7c0-6.1-1.4-9.6-7-9.6c-3.6,0-7.4,2-10.1,4.4l-0.3-0.3c1.2-4.4,7.1-8.9,13.5-8.9
				c10.4,0,11.7,6.2,11.7,12.8c0,3.9-0.2,8.7-0.2,12.8v0.9c0,2.8,0.1,8.1,3.6,8.1c1.5,0,2.8-1,2.8-1l0.3,0.2c0,0-1.8,4.5-8.1,4.5
				c-3,0-6.1-1.2-6.2-5.1l-0.3-0.1c-1.7,3.1-5.3,5.6-9.9,5.6c-6.1,0-9.7-4.4-9.7-9.8C262,65.6,273.9,62.5,281.8,62.3z M275.1,80.8
				c2.5,0,6.5-2.3,6.5-5c0-2.9,0.2-6.8,0.2-10.5c-3,0.5-11.6,1.8-11.6,9.5C270.2,79.2,272.6,80.8,275.1,80.8z"/>
		</g>
		<g>
			<path class="st0" d="M301.1,55.9c0-6.8-0.1-13.4-0.4-18.1c-0.4-6.7-1.3-8.2-1.3-8.2l0.2-0.3c4.9,0.1,9.4,0.9,9.4,5.4
				c0,7.4-0.3,15-0.3,22.7c0,6.5,0.1,13.1,0.3,19.5c0.1,2.5,0.7,4.8,3.3,4.8c1.5,0,2.8-1,2.8-1l0.3,0.2c0,0-1.8,4.5-8.1,4.5
				c-3.2,0-6.6-1.5-6.6-6.3C300.8,73.3,301.1,64.4,301.1,55.9z"/>
		</g>
		<g>
			<path class="st0" d="M320.6,67.2c0-16.6-1.7-18.9-1.8-18.9c1.2-0.4,2.4-0.7,3.6-0.7c3.3,0,6.2,1.7,6.2,4.7
				c0,7.7-0.4,16.5-0.4,21.9c0,3.3,0.1,7.6,3.6,7.6c1.5,0,2.8-1,2.8-1l0.3,0.2c0,0-1.8,4.5-8.1,4.5c-3.2,0-6.6-1.5-6.6-5.9
				C320.3,75.5,320.6,71.3,320.6,67.2z M319.5,36.6c0-2.7,2.3-5,4.9-5c2.7,0,5,2.3,5,5c0,2.6-2.3,4.9-5,4.9
				C321.7,41.5,319.5,39.2,319.5,36.6z"/>
		</g>
		<g>
			<path class="st0" d="M357.9,62.3v-0.7c0-6.1-1.4-9.6-7-9.6c-3.6,0-7.4,2-10.1,4.4l-0.3-0.3c1.2-4.4,7.1-8.9,13.5-8.9
				c10.3,0,11.7,6.2,11.7,12.8c0,3.9-0.2,8.7-0.2,12.8v0.9c0,2.8,0.1,8.1,3.6,8.1c1.5,0,2.8-1,2.8-1l0.3,0.2c0,0-1.8,4.5-8.1,4.5
				c-3,0-6.1-1.2-6.2-5.1l-0.3-0.1c-1.7,3.1-5.3,5.6-9.9,5.6c-6.1,0-9.7-4.4-9.7-9.8C338.1,65.6,350,62.5,357.9,62.3z M351.2,80.8
				c2.5,0,6.5-2.3,6.5-5c0-2.9,0.2-6.8,0.2-10.5c-3,0.5-11.6,1.8-11.6,9.5C346.3,79.2,348.7,80.8,351.2,80.8z"/>
		</g>
		<polygon class="st0" points="195.9,85.9 196.7,85.7 197.1,85 197,84.3 173.2,34.9 172.7,34.3 171.9,34.2 166,35.9 165.3,36.4 
			138.1,84.2 138,85 138.4,85.7 139.2,85.9 144.4,85.9 145.4,85.4 167.2,47 167.9,46.5 168.7,46.5 169.3,47.1 170.9,50.4 
			170.9,51.5 152.3,84.2 152.1,85 152.5,85.7 153.3,85.9 158.5,85.9 159.6,85.4 173.7,60.5 174.4,59.9 175.2,60 175.8,60.5 
			187.7,85.3 188.8,85.9 		"/>
	</g>
</g>
</svg>
