<?xml version="1.0" encoding="utf-8"?>
<!-- Generator: Adobe Illustrator 23.0.0, SVG Export Plug-In . SVG Version: 6.00 Build 0)  -->
<svg version="1.1" id="Layer_1" xmlns="http://www.w3.org/2000/svg" xmlns:xlink="http://www.w3.org/1999/xlink" x="0px" y="0px"
	 viewBox="0 0 343.7 99.6" style="enable-background:new 0 0 343.7 99.6;" xml:space="preserve">
<g>
	<path d="M27.4,38.1c-0.8,0-1.7-0.1-2.5-0.3c-4.2-1-8.4-1-12.6,0.2c-4.4,1.3-7.7,3.9-9.5,8.2c-1,2.3-1.3,4.8-1.2,7.3
		c0.2,4,1.7,7.4,4.7,10.2c0.2,0.2,0.4,0.4,0.7,0.7c-0.4,0.3-0.7,0.6-1,0.8c-1.3,1.1-2.5,2.4-3.2,4c-1,2.3-0.9,5.4,1.3,7.3
		c0.2,0.1,0.3,0.3,0.4,0.6c-0.4,0.3-0.6,0.5-0.9,0.7c-1.9,1.4-3.3,3.3-3.7,5.7c-0.6,3.7,0,7.2,2.3,10.2c2.3,2.9,5.4,4.5,8.9,5.3
		c4.1,1,8.2,1,12.4,0.4c2.9-0.4,5.7-1.2,8.3-2.7c5.4-3.4,8-8.2,7.4-14.6c-0.3-3.1-1.9-5.4-4.6-6.8c-1.7-0.9-3.6-1.6-5.6-1.8
		c-3-0.4-6-0.7-9-1c-1.7-0.2-3.4-0.4-5.1-0.7c-0.9-0.2-1.8-0.6-2.5-1.1c-1.3-0.9-1.4-2.4-0.4-3.6c0.3,0.1,0.7,0.1,1,0.2
		c4.1,0.9,8.2,0.9,12.2-0.3c4.7-1.4,8.2-4.3,9.8-9.1c1.2-3.5,1.1-7,0-10.5c-0.1-0.4-0.2-0.8-0.4-1.4c2.3,0,4.5,0,6.7,0
		c0-2.6,0-5,0-7.6c-0.6,0-1,0-1.5,0C35.8,38.1,31.6,38.2,27.4,38.1z M19.7,83.8c3,0,5.6-0.9,8.2-2.3c0.9,5.3-1.1,8.8-5.7,9.7
		c-2.1,0.4-4.2,0.3-6.3-0.3c-2.7-0.8-4.4-2.6-4.7-5.4c-0.1-1.2,0-2.5,0-4C14,83,16.7,83.8,19.7,83.8z M25.4,56.9
		c-0.7,1.4-1.8,2.3-3.2,2.9c-1.8,0.7-3.6,0.9-5.5,0.4c-2.9-0.8-4.6-2.7-5.1-5.7c-0.3-1.4-0.3-2.8,0-4.2c0.6-3.5,3.1-5.7,6.7-5.9
		c0.3,0,0.6,0,0.8,0c4.3,0,7.1,2.8,7.4,7.3C26.6,53.5,26.3,55.2,25.4,56.9z"/>
	<path d="M171.4,69.4c0-18.9,0-37.6,0-56.3c-6,0-11.8,0-17.7,0c0,2.7,0,5.3,0,8.1c2.6,0,4.9,0,7.3,0c0.3,1.4,0.2,17.9,0,18.8
		c-0.2-0.1-0.4-0.2-0.5-0.3c-4-2.5-8.4-3.1-12.9-2.4c-7.3,1.2-12,5.5-14.2,12.5c-1.5,4.8-1.5,9.8-0.4,14.7c0.9,3.7,2.5,6.9,5.3,9.5
		c2.6,2.5,5.7,3.9,9.3,4.3c5.1,0.6,9.6-0.6,13.4-4.1c0.3-0.3,0.6-0.5,1.1-1c0.1,1.6,0.1,2.8,0.2,4.1c5.2,0,10.2,0,15.3,0
		c0-2.7,0.1-5.3-0.1-8C175.3,69.4,173.5,69.4,171.4,69.4z M160.3,67.9c-2.6,2-5.6,2.9-8.9,2.6c-3.6-0.4-5.9-2.4-7.3-5.6
		c-1.2-2.8-1.6-5.7-1.3-8.7c0.1-1.2,0.3-2.5,0.5-3.7c1.2-4.6,4.4-7.3,9.1-7.7c2.8-0.2,5.4,0.5,7.8,1.9c0.6,0.4,0.9,0.8,0.9,1.5
		c0,3,0,6,0,9s0,5.9,0,8.9C161.1,67,160.9,67.5,160.3,67.9z"/>
	<path d="M72.1,38.5c-5.4-2-11-2-16.5-0.3c-6.1,1.9-10,6-11.9,12c-1.5,4.7-1.5,9.5-0.3,14.2c1.6,5.9,5.1,10.3,10.9,12.5
		c5.7,2.2,11.5,2.2,17.3,0.3c5.4-1.8,9.1-5.5,11.1-10.8c1-2.8,1.4-5.6,1.6-8.6c-0.2-1.9-0.3-3.8-0.7-5.7
		C82.1,45.6,78.4,40.8,72.1,38.5z M72.3,64.6c-2.5,6.7-9.8,7.4-14.1,4.7c-1.5-0.9-2.6-2.3-3.4-3.9c-0.9-2-1.4-4.1-1.5-6.4
		c0-2.1-0.1-4.2,0.5-6.3c0.5-1.9,1.3-3.6,2.6-5.1c3.5-4.1,12.9-4.5,15.9,3.3c0.7,2,1.2,4.4,1.2,7.5C73.5,60.1,73.1,62.4,72.3,64.6z"
		/>
	<path d="M115,37.9c-4.6-1.3-9.3-1.2-13.9,0c-6.3,1.7-10.6,5.8-12.7,12c-1.7,5.3-1.7,10.6,0.1,15.9c1.6,4.9,4.8,8.4,9.5,10.6
		c3.2,1.5,6.6,2,10,2.1c1.4-0.1,2.8-0.2,4.2-0.4c1.1-0.1,2.1-0.4,3.2-0.7c5.9-1.8,10-5.5,12.1-11.3c1.8-5.2,1.9-10.4,0.3-15.7
		C125.9,43.9,121.5,39.7,115,37.9z M117,64.6c-1.7,4.4-5.1,6.2-9.1,6.1c-4.6-0.1-7.8-2.6-9.1-7.1c-1.2-4.1-1.2-8.3,0.2-12.4
		c2.3-6.5,10.2-8.6,15.4-4.1c1.8,1.5,2.7,3.6,3.2,5.9c0.3,1.6,0.5,3.2,0.7,4.7C118.2,60.1,117.9,62.4,117,64.6z"/>
	<path d="M337.3,75.4c0-21.5,0-42.8,0-64.5c-1.4,1.4-2.9,2-4.5,2.2c-1.2,0.2-2.4,0.2-3.6,0.2c-2,0-3.9,0-5.9,0
		c-0.4,0-0.8,0.1-1.3,0.1c0,0.7,0,1.3,0,2.1c2.4,0,4.8,0,7.1,0c0.3,1,0.3,29.3,0.1,30.5c-0.1,0-0.2,0-0.2-0.1
		c-0.2-0.3-0.3-0.6-0.5-0.9c-3-5.1-7.2-8-13.3-7.6c-3.9,0.3-7.2,1.8-10,4.5c-6,5.9-8.6,13-6.7,21.4c1.8,7.9,6.6,13.2,14.7,15
		c2.8,0.6,5.6,0.6,8.4-0.4c2.9-1.1,5.2-3,6.9-5.5c0.2-0.3,0.4-0.6,0.7-0.9c0.2,1.1,0.2,2.1,0.2,3.1s-0.2,2,0.1,2.9
		c1.9,0.3,13.4,0.2,14.2-0.1c0-0.6,0-1.2,0-1.9C341.6,75.4,339.5,75.4,337.3,75.4z M329.3,63.6c0,3.7-1.1,7-3.9,9.5
		c-3.7,3.4-8,4.2-12.7,2.8c-2.3-0.7-3.8-2.4-4.5-4.6c-0.5-1.6-0.8-3.2-1-4.8c-0.2-2.7-0.3-5.4-0.4-8.9c0.2-2.5,0.3-5.8,0.7-9.1
		c0.2-1.6,0.7-3.2,1.3-4.7c1.2-2.9,3.6-4.1,6.6-4.3c6-0.4,10.7,3.6,12.7,8.6c0.8,1.9,1.1,3.9,1.1,6
		C329.4,57.3,329.4,60.5,329.3,63.6z"/>
	<path d="M197.9,36.4c0-0.4-0.1-0.7-0.1-0.9c0.1-4.6,0.1-9.1,0.3-13.7c0.1-1.5,0.5-3.1,1-4.6c1.5-4.6,6.4-4.8,9.3-3.2
		c0.5,0.3,1,0.6,1.1,1.4c-0.5,0.1-1.1,0.2-1.5,0.3c-3,0.8-4.5,4.8-2.7,7.4c0.2,0.2,0.4,0.4,0.6,0.6c2,1.7,6.7,1.3,7.4-2.8
		c0.7-4.2-2.1-8.3-6.2-9.2c-2.5-0.5-4.9-0.3-7.3,0.4c-2,0.6-3.6,1.6-5,3.2c-3,3.3-4.3,7.3-4.6,11.7c-0.2,2.7-0.2,5.4-0.2,8.1
		c0,0.4-0.1,0.8-0.1,1.4c-2.8,0-5.5,0-8.2,0c0,0.8,0,1.5,0,2.3c2.8,0,5.5,0,8.3,0c0,0.7,0,1.2,0,1.7c0,10.6,0,21.3,0,31.9
		c0,0.4,0,0.8,0,1.2c-0.1,1-0.3,1.4-1.3,1.6c-0.8,0.2-1.6,0.3-2.5,0.4c-1.5,0.1-3,0.2-4.5,0.3c0,0.5,0,1,0,1.4
		c1.4,0.3,24.1,0.2,25-0.1c0-0.4,0-0.8,0-1.5c-0.7,0-1.3,0-1.9,0c-1.6-0.1-3.3-0.2-4.9-0.5c-1.3-0.2-1.7-0.7-1.8-2
		c0-0.2,0-0.4,0-0.6c0-10.9,0-21.8,0-32.6c0-0.4,0.1-0.8,0.1-1.2c3-0.1,5.8,0,8.7-0.1c0-0.8,0-1.5,0-2.2
		C203.7,36.4,200.8,36.7,197.9,36.4z"/>
	<path d="M281.1,38.3c-3.5-1.5-7.1-2-10.9-1.2c-5.7,1.2-10.3,4.2-13.7,8.9c-4.1,5.7-5.1,11.9-2.6,18.5c2,5.3,5.7,9.2,10.7,11.8
		c3.9,2,8,2.7,12.3,2c5.3-0.9,9.6-3.5,13-7.6c3.2-3.7,5-8,4.9-13c0-2.6-0.4-4.7-1.2-6.8C291.2,45,287,40.8,281.1,38.3z M284.7,67.1
		c-0.4,1.4-0.8,2.8-1.4,4.1c-1.4,3.4-4.1,5.2-7.7,5.4c-1.8,0.1-3.7,0-5.5-0.3c-2.6-0.4-4.4-1.9-5.7-4.2c-1.3-2.4-2.1-5-2.3-7.8
		c-0.2-2.7-0.4-5.3-0.2-8c0.2-3,0.1-6,0.9-8.9c0.3-1.3,0.9-2.6,1.5-3.8c1.3-2.5,3.4-4,6.1-4.5c2.4-0.5,4.8-0.5,7.2,0.2
		c2.4,0.7,4.1,2.2,5.3,4.3c1.3,2.3,1.9,4.8,2.1,7.4c0.2,2.2,0.3,4.5,0.4,6.7C285.6,60.9,285.5,64,284.7,67.1z"/>
	<path d="M235.7,38.3c-4.5-1.9-9-2.1-13.6-0.5c-5,1.8-9,4.9-11.9,9.4c-3.5,5.5-4.1,11.5-1.7,17.5c2.1,5.2,5.7,9.1,10.8,11.6
		c5.2,2.6,10.6,2.9,16,0.9c3.5-1.3,6.4-3.4,8.9-6.2c3.3-3.8,5.3-8.2,5.2-13.8c0.1-2.7-0.7-5.8-2.3-8.6
		C244.6,43.8,240.8,40.4,235.7,38.3z M240.3,58.4c-0.1,3.7-0.2,7.5-1.6,11.1c-0.4,1-0.9,2.1-1.4,3c-1.5,2.5-3.8,3.7-6.6,4
		c-2,0.2-4.1,0.2-6.1-0.3c-2.9-0.7-4.6-2.5-5.9-5.1c-1.1-2.2-1.6-4.6-1.9-7c-0.2-2.1-0.3-4.3-0.4-6.5c0.1-3.4,0.2-6.8,1.1-10.1
		c0.3-1.1,0.7-2.1,1.1-3.2c1.5-3.3,4.1-5.1,7.7-5.5c1.6-0.2,3.3-0.1,4.9,0.2c3.7,0.5,5.9,2.8,7.3,6c1,2.4,1.4,4.9,1.6,7.5
		C240.2,54.5,240.3,56.5,240.3,58.4z"/>
	<path d="M1.9,29.7h40V0h-40C1.9,0,1.9,29.7,1.9,29.7z M27.7,10.1h8.5v8.7h-8.5V10.1z M17.8,10.1h8.5v8.7h-8.5V10.1z M7.9,10.1h8.5
		v8.7H7.9V10.1z"/>
	<path d="M12.9,14.2c0.6-0.3,0.9-0.7,0.9-1.3c0-0.3-0.1-0.6-0.2-0.8c-0.1-0.2-0.4-0.4-0.6-0.6c-0.3-0.1-0.7-0.2-1.2-0.2h-1.6v6.2
		h2.1c0.5,0,0.9-0.1,1.2-0.2c0.3-0.2,0.5-0.4,0.7-0.6s0.2-0.5,0.2-0.8c0-0.4-0.1-0.7-0.4-1C13.7,14.5,13.4,14.3,12.9,14.2z
		 M11.1,12.1h0.8c0.7,0,1.1,0.3,1.1,0.9c0,0.3-0.1,0.5-0.3,0.7s-0.5,0.3-1,0.3h-0.6V12.1z M13.3,16.3c-0.1,0.2-0.2,0.3-0.4,0.4
		s-0.5,0.1-1,0.1H11v-2h0.8c0.4,0,0.8,0,1,0.1s0.4,0.2,0.5,0.4s0.2,0.3,0.2,0.5C13.5,15.9,13.4,16.1,13.3,16.3z"/>
	<path d="M22.8,14.2c0.6-0.3,0.9-0.7,0.9-1.3c0-0.3-0.1-0.6-0.2-0.8s-0.4-0.4-0.6-0.6c-0.3-0.1-0.7-0.2-1.2-0.2h-1.6v6.2h2.1
		c0.5,0,0.9-0.1,1.2-0.2c0.3-0.2,0.5-0.4,0.7-0.6s0.2-0.5,0.2-0.8c0-0.4-0.1-0.7-0.4-1C23.6,14.5,23.3,14.3,22.8,14.2z M21,12.1h0.8
		c0.7,0,1.1,0.3,1.1,0.9c0,0.3-0.1,0.5-0.3,0.7c-0.2,0.2-0.5,0.3-1,0.3H21V12.1z M23.2,16.3c-0.1,0.2-0.2,0.3-0.4,0.4
		c-0.2,0.1-0.5,0.1-1,0.1H21v-2h0.8c0.4,0,0.8,0,1,0.1s0.4,0.2,0.5,0.4s0.2,0.3,0.2,0.5C23.4,15.9,23.3,16.1,23.2,16.3z"/>
	<path d="M30.6,16.1c-0.5-0.4-0.7-1-0.7-1.7s0.2-1.2,0.7-1.7c0.5-0.4,1-0.7,1.7-0.7c0.7,0,1.4,0.2,2.1,0.6v-1
		c-0.8-0.3-1.5-0.5-2.1-0.5c-0.9,0-1.7,0.3-2.3,0.9c-0.6,0.6-0.9,1.4-0.9,2.3c0,0.6,0.1,1.1,0.4,1.6s0.7,0.9,1.1,1.1
		c0.5,0.3,1.1,0.4,1.7,0.4c0.8,0,1.6-0.2,2.2-0.5v-1c-0.7,0.5-1.4,0.7-2.2,0.7C31.6,16.8,31,16.5,30.6,16.1z"/>
</g>
</svg>
