<svg xmlns="http://www.w3.org/2000/svg" viewBox="0 0 343.7 99.6" style="enable-background:new 0 0 343.7 99.6" xml:space="preserve"><path d="M27.4 38.1c-.8 0-1.7-.1-2.5-.3-4.2-1-8.4-1-12.6.2-4.4 1.3-7.7 3.9-9.5 8.2-1 2.3-1.3 4.8-1.2 7.3.2 4 1.7 7.4 4.7 10.2l.7.7c-.4.3-.7.6-1 .8-1.3 1.1-2.5 2.4-3.2 4-1 2.3-.9 5.4 1.3 7.3.2.1.3.3.4.6-.4.3-.6.5-.9.7-1.9 1.4-3.3 3.3-3.7 5.7-.6 3.7 0 7.2 2.3 10.2 2.3 2.9 5.4 4.5 8.9 5.3 4.1 1 8.2 1 12.4.4 2.9-.4 5.7-1.2 8.3-2.7 5.4-3.4 8-8.2 7.4-14.6-.3-3.1-1.9-5.4-4.6-6.8-1.7-.9-3.6-1.6-5.6-1.8-3-.4-6-.7-9-1-1.7-.2-3.4-.4-5.1-.7-.9-.2-1.8-.6-2.5-1.1-1.3-.9-1.4-2.4-.4-3.6.3.1.7.1 1 .2 4.1.9 8.2.9 12.2-.3 4.7-1.4 8.2-4.3 9.8-9.1 1.2-3.5 1.1-7 0-10.5-.1-.4-.2-.8-.4-1.4h6.7v-7.6h-1.5c-4-.3-8.2-.2-12.4-.3zm-7.7 45.7c3 0 5.6-.9 8.2-2.3.9 5.3-1.1 8.8-5.7 9.7-2.1.4-4.2.3-6.3-.3-2.7-.8-4.4-2.6-4.7-5.4-.1-1.2 0-2.5 0-4 2.8 1.5 5.5 2.3 8.5 2.3zm5.7-26.9c-.7 1.4-1.8 2.3-3.2 2.9-1.8.7-3.6.9-5.5.4-2.9-.8-4.6-2.7-5.1-5.7-.3-1.4-.3-2.8 0-4.2.6-3.5 3.1-5.7 6.7-5.9h.8c4.3 0 7.1 2.8 7.4 7.3.1 1.8-.2 3.5-1.1 5.2zM171.4 69.4V13.1h-17.7v8.1h7.3c.3 1.4.2 17.9 0 18.8-.2-.1-.4-.2-.5-.3-4-2.5-8.4-3.1-12.9-2.4-7.3 1.2-12 5.5-14.2 12.5-1.5 4.8-1.5 9.8-.4 14.7.9 3.7 2.5 6.9 5.3 9.5 2.6 2.5 5.7 3.9 9.3 4.3 5.1.6 9.6-.6 13.4-4.1.3-.3.6-.5 1.1-1 .1 1.6.1 2.8.2 4.1h15.3c0-2.7.1-5.3-.1-8-2.2.1-4 .1-6.1.1zm-11.1-1.5c-2.6 2-5.6 2.9-8.9 2.6-3.6-.4-5.9-2.4-7.3-5.6-1.2-2.8-1.6-5.7-1.3-8.7.1-1.2.3-2.5.5-3.7 1.2-4.6 4.4-7.3 9.1-7.7 2.8-.2 5.4.5 7.8 1.9.6.4.9.8.9 1.5v17.9c0 .9-.2 1.4-.8 1.8zM72.1 38.5c-5.4-2-11-2-16.5-.3-6.1 1.9-10 6-11.9 12-1.5 4.7-1.5 9.5-.3 14.2 1.6 5.9 5.1 10.3 10.9 12.5 5.7 2.2 11.5 2.2 17.3.3 5.4-1.8 9.1-5.5 11.1-10.8 1-2.8 1.4-5.6 1.6-8.6-.2-1.9-.3-3.8-.7-5.7-1.5-6.5-5.2-11.3-11.5-13.6zm.2 26.1c-2.5 6.7-9.8 7.4-14.1 4.7-1.5-.9-2.6-2.3-3.4-3.9-.9-2-1.4-4.1-1.5-6.4 0-2.1-.1-4.2.5-6.3.5-1.9 1.3-3.6 2.6-5.1 3.5-4.1 12.9-4.5 15.9 3.3.7 2 1.2 4.4 1.2 7.5 0 1.7-.4 4-1.2 6.2zM115 37.9c-4.6-1.3-9.3-1.2-13.9 0-6.3 1.7-10.6 5.8-12.7 12-1.7 5.3-1.7 10.6.1 15.9 1.6 4.9 4.8 8.4 9.5 10.6 3.2 1.5 6.6 2 10 2.1 1.4-.1 2.8-.2 4.2-.4 1.1-.1 2.1-.4 3.2-.7 5.9-1.8 10-5.5 12.1-11.3 1.8-5.2 1.9-10.4.3-15.7-1.9-6.5-6.3-10.7-12.8-12.5zm2 26.7c-1.7 4.4-5.1 6.2-9.1 6.1-4.6-.1-7.8-2.6-9.1-7.1-1.2-4.1-1.2-8.3.2-12.4 2.3-6.5 10.2-8.6 15.4-4.1 1.8 1.5 2.7 3.6 3.2 5.9.3 1.6.5 3.2.7 4.7-.1 2.4-.4 4.7-1.3 6.9zM337.3 75.4V10.9c-1.4 1.4-2.9 2-4.5 2.2-1.2.2-2.4.2-3.6.2h-5.9c-.4 0-.8.1-1.3.1v2.1h7.1c.3 1 .3 29.3.1 30.5-.1 0-.2 0-.2-.1-.2-.3-.3-.6-.5-.9-3-5.1-7.2-8-13.3-7.6-3.9.3-7.2 1.8-10 4.5-6 5.9-8.6 13-6.7 21.4 1.8 7.9 6.6 13.2 14.7 15 2.8.6 5.6.6 8.4-.4 2.9-1.1 5.2-3 6.9-5.5.2-.3.4-.6.7-.9.2 1.1.2 2.1.2 3.1s-.2 2 .1 2.9c1.9.3 13.4.2 14.2-.1v-1.9c-2.1-.1-4.2-.1-6.4-.1zm-8-11.8c0 3.7-1.1 7-3.9 9.5-3.7 3.4-8 4.2-12.7 2.8-2.3-.7-3.8-2.4-4.5-4.6-.5-1.6-.8-3.2-1-4.8-.2-2.7-.3-5.4-.4-8.9.2-2.5.3-5.8.7-9.1.2-1.6.7-3.2 1.3-4.7 1.2-2.9 3.6-4.1 6.6-4.3 6-.4 10.7 3.6 12.7 8.6.8 1.9 1.1 3.9 1.1 6 .2 3.2.2 6.4.1 9.5zM197.9 36.4c0-.4-.1-.7-.1-.9.1-4.6.1-9.1.3-13.7.1-1.5.5-3.1 1-4.6 1.5-4.6 6.4-4.8 9.3-3.2.5.3 1 .6 1.1 1.4-.5.1-1.1.2-1.5.3-3 .8-4.5 4.8-2.7 7.4l.6.6c2 1.7 6.7 1.3 7.4-2.8.7-4.2-2.1-8.3-6.2-9.2-2.5-.5-4.9-.3-7.3.4-2 .6-3.6 1.6-5 3.2-3 3.3-4.3 7.3-4.6 11.7-.2 2.7-.2 5.4-.2 8.1 0 .4-.1.8-.1 1.4h-8.2v2.3h8.3V73.6c-.1 1-.3 1.4-1.3 1.6-.8.2-1.6.3-2.5.4l-4.5.3v1.4c1.4.3 24.1.2 25-.1v-1.5h-1.9c-1.6-.1-3.3-.2-4.9-.5-1.3-.2-1.7-.7-1.8-2V40c0-.4.1-.8.1-1.2 3-.1 5.8 0 8.7-.1v-2.2c-3.2-.1-6.1.2-9-.1zM281.1 38.3c-3.5-1.5-7.1-2-10.9-1.2-5.7 1.2-10.3 4.2-13.7 8.9-4.1 5.7-5.1 11.9-2.6 18.5 2 5.3 5.7 9.2 10.7 11.8 3.9 2 8 2.7 12.3 2 5.3-.9 9.6-3.5 13-7.6 3.2-3.7 5-8 4.9-13 0-2.6-.4-4.7-1.2-6.8-2.4-5.9-6.6-10.1-12.5-12.6zm3.6 28.8c-.4 1.4-.8 2.8-1.4 4.1-1.4 3.4-4.1 5.2-7.7 5.4-1.8.1-3.7 0-5.5-.3-2.6-.4-4.4-1.9-5.7-4.2-1.3-2.4-2.1-5-2.3-7.8-.2-2.7-.4-5.3-.2-8 .2-3 .1-6 .9-8.9.3-1.3.9-2.6 1.5-3.8 1.3-2.5 3.4-4 6.1-4.5 2.4-.5 4.8-.5 7.2.2 2.4.7 4.1 2.2 5.3 4.3 1.3 2.3 1.9 4.8 2.1 7.4.2 2.2.3 4.5.4 6.7.2 3.2.1 6.3-.7 9.4z"/><path d="M235.7 38.3c-4.5-1.9-9-2.1-13.6-.5-5 1.8-9 4.9-11.9 9.4-3.5 5.5-4.1 11.5-1.7 17.5 2.1 5.2 5.7 9.1 10.8 11.6 5.2 2.6 10.6 2.9 16 .9 3.5-1.3 6.4-3.4 8.9-6.2 3.3-3.8 5.3-8.2 5.2-13.8.1-2.7-.7-5.8-2.3-8.6-2.5-4.8-6.3-8.2-11.4-10.3zm4.6 20.1c-.1 3.7-.2 7.5-1.6 11.1-.4 1-.9 2.1-1.4 3-1.5 2.5-3.8 3.7-6.6 4-2 .2-4.1.2-6.1-.3-2.9-.7-4.6-2.5-5.9-5.1-1.1-2.2-1.6-4.6-1.9-7-.2-2.1-.3-4.3-.4-6.5.1-3.4.2-6.8 1.1-10.1.3-1.1.7-2.1 1.1-3.2 1.5-3.3 4.1-5.1 7.7-5.5 1.6-.2 3.3-.1 4.9.2 3.7.5 5.9 2.8 7.3 6 1 2.4 1.4 4.9 1.6 7.5.1 2 .2 4 .2 5.9zM1.9 29.7h40V0h-40v29.7zm25.8-19.6h8.5v8.7h-8.5v-8.7zm-9.9 0h8.5v8.7h-8.5v-8.7zm-9.9 0h8.5v8.7H7.9v-8.7z"/><path d="M12.9 14.2c.6-.3.9-.7.9-1.3 0-.3-.1-.6-.2-.8-.1-.2-.4-.4-.6-.6-.3-.1-.7-.2-1.2-.2h-1.6v6.2h2.1c.5 0 .9-.1 1.2-.2.3-.2.5-.4.7-.6s.2-.5.2-.8c0-.4-.1-.7-.4-1-.3-.4-.6-.6-1.1-.7zm-1.8-2.1h.8c.7 0 1.1.3 1.1.9 0 .3-.1.5-.3.7s-.5.3-1 .3h-.6v-1.9zm2.2 4.2c-.1.2-.2.3-.4.4s-.5.1-1 .1H11v-2h.8c.4 0 .8 0 1 .1s.4.2.5.4.2.3.2.5c0 .1-.1.3-.2.5zM22.8 14.2c.6-.3.9-.7.9-1.3 0-.3-.1-.6-.2-.8s-.4-.4-.6-.6c-.3-.1-.7-.2-1.2-.2h-1.6v6.2h2.1c.5 0 .9-.1 1.2-.2.3-.2.5-.4.7-.6s.2-.5.2-.8c0-.4-.1-.7-.4-1-.3-.4-.6-.6-1.1-.7zM21 12.1h.8c.7 0 1.1.3 1.1.9 0 .3-.1.5-.3.7-.2.2-.5.3-1 .3H21v-1.9zm2.2 4.2c-.1.2-.2.3-.4.4-.2.1-.5.1-1 .1H21v-2h.8c.4 0 .8 0 1 .1s.4.2.5.4.2.3.2.5c-.1.1-.2.3-.3.5zM30.6 16.1c-.5-.4-.7-1-.7-1.7s.2-1.2.7-1.7c.5-.4 1-.7 1.7-.7s1.4.2 2.1.6v-1c-.8-.3-1.5-.5-2.1-.5-.9 0-1.7.3-2.3.9-.6.6-.9 1.4-.9 2.3 0 .6.1 1.1.4 1.6s.7.9 1.1 1.1c.5.3 1.1.4 1.7.4.8 0 1.6-.2 2.2-.5v-1c-.7.5-1.4.7-2.2.7-.7.2-1.3-.1-1.7-.5z"/></svg>