<?xml version="1.0" encoding="utf-8"?>
<!-- Generator: Adobe Illustrator 23.0.0, SVG Export Plug-In . SVG Version: 6.00 Build 0)  -->
<svg version="1.1" id="Layer_1" xmlns="http://www.w3.org/2000/svg" xmlns:xlink="http://www.w3.org/1999/xlink" x="0px" y="0px"
	 viewBox="0 0 560.9 141.5" style="enable-background:new 0 0 560.9 141.5;" xml:space="preserve">
<style type="text/css">
	.st0{fill:#EDDCB2;}
</style>
<title>bokan-logo</title>
<g>
	<g id="Layer_1-2">
		<path class="st0" d="M84,92.7c-3.9-5.1-9.3-8.8-15.5-10.5c5.1-2.2,9.4-6,12.1-10.8c2.8-4.7,4.3-10.2,4.3-15.7
			c0-3.6-0.6-7.2-1.9-10.5c-1.2-3.4-2.9-6.5-5.2-9.3c-2.3-2.7-5.1-5-8.2-6.7c-3.3-1.7-7-2.6-10.8-2.6H18.3v15.6h33.8
			c4.1-0.1,8,1.6,10.6,4.7c2.9,3.4,4.4,7.7,4.2,12.1c0,2.3-0.4,4.6-1.2,6.8c-0.8,1.9-1.9,3.7-3.4,5.2c-1.4,1.4-3.1,2.6-5,3.5
			c-1.9,0.9-4.1,1.3-6.2,1.3H18.3v14.5h37.3c2.2,0,4.3,0.5,6.3,1.5c1.9,0.9,3.6,2.2,4.9,3.9c1.4,1.7,2.5,3.6,3.2,5.6
			c0.8,2.2,1.2,4.4,1.2,6.8c0,2.3-0.4,4.6-1.3,6.7c-0.8,2-2,3.9-3.5,5.5c-1.5,1.6-3.3,2.8-5.3,3.7c-2.1,0.9-4.3,1.4-6.6,1.4H18.3
			v15.6h36.2c4.6,0,9.2-0.6,13.7-2c4.1-1.2,7.8-3.2,11.2-5.8c3.1-2.5,5.7-5.7,7.6-9.2c1.9-3.8,2.9-8.1,2.8-12.4
			C89.7,104,87.8,97.8,84,92.7L84,92.7z M0,26.6h14.7v114.1H0V26.6z M393.9,23.7l-53.2,116.6H360l33.7-73.6l26.4,57.5h-48l-7.2,16
			h81.5L393.9,23.7z M463.3,140.3h18V66.4l-18-23.1V140.3z M542.7,26.8v82.1l-65.3-82.3h-14.1v10.9l82.3,102.9h15.3V26.8H542.7z
			 M138.4,0H186v15.8h-47.6V0z M147.4,121.8c-4.4-2.2-8.3-5.4-11.5-9.2c-3.2-4-5.7-8.5-7.3-13.3c-3.4-10-3.4-20.8-0.1-30.8
			c1.6-4.8,4-9.3,7.2-13.3c3.1-3.9,7-7.1,11.4-9.4c4-2.1,8.3-3.3,12.8-3.5V25.9c-6.6,0.3-13.1,1.9-19.2,4.7
			c-6.6,3.1-12.5,7.4-17.4,12.8c-4.9,5.4-8.8,11.7-11.5,18.5c-2.8,7-4.2,14.4-4.2,21.9c0,7.3,1.3,14.5,3.9,21.3
			c2.5,6.8,6.3,13.1,11.2,18.6c4.9,5.4,10.7,9.8,17.3,13c6.2,3,12.9,4.6,19.8,4.8v-16.3C155.5,124.9,151.3,123.8,147.4,121.8
			L147.4,121.8z M213.2,62.7c-2.6-6.8-6.3-13.1-11.1-18.6c-4.8-5.5-10.7-10-17.2-13.3c-6.5-3.2-13.7-4.9-20.9-5v16.4
			c4.7,0.1,9.2,1.3,13.4,3.4c4.4,2.3,8.3,5.4,11.4,9.2c3.2,3.9,5.7,8.4,7.3,13.2c1.7,5,2.6,10.3,2.6,15.7c0,5.1-0.8,10.2-2.4,15.1
			c-1.6,4.8-3.9,9.3-7.1,13.3c-3.1,3.9-6.9,7.2-11.3,9.6c-4.3,2.2-9,3.5-13.9,3.6v16.2c7-0.1,13.8-1.7,20.1-4.7
			c6.6-3.1,12.5-7.4,17.4-12.7c4.9-5.4,8.8-11.6,11.4-18.4C218.4,91.9,218.5,76.5,213.2,62.7L213.2,62.7z M260.2,66.6v-40h-18v68.8
			l18-22.7V66.6z M304.4,140.3h21L283.9,77l39.4-50.4h-20.9l-60.2,75.3v38.4h18v-35.6l11.3-14.2L304.4,140.3z"/>
	</g>
</g>
</svg>
