<svg xmlns="http://www.w3.org/2000/svg" viewBox="0 0 343.7 210" style="enable-background:new 0 0 343.7 210" xml:space="preserve"><path d="M0 128.9c.2-.4.5-.7.5-1.1.2-5.2.3-10.4.5-15.7.1-1.5.8-2.1 2.3-2.1 7.1.1 14.1.1 21.2.2.9 0 1.3.4 1.4 1.2 2.7 13.5 5.4 27 8.2 40.5.2 1.1.5 2.3.7 3.4h.4c.2-.9.4-1.7.6-2.6 1-5.5 1.9-11 2.8-16.5 1-5.6 2-11.1 3-16.7.5-2.7.9-5.3 1.4-8 .2-1.3 1.1-1.9 2.4-1.8 1.7.1 3.5.1 5.3.1 5 0 10.1-.1 15.1-.1 1.2 0 1.7.6 1.7 2v23c0 1-.2 1.9-.2 2.9v6c.1 4.8.1 9.7.2 14.5l.3 18.8c.1 4.6.2 9.2.2 13.7 0 5.5-.1 10.9-.1 16.4 0 1-.4 1.4-1.4 1.4-3.8.1-7.6.3-11.4.5-3.1.2-3.4-.1-3.4-3.3-.1-7.4-.1-14.8-.3-22.2-.1-4.4-.3-8.9-.4-13.3-.1-3.1 0-6.3-.3-9.6-.3.4-.7.9-.8 1.3-.8 5.3-1.6 10.6-2.4 15.8-.4 2.9-.8 5.8-1.3 8.6-.8 5.5-1.7 10.9-2.6 16.4-.3 1.6-.7 3.3-1.1 4.9-.1.7-.5 1-1.3 1-4.6.1-9.3.2-13.9.2-1.6 0-2.1-.4-2.4-2-.9-5.3-1.7-10.7-2.6-16.1-1.1-6.8-2.1-13.7-3.3-20.5-.4-2.3-1-4.7-1.5-7-.1-.3-.3-.6-.4-1h-.4c-.1.7-.3 1.5-.3 2.2v40.3c0 .9-.1 1.8 0 2.6 0 .7-.3 1.1-.9 1.3-.5.1-1 .3-1.5.3-4.1-.1-8.1-.1-12.2-.2-1 0-1.4-.9-1.4-1.6 0-2.4.1-4.9.1-7.3.1-2.2.2-4.4.2-6.5 0-9.4-.1-18.8-.2-28.2-.1-5.7-.2-11.3-.2-17 0-1.1.2-2.2.3-3.3 0-.2.1-.3.1-.5-.7-4.3.1-8.7-.2-13-.1-.7-.4-1.4-.5-2.3 0 .3 0 .1 0 0zM0 56.4c.2-.4.5-.9.5-1.3 0-1.4-.2-2.9-.2-4.3 0-5-.1-10.1.2-15.1.2-3.4.3-6.7.3-10.1 0-2.5-.2-5-.2-7.5 0-4.5.1-9.1.3-13.6 0-.5.9-1 1.4-1.5.1-.1.2 0 .4 0 5-.1 10-.2 15-.2 3.8 0 7.6.1 11.4.2 8.8.4 13.3 7.4 14.3 13.5.4 2.6-.1 5.4-.1 8.1-.1 3.4-.2 6.8-.2 10.2 0 2.8.2 5.5 0 8.3-.3 3.8-2.4 6.7-5.5 8.9-.5.4-1.1.8-1.8 1.2.4.3.7.5.9.7 1.2.8 2.4 1.5 3.5 2.4 2 1.6 2.8 3.7 2.8 6.2-.1 7.4-.1 14.9-.1 22.3 0 7.5-5.4 14.6-12.5 16.7-1.4.4-2.8.6-4.2.6-3.4 0-6.7-.1-10.1-.2-1 0-2 .3-3 .4l-6.6.3c-1.2 0-2.5-.1-3.7-.1-1.6.1-2.5-.6-2.5-2.3.1-9.6.2-19.1.2-28.7 0-.7-.3-1.3-.5-2V69c.1-.3.3-.7.3-1 .1-3.3.2-6.5.2-9.8 0-.6-.3-1.1-.5-1.8 0 .2 0 .1 0 0zm26.7 16.1c-.2-1.3-.4-3.6-.8-5.9-.8-3.8-3.2-5.8-6.4-5.8-1 0-1.5.5-1.6 1.4-.1 1-.1 2-.2 3-.1 6.5-.1 13-.2 19.5 0 .9.7 1.8 1.7 1.6 1.3-.2 2.7-.6 3.9-1.2.7-.3 1.6-1 1.8-1.8 1.2-3.1 1.8-6.4 1.8-10.8zm-9.4-36.8c.1 2.8.2 5 .4 7.1 0 .4.6 1.1 1 1.1 2.8.5 6.2-1.9 6.7-4.8.4-2.2.8-4.3.9-6.5.1-2 .1-4 0-6-.3-3.8-2.8-6.9-6.2-7.6-1.3-.3-1.9 0-2.2 1.3-.3 1.2-.4 2.5-.4 3.8 0 1.8.3 3.7.3 5.5 0 2.3-.3 4.5-.5 6.1zM271.9 0c1.7.3 3.5.6 5.2 1 7.8 1.9 12.7 6.8 14.9 14.4.5 1.6.6 3.4.6 5.1.2 4.1.4 8.1.5 12.2.1 1.9-.2 2-2.1 2.1-4.3.1-8.6.3-12.9.4-2 .1-2.1-.1-2.1-2-.1-3.5-.3-7-.5-10.5-.1-1.9-2.5-3.9-4.6-3.9-1.9-.1-3.8 1.7-3.9 4-.2 5.4-.2 10.9-.3 16.3 0 3.1-.1 6.2-.1 9.4 0 3.6.2 7.2-.2 10.7-.4 3.4.6 6.6.5 10 0 1.1-.3 2.3-.5 3.4 0 .3-.2.6-.1.8.2 4 .5 8 .7 11.9v.1c.6 2.9 2.1 4.3 4.4 4 2.6-.2 4.8-2.6 4.9-5.1l.3-12.9c0-.6-.1-1.4-.5-1.8-.3-.3-1-.2-1.6-.3h-.2c-3.1-.2-3.1-.2-3.1-3.3 0-3.6-.1-7.1-.1-10.7 0-1.7.1-1.8 1.7-1.9 1.5-.1 3.1-.1 4.7-.1h11.3c.8 0 1.6-.1 2.4-.2 1.5-.2 2 .3 2 1.7v11.8c0 4.9.2 9.7.2 14.6.1 6.7.2 13.4.2 20.1 0 1.2-.5 1.7-1.8 1.7-1.9 0-3.6-.5-4.9-1.8-.9-.8-1.8-1.8-2.5-2.7-.6-.8-1.2-.7-1.8-.2-.3.2-.6.5-.8.7-3.6 3.9-8.2 5.3-13.2 5.3-9.4-.1-17.6-7.4-18.6-16.8-.4-3.9-.2-7.9-.3-11.8-.1-7.9-.2-15.8-.2-23.7 0-3.1 0-6.1-.1-9.2-.1-3.3 0-6.6-.5-9.8-.7-4.2-.5-8.3-.1-12.5.8-9.3 7.1-18 16.8-19.9.6-.1 1.2-.3 1.8-.4 1.5-.2 3-.2 4.5-.2zM115.4 210l-2.1-.3c-3-.2-6-.3-8.9-.5-1-.1-1.3-.6-1.4-1.6-.3-1.7-.8-3.3-1.2-4.9 0-.2-.1-.4-.1-.6-.6-3.7-1.1-7.4-1.7-11.1-.1-.4-.4-.7-.6-1-.1.1-.3.1-.4.2.1 1.1.1 2.1.2 3.3h-2.9c-1.4 0-2.9-.1-4.3-.1-1.4-.1-1.8.4-1.9 1.8-.1 1.5-.5 3-.7 4.5-.3 2.1-.5 4.3-.7 6.4-.3 2.5-1.2 3.2-3.7 3.3-3.7.2-7.3-.5-10.9-.7-.8 0-.8-.5-.8-1 .2-2.7.3-5.5.6-8.2.3-2.5.9-4.9 1.2-7.4.3-2.4.2-4.8.6-7.2.8-5.8 1.8-11.6 2.7-17.5.4-2.6.5-5.2.9-7.8.6-4.3 1.5-8.6 2.1-12.9.7-4.9 1.2-9.8 1.8-14.7.1-.4.4-.8.5-1.3.2-.5.5-1.1.4-1.5-.2-.8.1-1.2.6-1.6.7-.6 1.3-1.2 1.9-1.8-.1-.2-.2-.3-.3-.3-1.8-.7-1.9-1-1.6-3 .6-3.3 1-6.5 1.6-9.8.4-2.5 1.1-2.9 3.5-2.9 3.9.1 7.8 0 11.6.1 1.2 0 2.3.2 3.5.1s1.8.5 2 1.6c.3 1.9.6 3.8.8 5.7.6 4.4 1.3 8.7 1.9 13.1.1 1 .3 2 .4 3 0 .1 0 .3-.1.3-1.2 2-.3 4.1 0 6.1.9 6.9 2 13.7 3 20.6.9 5.7 1.7 11.4 2.6 17.1 1.1 7.1 2.2 14.3 3.2 21.4.5 3.2.8 6.4 1.2 9.6.1.5-.3 1-.4 1.6-1.5-.1-2.8-.1-4.1-.1zm-16.5-22c.2 0 .3-.1.5-.1-.1-.8-.1-1.7-.2-2.5-.3-1.9-.7-3.8-1-5.7-.2-1-.2-2-.2-3 0-.9.2-1.7.1-2.6-.2-1.9-.6-3.7-.9-5.5-.3-1.5.1-3.1-1-4.4-.1-.1.1-.5.1-.7-.1-.9-.2-1.7-.3-2.6h-.4c-.2.7-.4 1.3-.6 2-.6 3.3-1.2 6.7-1.7 10-.2 1.3-.9 2.6.5 3.7.1.1.1.4.1.6.1-.1.2-.2.2-.3.5.3.9.5 1.4.8.3.2.6.3.8.4.3.3.8.5.9.9.5 2.7 1 5.3 1.4 8 0 .4.2.7.3 1zM282.5 210c-1.3-.5-1.6-1.4-1.6-2.8.1-18.6 0-37.3 0-55.9v-25c0-1.7 0-1.7-1.8-1.7h-6.5c-1.7-.1-2-.4-2-2.1 0-3.2-.1-6.4 0-9.6 0-.9.1-1.9.7-2.5s1.7-1 2.6-1c4.8 0 9.6.3 14.3.4 5.3.1 10.6.2 15.9.2 1.5 0 1.8.3 1.8 1.8V122.6c.2 2.3.2 2.3-2.2 2.4-2 0-4.1.2-6.1.2-.9 0-1.2.4-1.2 1.3v1.2c0 9.3 0 18.6-.1 27.9-.1 8.9-.2 17.7-.2 26.6-.1 8.6-.1 17.2-.2 25.7 0 .7-.6 1.4-.9 2.1h-12.5zM93.5 27.7c0 2-.1 4.1 0 6.1.1 2.2.4 4.4.4 6.7.1 13.8.1 27.5.1 41.3 0 5.8-1.9 11.1-5.1 15.8-2.2 3.3-5.5 5.1-9.2 6.2-5.2 1.5-10.3 1.5-15.4-.3-7.6-2.6-11.7-8.3-13.5-15.9-.7-3-1-6.2-1-9.2-.1-13.8 0-27.5-.1-41.3 0-4.6-.2-9.3-.2-13.9 0-4.4.8-8.7 3.1-12.5C56.2 4.6 61.7 1.4 68.7.6c3.3-.4 6.7-.5 10 .4 8 2.2 12.6 7.5 14.4 15.4.4 1.7.4 3.4.5 5.1 0 2.1-.1 4.1-.1 6.2zm-17.3 13V23c0-2.3-.8-4-2.8-5.2s-4-.8-5.4 1.1c-1.1 1.5-1.5 3.2-1.5 5 0 6 .1 11.9.2 17.9.1 6.7-.1 13.4.4 20.1.4 6.2.1 12.5.1 18.7 0 2.6.8 4.8 2.9 6.4.5.4 1.3.8 1.9.8 2.5-.2 4.5-2.4 4.4-5 0-4.4-.2-8.9-.2-13.3V40.7zM148.9 56.4V34c0-3.7-.3-7.4-.2-11.1.1-4.9 1.1-9.6 4-13.7 3.7-5.2 8.8-7.9 15.1-8.6 3.6-.4 7.3-.5 10.8.6 8 2.5 12.3 8.2 13.8 16.2.3 1.4.2 2.8.3 4.2 0 4.6-.2 9.1.1 13.7 1 15.5.2 31 .4 46.5.1 5.9-1.9 11.3-5.3 16.1-1.8 2.6-4.4 4.2-7.3 5.3-5.7 2.2-11.6 2.3-17.3.2-7.6-2.6-11.6-8.4-13.3-16-.7-2.9-.9-6-1-9-.2-7.3-.1-14.6-.1-22zm26.4-16.2V22.9c0-2.5-.8-4.2-3-5.4-1.8-1-3.8-.8-4.9.9-.8 1.2-1.5 2.7-1.6 4-.2 6.1-.1 12.3-.1 18.4.1 7-.1 14 .4 20.9.4 6.1.1 12.2.1 18.3 0 2.5.7 4.7 2.7 6.4.5.4 1.2.9 1.9 1 2.1.2 4.6-2.2 4.6-4.4V64.9c0-2.5-.2-5.1-.2-7.6.1-5.6.1-11.3.1-17.1zM136.6 51.7c.8.7 1.5 1.2 2.2 1.8 2.5 2.2 3.7 5 3.7 8.4.1 7.9.1 15.7.2 23.6 0 3.1 0 6.1.5 9.1.3 2 1.5 3.9 2.4 5.8.7 1.5.4 1.9-1.2 1.9h-9.2c-1.5 0-3 0-4.4-.3-1-.2-2.1-.9-2.8-1.6-1.3-1.3-1.9-3-1.9-4.8-.2-7.9-.2-15.7-.3-23.6 0-2.1.3-4.3.2-6.4-.2-3.8-3.4-6.5-7.2-6.4-.9 0-1.1.4-1.1 1.2-.1 2.7-.2 5.3-.2 8v29.9c0 .6.1 1.2.1 1.8.2 1.5-.3 2.3-1.8 2.3-3 0-6-.2-9-.3-.6 0-1.3-.1-1.9-.1-2.5-.1-3.6-1.1-3.6-3.6l-.3-19.8c-.1-3.6-.2-7.1-.2-10.7 0-2.5.3-4.9.2-7.4-.1-5-.4-9.9-.4-14.8-.1-5.5 0-11-.1-16.5 0-4.2-.2-8.3-.2-12.5V3.5c0-1 .3-1.5 1.3-1.5 7.5 0 15-.1 22.4 0 3.3.1 6.5.7 9.5 2.3 4.9 2.5 7.4 6.6 8 12.1.8 7.8.6 15.6.7 23.5 0 1.3-.1 2.6-.3 3.9-.3 2.5-1.6 4.5-3.4 6.1-.6.6-1.2 1.2-1.9 1.8zm-19.3-17.8v8.3c0 1.2.5 1.9 1.7 2 .5 0 1-.1 1.5-.2 3.1-.8 5.1-3.3 5.1-6.5v-4.4c0-2.5.2-5.1.2-7.6-.1-4.6-3-7.6-7.2-7.6-1.1 0-1.4.3-1.3 1.4v14.6zM160.2 158.8c1 .9 2 1.7 2.9 2.6 1.9 1.9 2.9 4.3 2.9 7 .1 6.5.2 13 .2 19.5v10c0 2.5.5 4.8 1.6 7 .4.8.9 1.5 1.2 2.4.2.6.3 1.2.4 1.8-.6.1-1.1.3-1.7.3-1.3 0-2.5 0-3.8-.1-3.2-.1-6.4-.1-9.7-.2-1.4 0-2.3-.9-3-1.9-1.1-1.5-1.6-3.3-1.6-5.2-.1-5.8-.2-11.7-.2-17.5 0-3.4.3-6.8.4-10.2.2-4.9-3-8.2-7.3-8-.8 0-1.1.3-1.1 1-.1 1.8-.3 3.6-.3 5.4 0 10.9 0 21.8.1 32.6 0 .7.1 1.4.1 2.1.1 1.1-.4 1.8-1.6 1.8-2.6 0-5.2 0-7.8-.1-1.5 0-2.9-.2-4.4-.4-1.3-.1-2.3-.9-2.4-2.2-.3-2.2-.5-4.4-.5-6.6-.1-6.4 0-12.8-.1-19.2 0-1.6-.2-3.1-.1-4.7.1-2.5.3-5 .4-7.5 0-1.2-.2-2.3-.2-3.5-.1-5.2-.2-10.5-.2-15.7-.1-5.6-.2-11.3-.2-16.9v-11.6c0-3.5-.1-7-.2-10.4 0-1.2.4-1.5 1.5-1.5 7.6 0 15.3-.1 22.9.1 5.5.2 10.5 1.9 14.1 6.5 2 2.6 2.6 5.7 2.8 8.9.1 1.9.3 3.9.3 5.8.2 5.4.3 10.8.4 16.2 0 1.3-.1 2.7-.3 4.1-.4 3-2.1 5.3-4.4 7.1-.3.2-.6.4-.8.7-.2.3-.2.4-.3.5zm-19.4-17.9v8.3c0 1.6.8 2.4 2.4 2.1 1.2-.3 2.4-.8 3.5-1.5 1.2-.8 2.3-1.9 2.4-3.5.1-1.1.2-2.3.2-3.5 0-3.6.1-7.1 0-10.7-.2-4-2.9-7.3-7.2-7-1.1.1-1.3.4-1.3 1.4.1 4.8 0 9.6 0 14.4zM326.2 80.9V62.7c0-.5 0-1-.1-1.4-.1-1.1-.7-1.6-1.9-1.5-1.8.1-3.7.2-5.5.2-1.1 0-1.6.3-1.6 1.5.1 3.7 0 7.4 0 11 0 2.4.1 4.8.2 7.2.1 3.8.2 7.6.2 11.5v9.4c0 .7-.2.9-.9.9-2.7.1-5.3.2-8 .2-1.7 0-3.1-.8-4.4-1.9-2.3-2-3.4-4.3-3.3-7.4.1-3.7-.1-7.4-.2-11.1 0-1.4-.2-2.7-.2-4.1 0-7.2.1-14.3.1-21.5-.1-6-.3-12.1-.5-18.1-.1-4.5-.2-9-.2-13.5 0-3.1.2-6.2.2-9.3V4.4c0-.9.2-1.4 1.2-1.4 3.2 0 6.5-.1 9.7-.2h3.6c1.3 0 1.7.4 1.7 1.7v7.3c0 2.4-.1 4.8 0 7.2.1 2.1.4 4.3.4 6.4 0 2.3-.3 4.6-.3 6.9 0 3.6.2 7.2.4 10.9 0 .8.5 1.1 1.2 1.1h6.6c.9 0 1.2-.3 1.2-1.3V4.3c0-1.8.6-2.3 2.4-2.3 1.7.1 3.4.1 5 .2 2.2.1 4.4.3 6.6.4 1.8.1 2.3.7 2.4 2.6v4.6c.1 8.7-.3 17.4.4 26.1 1.2 14.7.2 29.5.6 44.2.2 6.2.2 12.5.3 18.7 0 2-.2 2.3-2.2 2.4-1.5.1-3.1 0-4.6 0-1.7 0-3.4.2-5.1.2-1.6 0-3.1-.2-4.7-.2-.9 0-.9-.7-.9-1.3V89c.2-2.7.2-5.4.2-8.1zM225.4 72.5V45.8c0-5.3.1-10.5.2-15.8 0-2.4-.1-4.9.3-7.3.9-6-.3-12 0-18 .1-1.9.1-2.1 2-2.2 4.3-.1 8.5-.2 12.8-.2 1.3 0 1.8.7 1.8 2.1-.1 5.5-.1 11-.2 16.4-.1 4.3-.2 8.6-.2 12.9 0 2.6.1 5.2 0 7.8-.1 2.8-.3 5.6-.5 8.4 0 .7-.1 1.4-.1 2v32.6c0 4.2-1.2 8.1-3.3 11.7-1.9 3.2-4.9 5-8.3 6.3-8 2.9-15.7 2.1-22.5-2.9-4.7-3.5-7.7-8.5-8.1-14.7-.2-3.5-.3-7 .1-10.4.9-8.5.2-17 .4-25.5.2-14.8.3-29.7.4-44.5 0-1.7.4-2.2 2.1-2.2h13.3c1 0 1.3.6 1.3 1.5 0 1.5-.2 2.9-.2 4.4v17c0 4.2-.3 8.4-.4 12.6-.1 4.6 0 9.2 0 13.8 0 5.1.1 10.2.1 15.3 0 4.9-.2 9.8-.1 14.6 0 1.3.4 2.8 1 4 1.1 2.2 2.4 2.7 4.3 2.3 2-.4 3.5-2.4 3.5-4.5V72.5h.3zM189.8 172.2c-.1 1.5-.5 3.1-.4 4.6.6 7.5.2 15 .1 22.5v6.2c-.3 2.7-.3 3.1-3.1 3H177.3c-3.5-.6-3.5-.5-3.5-3.7v-46.7c0-4.8 0-9.7-.1-14.5-.1-3.8-.3-7.6-.4-11.5-.1-3.9-.2-7.8-.3-11.8-.1-2.8-.2-5.6-.2-8.4 0-1.5.3-1.8 1.7-1.9 4.2-.1 8.4-.2 12.6-.2 1.2 0 1.6.5 1.6 2 .1 5.1.1 10.2.2 15.3.1 5.5.4 11.1.6 16.6.1 1.9 0 3.9 0 5.8.1-.2.2-.4.3-.7 2.1-8.8 4.2-17.7 6.2-26.6.8-3.4 1.3-6.9 2-10.4.5-2.3.7-2.7 3.1-2.7 4-.1 7.9-.1 11.9 0 1.2 0 1.4 1 1.4 1.9-.1 1.5-.3 3-.5 4.5-2 10.8-4.1 21.5-6.2 32.3-.7 3.5-1.6 6.9-2.3 10.4-.2 1.1 0 2.3.2 3.4 1.2 5.9 2.6 11.8 3.8 17.8 1.5 7.5 3 15.1 4.4 22.6.3 1.6.5 3.3.7 5 .1.9-.3 1.6-1.3 1.6-2.8.1-5.7.1-8.5.1-1.4 0-2.8-.3-4.2-.4-1-.1-1.6-.6-1.8-1.6-1-4.9-2-9.8-3.1-14.7-1.5-6.2-3.1-12.3-4.6-18.4-.1-.6-.5-1.1-.8-1.6-.1.2-.2.2-.4.2zM241.6 209h-13.9c-1.9 0-3.9-.3-5.8-.5-.3 0-.6-.4-.7-.6-.2-.6-.2-1.2-.2-1.8 0-13.1.1-26.3.1-39.4 0-4.2 0-8.5.1-12.7.1-6.7.2-13.3.2-20 .1-7.4.2-14.9.2-22.3 0-1.2 1-2.2 2.2-2.1 11.2 1.1 22.4.2 33.7.5 1.6 0 3.2.1 4.8.3.4 0 1.1.6 1.1 1 .1 4.7 0 9.3 0 14 0 .8-.6.7-1.1.7-7 .1-14 .2-21 .2h-1.2c-1.4.1-1.9.4-1.9 1.9-.1 4.3-.2 8.7-.3 13.1 0 3 .1 6 .1 9 0 1.1.4 1.4 1.4 1.4h12c1.1 0 1.4.3 1.4 1.4-.1 4.3-.1 8.6 0 12.8 0 1.1-.4 1.3-1.4 1.3H239c-1 0-1.4.3-1.4 1.4l.3 21.9c0 1.6.5 2.1 2.1 2.1 7.4 0 14.8-.1 22.2-.1 1.6 0 1.6 0 1.6 1.6v8.5c0 1.5.2 2.9.3 4.4.1 1.5-.4 2-1.8 2h-20.6c-.1-.2-.1-.1-.1 0z"/></svg>