<svg xmlns="http://www.w3.org/2000/svg" xmlns:xlink="http://www.w3.org/1999/xlink" viewBox="0 0 507.8 56.3" xmlns:v="https://vecta.io/nano"><g fill="#010202"><path d="M42 28c.9-.9 1.7-1.9 2.4-3 .6-1.1 1.1-2.3 1.5-3.5.3-1.2.5-2.5.5-3.7 0-3.2-.9-6.1-2.8-8.5-1.8-2.4-4.4-3.9-7.6-4.5-2.1-.3-4.3-.5-6.4-.5H0v52.1h28.8l3.6-.1 3.6-.4c1.2-.2 2.3-.5 3.4-1a11.18 11.18 0 0 0 2.9-1.9c1.4-1.3 2.4-2.9 3-4.6.6-1.8.9-3.6.9-5.6 0-2.8-.6-5.2-1.8-7.3-1.2-2-3.1-3.7-5.6-4.8l-.7-.3.7-.3c1.2-.6 2.3-1.2 3.2-2.1zm-8.1 15.8c-.4 1-1.1 1.8-1.9 2.5-.9.7-1.9 1.1-2.9 1.2-.9.1-1.9.1-3 .1H10.6v-13h15.8c1 0 2 .1 3 .2s1.9.4 2.6.9c.8.4 1.4 1.1 1.9 1.9s.7 1.9.7 3.1c0 1.1-.3 2.1-.7 3.1zm0-21.7c-.4 1-1.1 1.8-1.9 2.5-.9.7-1.9 1.1-2.9 1.2-.9.1-1.9.1-3 .1H10.6V13h15.8c1 0 2 .1 3 .2s1.9.4 2.6.9a5.75 5.75 0 0 1 1.9 1.9c.5.8.7 1.9.7 3.1 0 1-.3 2-.7 3zm80.9 5.1c-1-3.2-2.7-5.5-4.9-6.7-2.3-1.2-5-1.9-8.2-2h0-2.2-2.2-17.6v7.6h17.5c1.2 0 2.4.1 3.4.2s2 .4 2.7.9c.8.5 1.4 1.2 1.7 2 .4.8.6 2 .6 3.4v1H92.4h-2.8c-1 0-2 .1-3 .2s-2 .3-2.9.6-1.7.7-2.3 1.2c-1.5 1.1-2.6 2.6-3.3 4.3S77 43.4 77 45.2c0 2.3.6 4.5 1.8 6.5s3 3.3 5.3 3.9c1.3.4 2.7.6 4.2.6h4.3 23.1V35l-.1-3.9-.8-3.9zm-9.1 21.5H93.1c-.7 0-1.3 0-2-.1s-1.4-.2-1.9-.4c-.6-.2-1.1-.6-1.5-1.1s-.6-1.2-.6-2.1c0-1.3.4-2.3 1.3-3 .8-.6 1.8-.9 3-.9h14.3v7.6zm38.1-30.2H123v37.8h9.9V26h9.5c2 0 3.5.4 4.4 1.3s1.4 2.4 1.4 4.4v24.6h9.9V33c0-5-1.2-8.7-3.4-11-2.3-2.4-5.9-3.5-10.9-3.5zm48.3 0h-10.3c-2.9 0-5.6.4-7.9 1.3s-4.4 2.5-6.2 4.8c-1.5 1.9-2.5 3.8-3.1 5.8s-.9 4.2-.9 6.6c0 3.8.8 7.3 2.3 10.4s4.1 5.5 7.7 7.2c1.7.8 3.4 1.3 5 1.5s3.4.2 5.3.2h18V4.2h-9.9v14.3zm0 30.2h-8c-3.5 0-6.1-1.1-7.8-3.4-1.7-2.2-2.5-5-2.5-8.2s.9-5.9 2.6-8 4.3-3.2 7.7-3.2h8v22.8zm31.6-41c-2.3 2.3-3.4 6-3.4 11v37.5h10.5V33.8h28.8v-8.2h-28.8v-7c0-2 .5-3.5 1.4-4.4s2.4-1.3 4.4-1.3h26.9V4.2h-28.8c-5 0-8.7 1.2-11 3.5zm43.5-3.5h9.9v8.7h-9.9zm0 14.3h9.9v37.8h-9.9z"/><use xlink:href="#B"/><path d="M363.1 27.2c-1-3.2-2.7-5.5-4.9-6.7-2.3-1.2-5-1.9-8.2-2h0-2.2-2.2-17.5v7.6h17.5c1.2 0 2.4.1 3.4.2s2 .4 2.7.9c.8.5 1.4 1.2 1.7 2 .4.8.6 2 .6 3.4v1h-13.3-2.8c-1 0-2 .1-3 .2s-2 .3-2.9.6-1.7.7-2.3 1.2c-1.5 1.1-2.6 2.6-3.3 4.3s-1.1 3.5-1.1 5.3c0 2.3.6 4.5 1.8 6.5s3 3.3 5.3 3.9c1.3.4 2.7.6 4.2.6h4.3H364V35l-.1-3.9c-.1-1.3-.4-2.6-.8-3.9zm-9 21.5h-12.6c-.7 0-1.3 0-2-.1s-1.4-.2-1.9-.4c-.6-.2-1.1-.6-1.5-1.1s-.6-1.2-.6-2.1c0-1.3.4-2.3 1.3-3 .8-.6 1.8-.9 3-.9h14.3v7.6z"/><use xlink:href="#B" x="86.8"/><path d="M424.5 19.1c-2.4.4-4.7 1.4-6.6 3.1-2.2 1.9-3.7 4.2-4.5 6.9-.9 2.7-1.3 5.5-1.3 8.3a25.46 25.46 0 0 0 1.1 7.4c.7 2.3 2 4.4 3.8 6.4 1 1.2 2.1 2.1 3.2 2.8s2.3 1.2 3.6 1.5c1.2.4 2.5.6 3.9.7l4.3.2h14.1v-7.6H435c-1.4 0-2.7-.1-3.9-.2s-2.5-.5-3.8-1.2c-2-1-3.3-2.4-4.1-4.2-.7-1.7-1.1-3.7-1.1-5.7 0-4 .9-7 2.8-8.7 1.8-1.8 4.8-2.7 8.8-2.7H446v-7.6h-14a47.4 47.4 0 0 0-7.5.6zm49 22.1h.8.1H489V29.1a13.11 13.11 0 0 0-1.8-6.1c-1.2-2-3-3.3-5.3-3.9-1.3-.4-2.7-.6-4.2-.6h-4.3-6.8-3.5c-1.4 0-2.8.2-4.2.6-2.3.6-4.1 1.9-5.3 3.9s-1.8 4.1-1.8 6.3v.2 10.2l.1 3.9c.1 1.2.3 2.5.7 3.8 1 3.2 2.7 5.5 4.9 6.7 2.3 1.2 5 1.9 8.2 2h0 2.2 2.2 17.5v-7.6h-17.5c-1.2 0-2.4-.1-3.4-.2s-2-.4-2.7-.9c-.8-.5-1.4-1.2-1.7-2-.4-.9-.6-2-.6-3.4v-1h11.8zm-11.9-7.6v-3.9c0-.9.2-1.6.6-2.1s.9-.9 1.5-1.1 1.2-.4 2-.4c.7-.1 1.3-.1 2-.1h6.8c.6 0 1.2 0 1.7.1.7.1 1.4.2 1.9.4.6.2 1.1.6 1.5 1.1.3.5.5 1.1.6 1.9h0v.2 3.9h-18.6zM55.3 21.9c-2.3 2.3-3.4 6-3.4 11v23.3h9.9V31.8c0-2 .5-3.5 1.4-4.4s2.4-1.3 4.4-1.3H76v-7.7h-9.8c-4.9 0-8.6 1.2-10.9 3.5zM498.4 0a9.39 9.39 0 0 0-9.4 9.4 9.4 9.4 0 1 0 18.8 0 9.39 9.39 0 0 0-9.4-9.4zm0 17.8c-4.6 0-8.4-3.8-8.4-8.4s3.8-8.4 8.4-8.4 8.4 3.8 8.4 8.4c0 4.7-3.8 8.4-8.4 8.4zm4.1-4.2c-.1-.2-.1-.5-.1-.8v-1.3c0-.6-.1-1-.3-1.2-.2-.3-.5-.5-.9-.6.4-.2.8-.5 1-.9s.4-.9.4-1.5c0-1.1-.5-1.9-1.4-2.3-.5-.2-1.1-.3-1.8-.3h-4.5v9.9h1.3v-4.2h3a3.73 3.73 0 0 1 1.2.2c.4.2.7.7.7 1.3l.1 1.7c0 .4 0 .6.1.8 0 .1.1.2.1.3h1.6v-.2c-.3-.4-.4-.6-.5-.9zm-1.9-5c-.4.2-.8.4-1.5.4h-3V5.6h3.2c.4 0 .8.1 1.1.2.5.3.7.7.7 1.4.1.7-.1 1.2-.5 1.4z"/></g><defs ><path id="B" d="M305.3 18.5h-20.8v37.8h9.9V26h9.5c2 0 3.5.4 4.4 1.3s1.4 2.4 1.4 4.4v24.6h9.9V33c0-5-1.2-8.7-3.4-11-2.2-2.4-5.9-3.5-10.9-3.5z"/></defs></svg>