<svg xmlns="http://www.w3.org/2000/svg" viewBox="0 0 1200 246" style="enable-background:new 0 0 1200 246" xml:space="preserve"><path d="M1200 13c-2.2.7-4.3 1.4-6.5 1.9-1.1.3-2.3 0-3.5 0H10c-3.5 0-7 .6-10-2V3l3-3h1194l3 3v10zM0 233c2.2-.7 4.3-1.4 6.5-1.9 1.1-.3 2.3 0 3.5 0h1180c3.5 0 7-.6 10 2v10l-3 3H3l-3-3V233zM1200 131c-1.3 3.8-2.2 7.7-3.9 11.2-8.5 18-23 27.7-42.8 28.7-10.5.5-21 .2-31.5.1-4.5 0-5.2-.7-5.2-5.3V80.3c0-2.7.3-5.3 3.8-5.2 12.6.1 25.4-.7 37.9.7 20.8 2.3 35.6 16.3 40.9 36.4.2 1 .6 1.9.9 2.8-.1 5.3-.1 10.7-.1 16zm-61.5 19c5.2 0 9.9.1 14.7 0 10.5-.2 17.6-5.5 21.6-15 3.3-7.8 3.2-15.9.1-23.9-2.6-6.7-7.2-11.6-14.1-13.9-7.2-2.4-14.7-1.4-22.3-1V150zM0 76c.9-.3 1.9-.9 2.8-.9 12.6.2 25.3-.1 37.8.8 8.5.7 15.2 5.5 19.7 12.9 5.9 9.7 3.9 21.5-4.8 28.8-1.8 1.5-3.7 2.7-6.1 4.4 1.5.8 2.8 1.5 4 2.1 14 7.6 17.1 24.9 6.4 36.9-6 6.8-13.9 9.6-22.7 9.8-10.8.3-21.6.1-32.4.1-1.6 0-3.2-.6-4.8-1C0 138.7 0 107.3 0 76zm21.8 56.2v18.7h7.4c1.7 0 3.3.1 5-.1 5.7-.6 8.7-3.9 8.6-9.5-.1-5.2-3.3-8.7-8.7-9-3.9-.3-7.9-.1-12.3-.1zm-.1-18.4h8c1 0 2 .1 3-.1 5.1-.6 8.2-4.3 8.2-9.5 0-5.1-3-8.5-8.1-8.9-3.6-.2-7.2 0-11 0-.1 6.3-.1 12-.1 18.5zM308.8 122.9c0-27.4 21.8-49.2 49.1-49.2 27.1 0 49.2 22.1 49.1 49.3 0 27.2-22 49.1-49.3 49.1-27.3.1-49-21.7-48.9-49.2zm22.4.5c.1 14.7 12.1 26.5 26.9 26.5 14.6-.1 26.8-12.4 26.6-26.9-.1-14.6-12.3-26.8-26.8-26.8-14.8 0-26.8 12.1-26.7 27.2zM996.3 123.3c-.1 27.7-21.9 49.1-49.8 48.9-26.7-.2-48.3-22.1-48.4-49-.1-27.5 22-49.5 49.5-49.5 27.3.2 48.9 22.2 48.7 49.6zm-22.3-.1c0-14.9-11.7-26.9-26.3-27-14.9-.1-26.9 11.9-26.9 27 0 14.8 11.9 26.7 26.6 26.7 14.7-.1 26.5-11.9 26.6-26.7zM263 132.6c5.1 9.5 10.1 18.7 15 27.9.8 1.5 1.6 2.9 2.3 4.4 2 4.2 1 5.9-3.7 6s-9.3-.1-14 .1c-2.9.1-4.5-1.3-5.8-3.8-4.6-9.3-9.2-18.5-13.8-27.7-3.3-6.5-3.6-6.7-11.9-5v31.2c0 4.4-.8 5.2-5.3 5.3-4 .1-8 0-12 0-3.1 0-4.6-1.5-4.7-4.6v-84c0-7.1.4-7.5 7.7-7.6 11.8 0 23.7-.1 35.5 0 16.9.2 28.8 11.1 30.2 27.8.9 10.4-3.3 18.8-11.8 25-2.2 1.9-4.7 3.2-7.7 5zm-31.6-16.9c7.1 0 13.8.2 20.4-.1 5-.2 8.6-4.2 9.1-9.1.5-5.4-1.8-10.2-6.7-10.7-7.5-.8-15.1-.2-22.7-.2-.1 6.8-.1 13.1-.1 20.1zM502.2 133v31.2c0 6.4-.3 6.8-6.8 6.8h-10.5c-3.1 0-4.6-1.5-4.7-4.6 0-1.3-.1-2.7-.1-4v-79c0-1.7-.3-3.5.3-4.9.6-1.4 2.2-3.3 3.4-3.4 4.8-.4 9.6-.3 14.5-.1 3.4.1 3.8 2.5 3.8 5.2-.1 9.3 0 18.7 0 28 0 1 .1 1.9.2 3.3h37.8c.1-1.9.3-3.7.3-5.5 0-8.7.1-17.3 0-26-.1-3.6 1.4-5.2 5-5.1 4 .1 8 .1 12 0 3.3 0 5 1.4 4.8 4.8v84.5c0 6.4-.3 6.8-6.8 6.8-3.2 0-6.3.1-9.5 0-4.8-.1-5.4-.7-5.4-5.6-.1-9.2 0-18.3 0-27.5 0-5.1-.1-5.2-5.4-5.2h-27.5c-1.5 0-3.2.2-5.4.3zM174.4 109.9c0 8.5-.1 17 0 25.5.4 18.5-13.9 34.7-35.1 36.7-12.8 1.2-24.1-2.6-33.1-12-6-6.2-9.4-13.7-9.5-22.5-.1-19.2-.1-38.3-.1-57.5 0-4.4.8-5.1 5.4-5.2 3.8-.1 7.7-.1 11.5 0 4.6.1 5.5 1 5.5 5.7.1 15.2 0 30.3 0 45.5v8c.1 9.9 5.9 15.6 16 15.7 10.5.1 16.7-5.6 16.7-15.5.1-17.5 0-35 0-52.5 0-6.3.6-6.8 6.9-6.9h9.5c5.5.1 6.1.6 6.1 6 .3 9.7.2 19.4.2 29zM671.2 171.1h-.5c-7.4 1.3-12.2-1.6-14.1-9-1.1-4.3-3.9-5.4-8.1-5.2-8.8.3-17.7.2-26.5 0-3-.1-4.8.7-6.1 3.7-4.8 11.1-3.4 10.4-16.6 10.5-9.9.1-11.1-.2-6.4-10.1 12.7-26.9 25.2-54 37.7-81 .7-1.5 1.3-3.1 2.2-4.5 1.7-2.4 4.5-2.4 6.2-.1.9 1.2 1.4 2.6 2.1 4 13 28.1 26.1 56.2 39.1 84.2l1.2 2.7c1.2 2.8-.1 4.2-2.7 4.5-2.4.4-5 .2-7.5.3 0-.1 0-.1 0 0zm-34.7-53.6h-1.2c-3 6.6-5.9 13.1-9.1 20.1h19.5c-3.2-7-6.2-13.6-9.2-20.1zM828.4 136.2v27.4c0 7.3-.1 7.4-7.7 7.4-2.8 0-5.7.1-8.5 0-4.8-.1-5.4-.7-5.4-5.6V104c0-8 .1-16 0-24 0-2.9.6-5.1 4-5 12.5.2 25-.5 37.4.9 15.5 1.8 26.2 16.3 24.9 31.7-1.4 16.6-13.5 28.3-29.6 28.7-4.9 0-9.7-.1-15.1-.1zm.4-39.9v19.6h10.3c1.2 0 2.3 0 3.5-.1 4.8-.5 8-3.8 8.5-8.8.6-5.3-1.7-10-6.1-10.5-5.3-.7-10.7-.2-16.2-.2zM731.3 136.2v28.2c0 6.2-.4 6.6-6.4 6.7-3.3 0-6.7.1-10 0-4.5-.1-5.1-.8-5.2-5.4-.1-9.8 0-19.6 0-29.5V81.3c0-5.9.4-6.3 6.2-6.3 11.6.1 23.3-.2 34.9.8 13.4 1.2 25.8 13.3 25.1 31.1-.7 16.9-13.2 29-29.4 29.3-4.8.1-9.7 0-15.2 0zm.2-20.4c5 0 9.5.2 14-.1 4.8-.3 8-3.8 8.5-8.8.5-5.3-1.7-10-6.1-10.5-5.3-.7-10.8-.2-16.4-.2v19.6zM1051.4 150.1h27.4c7.3 0 7.5.2 7.5 7.6 0 2.8-.1 5.7 0 8.5.1 3.1-1.1 4.7-4.3 4.7h-48c-4.5 0-4.3-3.1-4.3-6.2v-78c0-2.3.1-4.7 0-7-.2-3.4 1.3-4.9 4.7-4.9 3.7.1 7.3 0 11 0 5.4.1 6 .6 6 6.1v69.2z"/></svg>