<?xml version="1.0" encoding="utf-8"?>
<!-- Generator: Adobe Illustrator 23.0.0, SVG Export Plug-In . SVG Version: 6.00 Build 0)  -->
<svg version="1.1" id="Layer_1" xmlns="http://www.w3.org/2000/svg" xmlns:xlink="http://www.w3.org/1999/xlink" x="0px" y="0px"
	 viewBox="0 0 1200 246" style="enable-background:new 0 0 1200 246;" xml:space="preserve">
<style type="text/css">
	.st0{fill:#EDDCB2;}
</style>
<g>
	<path class="st0" d="M1200,13c-2.2,0.7-4.3,1.4-6.5,1.9c-1.1,0.3-2.3,0-3.5,0c-393.3,0-786.7,0-1180,0c-3.5,0-7,0.6-10-2
		C0,9.7,0,6.3,0,3c1-1,2-2,3-3c398,0,796,0,1194,0c1,1,2,2,3,3C1200,6.3,1200,9.7,1200,13z"/>
	<path class="st0" d="M0,233c2.2-0.7,4.3-1.4,6.5-1.9c1.1-0.3,2.3,0,3.5,0c393.3,0,786.7,0,1180,0c3.5,0,7-0.6,10,2
		c0,3.3,0,6.7,0,10c-1,1-2,2-3,3c-398,0-796,0-1194,0c-1-1-2-2-3-3C0,239.7,0,236.3,0,233z"/>
	<path class="st0" d="M1200,131c-1.3,3.8-2.2,7.7-3.9,11.2c-8.5,18-23,27.7-42.8,28.7c-10.5,0.5-21,0.2-31.5,0.1
		c-4.5,0-5.2-0.7-5.2-5.3c0-28.5,0-57,0-85.4c0-2.7,0.3-5.3,3.8-5.2c12.6,0.1,25.4-0.7,37.9,0.7c20.8,2.3,35.6,16.3,40.9,36.4
		c0.2,1,0.6,1.9,0.9,2.8C1200,120.3,1200,125.7,1200,131z M1138.5,150c5.2,0,9.9,0.1,14.7,0c10.5-0.2,17.6-5.5,21.6-15
		c3.3-7.8,3.2-15.9,0.1-23.9c-2.6-6.7-7.2-11.6-14.1-13.9c-7.2-2.4-14.7-1.4-22.3-1C1138.5,114.1,1138.5,131.6,1138.5,150z"/>
	<path class="st0" d="M0,76c0.9-0.3,1.9-0.9,2.8-0.9c12.6,0.2,25.3-0.1,37.8,0.8c8.5,0.7,15.2,5.5,19.7,12.9
		c5.9,9.7,3.9,21.5-4.8,28.8c-1.8,1.5-3.7,2.7-6.1,4.4c1.5,0.8,2.8,1.5,4,2.1c14,7.6,17.1,24.9,6.4,36.9c-6,6.8-13.9,9.6-22.7,9.8
		c-10.8,0.3-21.6,0.1-32.4,0.1c-1.6,0-3.2-0.6-4.8-1C0,138.7,0,107.3,0,76z M21.8,132.2c0,6.6,0,12.5,0,18.7c2.8,0,5.1,0,7.4,0
		c1.7,0,3.3,0.1,5-0.1c5.7-0.6,8.7-3.9,8.6-9.5c-0.1-5.2-3.3-8.7-8.7-9C30.2,132,26.2,132.2,21.8,132.2z M21.7,113.8c3,0,5.5,0,8,0
		c1,0,2,0.1,3-0.1c5.1-0.6,8.2-4.3,8.2-9.5c0-5.1-3-8.5-8.1-8.9c-3.6-0.2-7.2,0-11,0C21.7,101.6,21.7,107.3,21.7,113.8z"/>
	<path class="st0" d="M308.8,122.9c0-27.4,21.8-49.2,49.1-49.2c27.1,0,49.2,22.1,49.1,49.3c0,27.2-22,49.1-49.3,49.1
		C330.4,172.2,308.7,150.4,308.8,122.9z M331.2,123.4c0.1,14.7,12.1,26.5,26.9,26.5c14.6-0.1,26.8-12.4,26.6-26.9
		c-0.1-14.6-12.3-26.8-26.8-26.8C343.1,96.2,331.1,108.3,331.2,123.4z"/>
	<path class="st0" d="M996.3,123.3c-0.1,27.7-21.9,49.1-49.8,48.9c-26.7-0.2-48.3-22.1-48.4-49c-0.1-27.5,22-49.5,49.5-49.5
		C974.9,73.9,996.5,95.9,996.3,123.3z M974,123.2c0-14.9-11.7-26.9-26.3-27c-14.9-0.1-26.9,11.9-26.9,27c0,14.8,11.9,26.7,26.6,26.7
		C962.1,149.8,973.9,138,974,123.2z"/>
	<path class="st0" d="M263,132.6c5.1,9.5,10.1,18.7,15,27.9c0.8,1.5,1.6,2.9,2.3,4.4c2,4.2,1,5.9-3.7,6c-4.7,0.1-9.3-0.1-14,0.1
		c-2.9,0.1-4.5-1.3-5.8-3.8c-4.6-9.3-9.2-18.5-13.8-27.7c-3.3-6.5-3.6-6.7-11.9-5c0,1.6,0,3.4,0,5.2c0,8.7,0,17.3,0,26
		c0,4.4-0.8,5.2-5.3,5.3c-4,0.1-8,0-12,0c-3.1,0-4.6-1.5-4.7-4.6c0-1,0-2,0-3c0-27,0-54,0-81c0-7.1,0.4-7.5,7.7-7.6
		c11.8,0,23.7-0.1,35.5,0c16.9,0.2,28.8,11.1,30.2,27.8c0.9,10.4-3.3,18.8-11.8,25C268.5,129.5,266,130.8,263,132.6z M231.4,115.7
		c7.1,0,13.8,0.2,20.4-0.1c5-0.2,8.6-4.2,9.1-9.1c0.5-5.4-1.8-10.2-6.7-10.7c-7.5-0.8-15.1-0.2-22.7-0.2
		C231.4,102.4,231.4,108.7,231.4,115.7z"/>
	<path class="st0" d="M502.2,133c0,10.9,0,21,0,31.2c0,6.4-0.3,6.8-6.8,6.8c-3.5,0-7,0-10.5,0c-3.1,0-4.6-1.5-4.7-4.6
		c0-1.3-0.1-2.7-0.1-4c0-26.3,0-52.6,0-79c0-1.7-0.3-3.5,0.3-4.9c0.6-1.4,2.2-3.3,3.4-3.4c4.8-0.4,9.6-0.3,14.5-0.1
		c3.4,0.1,3.8,2.5,3.8,5.2c-0.1,9.3,0,18.7,0,28c0,1,0.1,1.9,0.2,3.3c12.6,0,25,0,37.8,0c0.1-1.9,0.3-3.7,0.3-5.5
		c0-8.7,0.1-17.3,0-26c-0.1-3.6,1.4-5.2,5-5.1c4,0.1,8,0.1,12,0c3.3,0,5,1.4,4.8,4.8c0,0.7,0,1.3,0,2c0,27.5,0,55,0,82.5
		c0,6.4-0.3,6.8-6.8,6.8c-3.2,0-6.3,0.1-9.5,0c-4.8-0.1-5.4-0.7-5.4-5.6c-0.1-9.2,0-18.3,0-27.5c0-5.1-0.1-5.2-5.4-5.2
		c-9.2,0-18.3,0-27.5,0C506.1,132.7,504.4,132.9,502.2,133z"/>
	<path class="st0" d="M174.4,109.9c0,8.5-0.1,17,0,25.5c0.4,18.5-13.9,34.7-35.1,36.7c-12.8,1.2-24.1-2.6-33.1-12
		c-6-6.2-9.4-13.7-9.5-22.5c-0.1-19.2-0.1-38.3-0.1-57.5c0-4.4,0.8-5.1,5.4-5.2c3.8-0.1,7.7-0.1,11.5,0c4.6,0.1,5.5,1,5.5,5.7
		c0.1,15.2,0,30.3,0,45.5c0,2.7,0,5.3,0,8c0.1,9.9,5.9,15.6,16,15.7c10.5,0.1,16.7-5.6,16.7-15.5c0.1-17.5,0-35,0-52.5
		c0-6.3,0.6-6.8,6.9-6.9c3.2,0,6.3,0,9.5,0c5.5,0.1,6.1,0.6,6.1,6C174.5,90.6,174.4,100.3,174.4,109.9
		C174.4,109.9,174.4,109.9,174.4,109.9z"/>
	<path class="st0" d="M671.2,171.1c-0.2,0-0.3,0-0.5,0c-7.4,1.3-12.2-1.6-14.1-9c-1.1-4.3-3.9-5.4-8.1-5.2c-8.8,0.3-17.7,0.2-26.5,0
		c-3-0.1-4.8,0.7-6.1,3.7c-4.8,11.1-3.4,10.4-16.6,10.5c-9.9,0.1-11.1-0.2-6.4-10.1c12.7-26.9,25.2-54,37.7-81
		c0.7-1.5,1.3-3.1,2.2-4.5c1.7-2.4,4.5-2.4,6.2-0.1c0.9,1.2,1.4,2.6,2.1,4c13,28.1,26.1,56.2,39.1,84.2c0.4,0.9,0.8,1.8,1.2,2.7
		c1.2,2.8-0.1,4.2-2.7,4.5C676.3,171.2,673.7,171,671.2,171.1C671.2,171,671.2,171,671.2,171.1z M636.5,117.5c-0.4,0-0.8,0-1.2,0
		c-3,6.6-5.9,13.1-9.1,20.1c6.7,0,12.7,0,19.5,0C642.5,130.6,639.5,124,636.5,117.5z"/>
	<path class="st0" d="M828.4,136.2c0,9.8,0,18.6,0,27.4c0,7.3-0.1,7.4-7.7,7.4c-2.8,0-5.7,0.1-8.5,0c-4.8-0.1-5.4-0.7-5.4-5.6
		c0-20.5,0-40.9,0-61.4c0-8,0.1-16,0-24c0-2.9,0.6-5.1,4-5c12.5,0.2,25-0.5,37.4,0.9c15.5,1.8,26.2,16.3,24.9,31.7
		c-1.4,16.6-13.5,28.3-29.6,28.7C838.6,136.3,833.8,136.2,828.4,136.2z M828.8,96.3c0,6.6,0,12.9,0,19.6c3.7,0,7,0,10.3,0
		c1.2,0,2.3,0,3.5-0.1c4.8-0.5,8-3.8,8.5-8.8c0.6-5.3-1.7-10-6.1-10.5C839.7,95.8,834.3,96.3,828.8,96.3z"/>
	<path class="st0" d="M731.3,136.2c0,9.9,0,19,0,28.2c0,6.2-0.4,6.6-6.4,6.7c-3.3,0-6.7,0.1-10,0c-4.5-0.1-5.1-0.8-5.2-5.4
		c-0.1-9.8,0-19.6,0-29.5c0-18.3,0-36.6,0-54.9c0-5.9,0.4-6.3,6.2-6.3c11.6,0.1,23.3-0.2,34.9,0.8c13.4,1.2,25.8,13.3,25.1,31.1
		c-0.7,16.9-13.2,29-29.4,29.3C741.7,136.3,736.8,136.2,731.3,136.2z M731.5,115.8c5,0,9.5,0.2,14-0.1c4.8-0.3,8-3.8,8.5-8.8
		c0.5-5.3-1.7-10-6.1-10.5c-5.3-0.7-10.8-0.2-16.4-0.2C731.5,102.8,731.5,109,731.5,115.8z"/>
	<path class="st0" d="M1051.4,150.1c9.8,0,18.6,0,27.4,0c7.3,0,7.5,0.2,7.5,7.6c0,2.8-0.1,5.7,0,8.5c0.1,3.1-1.1,4.7-4.3,4.7
		c-16,0-32,0-48,0c-4.5,0-4.3-3.1-4.3-6.2c0-26,0-52,0-78c0-2.3,0.1-4.7,0-7c-0.2-3.4,1.3-4.9,4.7-4.9c3.7,0.1,7.3,0,11,0
		c5.4,0.1,6,0.6,6,6.1c0,20.2,0,40.3,0,60.5C1051.4,144.1,1051.4,146.7,1051.4,150.1z"/>
</g>
</svg>
