<?xml version="1.0" encoding="utf-8"?>
<!-- Generator: Adobe Illustrator 23.0.0, SVG Export Plug-In . SVG Version: 6.00 Build 0)  -->
<svg version="1.1" id="Layer_1" xmlns="http://www.w3.org/2000/svg" xmlns:xlink="http://www.w3.org/1999/xlink" x="0px" y="0px"
	 viewBox="0 0 424.4 252.2" style="enable-background:new 0 0 424.4 252.2;" xml:space="preserve">
<style type="text/css">
	.st0{fill:#EDDCB2;}
</style>
<g>
	<path class="st0" d="M259.4,7.4C256.7,8,254,8.8,251.2,9c-3.1,0.3-5.3,1.7-6.8,4.3c-0.9,1.6-2.1,3-3.1,4.5
		c2.3,12.5-4.9,21.3-12,29.9c-3.1,3.8-5.7,7.7-6.8,12.6c-0.8,3.6-0.4,6.9,1.9,10c1.2,1.6,2.3,3.2,3.5,4.9c3.4,4.6,3.4,4.6,8.9,4.7
		c-2.7,3.2-6.1,1.3-8.9,1.1c-2.2-0.1-5.2-0.3-6.1-3.8c1.3,0.1,2.7,0.2,4.3,0.2c-0.5-4.2-2.7-7.2-5.1-9.8c-2.7-3-4.2-5.8-2.9-9.9
		c0.4-1.3,0.1-2.9,0.1-4.7c-3.7-0.5-6.9,0.4-10.2,1.4c-2.6,7.2-3.7,14.4,0.2,21.6c1.7,3.1,3.8,5.5,7.8,4.8c0.6-0.1,1.2,0.3,2.3,0.6
		c-1.1,0.9-1.8,1.6-2.8,2.3c-3.3-1.5-7.7,0.7-10.4-3.5c0.3-1,0.7-2,1.2-3.5c-1.3-2.9-2.6-6.1-4.1-9.2c-1.1-2.3-1.7-4.7-1.1-7.3
		c0.4-1.6,0.5-3.2,0.9-5.4c-6.1-0.4-11.8-0.4-17,2.7c-1.7,1-3.4,2.1-5.1,3.1c-2.9,1.7-5.8,3.1-9.4,1.7c-1.5-0.6-3.5-0.1-5.7-0.1
		c1.1-2.5,3.4-3.1,5.2-4.6c-0.8-0.5-1.5-1-2.5-1.8c0.7-0.7,1.2-1.5,1.9-1.9c2.2-1.2,4.5-2.2,6.7-3.4c3.6-2,7.1-4.1,8.5-8.6
		c0.6-2,3.1-3.4,4.7-5.1c2-2,4.1-3.9,5.9-6.1c5.7-7,12.6-12.3,20.7-16.1c2.3-1.1,4.1-2.4,5.8-4.5c2.3-2.9,5-5.3,7.7-7.8
		c3-2.7,6.8-2.9,10.4-2.1c5.8,1.3,11.6,3.1,17.3,4.7c0.9,0.3,1.7,0.9,2.6,1.4C259.5,6.8,259.5,7.1,259.4,7.4z"/>
	<path class="st0" d="M101.4,184.2c18.6-0.1,34,13.3,34.3,33.5c0.2,21-15.7,34.5-34.3,34.5c-18,0-34-12.7-34.3-34.1
		C66.9,198.7,81.9,184.1,101.4,184.2z M101.6,238.4c5.9,0.3,11-2.3,14.7-7.2c5.2-6.9,5.2-18.8,0.1-25.9c-6-8.4-18.7-10-26.6-3.4
		c-6.7,5.5-9.1,15.2-6,24.1C86.5,233.6,93.1,238.3,101.6,238.4z"/>
	<path class="st0" d="M424.3,217.8c0.5,18.9-14.4,34.3-34,34.3c-19.7,0-34.6-14.5-34.6-33.7c0-19.7,14.3-34.1,34-34.3
		C409.5,184,424.3,198.4,424.3,217.8z M390.1,238.4c3.8,0,7.2-0.9,10.4-3c6.9-4.4,9.9-14.7,7.8-23.2c-2-8.1-8-13.6-15.9-14.3
		c-9.1-0.8-16.3,3.3-19.5,11.5c-2.4,6-2.3,12.1,0.3,18C376.4,234.8,382.2,238.3,390.1,238.4z"/>
	<path class="st0" d="M301.8,132.3c-0.5-19.9,15.8-34.2,34.1-34.1c16.4,0,34,11.5,34.3,33.6c0.3,19.9-14.5,34.5-34.2,34.5
		C316,166.3,301.4,151,301.8,132.3z M334.8,111.9c-5.9,0.2-11.6,3.1-15,9.6c-3.5,6.5-3.7,13.4-0.7,20.2c3,6.9,8.6,10.7,15.9,11.1
		c6.6,0.4,12.3-2.2,16.3-7.9c4.9-7,5.1-17.3,0.4-24.5C347.9,114.8,342.7,112,334.8,111.9z"/>
	<path class="st0" d="M237.9,166.4c-7.1-5.4-13.1-12.1-19.7-18c-6.6-6-13-12.4-19.6-18.7c0,11.8,0,23.4,0,35.4c-4.7,0-9.1,0-13.4,0
		c-1-4.1-1.4-42.8-0.8-63c0-1.1,0.3-2.2,0.6-3.7c1.2,0.4,2.2,0.6,2.9,1.1c1.5,1.1,2.8,2.4,4.1,3.6c8.6,8.1,17.2,16.2,25.8,24.3
		c2.5,2.4,5.1,4.8,7.7,7.2c0-11.4,0-23,0-35c4.5-0.9,8.9-0.4,13.7-0.3c0.2,1.4,0.5,2.6,0.5,3.9c0,19.3,0,38.6,0,57.9
		c0,1.6-0.3,3.2-0.5,4.8C238.8,166,238.3,166.2,237.9,166.4z"/>
	<path class="st0" d="M182.1,231c4.3,6.5,8.4,12.7,12.5,19c-3.2,1.4-9.5,1.7-16.8,0.8c-3.3-5-6.8-10.2-10.2-15.5c-2.4,0-4.5,0-7.1,0
		c-0.1,5.2-0.2,10.3-0.3,15.6c-5,0-9.6,0-14.2,0c-0.9-3.6-1.1-59.6-0.2-65.5c0.5-0.1,1.1-0.4,1.8-0.4c6.8,0,13.7-0.2,20.5,0.1
		c3.6,0.2,7.3,0.9,10.7,2.2c11,4.2,15.4,12.4,15,24.4c-0.2,7.7-3.5,13.8-10.2,17.9C183.1,230,182.8,230.4,182.1,231z M160.5,221.5
		c4.3,0.9,8.1,0.2,11.7-0.8c3.4-0.9,5.3-3.5,5.8-6.8c0.4-2.4,0.2-5,0-7.4c-0.3-2.6-1.8-4.8-4.1-6c-4.2-2.2-8.7-2.7-13.4-1.7
		C160.5,206.5,160.5,213.8,160.5,221.5z"/>
	<path class="st0" d="M344,252.2c-6.4-6-12.8-11.9-19.2-18c-6.3-5.9-12.5-11.9-19.3-18.3c-0.6,3.2,0,6.1-0.1,8.9
		c-0.1,2.8,0,5.7,0,8.5c0,3,0,6,0,9c0,2.8-0.1,5.6-0.2,8.6c-4.7,0-8.9,0-13.4,0c-1.3-3.6-0.4-7.3-0.6-10.9c-0.1-3.8,0-7.7,0-11.5
		c0-3.7,0-7.3,0-11c0-3.7,0-7.3,0-11c0-3.8-0.1-7.7,0-11.5c0.2-3.5-0.9-7.2,1.1-11.2c4.3,2.3,7,5.9,10.3,8.8
		c3.4,2.9,6.5,6.2,9.8,9.3c3.2,3,6.4,5.8,9.5,8.8c3.2,3.1,6.4,6.2,10.2,9.9c0-12.3,0-23.7,0-35.4c4.6,0,8.9,0,13.4,0
		c1,4.5,0.4,8.9,0.5,13.3c0.1,4.5,0,9,0,13.5c0,4.3,0,8.7,0,13c0,4.5,0.1,9,0,13.5c-0.1,4.3,0.6,8.8-0.5,13
		C345.1,251.8,344.6,252,344,252.2z"/>
	<path class="st0" d="M61.7,237.1c-5.9,12-21.6,17.6-36.7,14C11,247.7,0.6,234.4,0,219.7c-0.6-14.7,7.7-29.4,23.4-33.9
		c14.1-4.1,29.5-1.2,37.5,12.8c-3.5,2.5-7.1,5.1-10.9,7.8c-0.9-1-1.7-1.7-2.4-2.6c-4.9-5.7-11.3-6.8-18.2-5.3
		c-6.7,1.5-11.2,6-12.8,12.7c-2,8.1-1.2,15.7,5,22.3c6.3,6.7,21,7.1,26.9-1.9c0.5-0.8,1.3-1.5,1.9-2.2
		C54.1,230.8,58.9,234.1,61.7,237.1z"/>
	<path class="st0" d="M114.9,112.9c-3.6,2.5-7.1,5-11.4,8c-0.8-1.2-1.3-2.3-2-3.1c-5.3-5.7-11.8-7.1-19.1-4.8
		C75,115.4,71,120.9,70,128.4c-0.9,7,0.2,13.6,5.5,18.9c7.3,7.5,20.2,6.9,26.3-0.6c0.9-1.2,2-2.2,3.1-3.5c1,0.5,1.9,0.9,2.7,1.5
		c2.9,2,5.7,4,8.7,6.1c-1.8,3.8-4.4,6.6-7.4,8.9c-15.5,11.7-42.3,8.2-51.5-13.2c-5.3-12.3-4.2-24.7,4.1-35.4
		c8.3-10.6,19.7-14.2,32.9-12.4c8.3,1.2,15.1,5,19.8,12.2C114.4,111.4,114.5,112.1,114.9,112.9z"/>
	<path class="st0" d="M147.2,97.6c0.5,1,0.9,1.8,1.2,2.5c9.8,21.4,19.5,42.8,29.4,64.9c-5.7,0-10.6,0-15.6,0c-1.1-2.2-2-4.3-3.1-6.6
		c-8.3,0-16.6,0-25,0c-1,2.1-2,4.2-3.2,6.7c-4.4,0.2-8.9,0.3-13.6,0c0.6-3.6,23.5-57.5,27.5-65C145.1,99.5,145.8,99,147.2,97.6z
		 M153.4,145c-2.4-6.2-4.6-11.7-7.2-18.3c-1.7,6.9-4.7,12.2-6.5,18.3C144.5,145,148.6,145,153.4,145z"/>
	<path class="st0" d="M242.3,185.4c5.1,0,9.7,0,14.9,0c-9.6,22-18.9,43.4-28.3,64.8c-0.3,0.7-1,1.2-1.5,1.6
		c-2.2-0.2-2.6-1.8-3.2-3.1c-9.1-20.2-18.2-40.3-27.3-60.5c-0.3-0.7-0.5-1.5-1-3c5.5-0.2,10.5-0.3,16,0.1
		c5.1,11.7,10.2,23.4,15.3,35.2C232.3,208.9,237.3,197.2,242.3,185.4z"/>
	<path class="st0" d="M247.8,112.1c0-3.3,0-6,0-8.6c0-1.2,0.1-2.3,0.2-3.3c0.2-0.2,0.3-0.3,0.5-0.5c0.1-0.1,0.3-0.3,0.4-0.3
		c15.6-0.1,31.2-0.2,46.9-0.3c1,0,1.9,0.1,3.2,0.2c0.9,4.2,0.6,8.2,0.3,12.6c-5.8,1.1-11.7-0.1-17.9,0.8
		c-0.5,17.4,0.1,34.8-0.4,52.4c-5,0-9.5,0-14.7,0c-0.2-17.4,0-34.7-0.1-52.5C260.1,111.9,254.2,112.7,247.8,112.1z"/>
	<path class="st0" d="M278.8,250.9c-4.9,0-9.5,0-14.3,0c0-21.9,0-43.4,0-65.6c4.7-0.5,9.4-0.3,14-0.1
		C279.5,189,279.7,244.5,278.8,250.9z"/>
</g>
</svg>
