<svg xmlns="http://www.w3.org/2000/svg" viewBox="0 0 424.4 252.2" style="enable-background:new 0 0 424.4 252.2" xml:space="preserve"><path d="M259.4 7.4c-2.7.6-5.4 1.4-8.2 1.6-3.1.3-5.3 1.7-6.8 4.3-.9 1.6-2.1 3-3.1 4.5 2.3 12.5-4.9 21.3-12 29.9-3.1 3.8-5.7 7.7-6.8 12.6-.8 3.6-.4 6.9 1.9 10 1.2 1.6 2.3 3.2 3.5 4.9 3.4 4.6 3.4 4.6 8.9 4.7-2.7 3.2-6.1 1.3-8.9 1.1-2.2-.1-5.2-.3-6.1-3.8 1.3.1 2.7.2 4.3.2-.5-4.2-2.7-7.2-5.1-9.8-2.7-3-4.2-5.8-2.9-9.9.4-1.3.1-2.9.1-4.7-3.7-.5-6.9.4-10.2 1.4-2.6 7.2-3.7 14.4.2 21.6 1.7 3.1 3.8 5.5 7.8 4.8.6-.1 1.2.3 2.3.6-1.1.9-1.8 1.6-2.8 2.3-3.3-1.5-7.7.7-10.4-3.5.3-1 .7-2 1.2-3.5-1.3-2.9-2.6-6.1-4.1-9.2-1.1-2.3-1.7-4.7-1.1-7.3.4-1.6.5-3.2.9-5.4-6.1-.4-11.8-.4-17 2.7-1.7 1-3.4 2.1-5.1 3.1-2.9 1.7-5.8 3.1-9.4 1.7-1.5-.6-3.5-.1-5.7-.1 1.1-2.5 3.4-3.1 5.2-4.6-.8-.5-1.5-1-2.5-1.8.7-.7 1.2-1.5 1.9-1.9 2.2-1.2 4.5-2.2 6.7-3.4 3.6-2 7.1-4.1 8.5-8.6.6-2 3.1-3.4 4.7-5.1 2-2 4.1-3.9 5.9-6.1 5.7-7 12.6-12.3 20.7-16.1 2.3-1.1 4.1-2.4 5.8-4.5 2.3-2.9 5-5.3 7.7-7.8 3-2.7 6.8-2.9 10.4-2.1 5.8 1.3 11.6 3.1 17.3 4.7.9.3 1.7.9 2.6 1.4-.2.5-.2.8-.3 1.1zM101.4 184.2c18.6-.1 34 13.3 34.3 33.5.2 21-15.7 34.5-34.3 34.5-18 0-34-12.7-34.3-34.1-.2-19.4 14.8-34 34.3-33.9zm.2 54.2c5.9.3 11-2.3 14.7-7.2 5.2-6.9 5.2-18.8.1-25.9-6-8.4-18.7-10-26.6-3.4-6.7 5.5-9.1 15.2-6 24.1 2.7 7.6 9.3 12.3 17.8 12.4zM424.3 217.8c.5 18.9-14.4 34.3-34 34.3-19.7 0-34.6-14.5-34.6-33.7 0-19.7 14.3-34.1 34-34.3 19.8-.1 34.6 14.3 34.6 33.7zm-34.2 20.6c3.8 0 7.2-.9 10.4-3 6.9-4.4 9.9-14.7 7.8-23.2-2-8.1-8-13.6-15.9-14.3-9.1-.8-16.3 3.3-19.5 11.5-2.4 6-2.3 12.1.3 18 3.2 7.4 9 10.9 16.9 11zM301.8 132.3c-.5-19.9 15.8-34.2 34.1-34.1 16.4 0 34 11.5 34.3 33.6.3 19.9-14.5 34.5-34.2 34.5-20 0-34.6-15.3-34.2-34zm33-20.4c-5.9.2-11.6 3.1-15 9.6-3.5 6.5-3.7 13.4-.7 20.2 3 6.9 8.6 10.7 15.9 11.1 6.6.4 12.3-2.2 16.3-7.9 4.9-7 5.1-17.3.4-24.5-3.8-5.6-9-8.4-16.9-8.5zM237.9 166.4c-7.1-5.4-13.1-12.1-19.7-18-6.6-6-13-12.4-19.6-18.7v35.4h-13.4c-1-4.1-1.4-42.8-.8-63 0-1.1.3-2.2.6-3.7 1.2.4 2.2.6 2.9 1.1 1.5 1.1 2.8 2.4 4.1 3.6l25.8 24.3c2.5 2.4 5.1 4.8 7.7 7.2v-35c4.5-.9 8.9-.4 13.7-.3.2 1.4.5 2.6.5 3.9v57.9c0 1.6-.3 3.2-.5 4.8-.4.1-.9.3-1.3.5zM182.1 231c4.3 6.5 8.4 12.7 12.5 19-3.2 1.4-9.5 1.7-16.8.8-3.3-5-6.8-10.2-10.2-15.5h-7.1c-.1 5.2-.2 10.3-.3 15.6H146c-.9-3.6-1.1-59.6-.2-65.5.5-.1 1.1-.4 1.8-.4 6.8 0 13.7-.2 20.5.1 3.6.2 7.3.9 10.7 2.2 11 4.2 15.4 12.4 15 24.4-.2 7.7-3.5 13.8-10.2 17.9-.5.4-.8.8-1.5 1.4zm-21.6-9.5c4.3.9 8.1.2 11.7-.8 3.4-.9 5.3-3.5 5.8-6.8.4-2.4.2-5 0-7.4-.3-2.6-1.8-4.8-4.1-6-4.2-2.2-8.7-2.7-13.4-1.7v22.7zM344 252.2c-6.4-6-12.8-11.9-19.2-18-6.3-5.9-12.5-11.9-19.3-18.3-.6 3.2 0 6.1-.1 8.9-.1 2.8 0 5.7 0 8.5v9c0 2.8-.1 5.6-.2 8.6h-13.4c-1.3-3.6-.4-7.3-.6-10.9-.1-3.8 0-7.7 0-11.5v-22c0-3.8-.1-7.7 0-11.5.2-3.5-.9-7.2 1.1-11.2 4.3 2.3 7 5.9 10.3 8.8 3.4 2.9 6.5 6.2 9.8 9.3 3.2 3 6.4 5.8 9.5 8.8 3.2 3.1 6.4 6.2 10.2 9.9v-35.4h13.4c1 4.5.4 8.9.5 13.3.1 4.5 0 9 0 13.5v13c0 4.5.1 9 0 13.5-.1 4.3.6 8.8-.5 13-.4.3-.9.5-1.5.7zM61.7 237.1c-5.9 12-21.6 17.6-36.7 14-14-3.4-24.4-16.7-25-31.4s7.7-29.4 23.4-33.9c14.1-4.1 29.5-1.2 37.5 12.8-3.5 2.5-7.1 5.1-10.9 7.8-.9-1-1.7-1.7-2.4-2.6-4.9-5.7-11.3-6.8-18.2-5.3-6.7 1.5-11.2 6-12.8 12.7-2 8.1-1.2 15.7 5 22.3 6.3 6.7 21 7.1 26.9-1.9.5-.8 1.3-1.5 1.9-2.2 3.7 1.4 8.5 4.7 11.3 7.7zM114.9 112.9c-3.6 2.5-7.1 5-11.4 8-.8-1.2-1.3-2.3-2-3.1-5.3-5.7-11.8-7.1-19.1-4.8-7.4 2.4-11.4 7.9-12.4 15.4-.9 7 .2 13.6 5.5 18.9 7.3 7.5 20.2 6.9 26.3-.6.9-1.2 2-2.2 3.1-3.5 1 .5 1.9.9 2.7 1.5 2.9 2 5.7 4 8.7 6.1-1.8 3.8-4.4 6.6-7.4 8.9-15.5 11.7-42.3 8.2-51.5-13.2-5.3-12.3-4.2-24.7 4.1-35.4 8.3-10.6 19.7-14.2 32.9-12.4 8.3 1.2 15.1 5 19.8 12.2.2.5.3 1.2.7 2zM147.2 97.6c.5 1 .9 1.8 1.2 2.5 9.8 21.4 19.5 42.8 29.4 64.9h-15.6c-1.1-2.2-2-4.3-3.1-6.6h-25c-1 2.1-2 4.2-3.2 6.7-4.4.2-8.9.3-13.6 0 .6-3.6 23.5-57.5 27.5-65 .3-.6 1-1.1 2.4-2.5zm6.2 47.4c-2.4-6.2-4.6-11.7-7.2-18.3-1.7 6.9-4.7 12.2-6.5 18.3h13.7zM242.3 185.4h14.9c-9.6 22-18.9 43.4-28.3 64.8-.3.7-1 1.2-1.5 1.6-2.2-.2-2.6-1.8-3.2-3.1-9.1-20.2-18.2-40.3-27.3-60.5-.3-.7-.5-1.5-1-3 5.5-.2 10.5-.3 16 .1 5.1 11.7 10.2 23.4 15.3 35.2 5.1-11.6 10.1-23.3 15.1-35.1zM247.8 112.1v-8.6c0-1.2.1-2.3.2-3.3l.5-.5c.1-.1.3-.3.4-.3l46.9-.3c1 0 1.9.1 3.2.2.9 4.2.6 8.2.3 12.6-5.8 1.1-11.7-.1-17.9.8-.5 17.4.1 34.8-.4 52.4h-14.7c-.2-17.4 0-34.7-.1-52.5-6.1-.7-12 .1-18.4-.5zM278.8 250.9h-14.3v-65.6c4.7-.5 9.4-.3 14-.1 1 3.8 1.2 59.3.3 65.7z"/></svg>