<svg version="1.1" id="Layer_1" xmlns="http://www.w3.org/2000/svg" x="0" y="0" viewBox="0 0 459.6 127.2" style="enable-background:new 0 0 459.6 127.2" xml:space="preserve"><style>.st0{fill-rule:evenodd;clip-rule:evenodd}</style><path class="st0" d="M249.7 117.3c1.8.1 3.2.1 4.8-.5 1.8-.7 3.2-1.9 4.1-3.6.8-1.5 1.1-3.2.4-4.8-.7-1.7-2.3-2.7-4.2-3-3.6-.6-7.2 1-9 4.1-1.9 3.1.1 7.5 3.9 7.8zm.5 9.8c8.7-.4 18.6-4.3 21.9-13.4 0-.1 0-.2.1-.2s.2.2.2.3c-.8 4.3-1.7 8.5-2.4 12.8h24.8c.7-3.3 1.3-6.6 1.9-9.9-3.8-.1-7.5 0-11.3-.1 1.3-7.1 2.7-14 4-21.1-4.5-.1-9 0-13.5 0-.8 4.5-1.7 8.8-2.5 13.2 0 .2-.1.5-.3.4-.1-.1 0 .1 0-.1.3-10.4-10.6-14.5-19.1-14-8.6.5-18.2 4.5-21.6 13.4-.1.3-.4.3-.3-.1.8-4.3 1.6-8.5 2.4-12.8-4.3-.1-8.6 0-12.9 0-.8 3.5-1.3 6.9-2.1 10.4-2.8 0-5.5.1-8.3 0 .6-3.5 1.3-6.9 1.9-10.4-8.7-.1-17.3 0-26.1 0-2.7 6.1-6.1 11.8-8.1 18.1-.1.4-.5.4-.5 0-.5-6.1-1-12-1.5-18-3.5-.1-6.8 0-10.4-.1-2.8 6.1-6.4 11.9-8.6 18.3-.1.3-.4.3-.4 0l-1.2-18.3h-13.9c2.4 10.4 4.8 20.7 7.1 31.1 3.9 0 7.5-.1 11.4 0 2.5-5.5 5.9-10.7 7.6-16.5.1-.2 0-.5.3-.5s.3.2.3.5c.3 5.5.7 10.9 1 16.4 3.9 0 7.9.1 11.8-.1 5.7-9.4 11.4-18.5 17.1-28 .2-.3.4-.1.4.2-1.8 9.3-3.5 18.5-5.3 27.8 4.4.1 8.5 0 12.9.1.9-3.6 1.3-7.2 2.2-10.9 2.8 0 5.5-.1 8.3.1-.6 3.7-1.4 7.1-2 10.8 4.3.1 8.5 0 12.9 0 .9-3.9 1.5-7.8 2.3-11.7.1-.3 0-.7.2-.9.1-.2.1-.7.2-.6.1.1 0-.1 0 .1.1 10.4 10.8 14.1 19.1 13.7zM370.7 115.5c1.7-.1 3 0 4.7-.1 0-3.1-.7-6-.5-9.1 0-.4-.6-.6-.7-.2-1.4 2.9-2.5 5.7-3.9 8.6-.2.5-.1.8.4.8zm-18.9 6.6c.2-.2.3-.6.5-.3.1.2-.1.3-.2.5-.8 1.5-1.9 2.9-2.5 4.4h14.2c.7-1.3 1.2-2.5 1.9-3.9H376c.3 1.4.2 2.5.6 3.8h38c.7-3.4 1.3-6.6 1.9-9.9-3.8-.1-7.4 0-11.3-.1 1.2-7.1 2.7-13.9 3.9-21.1-4.5-.1-8.9 0-13.4 0-1.8 9.2-3.5 18.4-5.3 27.6 0 .2-.1.5-.3.5-.2-.1-.1-.3-.1-.5-2.2-9.2-4.3-18.3-6.6-27.6-5-.1-9.9 0-14.9 0l-12.9 21.3c-.2.3-.6.3-.4 0 1.3-3.5-.6-7.2-3.9-8.5-1.6-.6-3.1-1-4.8-1.4-1.7-.4-3.6-.2-4.8-1.6.8-2.4 3.4-2.1 5.3-1.9 2 .2 3.9 1.2 5.6 2.2 1.8-2.7 3.4-5.1 5.1-7.9-7.4-4-17.3-3.5-24.3 1.2-3.8 2.5-6.9 7.6-4.6 11.9 1.1 2.1 3.6 2.9 5.7 3.5 1.9.5 4 .6 5.9 1.1.2.1.6.1.7.3.1.2.7.3.7.6-.4 2.7-3.7 2.7-5.9 2.4-2.3-.4-4.6-1.5-6.5-3.1-1.7 2.4-3.3 4.9-5 7.4-.2.3-.5.4-.4 0 .3-1.7.6-3.1.9-4.8-4-.1-7.8 0-11.8-.1.2-1.1.3-2 .6-3.1h10.4c.5-2.6 1.1-5.2 1.5-7.9-3.5-.1-6.8 0-10.3 0 0-1.1.2-2.1.6-3.2h11.4c.4-2.9 1.1-5.5 1.5-8.3h-25c-2 10.4-3.9 20.6-5.9 31.1 8.5.1 16.9 0 25.3 0 .2-.6.2-1.2.4-1.7 0-.2.1-.5.2-.5s.4.1.5.2c8.4 3.3 19.7 3.9 27.5-2.6zM3.5 126.7h142.4c.3 0 .5-.2.4-.5-.7-2.5-1.1-4.9-1.8-7.4H2.8c-.1 2.6.1 4.8 0 7.4 0 .4.3.5.7.5zM417.6 126.7c8.3-.1 16.5 0 24.8 0 .4-2.9 1.1-5.5 1.5-8.4-3.7-.1-7.3 0-11.1 0-.4 0-.7-.3-.6-.7.3-.9.2-1.6.5-2.4h10.4c.6-2.6 1-5.2 1.5-7.9-3.5-.1-6.8 0-10.3-.1 0-1.1.3-2 .5-3.1 3.8-.1 7.6 0 11.4 0 .6-2.8 1.1-5.5 1.6-8.4-8.3 0-16.7-.1-25 0-1.9 10.2-3.8 20.3-5.8 30.5 0 .3.3.5.6.5zM3.5 115.3h139.7c.4 0 .6-.2.5-.5-.7-2.5-1.1-4.8-1.7-7.3H2.9c-.2 2.5 0 4.8-.1 7.3 0 .4.3.5.7.5zM3.5 103.9h137c.2 0 .5.1.6-.1.1-.1 0-.3 0-.4-.6-2.6-1.1-5.1-1.8-7.7H2.9c-.1 2.7.1 5.1-.1 7.7 0 .4.3.5.7.5zM124.6 65.6c3.7.2 7.6-.6 10.9-2.2 3.7-1.8 6.8-5.1 8.1-9 1.2-3.5 1.2-7.6-1.1-10.7-2.3-3.2-6.1-4.6-10-4.9-3.7-.2-7.6.4-10.9 2.1-3.8 1.9-7.1 5.2-8.5 9.2-1.3 3.6-1.3 7.8 1.2 10.9 2.5 3.2 6.4 4.4 10.3 4.6zm5.2 21.4c10.9-1.2 21.5-4.8 30.3-11.5 9.1-6.9 15.4-17.4 15.6-28.8 0-.1.3-.3.3-.2v.4c1 6.5 7 10.1 12.7 11.8 5.2 1.6 11.1 1.8 16.4 3.1.2 0 .3.3.4.3.3.1.5.4.7.6.3.2.5.5.6.9 0 .1.1.2 0 .3-.1.1.1.2.1.3-.3 3-3.4 4-5.9 4.5-2.5.4-5.2.3-7.7-.2-5.2-1-10.1-3.5-14.4-6.9-2.4 3.3-4.5 6.6-6.8 9.9-2.2 3.2-4.3 6.2-6.4 9.7 18.3 7.5 41.8 9.5 59.6-1 4.7-2.8 8.9-6.9 11.2-11.8 2.2-4.6 3.2-10.3 1-15.1-2.5-5.3-8.4-7.9-13.7-9.4-4.8-1.3-10.2-1.8-15-3.3-.5-.2-.9-.9-1.1-1.2-.1-.1-.1-.3-.2-.3 0-2.7 2.5-3.9 4.7-4.3 2.2-.4 4.5-.3 6.7 0 4.6.6 8.8 2.5 12.9 4.9 3.9-5.9 7.9-11.8 11.7-17.7-11.2-6.3-25.5-7.3-38-4.7-13.6 2.9-28.3 11.8-29.6 27.1 0 .3-.1.2-.1-.1 0-12-9.6-21.2-20.1-25-9.5-3.5-20.3-4.2-30.5-2.6-10.8 1.6-21.1 5.7-29.6 12.7S81.3 46.7 81.2 57.7c-.1 5.4 1.4 10.6 4.5 15 3.4 4.8 8.4 8.3 13.8 10.5 9.3 4.1 20 4.9 30.3 3.8zM337.6 87.4c6.7-.3 13.4-.7 19.8-2.7.9-4.4 1.9-8.5 2.8-12.7.9-4.4 2.1-8.6 2.9-13-5.5 3.8-12.1 6.5-19.1 6.3-3.7-.1-7.3-1.1-10.2-3.4-2.9-2.3-4.7-5.9-4-9.7 1.5-7.6 8.8-12.5 16.1-13.7 7.1-1.2 14.7 1.7 20 6.7 1.5-8.7 2.8-17.1 4.2-25.8 0-.2.1-.5-.1-.5-.1 0-.3 0-.5-.1-12.9-3.8-27.5-3.7-40 1.1C315.7 25 303 36 299.2 50.4c-1.7 6.6-1.3 13.9 1.9 20 3.4 6.5 9.6 11.4 16.4 14 6.3 2.4 13.3 3.3 20.1 3zM408.3 65.6c3.8.2 7.8-.5 11.2-2.3 3.5-1.8 6.4-4.8 7.8-8.4 1.3-3.5 1.5-7.7-.7-10.9-2.3-3.3-6.3-4.9-10.2-5.1-3.7-.2-7.5.4-10.8 2-3.5 1.7-6.6 4.7-8.2 8.3-1.5 3.5-1.9 7.8.3 11.2 2.3 3.5 6.5 5 10.6 5.2zm-4.8 21.8c21.7.7 46.2-8.7 54.3-30.5 1-2.6 1.2-4.9 1.6-7.6.4-2.7.3-5.2-.1-7.7-.9-5.8-3.8-11-8.2-15-8.1-7.2-18.8-10-29.5-10.3-10.6-.4-21.3 1.7-30.8 6.1-10.6 4.9-20 13.4-23.9 24.7-.4 1.3-.8 2.5-1.1 3.8-.3 1.3-.5 2.6-.7 3.9-.3 2.6-.2 5.2.1 7.7.8 5.5 3.7 10.6 7.8 14.5 8.1 7.5 19.8 10.1 30.5 10.4zM449.4 82.2c0-.5-.2-1-.6-1.4-1.4-1.6-4.1-1.3-5.7-.2-.4.3-.9.7-1.1 1.2-.2.4-.4.7-.5 1.1s-.2.9-.1 1.3c1.7 3.8 8.2 2 8-2zm-2.4 4.7c2.1-.8 4.4-3 3.6-5.4-1.5-4.7-9.6-3.1-10.3 1.4-.1.5-.3 1.1-.1 1.6.2.5.4.9.7 1.3 1.4 1.8 4.1 1.8 6.1 1.1z"/><path class="st0" d="M272.3 86.4c3-9.8 6-19.7 8.9-29.4 1.5-4.9 3-9.9 4.5-14.8l.6-2.1c.1-.3.1-.6.3-.9.2-.3.5-.1.8-.1 1.2 0 2.4 0 3.6.1 2.4.3 4.9.1 7.3.3 1.3.1 2.6 0 3.9.1h.9c.3 0 .4-.5.5-.8.2-.6.3-1.2.5-1.8.8-2.5 1.5-5 2.3-7.5.7-2.5 1.5-5 2.3-7.5.3-1.1.7-2.3 1-3.4.2-.6.6-1.4-.2-1.3-.7.1-1.3 0-1.9 0H246.2c-.3 0-.8-.1-.8.3s-.2.6-.3.9c-.4 1.2-.7 2.4-1.1 3.7-.7 2.4-1.5 4.8-2.2 7.3s-1.5 5-2.3 7.5c-.2.6-.4 1.2-.5 1.8-.1.3-.3.7-.1.8.3.1.6.1.9 0 1.2-.1 2.4 0 3.6-.1 2.5-.2 5-.1 7.5-.3 1.2-.1 2.4-.1 3.6-.1h.9c.3.1.2.5.1.8l-.6 1.8c-1.5 4.9-3 9.9-4.5 14.8-3 10-6.1 19.9-9 29.9h30.9zM49.5 86.1c8.2-.4 16.4-.9 24.2-3.2 1.2-5.3 2.4-10.3 3.6-15.5s2.5-10.3 3.6-15.6c-4 2.4-7.9 4.6-12.3 5.9-4.1 1.2-8.4 1.8-12.7 1.6-4.5-.3-8.6-1.6-12-4.4-3.4-2.7-5.3-7.2-4.5-11.5.9-4.9 4.1-8.9 8.2-11.7 3.7-2.6 7.8-4.1 12.3-4.8 9-1.3 17.9 2.3 24.6 8.1 1.8-10.5 3.4-20.8 5.2-31.2.1-.3-.1-.6-.4-.7-16.1-4.2-33.8-4.5-49.4 1.1-8.7 3.1-16.8 7.6-23.7 13.8-7 6.3-12.5 14.3-14.9 23.3-2.2 8.1-1.6 17.1 2.5 24.5 4.5 8.1 12.6 14 21.2 17 7.6 2.8 16.1 3.8 24.5 3.3zM445.2 82.6c.5-.1.8.1 1.4-.1s.3-1-.2-.9c-.7.2-1.6-.4-1.8.4-.2.4.2.6.6.6zm-2.3 2.7c.5-.1.6 0 1-.1.1-.3.3-.6.2-1 0-.5.3-1 .8-.9.3.1.5.4.6.7.1.3.2.5.3.7.1.3.3.6.7.5.3-.1.5.1.8-.1-.1-.7-.7-1.1-.7-1.9.5-.1 1.1-.4 1.3-.9.2-.4.3-1.1-.1-1.4-1.2-.7-2.6-.2-3.9-.3-.6 1.7-.8 3.2-1 4.7z"/></svg>