<svg xmlns="http://www.w3.org/2000/svg" viewBox="0 0 151.5 176.7" fill="#010202" xmlns:v="https://vecta.io/nano"><path d="M143.2.8v4.3h-.9V.8h-1.6V0h4v.8h-1.5m3.3 4.3h-.9V0h1.4l1.5 3.2L150 0h1.3v5.1h-.9v-4l-1.8 3.6h-.5l-1.8-3.6v4M19.7 13.9h-6.6V2.8c0-.7.1-1.2.3-1.5h4V0H4.5v1.4h4c.1.3.3.8.3 1.5v24c0 .7-.1 1.2-.3 1.5h-4v1.4h12.8v-1.4h-4c-.1-.3-.3-.8-.3-1.5V15.3h6.6v-1.4zm2.9 1.4h6.6v11.5c0 .7-.1 1.2-.3 1.5h-4v1.4h12.8v-1.4h-4c-.1-.3-.3-.8-.3-1.5v-24c0-.7.1-1.2.3-1.5h4V0H25v1.4h4c.1.3.3.8.3 1.5V14h-6.6v1.3zm18 8.7c0 3.3 1.7 5.8 5.4 5.8 2.4 0 4.1-1.1 4.8-1.6V27c-.7.3-1.8.7-3 .7-2.2 0-3.1-1.4-3.1-4.7V11.8c0-.6.1-1.5.2-1.9h-7.2v1.4h2.6c.1.3.3.8.3 1.5V24zm17.2-12.2c0-.6.1-1.4.2-1.9h-7.3v1.4h2.8c.1.3.3.8.3 1.5v17h6.9v-1.4H58c-.1-.3-.2-.8-.2-1.5V11.8zm8.3 15c0 .7-.1 1.2-.3 1.5H63v1.4h10.2v-1.4h-2.8c-.1-.3-.3-.8-.3-1.5v-17H63v1.4h2.8c.1.3.3.8.3 1.5v14.1zm17.4-11.3c0-3.5-1.6-5.9-5.4-5.9-2.5 0-4.1 1.1-5 1.7v1.2c.7-.3 1.9-.7 3-.7 1.9 0 3.3 1.1 3.3 3.9v11.1c0 .7-.1 1.2-.3 1.5h-2.8v1.4h10.2v-1.4h-2.9c-.1-.3-.2-.8-.2-1.5l.1-11.3zm19.3-5.7L88.7 29.6h4.4l13.5-18.7V9.8h-3.8zm-12.1 3.4c0-.6.4-1.7.7-2h7l1-1.4H89.2v5.4h1.3l.2-2zm14.7 13.1c-.1.7-.4 1.7-.7 2h-7.4l-.9 1.4h10.4V24h-1.3l-.1 2.3zm16.1-.5c0 2.2 1.2 4.1 4.4 4.1 3 0 4.2-1.7 4.2-4.6v-1.4h-1.2v1.6c0 2.2-.8 2.8-1.7 2.8-1.3 0-1.5-1.1-1.5-2.1V13.6c0-1.8-1.1-3.5-4.1-3.8l-.1 16zm-3-6.8h-2c-5 0-7 1.7-7 5.3v.5c0 2.8 1.6 5.1 5 5.1 1.4 0 3-.4 4.1-1.1v-1c-.7.3-1.6.4-2.3.4-1.7 0-2.6-1-2.6-3 0-4 .3-5 4.9-5V19zm-5.3-6.3c.1-.7.3-1.2.4-1.5h5V9.8h-7v4.7h1.4l.2-1.8m-73 81.4c0-21.7 6.1-31.6 21.5-32.9V58c-20.6 0-32.2 15.1-32.2 35.9 0 20.2 11 35.5 32.2 35.5v-3.2c-16-1.3-21.5-11.4-21.5-32.1m56 9.7c0-1.7.3-2.9.6-3.5h6.4v-3.2H72.4v3.2h13.4c.1 1 .3 2.2.3 3.7v7.1c0 10.2-8.8 14.9-17.5 15v3.2c12.7 0 18.4-7.3 19.1-9l5.1 8.5h3.3v-25zm-6.1-22.3h3.5V58.6h-3.1l-2.7 8.9S82 58 68.7 58v3.2c13.4.2 20 12.1 21.4 20.3M0 145.8l3 4.1 1.3-1-1.9-2.7 5.2-3.8-1-1.4-6.6 4.8zm20.4 16.5c-.1.6 0 1.1.1 1.6.2.5.4 1 .8 1.4s.8.8 1.4 1.1 1.1.5 1.7.6 1.1.1 1.6-.1c.5-.1 1-.4 1.5-.7.4-.4.8-.8 1.1-1.4s.5-1.1.6-1.7 0-1.1-.1-1.6c-.2-.5-.4-1-.8-1.4s-.8-.8-1.4-1.1-1.1-.5-1.7-.6-1.1-.1-1.6.1c-.5.1-1 .4-1.5.7-.4.4-.8.8-1.1 1.4-.4.5-.6 1.1-.6 1.7m2.8-1.6c.3-.2.5-.4.8-.5s.6-.1 1-.1a1.93 1.93 0 0 1 1 .3c.3.2.6.4.8.7s.3.6.4.9.1.6 0 1c-.1.3-.2.7-.4 1s-.4.6-.7.8-.5.4-.8.5-.6.1-1 .1c-.3 0-.7-.2-1-.3-.3-.2-.6-.4-.8-.7s-.3-.6-.4-.9-.1-.6 0-1c.1-.3.2-.7.4-1s.5-.6.7-.8m24 14.6l1.8.3 1-5.7h0l2.5 6.3 2.3.4 1.3-8-1.8-.3-.9 5.6h0l-2.5-6.1-2.4-.4-1.3 7.9zm29.6 1.4l2.9-.4c.6-.1 1.2-.3 1.7-.5.5-.3 1-.6 1.3-1 .4-.4.6-.9.8-1.4s.2-1.1.1-1.8-.3-1.3-.7-1.8c-.3-.5-.7-.8-1.2-1.1s-1-.4-1.6-.5-1.2 0-1.9.1l-2.7.4 1.3 8zm.8-6.7l1-.2c.4-.1.7-.1 1.1 0 .3 0 .7.1.9.3.3.2.5.4.7.6.2.3.3.6.4 1 .1.5.1.8-.1 1.2-.1.3-.3.6-.5.8s-.5.4-.9.5c-.3.1-.7.2-1.1.3l-.9.1-.6-4.6zm26.1-3c.4.4.9.6 1.4.8.5.1 1.1.2 1.6.1.6-.1 1.1-.3 1.7-.6s1-.7 1.4-1.1.7-.9.8-1.4c.2-.5.2-1 .2-1.6-.1-.6-.2-1.1-.5-1.7s-.7-1-1.1-1.4-.9-.6-1.4-.8c-.5-.1-1.1-.2-1.6-.1-.6.1-1.1.3-1.7.6s-1 .7-1.4 1.1-.7.9-.8 1.4c-.2.5-.2 1-.2 1.6.1.6.2 1.1.5 1.7.2.6.6 1.1 1.1 1.4m.1-3.3c0-.3 0-.7.1-1s.2-.6.4-.9.5-.5.8-.7a1.93 1.93 0 0 1 1-.3c.3 0 .7 0 1 .1s.6.3.8.5c.3.2.5.5.6.8a1.93 1.93 0 0 1 .3 1c0 .3 0 .7-.1 1s-.2.6-.4.9-.5.5-.8.7a1.93 1.93 0 0 1-1 .3c-.3 0-.7 0-1-.1s-.6-.3-.8-.5c-.3-.2-.5-.5-.6-.8l-.3-1m25.3-13l1.1-1.4-4.7-3.4h0l6.7.5 1.4-1.9-6.6-4.8-1.1 1.4 4.6 3.3h0l-6.6-.5-1.4 2 6.6 4.8"/></svg>