<svg xmlns="http://www.w3.org/2000/svg" viewBox="0 0 212.7 422.9" style="enable-background:new 0 0 212.7 422.9" xml:space="preserve"><path d="M17.08.411v33.384c0 4.354-1.451 7.741-3.87 10.16s-6.29 3.87-11.612 3.87H.147v-7.257h1.451c2.42 0 4.355-.483 5.806-1.451 1.452-.968 1.935-2.903 1.935-5.322V7.669H2.082V.41H17.08zM31.595 41.536h7.257V.411h7.741v40.157c0 4.839-2.419 7.742-7.74 7.742h-7.258c-5.322 0-7.741-2.42-7.741-7.742V.411h7.741v41.125zM61.108 40.085c1.935 0 3.87-.968 4.838-2.903 1.452-1.936 1.936-4.838 1.936-7.741V.41h7.74v29.513c0 5.806-1.45 10.16-4.838 13.547-3.386 3.387-8.224 4.839-14.514 4.839H52.4V.895h7.74l.968 39.19zM101.749 7.669H90.62v12.58h9.193l-1.452 6.773h-7.741v13.546h11.612l-1.452 7.258H82.396V.41h17.901l1.452 7.258zM122.07 17.829V.411h7.74v47.415h-7.74v-16.45l-7.258-16.45h-.484v32.416h-7.74V-.072h7.256l8.225 17.901zM155.453.411l1.451 7.258h-7.74v40.157h-7.742V7.669h-7.741L135.132.41h20.32zM169 41.536h7.257V.411h7.741v40.157c0 4.839-2.419 7.742-7.74 7.742H169c-5.322 0-7.741-2.42-7.741-7.742V.411h7.74v41.125zM198.029 32.344v9.676h6.773v-6.774c0-1.451 0-2.902-.483-3.87s-1.452-1.935-2.42-2.42l-7.257-4.837c-1.451-.968-2.419-1.936-2.903-3.387-.484-1.452-.967-2.903-.967-4.354v-8.71c0-2.418.483-4.354 1.935-5.805 1.451-1.452 2.903-1.935 5.322-1.935h7.257c2.42 0 4.355.483 5.806 1.935.968 1.451 1.935 3.387 1.935 5.806v6.29l-7.74 1.935V6.217h-6.774v7.258c0 1.451 0 2.419.484 2.903.483.967 1.451 1.451 2.419 2.419l6.773 4.354c2.903 1.935 4.838 4.838 4.838 8.709v9.192c0 2.42-.483 4.355-1.935 5.322-1.451.968-3.387 1.936-5.322 1.936h-6.773c-2.903 0-4.839-.484-5.806-1.452-1.452-.968-1.936-2.903-1.936-5.322v-9.192h6.774zM.147 122.818V85.08h128.212v173.207c0 56.607-15.966 77.411-96.28 112.73-10.644-13.063-16.45-23.707-21.772-36.286 32.9-14.999 43.06-20.805 43.06-20.805 25.159-14.998 31.932-24.674 31.932-63.38V122.334l-85.152.484z"/><path d="M169.277 85.236h43.5v190c0 42.2-13 79.1-41 105.8-14.4 14.2-39.3 30.2-65.3 41.9-18.8-9.1-27.6-13.9-42-23.1 71-34.5 104.8-56.7 104.8-135.9v-178.7z"/></svg>