<?xml version="1.0" encoding="utf-8"?>
<!-- Generator: Adobe Illustrator 23.0.0, SVG Export Plug-In . SVG Version: 6.00 Build 0)  -->
<svg version="1.1" id="Layer_1" xmlns="http://www.w3.org/2000/svg" xmlns:xlink="http://www.w3.org/1999/xlink" x="0px" y="0px"
	 viewBox="0 0 212.7 422.9" style="enable-background:new 0 0 212.7 422.9;" xml:space="preserve">
<g id="mdx">
</g>
<g id="layer1" transform="translate(373.877,1154.4356)">
	<g id="flowRoot2998" transform="matrix(4.8381936,0,0,4.8381936,2734.8092,4477.1494)">
		<path id="path3007" d="M-639-1163.9v6.9c0,0.9-0.3,1.6-0.8,2.1s-1.3,0.8-2.4,0.8h-0.3v-1.5h0.3c0.5,0,0.9-0.1,1.2-0.3
			c0.3-0.2,0.4-0.6,0.4-1.1v-5.4h-1.5v-1.5H-639z"/>
		<path id="path3009" d="M-636-1155.4h1.5v-8.5h1.6v8.3c0,1-0.5,1.6-1.6,1.6h-1.5c-1.1,0-1.6-0.5-1.6-1.6v-8.3h1.6V-1155.4z"/>
		<path id="path3011" d="M-629.9-1155.7c0.4,0,0.8-0.2,1-0.6c0.3-0.4,0.4-1,0.4-1.6v-6h1.6v6.1c0,1.2-0.3,2.1-1,2.8
			c-0.7,0.7-1.7,1-3,1h-0.8v-9.8h1.6L-629.9-1155.7L-629.9-1155.7L-629.9-1155.7z"/>
		<path id="path3013" d="M-621.5-1162.4h-2.3v2.6h1.9l-0.3,1.4h-1.6v2.8h2.4l-0.3,1.5h-3.8v-9.8h3.7L-621.5-1162.4z"/>
		<path id="path3015" d="M-617.3-1160.3v-3.6h1.6v9.8h-1.6v-3.4l-1.5-3.4h-0.1v6.7h-1.6v-9.8h1.5L-617.3-1160.3L-617.3-1160.3z"/>
		<path id="path3017" d="M-610.4-1163.9l0.3,1.5h-1.6v8.3h-1.6v-8.3h-1.6l0.3-1.5H-610.4z"/>
		<path id="path3019" d="M-607.6-1155.4h1.5v-8.5h1.6v8.3c0,1-0.5,1.6-1.6,1.6h-1.5c-1.1,0-1.6-0.5-1.6-1.6v-8.3h1.6V-1155.4z"/>
		<path id="path3021" d="M-601.6-1157.3v2h1.4v-1.4c0-0.3,0-0.6-0.1-0.8s-0.3-0.4-0.5-0.5l-1.5-1c-0.3-0.2-0.5-0.4-0.6-0.7
			c-0.1-0.3-0.2-0.6-0.2-0.9v-1.8c0-0.5,0.1-0.9,0.4-1.2c0.3-0.3,0.6-0.4,1.1-0.4h1.5c0.5,0,0.9,0.1,1.2,0.4
			c0.2,0.3,0.4,0.7,0.4,1.2v1.3l-1.6,0.4v-2h-1.4v1.5c0,0.3,0,0.5,0.1,0.6c0.1,0.2,0.3,0.3,0.5,0.5l1.4,0.9c0.6,0.4,1,1,1,1.8v1.9
			c0,0.5-0.1,0.9-0.4,1.1c-0.3,0.2-0.7,0.4-1.1,0.4h-1.4c-0.6,0-1-0.1-1.2-0.3c-0.3-0.2-0.4-0.6-0.4-1.1v-1.9H-601.6z"/>
		<path id="path3023" d="M-642.5-1138.6v-7.8h26.5v35.8c0,11.7-3.3,16-19.9,23.3c-2.2-2.7-3.4-4.9-4.5-7.5c6.8-3.1,8.9-4.3,8.9-4.3
			c5.2-3.1,6.6-5.1,6.6-13.1v-26.5L-642.5-1138.6L-642.5-1138.6z"/>
	</g>
	<path id="path3025" d="M-204.6-1069.2h43.5v190c0,42.2-13,79.1-41,105.8c-14.4,14.2-39.3,30.2-65.3,41.9
		c-18.8-9.1-27.6-13.9-42-23.1c71-34.5,104.8-56.7,104.8-135.9L-204.6-1069.2L-204.6-1069.2z"/>
</g>
</svg>
