<?xml version="1.0" encoding="utf-8"?>
<!-- Generator: Adobe Illustrator 23.0.0, SVG Export Plug-In . SVG Version: 6.00 Build 0)  -->
<svg version="1.1" id="Layer_1" xmlns="http://www.w3.org/2000/svg" xmlns:xlink="http://www.w3.org/1999/xlink" x="0px" y="0px"
	 viewBox="0 0 150.9 212.4" style="enable-background:new 0 0 150.9 212.4;" xml:space="preserve">
<style type="text/css">
	.st0{fill:none;}
	.st1{fill:#EDDCB2;}
</style>
<g>
	<path class="st0" d="M102.1,182.6c-6.8,2.5-3.8,15.5,4.5,12C113.5,191.7,110.2,179.6,102.1,182.6z"/>
	<path class="st0" d="M34.1,183.1c-7.8,2.7-4.3,15.5,4.2,12.6C46.1,193.1,42.6,180.2,34.1,183.1z"/>
	<path class="st0" d="M134.4,183.1c-7.5,2.4-4.6,15.5,4,12.7C146.4,193.2,143,180.3,134.4,183.1z"/>
	<path class="st0" d="M78.9,98.5c9.7-6,3.6-7.4,2.4-11.7c0.4,0.5,1.7,1.8,2.2,2.4c0.7,0.8,1.9,2,2.6,2.6c3.5-0.4,5.5-2.7,7-3.5
		l-0.3,2.4c2.5-3.8,4.7-7.8,4.6-13.7c-0.1,0.1-0.1,0.1-0.2,0.2L96.6,78c-0.2,0.4-0.4,0.8-0.7,1c-1.6-5.6-1.5-3.7-3.3-7.1l-6.7,1.2
		l6-3c0.3-3.4-0.5-5-1.3-7.7l2.2,1c-1.1-2.8-7.4-7.7-11.8-8.6l1.8,1.9c-8.6,0.5-7.8,0.2-8.3,4.4c-0.1,1.2-0.3,2.4-0.4,3.7l-0.7-5.1
		c0-0.3-0.1-0.7-0.1-1c0,0,0.2-2.4-8-1.9c0.5-1,1-1.2,1.8-2c-4.5,0.8-10.6,5.9-12,8.7l2.3-1.2c-0.7,3-1.5,4-1.3,7.6
		c1.5,1.4,4.4,1.9,6.1,3.1l-6.6-1.2c-2.1,2.5-2.4,3.6-3.6,7.2l-1.2-2.3c-0.3,5,2,11.3,4.5,13.9L55,88.2c2.1,1.2,4,3.2,7.3,3.6
		l4.5-4.9l-3.2,6c1.1,2.1,3.5,4.5,5.6,5.4c-0.1,0-0.2,0-0.2,0.1c0,0.1-0.2,0.1-0.2,0.1c-0.3,0.1-0.3,0.1-0.7,0.2
		c-0.4,0.1-0.8,0.1-1.4,0.3c7,1.5,7.5,1.4,14.5,0.1L78.9,98.5z M67.7,85.7l-3.8-12.3c1.1-0.5,4-2.7,5.1-3.5c1.4-1,3.6-2.9,5-3.6
		l10.2,7.3l-3,9.7C80,86.8,81.3,85.5,67.7,85.7z"/>
	<path class="st1" d="M21.4,86c2.6-1,13.7-5,14.9-6c-0.1-1.4-1.6-5.2-2-7.4c-1-5.6-0.7-11.4,1.1-16.8c0.5-1.7,2.7-6,2.7-7
		c-1-1.1-11.6-6.4-13.9-7.6c-2.3-1.2-12.9-7.3-14.6-7.3C7.1,39.7,5.9,40.9,3.9,48c-1.6,5.6-2.5,11.5-2.5,17.6
		c0,8.9,1.6,18.6,4.9,25.8C8.2,91.5,18.9,86.9,21.4,86z"/>
	<path class="st1" d="M49.2,49.4c2.4-6.1,10.5-12.6,16.8-15.3c2-0.9,7.1-1.9,8.3-2.6c0.2-2-1.6-9.8-2.1-12.4L68.6,0.5
		c-0.7-1.2-4.5,0.2-5.9,0.5C49.1,4.5,35.4,13.2,26.9,24.3c-1.1,1.5-5.7,7.3-5.7,9.3c1,1,17.9,10.6,20.6,12.2
		C43.3,46.6,47.4,49.4,49.2,49.4z"/>
	<path class="st1" d="M28.5,132.9c2.1,1.2,12.1,6.3,14.6,5.8c0.8-1.4,1.9-5.6,2.4-7.3c1.3-4.2,7-21.4,6.9-23.3
		c-8.4-3.1-14-6.4-19.1-13.6c-1.6-2.3-2.5-4.5-3.8-7c-1.8-0.1-12.5,5-14.9,6L0,100c0.2,3.1,5.5,11.3,7.1,13.4
		C12.9,121.5,19.8,127.9,28.5,132.9z"/>
	<path class="st1" d="M118.4,46.2c-0.8,0.9-1.7,1.6-2.6,2.6l-5.3,5.6c-0.9,1-1.7,1.9-2.6,2.9c-2.2,2.2-0.5,1.6,2.8,5.8
		c1.6,2,2.9,4,4.1,6.5c4,8,2.8,11.1,3.6,18c1.1,0.4,31.5,2.1,32.1,1.4c1-2.7-0.4-13.9-1-17.1c-2-10-5.8-18.4-11.5-26.4
		c-1.8-2.5-7-8.9-9.1-10C127.7,35.9,120.2,44.2,118.4,46.2z"/>
	<path class="st1" d="M64.8,151.9c7.3,0,15-1.5,21.3-3.6c3.8-1.3,15-6.3,16.4-8.7c-0.4-1.2-17.2-26.4-17.9-26.5
		c-1,0.2-4.6,2.6-6.2,3.3c-12.4,5.6-20.1,1.7-24.5,1.7c-0.7,1.3-8.5,29.6-8.4,30.9C48.3,151,60.4,151.9,64.8,151.9z"/>
	<path class="st1" d="M97.4,41.7c3.7,1.3,6.6,2.8,9.6,5c4.1,3,1.9,3.5,8.4-3.9l10.4-11.9c1.1-1.4,4.5-4.9,5-6.3
		c-1-1.9-7.9-6.5-10.5-7.9c-8.3-4.9-17.8-8.1-27.7-9C89.3,7.4,77.8,7,75.4,8.6c-0.2,1.4,3.9,29.5,4.5,31.6
		C84.9,40.6,88.5,38.7,97.4,41.7z"/>
	<path class="st1" d="M112.7,144.5c2-0.3,9.1-7.3,10.6-8.8c6-6.3,11.6-15.8,14.5-24.5c1-3.1,3.5-12.9,3.2-16.2
		c-0.1-1.6-1.7-1.3-3.4-1.4l-27.3-2.1c-4.1-0.1,0.9,4.8-7.1,17.3c-4.4,6.9-7.5,7.6-9.4,10C94.1,120,112.1,144.3,112.7,144.5z"/>
	<path class="st1" d="M81.2,83.2l3-9.7L74,66.2c-1.4,0.7-3.6,2.6-5,3.6c-1.1,0.8-4,3.1-5.1,3.5l3.8,12.3
		C81.3,85.5,80,86.8,81.2,83.2z"/>
	<path class="st1" d="M77,102.1C89.9,100.6,100.8,89,99.2,74c-1.4-12.8-13.4-24.1-28.2-22.2c-12.9,1.7-24,13.1-22.2,28.1
		C50.4,92.8,62.1,103.8,77,102.1z M66.7,99.1c0.5-0.2,0.9-0.2,1.4-0.3c0.4-0.1,0.4-0.1,0.7-0.2c0.1,0,0.2,0,0.2-0.1
		c0-0.1,0.1-0.1,0.2-0.1c-2.1-0.9-4.6-3.3-5.6-5.4l3.2-6l-4.5,4.9c-3.3-0.3-5.2-2.4-7.3-3.6l0.3,2.4c-2.5-2.6-4.8-8.9-4.5-13.9
		l1.2,2.3c1.1-3.6,1.4-4.7,3.6-7.2l6.6,1.2c-1.7-1.2-4.6-1.8-6.1-3.1c-0.3-3.6,0.5-4.6,1.3-7.6l-2.3,1.2c1.4-2.8,7.4-7.9,12-8.7
		c-0.8,0.7-1.3,0.9-1.8,2c8.2-0.5,8,1.9,8,1.9c0.1,0.3,0.1,0.7,0.1,1l0.7,5.1c0.1-1.3,0.3-2.4,0.4-3.7c0.5-4.2-0.3-4,8.3-4.4
		L81,54.8c4.4,0.9,10.7,5.9,11.8,8.6l-2.2-1c0.8,2.7,1.6,4.4,1.3,7.7l-6,3l6.7-1.2c1.8,3.4,1.7,1.5,3.3,7.1c0.2-0.3,0.4-0.7,0.7-1
		l0.5-0.7c0-0.1,0.1-0.1,0.2-0.2c0.2,6-2.1,9.9-4.6,13.7l0.3-2.4c-1.5,0.7-3.5,3-7,3.5c-0.7-0.6-1.9-1.9-2.6-2.6
		c-0.5-0.6-1.8-1.9-2.2-2.4c1.2,4.3,7.3,5.7-2.4,11.7l2.4,0.7C74.2,100.5,73.7,100.6,66.7,99.1z"/>
	<path class="st1" d="M110.3,178.5c-1.4-1.2-2.9-2.6-5.5-3.1c-14-3-19.6,17.5-8.8,24.9c6.3,4.3,11.5,0,14-1.1c0.1,3.5-0.4,5-3.4,5.8
		c-3.9,1.1-5-0.4-6.5-1.9l-9.1-0.1c1.1,10,16.7,12.2,23.6,5.9c3.7-3.3,3.6-8.5,3.6-14.8c0-6.2,0-12.3,0-18.5l-7.9,0L110.3,178.5z
		 M106.6,194.6c-8.3,3.4-11.3-9.5-4.5-12C110.2,179.6,113.5,191.7,106.6,194.6z"/>
	<path class="st1" d="M142.7,178.2c-1.3-0.6-2.5-2.6-6.2-3c-7.8-1-14.6,5.3-14.8,14c-0.1,9.4,6.2,15.2,14.1,14.3
		c3.6-0.4,4.6-1.7,6.7-3l0.1,2.4l8.2,0l0.1-27.3l-8.2,0L142.7,178.2z M138.5,195.8c-8.7,2.8-11.5-10.3-4-12.7
		C143,180.3,146.4,193.2,138.5,195.8z"/>
	<path class="st1" d="M81.6,163.8c-6.3,1.6-4.1,11.4,2.5,9.7C90.4,171.8,87.9,162.2,81.6,163.8z"/>
	<polygon class="st1" points="64.3,168.9 55.4,168.9 55.4,202.9 74.9,202.9 75,195.2 64.3,195.2 	"/>
	<path class="st1" d="M9.4,195.1l0-25.6c-0.2-0.7,0-0.2-0.3-0.6l-8.4,0c-0.6,0.4-0.4,0.7-0.4,1.7c0,8.4-0.3,26.5,0.1,32.3
		c1.4,0.5,17.5,0.4,19.7,0.1c0.2-1.7,0.4-6.6-0.2-7.9L9.4,195.1z"/>
	<polygon class="st1" points="78.6,202.9 79.7,203 85.7,202.9 86.8,202.9 86.9,175.7 78.6,175.7 	"/>
	<path class="st1" d="M42.4,178.3c-1.9-1.3-3-2.7-6.3-3.1c-7.8-0.9-14.4,5.5-14.7,13.8c-0.3,9.3,5.6,15.3,13.8,14.6
		c3.6-0.3,4.7-1.7,7-3l0,2.3l8.1,0.1l0.1-27.3l-8.1,0L42.4,178.3z M38.3,195.8c-8.5,2.9-12-9.9-4.2-12.6
		C42.6,180.2,46.1,193.1,38.3,195.8z"/>
</g>
</svg>
