<svg xmlns="http://www.w3.org/2000/svg" viewBox="0 0 150.9 212.4" style="enable-background:new 0 0 150.9 212.4" xml:space="preserve"><path d="M21.4 86c2.6-1 13.7-5 14.9-6-.1-1.4-1.6-5.2-2-7.4-1-5.6-.7-11.4 1.1-16.8.5-1.7 2.7-6 2.7-7-1-1.1-11.6-6.4-13.9-7.6-2.3-1.2-12.9-7.3-14.6-7.3-2.5 5.8-3.7 7-5.7 14.1-1.6 5.6-2.5 11.5-2.5 17.6 0 8.9 1.6 18.6 4.9 25.8 1.9.1 12.6-4.5 15.1-5.4zM49.2 49.4c2.4-6.1 10.5-12.6 16.8-15.3 2-.9 7.1-1.9 8.3-2.6.2-2-1.6-9.8-2.1-12.4L68.6.5c-.7-1.2-4.5.2-5.9.5-13.6 3.5-27.3 12.2-35.8 23.3-1.1 1.5-5.7 7.3-5.7 9.3 1 1 17.9 10.6 20.6 12.2 1.5.8 5.6 3.6 7.4 3.6zM28.5 132.9c2.1 1.2 12.1 6.3 14.6 5.8.8-1.4 1.9-5.6 2.4-7.3 1.3-4.2 7-21.4 6.9-23.3-8.4-3.1-14-6.4-19.1-13.6-1.6-2.3-2.5-4.5-3.8-7-1.8-.1-12.5 5-14.9 6L0 100c.2 3.1 5.5 11.3 7.1 13.4 5.8 8.1 12.7 14.5 21.4 19.5zM118.4 46.2c-.8.9-1.7 1.6-2.6 2.6l-5.3 5.6c-.9 1-1.7 1.9-2.6 2.9-2.2 2.2-.5 1.6 2.8 5.8 1.6 2 2.9 4 4.1 6.5 4 8 2.8 11.1 3.6 18 1.1.4 31.5 2.1 32.1 1.4 1-2.7-.4-13.9-1-17.1-2-10-5.8-18.4-11.5-26.4-1.8-2.5-7-8.9-9.1-10-1.2.4-8.7 8.7-10.5 10.7zM64.8 151.9c7.3 0 15-1.5 21.3-3.6 3.8-1.3 15-6.3 16.4-8.7-.4-1.2-17.2-26.4-17.9-26.5-1 .2-4.6 2.6-6.2 3.3-12.4 5.6-20.1 1.7-24.5 1.7-.7 1.3-8.5 29.6-8.4 30.9 2.8 2 14.9 2.9 19.3 2.9zM97.4 41.7c3.7 1.3 6.6 2.8 9.6 5 4.1 3 1.9 3.5 8.4-3.9l10.4-11.9c1.1-1.4 4.5-4.9 5-6.3-1-1.9-7.9-6.5-10.5-7.9-8.3-4.9-17.8-8.1-27.7-9-3.3-.3-14.8-.7-17.2.9-.2 1.4 3.9 29.5 4.5 31.6 5 .4 8.6-1.5 17.5 1.5zM112.7 144.5c2-.3 9.1-7.3 10.6-8.8 6-6.3 11.6-15.8 14.5-24.5 1-3.1 3.5-12.9 3.2-16.2-.1-1.6-1.7-1.3-3.4-1.4l-27.3-2.1c-4.1-.1.9 4.8-7.1 17.3-4.4 6.9-7.5 7.6-9.4 10 .3 1.2 18.3 25.5 18.9 25.7zM81.2 83.2l3-9.7L74 66.2c-1.4.7-3.6 2.6-5 3.6-1.1.8-4 3.1-5.1 3.5l3.8 12.3c13.6-.1 12.3 1.2 13.5-2.4z"/><path d="M77 102.1C89.9 100.6 100.8 89 99.2 74 97.8 61.2 85.8 49.9 71 51.8c-12.9 1.7-24 13.1-22.2 28.1 1.6 12.9 13.3 23.9 28.2 22.2zm-10.3-3c.5-.2.9-.2 1.4-.3.4-.1.4-.1.7-.2.1 0 .2 0 .2-.1s.1-.1.2-.1c-2.1-.9-4.6-3.3-5.6-5.4l3.2-6-4.5 4.9c-3.3-.3-5.2-2.4-7.3-3.6l.3 2.4c-2.5-2.6-4.8-8.9-4.5-13.9l1.2 2.3c1.1-3.6 1.4-4.7 3.6-7.2l6.6 1.2c-1.7-1.2-4.6-1.8-6.1-3.1-.3-3.6.5-4.6 1.3-7.6l-2.3 1.2c1.4-2.8 7.4-7.9 12-8.7-.8.7-1.3.9-1.8 2 8.2-.5 8 1.9 8 1.9.1.3.1.7.1 1l.7 5.1c.1-1.3.3-2.4.4-3.7.5-4.2-.3-4 8.3-4.4l-1.8-2c4.4.9 10.7 5.9 11.8 8.6l-2.2-1c.8 2.7 1.6 4.4 1.3 7.7l-6 3 6.7-1.2c1.8 3.4 1.7 1.5 3.3 7.1.2-.3.4-.7.7-1l.5-.7c0-.1.1-.1.2-.2.2 6-2.1 9.9-4.6 13.7l.3-2.4c-1.5.7-3.5 3-7 3.5-.7-.6-1.9-1.9-2.6-2.6-.5-.6-1.8-1.9-2.2-2.4 1.2 4.3 7.3 5.7-2.4 11.7l2.4.7c-7 1.2-7.5 1.3-14.5-.2zM110.3 178.5c-1.4-1.2-2.9-2.6-5.5-3.1-14-3-19.6 17.5-8.8 24.9 6.3 4.3 11.5 0 14-1.1.1 3.5-.4 5-3.4 5.8-3.9 1.1-5-.4-6.5-1.9L91 203c1.1 10 16.7 12.2 23.6 5.9 3.7-3.3 3.6-8.5 3.6-14.8v-18.5h-7.9v2.9zm-3.7 16.1c-8.3 3.4-11.3-9.5-4.5-12 8.1-3 11.4 9.1 4.5 12zM142.7 178.2c-1.3-.6-2.5-2.6-6.2-3-7.8-1-14.6 5.3-14.8 14-.1 9.4 6.2 15.2 14.1 14.3 3.6-.4 4.6-1.7 6.7-3l.1 2.4h8.2l.1-27.3h-8.2v2.6zm-4.2 17.6c-8.7 2.8-11.5-10.3-4-12.7 8.5-2.8 11.9 10.1 4 12.7zM81.6 163.8c-6.3 1.6-4.1 11.4 2.5 9.7 6.3-1.7 3.8-11.3-2.5-9.7zM64.3 168.9h-8.9v34h19.5l.1-7.7H64.3zM9.4 195.1v-25.6c-.2-.7 0-.2-.3-.6H.7c-.6.4-.4.7-.4 1.7 0 8.4-.3 26.5.1 32.3 1.4.5 17.5.4 19.7.1.2-1.7.4-6.6-.2-7.9H9.4zM78.6 202.9l1.1.1 6-.1h1.1l.1-27.2h-8.3zM42.4 178.3c-1.9-1.3-3-2.7-6.3-3.1-7.8-.9-14.4 5.5-14.7 13.8-.3 9.3 5.6 15.3 13.8 14.6 3.6-.3 4.7-1.7 7-3v2.3l8.1.1.1-27.3h-8.1l.1 2.6zm-4.1 17.5c-8.5 2.9-12-9.9-4.2-12.6 8.5-3 12 9.9 4.2 12.6z"/></svg>