<?xml version="1.0" encoding="utf-8"?>
<!-- Generator: Adobe Illustrator 23.0.0, SVG Export Plug-In . SVG Version: 6.00 Build 0)  -->
<svg version="1.1" id="Layer_1" xmlns="http://www.w3.org/2000/svg" xmlns:xlink="http://www.w3.org/1999/xlink" x="0px" y="0px"
	 viewBox="0 0 130 67" style="enable-background:new 0 0 130 67;" xml:space="preserve">
<g>
	<path d="M49.6,67c1,0,1.8-0.5,1.8-1.5l0,0c0-0.8-0.5-1.2-1.5-1.4c-0.8-0.2-1-0.3-1-0.6l0,0c0-0.2,0.2-0.4,0.6-0.4s0.8,0.2,1.2,0.5
		l0.5-0.8c-0.5-0.4-1.1-0.6-1.8-0.6c-1,0-1.7,0.6-1.7,1.4l0,0c0,1,0.6,1.2,1.6,1.5c0.8,0.2,1,0.3,1,0.6l0,0c0,0.3-0.3,0.5-0.7,0.5
		c-0.5,0-1-0.2-1.4-0.6l-0.6,0.7C48.1,66.8,48.9,67,49.6,67 M52.1,62.9h1.1V62h-1.1V62.9z M52.1,66.9h1v-3.7h-1V66.9z M54.1,66.9h1
		v-2.1c0-0.5,0.3-0.7,0.7-0.7s0.6,0.3,0.6,0.7v2.1h1v-2.4c0-0.8-0.5-1.4-1.2-1.4c-0.5,0-0.8,0.3-1.1,0.6v-0.5h-1V66.9z M60,67
		c0.7,0,1.1-0.3,1.5-0.7l-0.6-0.6c-0.3,0.2-0.5,0.4-0.8,0.4c-0.6,0-0.9-0.5-0.9-1l0,0c0-0.5,0.4-1,0.9-1c0.4,0,0.6,0.2,0.8,0.4
		l0.6-0.7c-0.3-0.4-0.8-0.6-1.5-0.6c-1.1,0-1.9,0.9-1.9,1.9l0,0C58.1,66.2,58.9,67,60,67 M63.8,67c0.7,0,1.2-0.3,1.5-0.7l-0.6-0.5
		c-0.3,0.3-0.5,0.4-0.9,0.4c-0.5,0-0.8-0.2-0.9-0.7h2.6c0-0.1,0-0.2,0-0.3c0-1-0.6-2-1.8-2c-1.1,0-1.8,0.9-1.8,1.9l0,0
		C61.9,66.3,62.7,67,63.8,67 M62.9,64.8c0.1-0.5,0.4-0.8,0.8-0.8s0.7,0.3,0.8,0.8H62.9z M68.2,66.9h1v-4.8h-0.7l-1.3,0.4l0.2,0.9
		l0.8-0.2V66.9z M72,67c1.1,0,1.9-0.5,1.9-1.4l0,0c0-0.6-0.3-0.9-0.8-1.1c0.4-0.2,0.6-0.5,0.6-1l0,0c0-0.7-0.7-1.3-1.7-1.3
		s-1.7,0.6-1.7,1.3l0,0c0,0.5,0.2,0.8,0.6,1c-0.5,0.2-0.8,0.6-0.8,1.2l0,0C70.1,66.5,70.9,67,72,67 M72,64.1c-0.4,0-0.7-0.3-0.7-0.6
		l0,0c0-0.3,0.3-0.6,0.7-0.6s0.7,0.3,0.7,0.6l0,0C72.7,63.9,72.4,64.1,72,64.1 M72,66.1c-0.5,0-0.8-0.3-0.8-0.6l0,0
		c0-0.4,0.3-0.6,0.8-0.6s0.8,0.2,0.8,0.6l0,0C72.8,65.9,72.5,66.1,72,66.1 M76.1,67c1.4,0,2.1-1.1,2.1-2.6l0,0
		c0-0.9-0.2-1.5-0.6-1.8c-0.4-0.4-0.7-0.5-1.4-0.5c-1.1,0-1.8,0.7-1.8,1.7l0,0c0,1,0.7,1.6,1.7,1.6c0.4,0,0.7-0.1,1-0.3
		c-0.1,0.6-0.4,1.1-1,1.1c-0.4,0-0.7-0.1-1-0.4l-0.6,0.8C75,66.8,75.4,67,76.1,67 M76.3,64.4c-0.5,0-0.8-0.3-0.8-0.7l0,0
		c0-0.4,0.3-0.7,0.8-0.7s0.8,0.3,0.8,0.7l0,0C77.2,64.1,76.8,64.4,76.3,64.4 M80.6,67c1.4,0,2.1-1.1,2.1-2.6l0,0
		c0-0.9-0.2-1.5-0.6-1.8c-0.4-0.4-0.7-0.5-1.4-0.5c-1.1,0-1.8,0.7-1.8,1.7l0,0c0,1,0.7,1.6,1.7,1.6c0.4,0,0.7-0.1,1-0.3
		c-0.1,0.6-0.4,1.1-1,1.1c-0.4,0-0.7-0.1-1-0.4L79,66.6C79.4,66.8,79.9,67,80.6,67 M80.8,64.4c-0.5,0-0.8-0.3-0.8-0.7l0,0
		c0-0.4,0.3-0.7,0.8-0.7s0.8,0.3,0.8,0.7l0,0C81.6,64.1,81.3,64.4,80.8,64.4"/>
	<path d="M67.8,37.6c0,1.5-1.2,2.7-2.7,2.7s-2.7-1.2-2.7-2.7s1.2-2.7,2.7-2.7C66.6,34.8,67.8,36.1,67.8,37.6 M125.3,48.5
		c-0.2-0.1-0.3-0.1-0.5-0.2c-1.5-0.5-2.4-0.8-2.4-1.5v-0.1c0-0.6,0.7-1,1.5-1c1,0,2,0.3,3.5,1.1l0,0h0.1c0.1,0,0.1,0,0.2-0.1
		l1.6-2.8v-0.1c0-0.1,0-0.1-0.1-0.2c-1.7-0.9-3.3-1.4-5.2-1.4c-3.6,0-6,1.8-6,4.7V47c0,2.9,2.3,4,4.8,4.7c0.2,0.1,0.4,0.1,0.6,0.2
		c1.6,0.5,2.2,0.8,2.2,1.5v0.1c-0.1,0.6-0.6,0.9-1.6,0.9c-1.5,0-2.8-0.5-4.5-1.6l0,0h-0.1c-0.1,0-0.1,0-0.2,0.1l-1.7,2.7v0.1
		c0,0.1,0,0.1,0.1,0.2c2,1.4,3.9,2.2,6.1,2.2c4,0,6.3-1.7,6.3-4.8v-0.1C130.1,50.5,127.7,49.3,125.3,48.5 M81.8,53.2L81.8,53.2
		c0,3.1-2.4,4.9-6.3,4.9c-2.3,0-4.1-0.8-6.1-2.2c-0.1,0-0.1-0.1-0.1-0.2v-0.1l1.7-2.7c0-0.1,0.1-0.1,0.2-0.1h0.1l0,0
		c1.7,1.1,2.9,1.6,4.5,1.6c1,0,1.6-0.3,1.6-0.9v-0.1c0-0.7-0.7-1.1-2.2-1.5c-0.2-0.1-0.4-0.1-0.6-0.2C72,51,69.8,49.9,69.8,47l0,0
		c0-2.9,2.3-4.7,6-4.7c1.8,0,3.5,0.5,5.2,1.4c0.1,0,0.1,0.1,0.1,0.2V44l-1.6,2.8c0,0.1-0.1,0.1-0.2,0.1h-0.1l0,0
		c-1.5-0.7-2.4-1.1-3.5-1.1c-0.9,0-1.5,0.4-1.5,1v0.1c0,0.7,0.9,1,2.4,1.5c0.2,0.1,0.3,0.1,0.5,0.2C79.4,49.2,81.8,50.4,81.8,53.2
		 M56,57.9h-4c-0.1,0-0.2-0.1-0.2-0.2V43.1c0-0.1,0.1-0.2,0.2-0.2h3.8c0.1,0,0.2,0.1,0.2,0.2v1.8c1-1.4,2.5-2.2,4-2.2
		c0.2,0,0.4,0,0.6,0c0.1,0,0.2,0.1,0.2,0.2v3.9c0,0.1,0,0.1-0.1,0.2c0,0-0.1,0.1-0.2,0c-0.1,0-0.4,0-0.7,0c-1.3,0-2.8,0.7-3.4,2.7
		c-0.1,0.6-0.2,1.3-0.2,2.1v5.8C56.2,57.8,56.1,57.9,56,57.9 M45.1,57.7v-5.8c0-0.9,0.1-1.6,0.3-2.2c0.6-2,2.2-2.7,3.4-2.7
		c0.3,0,0.6,0,0.7,0s0.1,0,0.2,0c0,0,0.1-0.1,0.1-0.2v-3.9c0-0.1-0.1-0.2-0.2-0.2c-0.1,0-0.3,0-0.6,0c-1.6,0-3.1,0.8-4,2.2v-1.8
		c0-0.1-0.1-0.2-0.2-0.2H41c-0.1,0-0.2,0.1-0.2,0.2v14.6c0,0.1,0.1,0.2,0.2,0.2h4C45.1,57.9,45.1,57.8,45.1,57.7 M20.1,57.9h-4
		c-0.1,0-0.2-0.1-0.2-0.2c0-4.6-0.4-9.8-0.5-11.4c-1.4,1.9-2.8,4.5-3.9,7c0,0.1-0.1,0.1-0.2,0.1H9c-0.1,0-0.2,0-0.2-0.1
		c-1.1-2.5-2.4-5.1-3.9-7c-0.1,1.6-0.5,6.8-0.5,11.4c0,0.1-0.1,0.2-0.2,0.2h-4c-0.1,0-0.2-0.1-0.2-0.2c0-6.2,0.5-14.4,1.5-18.6
		c0-0.1,0.1-0.2,0.2-0.2h3.2c0.1,0,0.1,0,0.2,0.1c2.1,2.3,3.8,4.9,5.1,7.4c1.3-2.6,3-5.1,5.1-7.4c0,0,0.1-0.1,0.2-0.1h3.2
		c0.1,0,0.2,0.1,0.2,0.2c1,4.2,1.5,12.4,1.5,18.6C20.3,57.8,20.2,57.9,20.1,57.9 M115.7,57.7v-9.3c0-3.8-1.8-5.8-5.3-5.8
		c-2.3,0-3.8,1.1-4.6,2v-1.5c0-0.1-0.1-0.2-0.2-0.2h-3.8c-0.1,0-0.2,0.1-0.2,0.2v14.6c0,0.1,0.1,0.2,0.2,0.2h4
		c0.1,0,0.2-0.1,0.2-0.2V51c0-0.7,0.1-1.3,0.2-1.8c0.5-1.6,1.8-2.6,3.4-2.6c1.3,0,1.8,0.6,1.8,2.4v8.6c0,0.1,0.1,0.2,0.2,0.2h3.9
		C115.7,57.9,115.7,57.8,115.7,57.7 M91.5,46.4c-2.2,0-3.8,1.7-3.8,4s1.6,4,3.8,4c2.1,0,3.7-1.7,3.7-4S93.6,46.4,91.5,46.4
		 M91.5,58.2c-4.7,0-8.2-3.4-8.2-7.8c0-4.5,3.5-7.8,8.2-7.8s8.2,3.4,8.2,7.8S96.2,58.2,91.5,58.2 M67.3,57.7V43.1
		c0-0.1-0.1-0.2-0.2-0.2h-4c-0.1,0-0.2,0.1-0.2,0.2v14.6c0,0.1,0.1,0.2,0.2,0.2h4C67.2,57.9,67.3,57.8,67.3,57.7 M30.5,46.4
		c-2.2,0-3.8,1.7-3.8,4s1.6,4,3.8,4c2.1,0,3.7-1.7,3.7-4S32.6,46.4,30.5,46.4 M30.5,58.2c-4.7,0-8.2-3.4-8.2-7.8
		c0-4.5,3.5-7.8,8.2-7.8s8.2,3.4,8.2,7.8C38.6,54.8,35.1,58.2,30.5,58.2"/>
	<path d="M77.8,36.7C74.2,38,71,35.6,71,35.6s0.9-3.9,4.5-5.2c3.6-1.3,6.8,1.1,6.8,1.1S81.4,35.3,77.8,36.7 M87.3,18.5
		c0,0-3.5-1.8-6.9,0.1c-3.3,1.9-3.5,5.9-3.5,5.9s3.5,1.8,6.9-0.1C87.1,22.5,87.3,18.5,87.3,18.5 M72.2,27.3c-1.6,3.5-5.5,4-5.5,4
		s-2.1-3.3-0.5-6.8s5.5-4,5.5-4S73.8,23.8,72.2,27.3 M48.1,31.5c0,0,0.9,3.9,4.5,5.2s6.8-1.1,6.8-1.1s-0.9-3.9-4.5-5.2
		C51.2,29.1,48.1,31.5,48.1,31.5 M49.8,18.6c3.3,1.9,3.5,5.9,3.5,5.9s-3.5,1.8-6.9-0.1c-3.3-1.9-3.5-5.9-3.5-5.9
		S46.5,16.7,49.8,18.6 M54.2,12.2c0,0-0.8,3.9,1.9,6.6s6.6,1.9,6.6,1.9s0.8-3.9-1.9-6.6S54.2,12.2,54.2,12.2 M68.4,6.4
		c0,3.9-3.3,6-3.3,6s-3.3-2.1-3.3-6s3.3-6,3.3-6C65,0.4,68.4,2.5,68.4,6.4 M75,15c0,1.6-1.3,2.8-2.8,2.8c-1.6,0-2.8-1.3-2.8-2.8
		s1.3-2.8,2.8-2.8S75,13.4,75,15 M62.4,26.5c0,1.6-1.3,2.8-2.8,2.8s-2.8-1.3-2.8-2.8c0-1.6,1.3-2.8,2.8-2.8S62.4,25,62.4,26.5"/>
</g>
</svg>
