<?xml version="1.0" encoding="utf-8"?>
<!-- Generator: Adobe Illustrator 23.0.0, SVG Export Plug-In . SVG Version: 6.00 Build 0)  -->
<svg version="1.1" id="Livello_1" xmlns="http://www.w3.org/2000/svg" xmlns:xlink="http://www.w3.org/1999/xlink" x="0px" y="0px"
	 viewBox="0 0 255.8 108.8" style="enable-background:new 0 0 255.8 108.8;" xml:space="preserve">
<g>
	<g>
		<g>
			<path d="M87.6,54.5L87.6,54.5c0,26.4-15,48.6-40.7,48.7C21.4,103,6.4,80.9,6.4,54.5c0-26.6,15-48.7,40.6-48.9
				C72.6,5.7,87.6,27.9,87.6,54.5z M94.2,54.5L94.2,54.5C94.2,24.1,76.6,0.2,47.4,0c-0.2,0-0.2,0-0.2,0l0,0C47,0,47,0,47,0
				c-0.2,0-0.2,0-0.2,0C17.4,0.2,0,24.1,0,54.5c0,30.3,17.4,54.2,46.8,54.4c0,0,0,0,0.2,0c0,0,0,0,0.2,0l0,0c0,0,0,0,0.2,0
				C76.6,108.6,94.2,84.7,94.2,54.5z"/>
			<path d="M246.7,32.2L246.7,32.2c-0.8-17.8-14.1-26.6-33.5-26.6c-11.7,0-28.5,5-28.5,22.2c0,16.6,17.7,19.5,35.4,23.2
				c17.9,3.6,35.7,8.1,35.7,28.7c0,21.6-20.8,29.3-36.6,29.3c-24.4,0-44.3-10-44.1-36.8h6.5c-1.3,22.7,16.9,31.2,37.6,31.2
				c12.5,0,30.2-5.5,30.2-23.7c0-17.5-17.9-20.6-35.6-24.3c-17.7-3.6-35.6-7.9-35.6-27.5c0-20,18.7-27.7,35-27.7
				c21.8,0,38.9,9.4,40,32.2h-6.5V32.2z"/>
			<polygon points="133.1,100.7 133.1,100.7 133.3,100.7 169.4,2.5 176.2,2.5 137.7,106.3 128.6,106.3 90.5,2.5 97.3,2.5 			"/>
		</g>
	</g>
</g>
</svg>
