<svg xmlns="http://www.w3.org/2000/svg" viewBox="0 0 255.8 108.8" style="enable-background:new 0 0 255.8 108.8" xml:space="preserve"><path d="M87.6 54.5c0 26.4-15 48.6-40.7 48.7C21.4 103 6.4 80.9 6.4 54.5c0-26.6 15-48.7 40.6-48.9 25.6.1 40.6 22.3 40.6 48.9zm6.6 0C94.2 24.1 76.6.2 47.4 0H46.8C17.4.2 0 24.1 0 54.5c0 30.3 17.4 54.2 46.8 54.4H47.4c29.2-.3 46.8-24.2 46.8-54.4zM246.7 32.2c-.8-17.8-14.1-26.6-33.5-26.6-11.7 0-28.5 5-28.5 22.2 0 16.6 17.7 19.5 35.4 23.2 17.9 3.6 35.7 8.1 35.7 28.7 0 21.6-20.8 29.3-36.6 29.3-24.4 0-44.3-10-44.1-36.8h6.5c-1.3 22.7 16.9 31.2 37.6 31.2 12.5 0 30.2-5.5 30.2-23.7 0-17.5-17.9-20.6-35.6-24.3-17.7-3.6-35.6-7.9-35.6-27.5 0-20 18.7-27.7 35-27.7 21.8 0 38.9 9.4 40 32.2h-6.5v-.2zM133.1 100.7h.2l36.1-98.2h6.8l-38.5 103.8h-9.1L90.5 2.5h6.8z"/></svg>