<?xml version="1.0" encoding="utf-8"?>
<!-- Generator: Adobe Illustrator 24.0.2, SVG Export Plug-In . SVG Version: 6.00 Build 0)  -->
<svg version="1.1" id="layer" xmlns="http://www.w3.org/2000/svg" xmlns:xlink="http://www.w3.org/1999/xlink" x="0px" y="0px"
	 viewBox="0 0 602.9 229.5" style="enable-background:new 0 0 602.9 229.5;" xml:space="preserve">
<style type="text/css">
	.st0{fill:#EDDCB2;}
</style>
<g>
	<path class="st0" d="M427.6,115.5c-0.9,0-1.6,0.7-1.6,1.6v21.8c-10.4-13.1-20.4-20-26-23.4h-9.5c-0.9,0-1.6,0.7-1.6,1.6v64.8
		c0,0.9,0.7,1.5,1.6,1.5h7.9c0.9,0,1.6-0.6,1.6-1.5v-52.8c0.8,0.6,1.6,1.2,2.4,1.8c6.1,4.8,15,13.4,23.6,27.4v23.6
		c0,0.9,0.7,1.5,1.6,1.5h7.9c0.9,0,1.6-0.6,1.6-1.5v-26.7V117c0-0.9-0.7-1.6-1.6-1.6h-7.9V115.5z"/>
	<path class="st0" d="M142.6,158.9c8.7-8.9,8.9-20.3,8.9-21.5c0-5.3-2-10.7-5.4-14.8c-3.7-4.5-8.9-7-14.1-7h-23.4v-0.1
		c-0.9,0-1.6,0.6-1.6,1.5v64.9c0,0.9,0.7,1.5,1.6,1.5h7.9c0.9,0,1.6-0.6,1.6-1.5V169c4.7-0.3,9-1.2,12.8-2.7l7.5,16.3
		c0.3,0.6,0.8,0.9,1.5,0.9h8.7c1.2,0,2-1.2,1.5-2.2l-9.5-20.5C141.3,160.2,142,159.6,142.6,158.9z M140.3,137.5
		c0,0.1,0,7.7-5.7,13.5c-3.8,3.9-9.3,6.1-16.5,6.8v-31.1H132c4.3,0,8.3,5.2,8.3,10.7V137.5z"/>
	<path class="st0" d="M452.9,120c-5.1,4.1-8,9.8-8,15.7v28.4c0,5.9,2.8,11.5,8,15.7c4,3.2,8.9,5.1,14.3,5.7h6.6
		c5.4-0.6,10.4-2.5,14.3-5.7c5.1-4.1,7.9-9.7,7.9-15.7v-28.2c0-6-2.8-11.6-7.9-15.7c-4.8-3.8-11-5.9-17.6-5.9
		C463.9,114.1,457.7,116.1,452.9,120z M484.9,135.7v28.2c0,5.7-6.6,10.5-14.4,10.5c-7.8,0-14.4-4.9-14.4-10.4v-28.4
		c0-5.7,6.6-10.4,14.4-10.4S484.9,130,484.9,135.7z"/>
	<path class="st0" d="M357.2,102.5h8.9c0.9,0,1.6-0.7,1.6-1.6V36c0-0.9-0.7-1.6-1.6-1.6h-8.9c-0.9,0-1.6,0.7-1.6,1.6v64.9
		C355.6,101.8,356.3,102.5,357.2,102.5z"/>
	<path class="st0" d="M88.9,110.6c-2.3,0-4.1,1.8-4.1,4.1c0,2.2,1.8,4.1,4.1,4.1c2.3,0,4.1-1.8,4.1-4.1
		C93,112.5,91.2,110.6,88.9,110.6z"/>
	<path class="st0" d="M502.9,98.6c4.8,3.8,11,5.9,17.6,5.9s12.9-2.1,17.6-5.9c5.1-4.1,7.9-9.7,7.9-15.7V54.7c0-6-2.8-11.6-7.9-15.7
		c-4.8-3.8-11-5.9-17.6-5.9s-12.9,1.9-17.6,5.7c-5.1,4.1-7.9,9.8-7.9,15.7v28.4C495,88.8,497.8,94.4,502.9,98.6z M506.1,54.5
		c0-5.7,6.6-10.4,14.4-10.4c7.8,0,14.4,4.8,14.4,10.5v28.2c0,5.7-6.6,10.5-14.4,10.5c-7.8,0-14.4-4.9-14.4-10.4V54.5z"/>
	<circle class="st0" cx="73.2" cy="114.7" r="4.1"/>
	<path class="st0" d="M375.1,102.4h9.5c0.7,0,1.3-0.4,1.6-1.1l4.5-12.3h25.2l4.5,12.3c0.2,0.7,0.9,1.1,1.6,1.1h9.4
		c1.2,0,2-1.2,1.6-2.2l-23.1-60.9l-1.4-3.8c-0.2-0.7-0.9-1.1-1.5-1.1h-7.3v0c-0.7,0-1.3,0.4-1.5,1.1l-1.5,3.8l-23.1,60.9
		C373.2,101.3,374,102.4,375.1,102.4z M403.2,54.3l8.2,22.6H395L403.2,54.3z"/>
	<circle class="st0" cx="528.3" cy="114.7" r="4.1"/>
	<path class="st0" d="M316.1,115.5h-8.9c-0.9,0-1.6,0.7-1.6,1.6V182c0,0.9,0.7,1.6,1.6,1.6h8.9c0.9,0,1.6-0.7,1.6-1.6v-64.9
		C317.7,116.2,317,115.5,316.1,115.5z"/>
	<circle class="st0" cx="512.6" cy="114.7" r="4.1"/>
	<path class="st0" d="M247.9,121.3c-3.2-1.8-11.2-5.8-19.7-5.8c-4.8,0-9.7,1.2-14.2,4.7c-3.9,3.1-7.2,8.5-8.9,14.7
		c-1.3,4.8-2.4,12.3,0.1,20.5c2.3,7.6,7.3,14.1,14.4,18.9c4.8,3.2,10.4,5.7,17.3,7.4c2.8,0.7,6.1,1.3,9.3,1.8c1,0.1,1.8-0.6,1.8-1.6
		V173v-22.5c0-0.9-0.8-1.6-1.7-1.6h-7.9c-0.9,0-1.5,0.6-1.5,1.6V170c-4.3-1.3-7.9-3-11-5c-5-3.4-8.3-7.7-9.9-12.8
		c-2.9-9.6,1-20,5.1-23.2c3.2-2.5,7.7-3,13.4-1.4c3.2,0.9,6,2.3,7.5,3.2c0.8,0.4,1.7,0.2,2.2-0.5l2.2-3.4l2.1-3.3
		C249,122.8,248.8,121.7,247.9,121.3z"/>
	<circle class="st0" cx="575.5" cy="114.7" r="4.1"/>
	<circle class="st0" cx="559.7" cy="114.7" r="4.1"/>
	<path class="st0" d="M325.3,183.5h9.5c0.7,0,1.3-0.4,1.6-1.1l4.4-12.3H366l4.5,12.3c0.2,0.6,0.8,1.1,1.6,1.1h9.4
		c1.2,0,2-1.2,1.5-2.2l-23.1-60.9l-1.4-3.8c-0.2-0.6-0.9-1.1-1.6-1.1h-7.1c-0.7,0-1.3,0.4-1.6,1.1l-1.4,3.8l-23.1,60.9
		C323.3,182.4,324.1,183.5,325.3,183.5z M353.3,135.4l8.2,22.6h-16.3L353.3,135.4z"/>
	<path class="st0" d="M539.9,114.7c0,2.3,1.8,4.1,4.1,4.1s4.1-1.8,4.1-4.1c0-2.2-1.8-4.1-4.1-4.1S539.9,112.4,539.9,114.7z"/>
	<path class="st0" d="M440.5,102.3h7.9c0.9,0,1.6-0.6,1.6-1.5V48c0.8,0.6,1.6,1.2,2.4,1.8c6.1,4.8,15,13.4,23.6,27.4v23.6
		c0,0.9,0.7,1.5,1.6,1.5h7.9c0.9,0,1.6-0.6,1.6-1.5V74.2V36c0-0.9-0.7-1.6-1.6-1.6h-7.9c-0.9,0-1.6,0.7-1.6,1.6v21.8
		c-10.4-13.1-20.4-20-26-23.4h-9.5c-0.9,0-1.6,0.7-1.6,1.6v64.8C438.9,101.7,439.6,102.3,440.5,102.3z"/>
	<path class="st0" d="M61.2,102.3h7.9c0.9,0,1.6-0.6,1.6-1.5v-13C81,87,89.2,83.6,95,77.6c8.7-8.9,8.9-20.3,8.9-21.5
		c0-5.3-2-10.7-5.4-14.8c-3.7-4.5-8.9-7-14.1-7H61.2v0.1c-0.9,0-1.6,0.6-1.6,1.5v64.9C59.6,101.7,60.3,102.3,61.2,102.3z M70.7,45.6
		h13.8c4.3,0,8.3,5.2,8.3,10.7v0.1c0,0.5-0.2,8-5.8,13.7c-3.8,3.8-9.2,6-16.3,6.7V45.6z"/>
	<path class="st0" d="M97.8,102.4h9.5c0.7,0,1.3-0.4,1.6-1.1l4.5-12.3h25.2l4.5,12.3c0.2,0.7,0.8,1.1,1.6,1.1h9.5
		c1.2,0,2-1.2,1.6-2.2l-23.1-60.9l-1.5-3.8c-0.2-0.7-0.8-1.1-1.5-1.1h-7.3v0c-0.7,0-1.3,0.4-1.6,1.1l-1.4,3.8l-23.1,60.9
		C95.9,101.3,96.7,102.4,97.8,102.4z M125.9,54.3l8.2,22.6h-16.4L125.9,54.3z"/>
	<circle class="st0" cx="41.7" cy="114.7" r="4.1"/>
	<path class="st0" d="M57.4,118.8c2.3,0,4.1-1.8,4.1-4.1c0-2.2-1.8-4.1-4.1-4.1s-4.1,1.8-4.1,4.1C53.3,116.9,55.1,118.8,57.4,118.8z
		"/>
	<path class="st0" d="M3,111.8l0,6.5c0.6,26.3,4.4,53.4,10.5,74.2c6.3,21.6,14.4,34,22.2,34h531.5c15.9,0,31.5-51.6,32.7-108.2v-6.5
		C598.6,54.9,583,3,567.2,3H35.7C19.9,3,4.3,54.9,3,111.8z M562.9,6.5c10.7,0,18,17.6,22.3,32.4c5.5,18.9,9,43.3,9.5,66.8v5.8
		c-0.5,23.7-3.9,48-9.4,66.8c-4.3,14.8-11.6,32.4-22.4,32.4H40.1c-10.8,0-18.2-17.6-22.4-32.4c-5.4-18.8-8.9-43.2-9.4-66.8l0-5.8
		c1-47.9,14-99.2,31.8-99.2H562.9z"/>
	<path class="st0" d="M284.3,102.5h8.9c0.9,0,1.6-0.7,1.6-1.6V36c0-0.9-0.7-1.6-1.6-1.6h-8.9c-0.9,0-1.6,0.7-1.6,1.6v64.9
		C282.7,101.8,283.4,102.5,284.3,102.5z"/>
	<path class="st0" d="M211.5,102.4h8c0.8,0,1.5-0.6,1.6-1.4l7.3-44.4l12.9,29.2c0.3,0.6,0.8,0.9,1.4,0.9h1.3c0.6,0,1.2-0.4,1.4-0.9
		l13.1-29.3l7.1,44.5c0.1,0.8,0.8,1.4,1.6,1.4h8c1,0,1.8-0.9,1.6-1.9l-10.4-64.7c-0.1-0.8-0.8-1.4-1.6-1.4h-8.7
		c-0.6,0-1.2,0.4-1.5,1L243.4,63l-10.9-27.6c-0.2-0.6-0.8-1-1.5-1h-8.9c-0.8,0-1.5,0.6-1.6,1.4l-10.6,64.7
		C209.7,101.5,210.5,102.4,211.5,102.4z"/>
	<path class="st0" d="M256.1,134.9c-1.3,4.8-2.4,12.3,0.1,20.5c2.3,7.6,7.3,14.1,14.4,18.9c4.8,3.2,10.4,5.7,17.3,7.4
		c2.8,0.7,6.1,1.3,9.3,1.8c1,0.1,1.8-0.6,1.8-1.6V173v-22.5c0-0.9-0.8-1.6-1.7-1.6h-7.9c-0.9,0-1.5,0.6-1.5,1.6V170
		c-4.3-1.3-7.9-3-11-5c-5-3.4-8.3-7.7-9.9-12.8c-2.9-9.6,1-20,5.1-23.2c3.2-2.5,7.7-3,13.4-1.4c3.2,0.9,6,2.3,7.5,3.2
		c0.7,0.4,1.7,0.2,2.2-0.5l2.2-3.4l2.2-3.3c0.5-0.8,0.3-1.9-0.6-2.3c-3.2-1.8-11.2-5.8-19.7-5.8c-4.9,0-9.9,1.2-14.3,4.7
		C261.1,123.3,257.8,128.7,256.1,134.9z"/>
	<circle class="st0" cx="26" cy="114.7" r="4.1"/>
	<path class="st0" d="M316.6,93.2c4.8,3.2,10.4,5.7,17.3,7.4c2.8,0.7,6.1,1.3,9.3,1.8c1,0.1,1.8-0.6,1.8-1.6v-8.9V69.4
		c0-0.9-0.8-1.6-1.7-1.6h-7.9c-0.9,0-1.5,0.6-1.5,1.6v19.5c-4.2-1.3-7.9-3-11-5.1c-5-3.4-8.3-7.7-9.9-12.8c-2.9-9.6,1-20,5.1-23.2
		c3.2-2.6,7.7-3,13.4-1.4c3.2,0.9,6,2.3,7.5,3.2c0.8,0.4,1.7,0.2,2.2-0.5l2.2-3.4l2.1-3.3c0.5-0.8,0.3-1.9-0.5-2.3
		c-3.2-1.8-11.2-5.8-19.8-5.8c-4.7,0-9.7,1.3-14.2,4.8c-3.9,3.1-7.2,8.5-8.9,14.7c-1.3,4.8-2.4,12.3,0.1,20.5
		C304.5,81.9,309.5,88.4,316.6,93.2z"/>
	<path class="st0" d="M163.1,102.3h7.9c0.9,0,1.6-0.6,1.6-1.5V87.9c4.7-0.3,9-1.2,12.8-2.7l7.5,16.3c0.3,0.6,0.8,0.9,1.5,0.9h8.7
		c1.2,0,2-1.2,1.5-2.2l-9.5-20.5c0.7-0.6,1.4-1.2,2-1.9c8.7-8.9,8.9-20.3,8.9-21.5c0-5.3-2-10.7-5.4-14.8c-3.7-4.5-8.9-7-14.1-7
		h-23.4v-0.1c-0.9,0-1.6,0.6-1.6,1.5v64.9C161.5,101.7,162.2,102.3,163.1,102.3z M172.7,45.6h13.9c4.3,0,8.3,5.2,8.3,10.7v0.1
		c0,0.1,0,7.7-5.7,13.5c-3.8,3.9-9.3,6.1-16.5,6.8V45.6z"/>
	<path class="st0" d="M160.9,183.6h35.3c0.9,0,1.6-0.7,1.6-1.6v-7.9c0-0.9-0.7-1.7-1.6-1.7h-25.7v-23.6H191c1,0,1.8-0.7,1.8-1.6
		v-7.7c0-0.9-0.8-1.8-1.8-1.8h-20.5v-11h25.2c0.9,0,1.6-0.8,1.6-1.7v-7.9c0-0.9-0.7-1.5-1.6-1.5h-34.8v-0.1c-0.9,0-1.7,0.6-1.7,1.6
		V182C159.2,182.9,159.9,183.6,160.9,183.6z"/>
</g>
</svg>
