<svg xmlns="http://www.w3.org/2000/svg" viewBox="0 0 602.9 229.5" style="enable-background:new 0 0 602.9 229.5" xml:space="preserve"><path d="M427.6 115.5c-.9 0-1.6.7-1.6 1.6v21.8c-10.4-13.1-20.4-20-26-23.4h-9.5c-.9 0-1.6.7-1.6 1.6v64.8c0 .9.7 1.5 1.6 1.5h7.9c.9 0 1.6-.6 1.6-1.5v-52.8l2.4 1.8c6.1 4.8 15 13.4 23.6 27.4v23.6c0 .9.7 1.5 1.6 1.5h7.9c.9 0 1.6-.6 1.6-1.5V117c0-.9-.7-1.6-1.6-1.6l-7.9.1zM142.6 158.9c8.7-8.9 8.9-20.3 8.9-21.5 0-5.3-2-10.7-5.4-14.8-3.7-4.5-8.9-7-14.1-7h-23.4v-.1c-.9 0-1.6.6-1.6 1.5v64.9c0 .9.7 1.5 1.6 1.5h7.9c.9 0 1.6-.6 1.6-1.5V169c4.7-.3 9-1.2 12.8-2.7l7.5 16.3c.3.6.8.9 1.5.9h8.7c1.2 0 2-1.2 1.5-2.2l-9.5-20.5c.7-.6 1.4-1.2 2-1.9zm-2.3-21.4c0 .1 0 7.7-5.7 13.5-3.8 3.9-9.3 6.1-16.5 6.8v-31.1H132c4.3 0 8.3 5.2 8.3 10.8zM452.9 120c-5.1 4.1-8 9.8-8 15.7v28.4c0 5.9 2.8 11.5 8 15.7 4 3.2 8.9 5.1 14.3 5.7h6.6c5.4-.6 10.4-2.5 14.3-5.7 5.1-4.1 7.9-9.7 7.9-15.7v-28.2c0-6-2.8-11.6-7.9-15.7-4.8-3.8-11-5.9-17.6-5.9-6.6-.2-12.8 1.8-17.6 5.7zm32 15.7v28.2c0 5.7-6.6 10.5-14.4 10.5s-14.4-4.9-14.4-10.4v-28.4c0-5.7 6.6-10.4 14.4-10.4s14.4 4.8 14.4 10.5zM357.2 102.5h8.9c.9 0 1.6-.7 1.6-1.6V36c0-.9-.7-1.6-1.6-1.6h-8.9c-.9 0-1.6.7-1.6 1.6v64.9c0 .9.7 1.6 1.6 1.6zM88.9 110.6c-2.3 0-4.1 1.8-4.1 4.1 0 2.2 1.8 4.1 4.1 4.1s4.1-1.8 4.1-4.1c0-2.2-1.8-4.1-4.1-4.1zM502.9 98.6c4.8 3.8 11 5.9 17.6 5.9s12.9-2.1 17.6-5.9c5.1-4.1 7.9-9.7 7.9-15.7V54.7c0-6-2.8-11.6-7.9-15.7-4.8-3.8-11-5.9-17.6-5.9s-12.9 1.9-17.6 5.7c-5.1 4.1-7.9 9.8-7.9 15.7v28.4c0 5.9 2.8 11.5 7.9 15.7zm3.2-44.1c0-5.7 6.6-10.4 14.4-10.4s14.4 4.8 14.4 10.5v28.2c0 5.7-6.6 10.5-14.4 10.5-7.8 0-14.4-4.9-14.4-10.4V54.5z"/><circle cx="73.2" cy="114.7" r="4.1"/><path d="M375.1 102.4h9.5c.7 0 1.3-.4 1.6-1.1l4.5-12.3h25.2l4.5 12.3c.2.7.9 1.1 1.6 1.1h9.4c1.2 0 2-1.2 1.6-2.2l-23.1-60.9-1.4-3.8c-.2-.7-.9-1.1-1.5-1.1h-7.3c-.7 0-1.3.4-1.5 1.1l-1.5 3.8-23.1 60.9c-.4 1.1.4 2.2 1.5 2.2zm28.1-48.1 8.2 22.6H395l8.2-22.6z"/><circle cx="528.3" cy="114.7" r="4.1"/><path d="M316.1 115.5h-8.9c-.9 0-1.6.7-1.6 1.6V182c0 .9.7 1.6 1.6 1.6h8.9c.9 0 1.6-.7 1.6-1.6v-64.9c0-.9-.7-1.6-1.6-1.6z"/><circle transform="rotate(-76.714 512.64 114.694)" cx="512.6" cy="114.7" r="4.1"/><path d="M247.9 121.3c-3.2-1.8-11.2-5.8-19.7-5.8-4.8 0-9.7 1.2-14.2 4.7-3.9 3.1-7.2 8.5-8.9 14.7-1.3 4.8-2.4 12.3.1 20.5 2.3 7.6 7.3 14.1 14.4 18.9 4.8 3.2 10.4 5.7 17.3 7.4 2.8.7 6.1 1.3 9.3 1.8 1 .1 1.8-.6 1.8-1.6v-31.4c0-.9-.8-1.6-1.7-1.6h-7.9c-.9 0-1.5.6-1.5 1.6V170c-4.3-1.3-7.9-3-11-5-5-3.4-8.3-7.7-9.9-12.8-2.9-9.6 1-20 5.1-23.2 3.2-2.5 7.7-3 13.4-1.4 3.2.9 6 2.3 7.5 3.2.8.4 1.7.2 2.2-.5l2.2-3.4 2.1-3.3c.5-.8.3-1.9-.6-2.3z"/><circle cx="575.5" cy="114.7" r="4.1"/><circle cx="559.7" cy="114.7" r="4.1"/><path d="M325.3 183.5h9.5c.7 0 1.3-.4 1.6-1.1l4.4-12.3H366l4.5 12.3c.2.6.8 1.1 1.6 1.1h9.4c1.2 0 2-1.2 1.5-2.2l-23.1-60.9-1.4-3.8c-.2-.6-.9-1.1-1.6-1.1h-7.1c-.7 0-1.3.4-1.6 1.1l-1.4 3.8-23.1 60.9c-.4 1.1.4 2.2 1.6 2.2zm28-48.1 8.2 22.6h-16.3l8.1-22.6zM539.9 114.7c0 2.3 1.8 4.1 4.1 4.1s4.1-1.8 4.1-4.1c0-2.2-1.8-4.1-4.1-4.1s-4.1 1.8-4.1 4.1zM440.5 102.3h7.9c.9 0 1.6-.6 1.6-1.5V48l2.4 1.8c6.1 4.8 15 13.4 23.6 27.4v23.6c0 .9.7 1.5 1.6 1.5h7.9c.9 0 1.6-.6 1.6-1.5V36c0-.9-.7-1.6-1.6-1.6h-7.9c-.9 0-1.6.7-1.6 1.6v21.8c-10.4-13.1-20.4-20-26-23.4h-9.5c-.9 0-1.6.7-1.6 1.6v64.8c0 .9.7 1.5 1.6 1.5zM61.2 102.3h7.9c.9 0 1.6-.6 1.6-1.5v-13C81 87 89.2 83.6 95 77.6c8.7-8.9 8.9-20.3 8.9-21.5 0-5.3-2-10.7-5.4-14.8-3.7-4.5-8.9-7-14.1-7H61.2v.1c-.9 0-1.6.6-1.6 1.5v64.9c0 .9.7 1.5 1.6 1.5zm9.5-56.7h13.8c4.3 0 8.3 5.2 8.3 10.7v.1c0 .5-.2 8-5.8 13.7-3.8 3.8-9.2 6-16.3 6.7V45.6zM97.8 102.4h9.5c.7 0 1.3-.4 1.6-1.1l4.5-12.3h25.2l4.5 12.3c.2.7.8 1.1 1.6 1.1h9.5c1.2 0 2-1.2 1.6-2.2l-23.1-60.9-1.5-3.8c-.2-.7-.8-1.1-1.5-1.1h-7.3c-.7 0-1.3.4-1.6 1.1l-1.4 3.8-23.1 60.9c-.4 1.1.4 2.2 1.5 2.2zm28.1-48.1 8.2 22.6h-16.4l8.2-22.6z"/><circle cx="41.7" cy="114.7" r="4.1"/><path d="M57.4 118.8c2.3 0 4.1-1.8 4.1-4.1 0-2.2-1.8-4.1-4.1-4.1s-4.1 1.8-4.1 4.1c0 2.2 1.8 4.1 4.1 4.1z"/><path d="M3 111.8v6.5c.6 26.3 4.4 53.4 10.5 74.2 6.3 21.6 14.4 34 22.2 34h531.5c15.9 0 31.5-51.6 32.7-108.2v-6.5C598.6 54.9 583 3 567.2 3H35.7C19.9 3 4.3 54.9 3 111.8zM562.9 6.5c10.7 0 18 17.6 22.3 32.4 5.5 18.9 9 43.3 9.5 66.8v5.8c-.5 23.7-3.9 48-9.4 66.8-4.3 14.8-11.6 32.4-22.4 32.4H40.1c-10.8 0-18.2-17.6-22.4-32.4-5.4-18.8-8.9-43.2-9.4-66.8v-5.8c1-47.9 14-99.2 31.8-99.2h522.8z"/><path d="M284.3 102.5h8.9c.9 0 1.6-.7 1.6-1.6V36c0-.9-.7-1.6-1.6-1.6h-8.9c-.9 0-1.6.7-1.6 1.6v64.9c0 .9.7 1.6 1.6 1.6zM211.5 102.4h8c.8 0 1.5-.6 1.6-1.4l7.3-44.4 12.9 29.2c.3.6.8.9 1.4.9h1.3c.6 0 1.2-.4 1.4-.9l13.1-29.3 7.1 44.5c.1.8.8 1.4 1.6 1.4h8c1 0 1.8-.9 1.6-1.9l-10.4-64.7c-.1-.8-.8-1.4-1.6-1.4h-8.7c-.6 0-1.2.4-1.5 1L243.4 63l-10.9-27.6c-.2-.6-.8-1-1.5-1h-8.9c-.8 0-1.5.6-1.6 1.4l-10.6 64.7c-.2 1 .6 1.9 1.6 1.9zM256.1 134.9c-1.3 4.8-2.4 12.3.1 20.5 2.3 7.6 7.3 14.1 14.4 18.9 4.8 3.2 10.4 5.7 17.3 7.4 2.8.7 6.1 1.3 9.3 1.8 1 .1 1.8-.6 1.8-1.6v-31.4c0-.9-.8-1.6-1.7-1.6h-7.9c-.9 0-1.5.6-1.5 1.6V170c-4.3-1.3-7.9-3-11-5-5-3.4-8.3-7.7-9.9-12.8-2.9-9.6 1-20 5.1-23.2 3.2-2.5 7.7-3 13.4-1.4 3.2.9 6 2.3 7.5 3.2.7.4 1.7.2 2.2-.5l2.2-3.4 2.2-3.3c.5-.8.3-1.9-.6-2.3-3.2-1.8-11.2-5.8-19.7-5.8-4.9 0-9.9 1.2-14.3 4.7-3.9 3.1-7.2 8.5-8.9 14.7z"/><circle cx="26" cy="114.7" r="4.1"/><path d="M316.6 93.2c4.8 3.2 10.4 5.7 17.3 7.4 2.8.7 6.1 1.3 9.3 1.8 1 .1 1.8-.6 1.8-1.6V69.4c0-.9-.8-1.6-1.7-1.6h-7.9c-.9 0-1.5.6-1.5 1.6v19.5c-4.2-1.3-7.9-3-11-5.1-5-3.4-8.3-7.7-9.9-12.8-2.9-9.6 1-20 5.1-23.2 3.2-2.6 7.7-3 13.4-1.4 3.2.9 6 2.3 7.5 3.2.8.4 1.7.2 2.2-.5l2.2-3.4 2.1-3.3c.5-.8.3-1.9-.5-2.3-3.2-1.8-11.2-5.8-19.8-5.8-4.7 0-9.7 1.3-14.2 4.8-3.9 3.1-7.2 8.5-8.9 14.7-1.3 4.8-2.4 12.3.1 20.5 2.3 7.6 7.3 14.1 14.4 18.9zM163.1 102.3h7.9c.9 0 1.6-.6 1.6-1.5V87.9c4.7-.3 9-1.2 12.8-2.7l7.5 16.3c.3.6.8.9 1.5.9h8.7c1.2 0 2-1.2 1.5-2.2l-9.5-20.5c.7-.6 1.4-1.2 2-1.9 8.7-8.9 8.9-20.3 8.9-21.5 0-5.3-2-10.7-5.4-14.8-3.7-4.5-8.9-7-14.1-7h-23.4v-.1c-.9 0-1.6.6-1.6 1.5v64.9c0 .9.7 1.5 1.6 1.5zm9.6-56.7h13.9c4.3 0 8.3 5.2 8.3 10.7v.1c0 .1 0 7.7-5.7 13.5-3.8 3.9-9.3 6.1-16.5 6.8V45.6zM160.9 183.6h35.3c.9 0 1.6-.7 1.6-1.6v-7.9c0-.9-.7-1.7-1.6-1.7h-25.7v-23.6H191c1 0 1.8-.7 1.8-1.6v-7.7c0-.9-.8-1.8-1.8-1.8h-20.5v-11h25.2c.9 0 1.6-.8 1.6-1.7v-7.9c0-.9-.7-1.5-1.6-1.5h-34.8v-.1c-.9 0-1.7.6-1.7 1.6V182c0 .9.7 1.6 1.7 1.6z"/></svg>