<svg xmlns="http://www.w3.org/2000/svg" viewBox="0 0 130.4 81.5" style="enable-background:new 0 0 130.4 81.5" xml:space="preserve"><path d="m46 49-5.2 15.3h3.8l.6-1.8h5.7l.6 1.8h3.8L50.1 49H46zm.4 9.9L48 54l1.6 4.9h-3.2zM42.3 54.8c0-6.3-5.5-5.7-5.5-5.7h-4.7v15.3h3.6v-4.1s6.6.7 6.6-5.5m-5.8 1.9h-.7v-4.1h1s1.9-.3 1.9 1.9c0 2.6-2.2 2.2-2.2 2.2M66.2 53.9c0-4.8-5-4.8-5-4.8h-5.1v15.3h3.7V59s.4.1 1.1.1l2.3 5.3h4l-2.8-6.3c1-.7 1.8-2.4 1.8-4.2m-6.5 2v-3.6s2.8-.3 2.8 1.6c0 2.3-2.8 2-2.8 2"/><path d="M122.7 20.4c-4.1 0-7.5 3.3-7.7 7.3l-13.4 4.6-1.2-13.8c1.8-1.4 3-3.6 3-6.1 0-4.3-3.4-7.7-7.7-7.7-4.3 0-7.7 3.5-7.7 7.7 0 1.1.2 2.1.7 3.1l-10.8 9.9-6.2-13.3c.9-1.2 1.4-2.8 1.4-4.4C73 3.5 69.4 0 65.2 0c-4.3 0-7.7 3.5-7.7 7.7 0 1.6.5 3.1 1.4 4.4l-6.2 13.3-10.8-9.8c.4-1 .7-2 .7-3.1 0-4.3-3.4-7.7-7.7-7.7s-7.7 3.5-7.7 7.7c0 2.5 1.2 4.6 3 6.1L29 32.4l-13.4-4.6c-.2-4.1-3.6-7.3-7.7-7.3-4.3 0-7.7 3.5-7.7 7.7 0 3.8 2.7 6.9 6.3 7.6L22 65.6c2.4 4.3 6.8 8.2 13.6 11.1 8.1 3.4 18.1 4.7 29.5 4.9 11.4-.2 21.5-1.5 29.6-4.9 6.9-2.9 11.2-6.8 13.6-11.1l15.8-29.9c3.6-.7 6.2-3.8 6.2-7.5.1-4.4-3.3-7.8-7.6-7.8M91.6 73.7c-7.4 3.1-16.1 3.9-26.5 4-10.4-.2-18.9-.9-26.4-4-10.4-4.4-15.2-10.1-15.2-17.1s5.8-13.2 15.2-17c7.5-3.2 16-4 26.3-4s19 .8 26.5 3.9c9.3 3.8 15.2 10 15.2 17 .1 7-4.6 12.8-15.1 17.2m31.1-41.5c-.4 0-.7-.1-1-.2l-11.2 21.4c-1.3-6.6-6.8-12.8-15.6-16.4-8.2-3.5-18.4-5-29.6-5C54 32 44 33.5 35.8 37c-8.8 3.6-14.3 9.8-15.6 16.4L8.8 32.1c-.3.1-.7.1-1.1.1-2.3 0-4.1-1.8-4.1-4.1S5.4 24 7.7 24s4.1 1.8 4.1 4.1c0 .8-.2 1.5-.6 2.2l21 7.2 1.9-20.9c-1.9-.3-3.4-2-3.4-4 0-2.3 1.8-4.1 4.1-4.1s4.1 1.8 4.1 4.1c0 1.5-.8 2.8-2.1 3.5l17 15.6 9.4-20.2c-1.3-.7-2.2-2.1-2.2-3.6 0-2.3 1.8-4.1 4.1-4.1s4.3 1.9 4.3 4.1c0 1.6-.9 3-2.2 3.6l9.4 20.2 17-15.6c-1.2-.7-2.1-2-2.1-3.6 0-2.3 1.8-4.1 4.1-4.1s4.1 1.8 4.1 4.1c0 2-1.5 3.7-3.4 4l1.9 20.9 21-7.2c-.4-.6-.7-1.4-.7-2.2 0-2.3 1.8-4.1 4.1-4.1s4.1 1.8 4.1 4.1c.1 2.4-1.7 4.2-4 4.2"/><path d="m89.3 49-5.2 15.3h3.8l.6-1.8h5.6l.7 1.8h3.8L93.5 49h-4.2zm.5 9.9 1.6-4.9 1.6 4.9h-3.2zM78.1 49l-2.7 6.2-2.8-6.2h-2.8l-2.2 15.4h3.9l.8-7.2 3 6.3 3.1-6.3.8 7.2h3.9L80.9 49z"/></svg>