<?xml version="1.0" encoding="utf-8"?>
<!-- Generator: Adobe Illustrator 24.0.2, SVG Export Plug-In . SVG Version: 6.00 Build 0)  -->
<svg version="1.1" id="Layer_1" xmlns="http://www.w3.org/2000/svg" xmlns:xlink="http://www.w3.org/1999/xlink" x="0px" y="0px"
	 viewBox="0 0 130.4 81.5" style="enable-background:new 0 0 130.4 81.5;" xml:space="preserve">
<style type="text/css">
	.st0{fill:#EDDCB2;}
</style>
<path class="st0" d="M46,49l-5.2,15.3h3.8l0.6-1.8l5.7,0l0.6,1.8h3.8L50.1,49H46L46,49z M46.4,58.9L48,54l1.6,4.9H46.4L46.4,58.9z"
	/>
<path class="st0" d="M42.3,54.8c0-6.3-5.5-5.7-5.5-5.7h-4.7v15.3h3.6v-4.1C35.7,60.3,42.3,61,42.3,54.8 M36.5,56.7h-0.7v-4.1h1
	c0,0,1.9-0.3,1.9,1.9C38.7,57.1,36.5,56.7,36.5,56.7"/>
<path class="st0" d="M66.2,53.9c0-4.8-5-4.8-5-4.8h-5.1v15.3h3.7V59c0,0,0.4,0.1,1.1,0.1l2.3,5.3h4l-2.8-6.3
	C65.4,57.4,66.2,55.7,66.2,53.9 M59.7,55.9v-3.6c0,0,2.8-0.3,2.8,1.6C62.5,56.2,59.7,55.9,59.7,55.9"/>
<path class="st0" d="M122.7,20.4c-4.1,0-7.5,3.3-7.7,7.3l-13.4,4.6l-1.2-13.8c1.8-1.4,3-3.6,3-6.1c0-4.3-3.4-7.7-7.7-7.7
	c-4.3,0-7.7,3.5-7.7,7.7c0,1.1,0.2,2.1,0.7,3.1l-10.8,9.9l-6.2-13.3c0.9-1.2,1.4-2.8,1.4-4.4C73,3.5,69.4,0,65.2,0
	c-4.3,0-7.7,3.5-7.7,7.7c0,1.6,0.5,3.1,1.4,4.4l-6.2,13.3l-10.8-9.8c0.4-1,0.7-2,0.7-3.1c0-4.3-3.4-7.7-7.7-7.7
	c-4.3,0-7.7,3.5-7.7,7.7c0,2.5,1.2,4.6,3,6.1l-1.2,13.8l-13.4-4.6c-0.2-4.1-3.6-7.3-7.7-7.3c-4.3,0-7.7,3.5-7.7,7.7
	c0,3.8,2.7,6.9,6.3,7.6L22,65.6c2.4,4.3,6.8,8.2,13.6,11.1c8.1,3.4,18.1,4.7,29.5,4.9c11.4-0.2,21.5-1.5,29.6-4.9
	c6.9-2.9,11.2-6.8,13.6-11.1l15.8-29.9c3.6-0.7,6.2-3.8,6.2-7.5C130.4,23.8,127,20.4,122.7,20.4 M91.6,73.7
	c-7.4,3.1-16.1,3.9-26.5,4c-10.4-0.2-18.9-0.9-26.4-4c-10.4-4.4-15.2-10.1-15.2-17.1c0-7,5.8-13.2,15.2-17c7.5-3.2,16-4,26.3-4
	c10.3,0,19,0.8,26.5,3.9c9.3,3.8,15.2,10,15.2,17C106.8,63.5,102.1,69.3,91.6,73.7 M122.7,32.2c-0.4,0-0.7-0.1-1-0.2l-11.2,21.4
	c-1.3-6.6-6.8-12.8-15.6-16.4c-8.2-3.5-18.4-5-29.6-5c-11.3,0-21.3,1.5-29.5,5c-8.8,3.6-14.3,9.8-15.6,16.4L8.8,32.1
	c-0.3,0.1-0.7,0.1-1.1,0.1c-2.3,0-4.1-1.8-4.1-4.1c0-2.3,1.8-4.1,4.1-4.1c2.3,0,4.1,1.8,4.1,4.1c0,0.8-0.2,1.5-0.6,2.2l21,7.2
	l1.9-20.9c-1.9-0.3-3.4-2-3.4-4c0-2.3,1.8-4.1,4.1-4.1c2.3,0,4.1,1.8,4.1,4.1c0,1.5-0.8,2.8-2.1,3.5l17,15.6l9.4-20.2
	c-1.3-0.7-2.2-2.1-2.2-3.6c0-2.3,1.8-4.1,4.1-4.1c2.3,0,4.3,1.9,4.3,4.1c0,1.6-0.9,3-2.2,3.6l9.4,20.2l17-15.6
	c-1.2-0.7-2.1-2-2.1-3.6c0-2.3,1.8-4.1,4.1-4.1c2.3,0,4.1,1.8,4.1,4.1c0,2-1.5,3.7-3.4,4l1.9,20.9l21-7.2c-0.4-0.6-0.7-1.4-0.7-2.2
	c0-2.3,1.8-4.1,4.1-4.1c2.3,0,4.1,1.8,4.1,4.1C126.8,30.4,125,32.2,122.7,32.2"/>
<path class="st0" d="M89.3,49l-5.2,15.3h3.8l0.6-1.8l5.6,0l0.7,1.8h3.8L93.5,49H89.3L89.3,49z M89.8,58.9l1.6-4.9l1.6,4.9H89.8
	L89.8,58.9z"/>
<polygon class="st0" points="78.1,49 75.4,55.2 72.6,49 69.8,49 67.6,64.4 71.5,64.4 72.3,57.2 75.3,63.5 78.4,57.2 79.2,64.4 
	83.1,64.4 80.9,49 78.1,49 "/>
</svg>
