<?xml version="1.0" encoding="utf-8"?>
<!-- Generator: Adobe Illustrator 23.0.0, SVG Export Plug-In . SVG Version: 6.00 Build 0)  -->
<svg version="1.1" id="Layer_1" xmlns="http://www.w3.org/2000/svg" xmlns:xlink="http://www.w3.org/1999/xlink" x="0px" y="0px"
	 viewBox="0 0 470.6 152.1" style="enable-background:new 0 0 470.6 152.1;" xml:space="preserve">
<g>
	<path d="M470.6,76.3c-2.8-1.4-5.2-3.3-8-5.1c2.5-2.3,4.7-4.4,7-6.6c-3-1.4-5.8-2.7-8.6-4.1c1.9-2.8,4.1-4.9,5.7-7.7
		c-3.2-0.9-6-1.7-9.1-2.6c1.6-2.9,3-5.5,4.6-8.4c-3.2-0.4-6.3-0.8-9.5-1.2c1.1-3.1,2.1-5.8,3.2-8.8c-3.3,0-6.3,0-9.5,0
		c0.6-3.2,1.1-6.1,1.7-9.3c-3.3,0.6-6.1,1.2-9.2,1.8c0-3.3,0-6.2,0-9.5c-3.1,1.1-5.9,2.1-8.9,3.2c-0.4-3.3-0.7-6.3-1.1-9.6
		c-2.9,1.6-5.6,3.1-8.4,4.7c-0.9-3.2-1.7-6.1-2.6-9.3c-2.6,2.1-4.9,3.9-7.5,6C409,6.7,407.7,4,406.3,1c-2.3,2.5-4.3,4.7-6.5,7.1
		c-1.8-2.8-3.5-5.3-5.3-7.9c-2.2,2.5-3.4,5.5-5.6,7.8c-2.2-2.4-4.2-4.5-6.4-6.9c-1.7,2.9-2.4,6-4.2,8.6c-2.5-2-4.9-3.9-7.4-5.9
		c-0.9,3.2-1.8,6.2-2.7,9.3c-2.9-1.7-5.5-3.1-8.3-4.7c-0.4,3.3-0.8,6.4-1.3,9.6c-3.2-1.2-6-2.2-8.9-3.3c-0.3,3.4,0.8,6.4,0,9.6
		c-3-0.6-5.8-1.1-9.1-1.8c0.6,3.3,1.2,6.2,1.8,9.3c-3.3,0-6.2,0-9.5,0c1.1,3.1,2.1,5.9,3.2,8.9c-3.2,0.7-6.3,0.5-9.4,1.4
		c1.4,3,3.2,5.4,4.5,8.3c-3.2,0.9-6.1,1.8-9.2,2.7c2.1,2.7,3.9,5,5.9,7.6c-3,1.4-5.7,2.7-8.7,4.1c2.5,2.3,4.7,4.3,7,6.5
		c-2.8,1.9-5.3,3.6-8,5.4c2.8,1.9,5.3,3.5,8,5.3c-2.4,2.3-4.6,4.3-7.1,6.6c3,1.4,5.7,2.7,8.6,4c-1.7,2.9-4.1,4.9-5.6,7.7
		c3.1,0.9,6,1.7,9,2.6c-1.6,2.9-3.1,5.6-4.6,8.4c3.3,0.4,6.3,0.8,9.5,1.2c-1.1,3.1-2.1,5.9-3.2,8.9c3.2,0,6.2,0,9.4,0
		c0,3.1-1.6,6-1.4,9.2c3.2-0.2,6-1.5,9.2-1.3c-0.1,3.1-0.3,6-0.4,9.3c3.2-1.2,6-2.2,9-3.3c0.4,3.3,0.8,6.3,1.2,9.6
		c2.8-1.6,5.4-3.1,8.3-4.7c0.9,3.2,1.8,6.1,2.7,9.3c2.6-2.1,5-3.9,7.6-6.1c1.2,3.1,2.3,5.9,3.5,8.7c0.3,0,0.7,0,1,0
		c1.9-2.2,3.7-4.5,5.8-7c1.7,2.4,3.4,4.4,4.3,7c0.7,0,1.4,0,2,0c1.4-2.2,2.9-4.4,4.5-7c2.2,2.5,4.2,4.7,6.2,7c0.2,0,0.3,0,0.5,0
		c1.2-2.7,2.5-5.5,3.9-8.6c2.6,2.1,5,3.9,7.6,6c0.9-3.1,1.7-6,2.6-9.3c2.8,1.6,5.4,3,8.4,4.7c0.4-3.2,0.8-6.3,1.2-9.6
		c3,1.1,5.7,2.1,8.8,3.2c0-3.2,0-6.2,0-9.5c3.2,0.6,6,1.2,9.3,1.8c-0.6-3.3-1.2-6.2-1.8-9.3c3.2,0,6.1,0,9.4,0
		c-1.1-3-2.1-5.9-3.2-8.9c3.2-0.4,6.2-0.8,9.5-1.2c-1.6-2.8-3-5.4-4.7-8.4c3.1-0.9,5.9-1.8,9.1-2.7c-1.6-2.8-3.9-4.8-5.7-7.6
		c2.8-1.3,5.6-2.6,8.6-4.1c-2.4-2.2-4.5-4.3-7-6.6c2.8-1.8,5.2-3.7,8-5.1C470.6,76.7,470.6,76.5,470.6,76.3z M437.5,127.8
		c-9.7,8.4-21,13.5-33.8,15.2c-12.9,1.7-25.3,0.1-37.1-5.5c-16.3-7.7-27.7-20-34.2-36.8c-2.4-6.2-3.8-12.6-4.2-19.2
		c-1.3-18.6,4.2-34.9,16.3-49c10.6-12.4,24.1-19.8,40.2-22.2c18.2-2.7,34.9,1.5,49.6,12.5C448.1,33.1,456.7,47,459.9,64
		c0.8,4.1,1,8.4,1.2,10.6C460.8,97.2,453,114.3,437.5,127.8z"/>
	<path d="M394.5,30.6C367.9,30.9,349,52.7,349,76.3c-0.1,24.2,18.9,46.2,45.6,46.2c25.7,0,45.6-20.8,45.6-45.9
		C440,50.7,419.4,30.7,394.5,30.6z M427.2,51.9c0.6,2.6,1.7,4.1,4.6,3.7c-2.4,1.4-2.8,3.2-1.5,5.6c-2.1-1.6-4-2.4-6.2-0.1
		c0.3-1,0.5-2.1,0.8-3.2c-0.7-0.7-1.5-1.3-2.6-2.4C425.5,56,426.7,54.4,427.2,51.9z M413.1,38.8c0.8,2.4,2.1,3.8,4.8,3
		c0,0.2,0,0.4,0,0.5c-0.8,0.6-1.5,1.3-2.4,2c0.2,1,0.4,2,0.7,3.4c-1.1-0.7-2-1.2-2.9-1.7c-0.9,0.5-1.8,1-3.1,1.8
		c0.3-1.3,0.6-2.2,0.9-3.3c-0.9-0.7-1.7-1.5-3-2.6C410.8,42.1,412.8,41.9,413.1,38.8z M394.1,32.9c0.7,1.6,1.1,2.6,1.6,3.7
		c1.1,0.1,2.2,0.2,3.5,0.3c-0.9,0.8-1.7,1.5-2.6,2.3c0.2,1,0.4,2.1,0.7,3.4c-1.1-0.7-2-1.2-3-1.9c-0.9,0.5-1.7,1.1-2.9,1.8
		c0.3-1.2,0.5-2.2,0.7-3.4c-0.9-0.7-1.7-1.4-3-2.5C392.3,37.3,393.8,36.1,394.1,32.9z M374.2,41.8c0.4-0.9,0.8-1.8,1.4-3
		c0.6,1.1,1,2,1.5,3c1,0.1,2,0.1,3.2,0.2c-0.3,1.2-1.5,1.5-2.3,2.4c0.2,0.9,0.4,1.9,0.7,3.5c-1.3-0.8-2.1-1.4-3-1.9
		c-0.9,0.6-1.7,1.1-3,1.9c0.3-1.3,0.5-2.2,0.8-3.4c-0.8-0.7-1.7-1.4-2.9-2.4C371.9,41.9,373,41.9,374.2,41.8z M361.4,51.8
		c0.7,1.5,1,2.7,1.7,3.2s1.9,0.4,3.5,0.8c-3.1,1.3-2.9,3.1-1.6,5.5c-1.4-0.7-2.3-1.7-3.3-1.7s-2,0.9-3.2,1.5
		c0.3-1.1,0.6-2.1,0.9-3.3c-0.7-0.7-1.5-1.3-2.6-2.3C359.6,55.9,361.1,54.7,361.4,51.8z M353.4,81.3c0.3-1.3,0.6-2.3,0.8-3.4
		c-0.8-0.7-1.7-1.4-2.6-2.1c2.9,0.4,4.2-1.1,4.7-3.8c1.5,3.4,1.5,3.4,4.8,3.6c0,0.1,0,0.3-0.1,0.4c-2.1,1.2-3,2.8-1.8,5.3
		c-0.9-0.6-1.8-1.1-2.8-1.8C355.6,80,354.6,80.6,353.4,81.3z M365.4,99.6c-1.2-0.7-2.1-1.2-3-1.8c-0.9,0.6-1.8,1.1-3.1,1.9
		c0.4-1.3,0.6-2.3,0.9-3.3c-0.9-0.8-1.7-1.5-2.9-2.5c1.4-0.1,2.5-0.2,3.7-0.3c0.4-1.1,0.8-1.9,1.3-3.1c0.6,1.2,1,2.1,1.4,3.1
		c1,0.1,2.1,0.2,3.5,0.3c-0.9,0.8-1.7,1.5-2.6,2.3C364.9,97.2,365.1,98.2,365.4,99.6z M366.1,78.8c2.6-0.7,12.7,1.4,21.9,4.7
		c9.3,3.3,18.1,7.5,25.2,14.9c-1,0.8-1.8,1.4-2.7,2.2c-12.4-11.2-27.7-15.7-43.7-18.6C366.4,80.8,366.3,79.8,366.1,78.8z
		 M377.8,112.9c-1.2-0.7-2-1.2-3-1.8c-0.9,0.5-1.8,1.1-3.1,1.9c0.8-2.3,1.1-4.2-1.7-5.4c1.4-0.3,2.7-0.3,3.3-0.8
		c0.7-0.7,0.9-1.9,1.5-3.1c0.8,2.2,1.4,4.5,4.5,4c-0.7,0.7-1.5,1.3-2.2,2C377.3,110.7,377.5,111.6,377.8,112.9z M372.3,94.5
		c1.8-0.2,4.8,0.8,8.5,3c2.6,1.6,5,3.4,6.5,6.8C380.9,102.6,376.2,99.3,372.3,94.5z M397.4,119.9c-1.2-0.7-2.1-1.3-3.1-1.9
		c-0.8,0.5-1.7,0.9-3,1.6c0.9-2.5,0.5-4.2-1.8-5.4c2.7,0.3,4.2-0.9,4.6-4.1c0.7,1.6,1.1,2.6,1.6,3.7c1.1,0.1,2.2,0.2,3.6,0.3
		c-1,0.8-1.8,1.5-2.8,2.3C396.8,117.6,397.1,118.5,397.4,119.9z M397.2,103.7c-2.9-3.8-6.9-6.2-11.1-8.3c-4.4-2.2-9-4-13.8-4.9
		c-2.8-0.5-4.2-1.9-4.6-4.8c10,1.9,19.3,4.8,27.3,10.8c2.3,1.7,4,4,6,6.1c0.3,0.3,0.5,0.9,0.7,1.3
		C399.3,105.2,398.4,105.2,397.2,103.7z M416.7,112.9c-1.1-0.7-2-1.2-2.9-1.7c-0.9,0.5-1.8,1-3.1,1.8c0.3-1.3,0.6-2.2,0.9-3.3
		c-0.7-0.6-1.4-1.2-2.1-1.8c2.6,0.1,3.5-1.7,4.3-3.8c0.5,2.5,1.9,3.8,5,3.2c-1.3,1-2,1.6-2.8,2.2
		C416.2,110.4,416.4,111.5,416.7,112.9z M417.8,93.2c-7.8-5.5-16.1-9.3-24.9-12.3c-8.7-3-17.5-5-26.7-6.3c0.1-0.7,0.1-1.2,0.2-1.8
		c0.1-0.5,0.1-1,0.2-1.8c2.4,0.4,4.7,0.7,7,1.1c3.6,0.7,7.1,1.5,10.6,2.4c1.1,0.3,2.1,0.3,3.2-0.1c7.9-2.7,16.1-4.4,24.5-5.5
		c2.6-0.3,5.2-0.5,7.8-0.6c2.2-0.1,2.3,0,2.4,2.7c-10.4,0.1-20.6,1.8-31.1,5.1c2.4,1.3,4.1,1.7,6.1,1.1c6.2-1.8,12.6-2.4,19-2.8
		c2.1-0.1,4.2,0.2,6.4,0.3c0.1,0.9,0.1,1.5,0.2,2.5c-7.6-0.1-14.9,0-22.6,2.1c2.2,1.3,3.8,2,6.1,1.7c4.7-0.6,9.4-0.8,14.1,0.3
		c2.1,0.5,2.1,0.5,1.3,2.9c-3.8-0.5-7.7-1.3-12.2-0.7c3.6,2.2,6.8,4.2,10.2,6.3C419.1,91.1,418.5,92.1,417.8,93.2z M429.3,99.7
		c-1.2-0.7-2.1-1.3-3.1-1.9c-0.9,0.6-1.8,1.2-2.9,1.8c0.2-1.3,0.7-2.5,0.4-3.4c-0.3-0.9-1.5-1.4-2.8-2.5c3,0.4,5-0.1,5.1-3.5
		c1.9,3.5,1.9,3.5,5.3,3.7c-1,0.9-1.8,1.6-2.7,2.4C428.7,97.3,429,98.3,429.3,99.7z M435.4,81.2c-0.9-0.6-1.8-1.2-2.8-1.8
		c-1,0.6-1.9,1.2-3.1,1.9c0.4-1.3,0.6-2.3,0.9-3.4c-0.9-0.7-1.7-1.4-2.9-2.3c1.3-0.1,2.4-0.2,3.6-0.3c0.4-1,0.9-2,1.6-3.6
		c0.5,2.9,1.7,4.4,4.3,3.7c0,0.3,0.1,0.5,0,0.6C434.9,77.1,434.6,78.9,435.4,81.2z"/>
	<path d="M433,41.7c0.6-2.6,2.7-3.4,4.6-4.9c-0.1,3.1-1.7,5.6-1.7,8.6c3-1.4,4.5-4.4,7.6-5.2c-0.5-0.5-1-0.9-1.5-1.4
		c-1,1.4-2,2.6-4,3.3c0.5-1.9,0.8-3.4,1.2-5c0.4-1.4,0-2.5-1-3.1c-2,2.3-3.9,4.5-7,5.6C431.8,40.3,432.3,41,433,41.7z"/>
	<path d="M350.1,102.8c-1,0.7-1.9,1.3-3.3,2.3c0-1.2-0.1-1.8,0-2.4c0.2-0.7,0.6-1.4,1-2.1c0.5-1,0.4-1.8-0.4-2.5
		c-0.6,1.3-1.3,2.7-1.9,3.9c-0.5-0.1-0.8-0.1-1-0.2c-2.6-0.4-3.9,1.2-2.9,3.6c0.5,1.2,1.3,2.4,1.9,3.6c2.2-2.2,4.9-3.2,7.5-4.6
		C350.7,103.9,350.4,103.3,350.1,102.8z M343.6,106.9c-0.9-0.8-1.4-1.7-0.9-2.7c0.2-0.4,0.8-0.9,1.3-1c1.3-0.1,1.6,1,2.3,2.1
		C345.3,105.9,344.5,106.4,343.6,106.9z"/>
	<path d="M354.3,43.7c1.1-2.1,0.5-3.9-1.6-5.4c-2-1.4-3.5-1.4-5.2,0.3c-1.2,1.2-2.1,2.5-3,3.6c2.7,1.5,4.8,3.3,7.1,5.4
		C352.3,46.4,353.5,45.2,354.3,43.7z M349.6,38.9c1.8-0.1,3,1.1,3.8,2.6c0.9,1.6-0.3,2.8-1.5,4.3c-1.9-1.5-3.6-2.8-5.3-4.2
		C346.9,39.7,348.1,38.9,349.6,38.9z"/>
	<path d="M359.5,38.1c1.1-0.8,2.2-1.7,3.2-2.5c0.3-0.2,0.5-0.5,0.7-0.7c1.4-1.6,1.3-3.7-0.1-5.5s-3.3-2.4-5.1-1.3
		c-1.5,0.9-2.9,2-4.1,2.9C356.7,32.8,358.4,35,359.5,38.1z M360.4,29c1.6,0.6,2.5,2,2.8,3.6c0.3,1.6-0.9,2.5-2.6,3.4
		c-1.5-1.9-2.8-3.7-4.3-5.5C357.6,29.3,358.7,28.3,360.4,29z"/>
	<path d="M446.3,79.4c-0.2,0.8-0.3,1.6-0.4,2.3c1.3-0.1,2.4-0.2,3.7-0.2c0.1,1.9-1.2,2.3-2.2,2.7c-1.5,0.6-2.2,1.6-2.1,3.2
		c1.3-0.9,2.7-1.9,3.9-2.8c0.7,0.7,1.1,1.2,1.7,1.6c1.3,0.8,2.9,0.3,3.3-1.1c0.4-1.6,1-3.2,0.6-4.9C451.8,80.6,449,80.1,446.3,79.4z
		 M452.8,84.8c-0.5,0.3-1.4,0.2-1.9-0.1c-1-0.6-0.6-1.6-0.4-2.8c1.1,0.1,2,0.1,3,0.2C453.9,83.3,453.8,84.2,452.8,84.8z"/>
	<path d="M397.2,24.5c0.1-2.1,0.3-4.2,0.4-6.8c2.1,2.6,2.6,5.4,5,7.8c0.5-3.4,0.8-6.2,1.2-9.1c-0.5,0-1.2,0-1.8,0
		c0.7,1.8,0.5,3.4-0.3,5.4c-0.9-1.6-1.6-2.9-2.3-4.3c-0.7-1.5-1.7-2.1-3.1-1.8c0.3,3.1,0.2,5.9-1,8.8
		C396.1,24.5,396.8,24.5,397.2,24.5z"/>
	<path d="M441.1,108.2c-1.2-0.9-2.3-1.8-3.6-2.7c-0.4,0.5-0.7,0.9-1,1.4c2.5,0.5,3.8,2.4,5.6,4c-2.8-0.2-5.6-0.3-8.4-0.5
		c-0.1,0.2-0.1,0.4-0.2,0.7c1.8,2.2,4.8,3.2,6.3,5.8c0.5-0.6,0.9-1.2,1.4-1.9c-1.9-0.2-3.1-1-4.3-2.8c1.4,0,2.9-0.2,4.3,0
		c1.8,0.3,2.8-0.3,3.5-2.1C443,110.4,442.2,109,441.1,108.2z"/>
	<path d="M411.1,24.6c-0.2,0.8-0.4,1.6-0.6,2.6c0.8,0.3,1.7,0.5,2.5,0.8c-0.3-1.9-0.6-3.5-0.8-5.2c-0.2-1.7,0.2-3.5-1.4-5.2
		c-2,2.7-4,5.2-5.9,7.8c0.4,0.2,1,0.4,1.6,0.6C407.1,23.2,408.1,22.9,411.1,24.6z"/>
	<path d="M429.6,37.6c2,0.1,4.8-2.8,5-5c0.1-2.1-2.2-4.5-4.3-4.5c-2.2-0.1-4.8,2.6-4.9,5C425.2,35.2,427.4,37.5,429.6,37.6z
		 M430.7,29.2c1.7,0,3.1,1.8,2.3,3.3c-0.7,1.3-1.7,2.5-2.8,3.5c-1.3,1-3.3,0-3.7-1.7C426.2,32.5,428.9,29.2,430.7,29.2z"/>
	<path d="M450.5,68.8c-2.9,0-4.8,1.8-4.8,4.5c0,2.6,2,4.5,4.5,4.4c3.1-0.1,4.7-1.6,4.7-4.4C454.9,70.5,453.2,68.8,450.5,68.8z
		 M452.3,75.7c-0.7,0.2-1.5,0.2-2.1,0.2c-1.5-0.1-2.9,0.2-3.5-1.6c-0.5-1.4,0-2.9,1.3-3.4c1.4-0.6,2.9-0.8,4.4-0.2
		c1.2,0.4,2,1.5,1.8,2.7C454.1,74.6,453.5,75.4,452.3,75.7z"/>
	<path d="M346.1,94.7c0-2.6-1.8-4.6-4.1-4.6c-2.7,0-5.1,1.9-5.2,4.2c-0.1,2.6,1.8,4.9,4.1,4.9C343.7,99.2,346.1,97.1,346.1,94.7z
		 M344.3,96.1c-1.2,0.7-2.5,1.2-3.8,1.8c-1.4-0.2-2.1-0.8-2.6-2s-0.3-2.3,0.7-2.9c1.3-0.7,2.8-1.1,4.2-1.3c1.3-0.2,1.9,0.8,2.4,1.9
		S345.2,95.6,344.3,96.1z"/>
	<path d="M393.3,23.9c0.1-1.1,0.1-2.2,0.2-3.5c-0.9,0.1-1.6,0.2-2.3,0.3c0.3,1.1,0.5,2,0.7,2.9c-2.7,0.8-3.7,0.6-4.5-0.8
		c-0.9-1.5-0.8-4.3,0.2-5.3c1.1-1.2,2.9-1.1,5.1-0.1c-0.3-0.5-0.5-1.3-0.8-1.3c-1.3-0.1-2.7-0.3-4,0.1c-2.6,0.7-3.5,3.7-2.2,6.5
		C386.9,25.3,389.9,25.8,393.3,23.9z"/>
	<path d="M440.5,52.6c0.4,1.7,1.2,3.2,3,3.7c1.9,0.6,3.5-0.3,4.9-1.4c1.7-1.4,1.8-2.9,0.4-5l0,0c-1-2.3-2.4-3-4.5-2.4
		C441.5,48.4,440,50.4,440.5,52.6z M448.8,49.9c0,3.3-1.9,5.2-5,5.1c-1.2,0-1.9-0.6-2.3-1.6s-0.2-1.8,0.4-2.6
		C443.7,48.7,446.2,48.3,448.8,49.9z"/>
	<path d="M343.1,79.4c0-1.7,0-3.4,0-5.1c-0.1-1.5-0.1-1.5-2.2-1.4c1.6,1.3,1.3,2.9,0.7,4.8c-0.9-0.3-2-0.3-2.3-0.8
		c-0.3-0.6,0-1.6,0.1-2.6c-0.7,0-1.4,0-2,0c0.1,1,0.2,1.8,0.4,2.9c-1.2-0.1-2-0.1-3.2-0.2c0.4-1.5,0.7-2.7,1-3.9
		c-0.5-0.1-1.3-0.2-1.4,0.7c-0.2,1.8-0.2,3.6-0.3,5.5C337.1,78.6,340,78.8,343.1,79.4z"/>
	<path d="M350.5,49.2c-0.6-0.4-1.1-0.7-2-1.2c1,2.2-0.1,3.4-1,4.8c-1-0.4-2.2-0.6-2.3-1.8c0-0.5,0.8-1.1,1.2-1.6
		c0.1-0.1,0-0.3,0.1-0.5c-0.5-0.2-1.1-0.5-1.6-0.7c-0.3,1-0.6,1.8-0.9,2.9c-1-0.6-1.8-1-2.5-1.4c0.4-1.7,1.2-2.7,3.1-3.1
		c-1.1-0.5-1.6-0.7-2.2-1c-0.9,1.8-1.7,3.4-2.5,5c2.8,1.4,5.4,2.5,7.7,4.4C348.5,53.1,349.5,51.2,350.5,49.2z"/>
	<path d="M373.2,29.1c-0.4-0.8-0.7-1.3-1.2-2.3c-0.4,2.3-0.4,2.3-3.3,3.5c-0.4-0.9-0.8-1.7-1.4-2.8c1-0.4,1.8-0.6,2.6-1
		c-0.2-0.5-0.5-1-0.7-1.4c-0.8,0.5-1.5,1-2.4,1.6c-0.6-1.1-0.9-1.9-1.4-2.7c1.3-0.7,2.3-1.8,4.1-0.6c-0.5-0.9-0.7-1.3-1.1-2
		c-1.9,1.1-3.7,2.1-5.4,3c2.4,2.2,3.4,4.9,4.3,7.8C369.4,31.2,371.2,30.2,373.2,29.1z"/>
	<path d="M447.2,93.4c-2.2-0.8-4.1,0.4-5.1,2.9s-0.7,3.1,1.8,4.4c0.1,0.1,0.3,0.1,0.6,0.3c0.2-0.6,0.5-1.2,0.7-1.8
		c-1.1-0.3-2.5-0.1-2.6-1.6c-0.1-1.2,0.6-2.1,1.6-2.7c0.5-0.2,1.2-0.3,1.7-0.2c0.9,0.2,1.8,0.5,2.6,1c2.1,1.2,2.2,3.5,0.4,5
		c-0.4,0.3-0.9,0.5-1.5,0.8c0.6,0.3,0.9,0.4,1.2,0.5c0.1,0,0.3,0,0.5-0.1c2-1.3,2.5-5.6,0.7-7.2C449.1,94.2,448.2,93.7,447.2,93.4z"
		/>
	<path d="M352,111.4c-0.6-0.7-0.9-1.1-1.3-1.5c-1.3-1.1-2.4-1.2-3.6-0.2c-1.2,0.9-1.4,2-0.5,3.6c0.6,1,1.4,1.8,2,2.6
		c2.4-1.9,4.5-3.6,6.8-5.5c-0.3-0.5-0.8-1.1-1.1-1.5C353.5,109.7,352.9,110.4,352,111.4z M348.6,113.9c-1.6-1.5-1.7-2.1-0.8-2.9
		c1-0.9,1.7-0.7,3.2,0.9C350.2,112.5,349.4,113.2,348.6,113.9z"/>
	<path d="M374.3,23.8c0.7,0.1,1.3,0.1,2,0.2c1,0.1,1.6,0.4,1.7,1.5c0,1-0.7,1.6-1.9,1.5c-0.7,0-1.3-0.3-2.2-0.5
		c0.2,0.5,0.2,0.9,0.4,1.1c1.1,1.1,2.2,0.5,3.3,0c1.3-0.6,2-1.7,1.8-2.7c-0.2-1.2-1.1-2.2-2.3-2.4c-0.8-0.1-1.7-0.1-2.5-0.3
		c-0.4-0.1-0.8-0.6-1-1c-0.1-0.3,0.3-0.9,0.5-1c0.9-0.2,1.8-0.3,2.8-0.4c0.1-0.8-0.3-1.3-1.3-1.1c-0.7,0.1-1.3,0.4-1.9,0.6
		c-1,0.4-1.7,1.2-1.6,2.4C372.3,22.8,373.1,23.6,374.3,23.8z"/>
	<path d="M444.1,62.1c0.9-1.5,1.8-2.1,3.5-1.8c0.1,0.9,0.1,1.8,0.2,2.9c0.6-0.2,1.2-0.5,1.6-0.6c-0.4-0.9-0.8-1.7-1.2-2.8
		c1.2-0.3,2.1-0.5,3.1-0.8c0.7,1.5,1.2,2.7,0.2,4.1c1.3-0.1,2-0.4,1.6-1.6c-0.5-1.5-0.9-3.1-1.2-4.3c-2.9,0.8-5.7,1.5-8.6,2.3
		C443.5,60,443.7,60.9,444.1,62.1z"/>
	<path d="M337.6,61c0.1-1-0.1-2,0.3-2.5c0.3-0.4,1.5-0.1,2.3,0.1c1.7,0.5,3.4,1.1,5.2,1.8c0.2-0.8,0.4-1.5,0.6-2.2
		c-3,0.6-5.1-1.1-8-1.9c0.9-1,1.5-1.7,2.2-2.5c-0.6-0.2-1.1-0.3-1.8-0.5c-0.7,2-1.4,3.9-2,5.8C336.1,60.3,336.6,61,337.6,61z"/>
	<path d="M419.7,22.1c1.1,0.8,1.9,1.4,2.6,2c0.4-0.6,0.7-1.2-0.2-1.7c-1.8-0.9-3.7-1.7-5.5-2.5c-1-0.4-1.3,0.2-1.3,1.3
		c1,0,2.2-0.6,2.9,0.9c-1.2,2-1.4,4.7-3.8,6.6c1.1,0.5,2,1,2.9,1.4C416.7,26.9,418.9,24.9,419.7,22.1z"/>
	<path d="M336.2,86.8c4.1-1.2,5.8-1.4,7.7-0.8c-0.2-0.9-0.3-1.8-0.5-2.7c-2,1.2-5.8,1.8-8,1.2c0.2-0.8,0.3-1.6,0.5-2.4
		c-1.5,0.2-1.6,0.3-1.5,1.2c0.3,2.1,0.7,4.3,1.1,6.6c0.8-0.2,1.3-0.3,2.4-0.6C336.2,88.8,335.7,88,336.2,86.8z"/>
	<path d="M336.8,70.4c1.8,1.1,4,1.1,5.5,0c1.4-1,2.2-3.8,1.7-5.5c-0.3-0.9-1-1-1.8-0.9c1.6,2.2,1.6,4,0,5.1
		c-1.5,1.1-4.9,0.6-6.1-0.9c-1.1-1.4-0.6-3.2,1.5-5c-0.7,0-1-0.1-1.3-0.1c-0.2,0-0.5,0.2-0.6,0.3C334.1,65.3,334.7,69.1,336.8,70.4z
		"/>
	<path d="M381.7,26.2c0.8-0.2,1.8-0.3,2.8-0.5c-2-2.8-2-5.8-2.3-8.7c-0.8,0.2-1.5,0.4-2.3,0.5C381.1,20.4,382,23.1,381.7,26.2z"/>
	<path d="M420.2,31.5c0.8,0.5,1.7,1,2.5,1.5c0.2-3.3,2.6-5.3,4-8c-0.6-0.3-1.1-0.7-1.6-0.9C423.8,26.9,422.7,29.6,420.2,31.5z"/>
	<path d="M439.1,103c1.4,0.8,2.6,1.5,3.8,2.3c1.2,0.7,2.8,1.1,3.2,3c0.6-1,1-1.8,1.4-2.5c-3-0.8-5.4-2.3-7.7-4.4
		C439.7,101.7,439.4,102.3,439.1,103z"/>
	<path d="M452.8,92.6c0.2-0.8,0.4-1.6,0.6-2.6c-0.6,0.2-1,0.4-1.3,0.4c-2.1-0.5-4.1-1-6.1-1.6c-0.4-0.1-0.6-0.8-0.9-1.3
		c-0.3,1-0.7,2-1,2.8C447.3,90.6,450.1,91.2,452.8,92.6z"/>
	<path d="M445.2,87.5L445.2,87.5C445.2,87.4,445.2,87.4,445.2,87.5C445.2,87.4,445.2,87.4,445.2,87.5L445.2,87.5z"/>
	<path d="M355.8,118.8c0,0.8,1,1.7,1.7,1.4c0.7-0.2,1.2-0.9,2.1-1.7c-1.1-0.7-1.7-1.3-2.4-1.4C356.4,117.1,355.8,117.8,355.8,118.8z
		"/>
	<path d="M429.7,119.3c0,0.8,0.9,1.8,1.7,1.5c0.7-0.2,1.2-0.9,2.1-1.7c-1-0.7-1.6-1.3-2.3-1.5C430.5,117.4,429.7,118.5,429.7,119.3z
		"/>
	<path d="M304.8,2.8c-0.1,0-0.2-0.1-0.3-0.2c-72.1,0-144.3,0-216.4,0c-1,0.4-2.2,0.7-3.1,1.3c-2,1.2-2.7,3.2-2.8,5.4
		c0,3,0,5.9,0,8.9c0,42.1,0,84.3,0,126.4c0,3.8,2.3,6.9,5.9,7.3c0.1,0,0.1,0.1,0.2,0.2c71.9,0,143.9,0,215.8,0
		c0.4-0.1,0.9-0.2,1.3-0.3c2.7-0.8,4.2-2.6,4.8-5.3c0-0.2,0.1-0.3,0.2-0.4c0-45.8,0-91.5,0-137.3c-0.3-0.9-0.5-1.9-1-2.8
		C308.4,4.1,306.8,3.1,304.8,2.8z M166.8,79.4c1-0.1,2-0.5,3.2-0.9c0,1.2,0,2.5,0,3.8c0,0.2-0.3,0.6-0.6,0.7
		c-4.7,2.2-10.2,0.8-10.7-5.3c-0.5-5.9-0.1-11.9-0.1-18c1.5,0,3,0,4.5,0c0.2,0,0.4,0.5,0.4,0.8c0,2,0,4,0,6c0,3.3,0,6.6,0,9.8
		C163.5,78.6,164.6,79.6,166.8,79.4z M161,43.2c2.1,0,3.9,2,3.7,3.6c0,2.2-1.6,3.9-3.7,3.9c-2,0-3.8-1.8-3.8-3.7
		C157.2,45,159,43.2,161,43.2z M128.7,120.1c-6.9,0-12.6-5.6-12.6-12.6c0-6.9,5.6-12.6,12.6-12.6c6.9,0,12.6,5.6,12.6,12.6
		C141.3,114.4,135.7,120.1,128.7,120.1z M148.1,64.5c-3.3,5.1-7.9,8-14.1,8.1c-1.4,0-2.9,0-4.3-0.2c-1.4-0.2-2.8-0.6-4.3-1
		c0,2.4,0.1,4.7,0,7c-0.1,1.6-0.4,3.2-1,4.8c-0.8,2.2-2.6,3.6-5,3.9c-2.2,0.3-4.4,0.3-6.3-1c-0.6-0.3-0.8-0.7-0.8-1.4
		c0-1.4,0-2.8,0-4.3c0.2,0.1,0.4,0.1,0.4,0.1c1.1,1.3,2.6,1.5,4.2,1.5c1.3,0,2.4-0.9,2.6-2.2c0.1-0.8,0.2-1.6,0.2-2.4
		c0-9.5,0-19,0-28.5c0-0.4,0-0.8,0-1.3c1.8,0,3.6,0,5.3,0c0.2,0,0.4,0.3,0.4,0.5c0.1,0.3,0,0.7,0,1c0,5.5,0,11,0,16.4
		c0,0.8,0.2,1.1,1,1.3c3.6,1,7.2,1.6,10.8,0.3c4-1.3,7.4-5.7,7.8-10c0.3-3.3-0.1-6.4-1.9-9.2c-1.6-2.6-4.1-4.3-6.9-5.5
		c-3.5-1.4-7.2-1.9-11.1-1.8c-5.5,0.2-10.2,2.1-14.1,6.1c-2.2,2.3-3.2,5.2-3.5,8.3c-0.4,3.4,0.5,6.4,2.8,9.1c-1.3,1.2-2.6,2.3-4,3.5
		c-1.9-1.9-3.3-4-3.8-6.7c-1.3-5.6-0.5-10.9,2.7-15.7c2-3.1,4.9-5.3,8-7c3.2-1.8,6.7-2.6,10.4-2.8c5.5-0.4,10.7,0.3,15.7,2.6
		c4.5,2.1,8.2,5.2,10,9.9C151.5,53.6,151.5,59.2,148.1,64.5z M164.2,120.1c-6.9,0-12.6-5.6-12.6-12.6c0-6.9,5.6-12.6,12.6-12.6
		s12.6,5.6,12.6,12.6C176.7,114.4,171.1,120.1,164.2,120.1z M179.1,81.7c-4.1-2.7-5.8-6.7-5.4-11.6c0.5-6,5.8-10.7,11.4-10.9
		c2.7-0.1,5.3,0.4,7.6,2.1c1.8,1.3,2.2,5.1,0.9,6.6c-1.3,1.4-3.5,1.5-4.6,0.9c-1.8-1-2.4-2.7-1.7-4.7c-2.2-0.7-4.3-0.3-6.1,1.1
		c-2.6,2.1-3.5,5.4-2.5,8.8c0.8,2.6,3.9,4.9,6.8,5.2c3,0.3,5.8-0.1,8.5-1.9c0,1.7,0,3.3,0,4.9c0,0.2-0.4,0.4-0.6,0.5
		c-2.4,1.1-4.9,1.2-7.5,1.1C183.3,83.8,181.1,83,179.1,81.7z M198.5,120.1c-6.9,0-12.6-5.6-12.6-12.6c0-6.9,5.6-12.6,12.6-12.6
		c6.9,0,12.6,5.6,12.6,12.6C211.1,114.4,205.4,120.1,198.5,120.1z M201.7,71.6c0-7.1,5.6-12.2,11.7-12.4c7.4-0.3,13,5.8,12.9,12.5
		c-0.1,7.2-6,12.2-12,12.3C207.1,84.1,201.6,78.2,201.7,71.6z M231.4,120.1c-6.9,0-12.6-5.6-12.6-12.6c0-6.9,5.6-12.6,12.6-12.6
		c6.9,0,12.6,5.6,12.6,12.6C244,114.4,238.3,120.1,231.4,120.1z M250.9,64.5c-2.4,0-4.8,0-7.2,0c0,0.4-0.1,0.7-0.1,1.1
		c0,3.2,0.1,6.4,0,9.5c-0.1,4.3,2.8,5.4,6.2,3.7c0.3-0.1,0.5-0.3,1-0.6c0,1.5,0,2.8,0,4.1c0,0.2-0.3,0.5-0.5,0.6
		c-4.1,2.2-10.9,1.1-11.4-5.7c-0.2-3.9-0.1-7.7-0.2-11.6c0-0.4,0-0.7,0-1.2c-2.5,0-4.9,0-7.5,0c0-1.5,0-2.9,0-4.3
		c0-0.2,0.5-0.5,0.8-0.5c1.8,0,3.6,0,5.4,0c0.4,0,0.7,0,1.2,0c0-0.5,0.1-0.8,0.1-1.2c0-3.6,0-7.3,0-10.9c0-0.8,0.3-1.1,1.1-1.1
		c0.9,0.1,1.8,0.1,2.7,0s1.3,0.2,1.2,1.2c-0.1,3.6,0,7.2,0,10.8c0,0.4,0,0.7,0,1.2c1.6,0,3.1,0,4.6,0c0.7,0,1.3-0.1,2,0
		c0.3,0,0.7,0.4,0.7,0.6C250.9,61.7,250.9,63,250.9,64.5z M266.5,120.1c-6.9,0-12.6-5.6-12.6-12.6c0-6.9,5.6-12.6,12.6-12.6
		c6.9,0,12.6,5.6,12.6,12.6C279.1,114.4,273.4,120.1,266.5,120.1z M287.9,82.4c0,0.2-0.3,0.5-0.5,0.6c-3.7,2-8.9,1.5-10.5-3.5
		c0-0.1-0.1-0.1-0.2-0.3c-0.5,0.6-0.9,1.3-1.4,1.8c-2.3,2.4-5.2,3.1-8.3,2.9c-1.8-0.1-3.5-0.6-5.1-1.6c-2.3-1.5-4-3.5-5-6.1
		c-1.1-3-1-6-0.1-8.9c0.3-1.1,0.9-2.2,1.6-3.1c2.2-2.9,5.1-5,8.8-4.9c3.4,0,6.1,0.4,9.2,4.2c0-1.3,0-2.4,0-3.6c1.7,0,3.2,0,4.8,0
		c0,0.4,0.1,0.7,0.1,1.1c0,4.7,0,9.4,0,14.1c0,0.7,0.1,1.3,0.1,2c0.2,2.4,2.3,2.9,4.1,2.6c0.8-0.2,1.5-0.7,2.4-1.1
		C287.9,79.7,288,81.1,287.9,82.4z"/>
	<path d="M266.5,96c-6.4,0-11.6,5.2-11.6,11.6s5.2,11.6,11.6,11.6s11.6-5.2,11.6-11.6S272.9,96,266.5,96z M269.7,114.1
		c-1.5,0-3,0-4.5,0c-2.2,0-1.9,0.3-1.9-1.9c0-3.3,0-6.6,0-9.9c0-0.8,0.2-1.1,1.1-1.1c1.8,0.1,3.5,0,5.4,0c0,0.8,0,1.4,0,2.3
		c-1.4,0-2.7,0-4.2,0c0,0.9,0,1.6,0,2.5c1.4,0,2.8,0,4.2,0c0,0.8,0,1.4,0,2.1c-1.4,0-2.7,0-4.2,0c0,1.3,0,2.5,0,3.8
		c1.4,0,2.8,0,4.2,0C269.7,112.5,269.7,113.2,269.7,114.1z"/>
	<path d="M164.2,96c-6.4,0-11.6,5.2-11.6,11.6s5.2,11.6,11.6,11.6c6.4,0,11.6-5.2,11.6-11.6S170.6,96,164.2,96z M167.7,103.4
		c-1.4,0-2.8,0-4.2,0c0,0.8,0,1.6,0,2.4c1.4,0,2.8,0,4.2,0c0,0.8,0,1.4,0,2.1c-1.4,0-2.7,0-4.2,0c0,1.3,0,2.4,0,3.7
		c1.3,0,2.7,0,4.2,0c0,0.8,0,1.5,0,2.3c-2,0-4,0-6,0c-0.2,0-0.4-0.4-0.4-0.6c0-3.9,0-7.7,0-11.6c0-0.2,0.3-0.6,0.4-0.6c2,0,4,0,6,0
		C167.7,102,167.7,102.6,167.7,103.4z"/>
	<path d="M128.7,96c-6.4,0-11.6,5.2-11.6,11.6s5.2,11.6,11.6,11.6c6.4,0,11.6-5.2,11.6-11.6S135.1,96,128.7,96z M131.1,110.5
		c-0.1,1.5-0.9,2.7-2.3,3.3c-1.6,0.6-3.2,0.7-4.6-0.6c0.3-0.5,0.6-1.1,0.9-1.6c0.2,0,0.2,0,0.3,0c2.3,1.2,3.6-0.3,3.6-2.4
		c-0.1-2.3,0-4.7,0-7c0-0.9,0.3-1.1,1.1-1.1s1.2,0.1,1.2,1C131.2,104.9,131.3,107.7,131.1,110.5z"/>
	<path d="M198.5,96c-6.4,0-11.6,5.2-11.6,11.6s5.2,11.6,11.6,11.6c6.4,0,11.6-5.2,11.6-11.6S204.9,96,198.5,96z M200.1,112.6
		c-0.3-0.7-1-1.3-1.5-2c-0.7-1-0.7-1-2.2-0.8c0,0.9,0,1.9,0,2.8c0,1.4,0,1.4-1.4,1.3c-0.2,0-0.4,0-0.7-0.1c0-4.3,0-8.5,0-13
		c1.9,0.2,3.8,0.1,5.6,0.6c2.7,0.7,3.6,4.8,1.6,6.8c-0.3,0.3-0.7,0.6-1.2,1c0.6,0.7,1.1,1.5,1.6,2.2s1,1.5,1.6,2.3
		C202.1,114.2,200.9,114.2,200.1,112.6z"/>
	<path d="M231.4,96c-6.4,0-11.6,5.2-11.6,11.6s5.2,11.6,11.6,11.6S243,114,243,107.6S237.8,96,231.4,96z M236.1,103.4
		c-0.8,0-1.5,0-2.3,0c-1.3,0-1.3,0-1.3,1.4c0,2.7,0,5.4,0,8.2c0,1-0.3,1.1-1.2,1.1c-0.8,0-1.1-0.2-1.1-1.1c0.1-2.9,0-5.7,0-8.6
		c0-0.7-0.2-1.1-1-1s-1.7,0-2.6,0c0-0.8,0-1.5,0-2.2c3.1,0,6.2,0,9.4,0C236.1,102,236.1,102.6,236.1,103.4z"/>
	<path d="M29.9,16.5C29.9,16.5,29.9,16.4,29.9,16.5C29.9,16.4,29.9,16.4,29.9,16.5C29.9,16.4,29.9,16.4,29.9,16.5L29.9,16.5z"/>
	<path d="M67,2.8c-0.1,0-0.2-0.1-0.3-0.1c-20.2,0-40.4,0-60.7,0C4.8,2.9,3.5,3.3,2.4,4.2C1.2,5.2,0.5,6.5,0.2,8
		c0,0.2-0.1,0.3-0.2,0.5C0,54.4,0,100.2,0,146c0.2,0.7,0.4,1.5,0.7,2.2c0.9,2,2.5,3.2,4.6,3.7c0.2,0.1,0.4,0.1,0.6,0.2
		c20.3,0,40.6,0,60.8,0c0.7-0.2,1.5-0.4,2.2-0.8c2.3-1,3.5-2.9,3.7-5.4c0.1-0.9,0-1.8,0-2.8c0-44.5,0-89,0-133.5
		C72.7,6.2,70.6,3.2,67,2.8z M61.2,28.8c1.5,0,1.6,1.5,2.7,2.2c0-0.5-0.1-1,0-1.5c0-0.2,0.3-0.4,0.5-0.6c0.2,0.2,0.5,0.4,0.5,0.7
		c0.1,1.2,0,2.4,0,3.7c-1.5,0-1.7-1.6-2.8-2.2c0,0.5,0,1,0,1.4c0.1,0.8-0.3,0.9-1,0.7C61.2,31.7,61.2,30.4,61.2,28.8z M59.4,25.8
		c0.3,0.3,0.5,0.5,0.8,0.8c-0.8,0.6-1.6,1.2-2.3,1.8c-0.1-0.1-0.2-0.2-0.3-0.3C58.1,27.4,58.7,26.6,59.4,25.8z M58.1,28.8
		c1,0,2,1.1,2,2.2c0,1.2-0.9,2.2-2,2.3c-1.1,0-2.1-1-2.1-2.3C56.1,29.9,57,28.8,58.1,28.8z M61,82c0-0.9,0.6-0.9,1.2-0.8
		c0.7,0.1,0.5,0.7,0.5,1.1c0,1.1,0,2.3,0,3.4c0,1.6,0.4,1.9,2.1,1.4c0,0.6,0.3,1.2-0.5,1.6c-1.1,0.5-2.1,0.1-3-1.1
		c-0.9,0.7-1.9,1.5-3.1,1.2c-0.8-0.3-1.8-0.6-2.4-1.2c-1.2-1.2-1.2-4,0-5.2C56.9,81.1,58.5,80.4,61,82z M8.1,126.3
		c0-0.4,0.1-0.7,0.1-1.1c0-0.7,0.4-1,1-1.1c2.7-0.2,5.4-0.3,7.9,1.2c1.7,1,3.5,1.9,5.2,2.9c0.4,0.2,0.7,0.5,1.2,0.9
		c-0.5,0.1-0.7,0.2-1,0.2c-4.2,0-8.4,0-12.6-0.6C8.5,128.5,8,127.9,8.1,126.3z M8,119.9c-0.1-1.7,0.4-2.2,2.1-2.2
		c2.3,0,4.5,0.1,6.8,0.2c2.1,0.1,4.2,0.2,6.3,0.4c2.5,0.2,5,0.4,7.5,0.5c1.5,0.1,3.1-0.1,4.6-0.2c2.4-0.2,4.8-0.4,7.1-0.5
		c2-0.1,3.9-0.2,5.9,0c1.8,0.3,3.6,1,5.4,1.5c0,0.2,0,0.4,0,0.5c-1.4,0.2-2.9,0.5-4.3,0.7c-4.1,0.4-8.1,0.9-12.2,1.2
		c-3.8,0.3-7.5,0.4-11.3,0.4c-4.3,0.1-8.6,0-12.9,0c-1.2,0-2.4-0.2-3.6-0.4c-0.4-0.1-0.8-0.5-1.1-0.9C8.1,120.7,8,120.2,8,119.9z
		 M19.7,124.9c-0.3-0.1-0.5-0.3-0.8-0.4c0-0.1,0-0.2,0-0.3c0.3-0.1,0.7-0.2,1-0.2c2.9,0.1,5.8,0.4,8.7,0.3c3.9-0.1,7.8-0.4,11.6-0.7
		c7.4-0.5,14.7-1.4,22-2.8c0.7-0.1,1.5-0.1,2.2-0.2c0.6,1.5,0.4,2.9,0.1,4.2c-0.1,0.3-0.6,0.6-0.9,0.6c-1.8,0.3-3.6,0.6-5.4,0.8
		c-3.6,0.4-7.2,0.8-10.8,1.2c-3.5,0.4-7.1,0.8-10.6,1.1c-2.1,0.2-4.2,0.3-6.4,0.5c-1.4,0.1-2.6-0.4-3.8-0.9
		C24.3,127,22,125.9,19.7,124.9z M64.1,118.1c-2.4,0.7-4.8,1.4-7.4,0.9c-1.5-0.3-3-0.8-4.5-1.2c-0.2-0.1-0.4-0.2-0.7-0.4
		c0-0.1,0-0.2,0-0.3c0.9-0.2,1.8-0.4,2.7-0.6c3.1-0.5,6.1-0.9,9.2-1.3c0.5-0.1,1.1-0.2,1.2,0.6C65,116.8,64.8,117.9,64.1,118.1z
		 M64.6,111.8c-0.1,0.3-0.5,0.5-0.8,0.5c-4.4,0.6-8.7,1.2-13.1,1.8c-4.5,0.7-9,1.5-13.5,2.1c-3.7,0.5-7.4,0.3-11.2-0.2
		c-1.9-0.2-3.8-0.3-5.7-0.5v-0.1c-2.7,0-5.3,0-8,0c-1,0-2.1-0.1-3.1-0.1c-0.7,0-0.8-0.5-0.8-0.9c0-1.2,0.1-2.4,0.3-3.5
		c0.1-0.3,0.8-0.6,1.2-0.6c2.9,0.2,5.7,0.4,8.6,0.9c5.2,0.9,10.4,2,15.6,2.9c2.6,0.5,5.1-0.1,7.5-1c3.8-1.3,7.8-1.9,11.8-2.4
		c3.1-0.4,6.2-0.8,9.3-1.2C64.2,109.4,65.1,110.4,64.6,111.8z M7.9,37.5c0-0.2,0.2-0.5,0.4-0.6c1.2-0.5,3,0.4,3.4,1.6
		c0.5,1.4-0.5,2.7-2,2.7c-0.6,0-1.1,0-1.8,0C7.9,39.9,7.9,38.7,7.9,37.5z M7.9,29.4c0-0.2,0.2-0.5,0.4-0.6c1.3-0.5,3.1,0.5,3.4,1.8
		c0.3,1.3-0.5,2.4-1.8,2.6c-0.6,0.1-1.2,0-2,0C7.9,31.8,7.9,30.6,7.9,29.4z M8.1,79.9c0.5-3.3,3.6-5.8,6.5-6.1
		c2.3-0.3,5.1,0.8,5.6,2.9c0.5,1.8,0.2,3.3-1.3,4.5c-1.3,1.1-2.8,1.1-4.3,0.7c-0.4-0.1-0.8-0.3-1.2-0.5c0.2-0.5,0.4-0.9,0.6-1.2
		c0.9,0.1,1.8,0.3,2.7,0.2c1.1-0.1,1.8-1,2-2.2c0.1-1-0.3-1.8-1.2-2.3c-1.9-1-3.6-0.6-5.3,0.5c-2,1.4-2.7,3.4-2.5,5.7
		c0.2,2.5,1.6,4.2,4,4.9c2,0.6,4,0.2,5.8-1c0.4,1.7,0.2,2.1-1.3,2.5c-1.8,0.5-3.6,0.5-5.4-0.1C9.2,87.2,7.5,83.6,8.1,79.9z
		 M15.7,22.4c0.1,0.5,0.4,1-0.4,1.1c-0.4,0-0.8,0.1-1.3,0.1c0,0.1,0,0.2,0,0.3c0.4,0,0.8,0,1.2,0.2c0.3,0.1,0.5,0.5,0.7,0.7
		c-0.1,0.1-0.1,0.2-0.2,0.2c-0.9,0-1.7,0-2.8,0c0-1.3,0-2.6,0-3.9c0-0.1,0.4-0.3,0.6-0.4c0.5-0.1,1,0,1.5,0c0.7,0,0.7,0,0.7,0.9
		c-0.6,0.4-1.5-0.2-1.9,0.8C14.6,22.4,15.1,22.4,15.7,22.4z M15.8,38.7c0.3,1.7-1.4,0.5-1.7,1.2c0.3,0.8,2-0.4,1.7,1.3
		c-0.9,0-1.8,0-2.7,0c0-1.4,0-2.8,0-4.2c0.9,0,1.7,0,2.6,0c0.3,1,0.3,1.1-0.7,1.1c-0.3,0-0.6,0.1-0.9,0.1c0,0.1,0,0.2,0,0.3
		C14.6,38.6,15.1,38.6,15.8,38.7z M14.4,30.5c0.4,0,0.8,0,1.2,0c0.1,0.6,0.1,0.6-1.6,1.3c0.3,0.9,2-0.3,1.8,1.3c-0.9,0-1.8,0-2.7,0
		c0-1.4,0-2.8,0-4.1c1.8-0.5,2.8-0.2,2.7,0.9c-0.4,0-0.9,0-1.3,0c-0.1,0-0.2,0.2-0.4,0.3C14.1,30.3,14.3,30.5,14.4,30.5z M19.7,29.4
		c0-0.2,0.4-0.4,0.5-0.6c0.2,0.2,0.4,0.4,0.4,0.6c0,1.2,0,2.4,0,3.8C19.2,33,19,31.6,18.2,31c-0.6,0.6,0.6,2-1.1,2.2
		c0-1.5,0-2.9,0-4.5c1.4,0.2,1.5,1.5,2.5,2.1C19.7,30.4,19.6,29.9,19.7,29.4z M29.8,25.1c-0.8,0-1.5,0-2.3,0c-0.2,0-0.5-0.3-0.5-0.5
		c0-1-0.1-2.1,0-3.1c0-0.2,0.4-0.4,0.6-0.7c0.2,0.2,0.5,0.5,0.5,0.7c0.1,0.8,0,1.6,0,2.5C29.9,24.2,29.9,24.2,29.8,25.1z M33.8,30.5
		c0-0.2-0.3-0.4-0.5-0.7c-0.2-0.2-0.3-0.4-0.5-0.6c0.2-0.1,0.4-0.4,0.6-0.4c0.5-0.1,1-0.1,1.5,0c0.3,0.1,0.6,0.3,0.9,0.5
		c-0.2,0.2-0.5,0.5-0.9,0.9c0,0.4,0,1.1,0,1.6c0.4,0.4,0.7,0.7,1,1c-0.1,0.1-0.2,0.2-0.3,0.3c-0.6,0-1.2,0.1-1.8,0
		c-0.3,0-0.7-0.3-1-0.4c0.2-0.3,0.5-0.6,0.7-0.8c0.1,0,0.2,0.1,0.2,0.1C33.9,31.5,33.9,31,33.8,30.5z M35,40
		c0.2,0.3,0.7,0.3,1.1,0.4c0-0.1,0.1-0.2,0.1-0.4c-0.3-0.1-0.6-0.2-0.8-0.2c-0.2-0.6,0-1,0.7-0.9c0.5,0,1.3-0.2,1.2,0.8
		c0,0.5,0,1,0,1.4c-1.7,0.5-3.2,0.6-3.7-1.4c-0.3-1.1,0.1-1.9,1.2-2.5c0.9-0.5,1.7-0.3,2.5,0.6c-0.2,0.5-0.5,0.5-1,0.4
		c-0.4-0.1-1.1,0.2-1.4,0.5C34.6,38.9,34.7,39.6,35,40z M38.4,39.2c0-0.1,0-0.2,0-0.3c0-2.2,0.2-2.3,2.3-2c0.2,0,0.4,0.4,0.6,0.6
		c-0.2,0.2-0.4,0.5-0.6,0.6c-0.4,0.1-0.8,0.1-1.3,0.1c0,0.1,0,0.2,0,0.4c0.4,0,0.8,0,1.2,0.1c0.3,0.1,0.5,0.3,0.7,0.4
		c-0.2,0.2-0.4,0.5-0.7,0.6c-0.4,0.1-0.8,0-1.1,0c0,0.1,0,0.3-0.1,0.4c0.4,0,0.7,0,1.1,0.2c0.3,0.1,0.6,0.4,0.8,0.5
		c-0.3,0.2-0.5,0.5-0.8,0.5C38,41.2,38.5,41.7,38.4,39.2z M39.7,81.5c1.2-0.7,3.1-0.3,4.3,0.7c0.2,0.2,0.3,0.3,0.7,0.7
		c-0.8,0.7-1.5,1.4-2.2,2s-1.4,1.3-2.1,1.9c1,0.7,1,0.7,3.4,0c0.3,1.4,0.2,1.6-0.9,1.8c-2.1,0.5-4.9-0.7-5.2-3.1
		C37.3,84,38,82.4,39.7,81.5z M45.3,37.5c0-0.2,0.3-0.4,0.5-0.6c0.2,0.2,0.5,0.4,0.5,0.6c0.1,1.2,0,2.4,0,3.8
		c-1.5-0.1-1.7-1.6-2.7-2.2c0,0.7,0,1.4,0,2.1c-0.8,0.3-1.1,0.1-1.1-0.7c0-0.9,0-1.8,0-2.8c0-0.3,0.2-0.7,0.3-0.7
		c0.3,0,0.6,0.1,0.8,0.3c0.5,0.5,0.9,1.2,1.6,2C45.2,38.5,45.2,38,45.3,37.5z M43.2,102.7c0.8-0.1,1.7-0.1,2.6-0.2
		c0.2,0.5,0.3,1-0.4,1.2c-1.2,0.3-2.5,0.3-3.5-0.6c-1-0.8-1.2-1.9-0.9-3.2c0.3-1.3,1.3-2,2.4-2.2c1.1-0.2,2.4,0,3.3,1.5
		c-1.1,1-2.3,2-3.4,3.1C43.1,102.5,43.2,102.6,43.2,102.7z M38.4,94.8c0.2,3.5,0.1,7,0,10.5c-0.1,1.8-1.9,2.7-3.7,2
		c-0.7-0.3-0.8-0.5-0.6-1.7c0.5,0.2,1,0.4,1.5,0.5c0.8,0.2,1.4-0.3,1.4-1.1c0-3.4,0-6.8,0-10.2c0-1-0.7-1.5-1.5-1.7
		c-0.9-0.2-1.7,0.2-2.3,0.9c-0.5,0.7-0.5,1.6,0.1,2.2c0.9,0.9,0.2,1.2-0.4,1.7c-1.6-1.5-1.9-2.7-1.1-4.4c0.5-1,2.2-1.9,3.5-1.7
		C37.2,92,38.4,92.9,38.4,94.8z M34.5,81.2c0.7-0.3,1.4,0,1.6,0.7c0.1,0.4,0,1.1-0.3,1.5c-0.5,0.5-1.1,0.4-1.6-0.2
		c0,0-0.1-0.1-0.2-0.1c-0.8,0.4-1.2,1.1-1.2,2c0,1,0,2,0,2.9c0,0.5-0.2,0.7-0.7,0.7s-1,0.1-1-0.7c0-2.1,0-4.1,0-6.2
		c0-1.1,0.9-0.5,1.5-0.6c0,0.4,0.1,0.7,0.1,0.9C33.4,81.7,33.9,81.4,34.5,81.2z M32.2,41.3c-0.8,0-1.4,0-2.1,0
		c-0.3,0-0.5-0.2-0.8-0.4c0.2-0.2,0.4-0.5,0.6-0.7c0.1-0.1,0.2-0.1,0.3-0.1c0-0.6,0-1.2,0-1.8c-0.2-0.1-0.4-0.1-0.5-0.2
		c-0.2-0.2-0.4-0.5-0.4-0.7s0.3-0.5,0.6-0.5c0.7-0.1,1.4,0,2.3,0c-0.4,0.9-0.9,1.5-0.9,2.2C31.4,39.8,31.9,40.5,32.2,41.3z
		 M30.7,33.1c0-0.7,0-1.4,0-2.2c-0.5,0.4-0.9,0.8-1.3,1.1c-0.3-0.3-0.7-0.6-1.2-1.1c-0.1,0.8-0.1,1.5-0.1,2.3c-0.4,0-0.7,0-1.1,0
		c0-1.3,0-2.6,0-3.8c0-0.7,0.5-0.6,0.9-0.2c0.5,0.5,0.9,1,1.4,1.7c0.6-0.7,1-1.2,1.5-1.6c0.2-0.2,0.4-0.2,0.7-0.3
		c0.1,0.2,0.2,0.4,0.2,0.6c0,1,0,2,0,2.9C31.7,33.1,31.4,33.3,30.7,33.1z M27.9,37.8c0.6,0.9,0.2,1.6-0.5,2.3c0.3,0.3,0.6,0.7,0.9,1
		c0,0.1,0,0.2,0,0.2c-0.5-0.1-1-0.1-1.4-0.3s-0.8-0.6-1.4-1c-0.1,0.9-0.1,1.6-1.1,1.2c0-1.3,0-2.7,0-4.1
		C25.9,36.7,27.4,37,27.9,37.8z M24.9,81.2c1.6-0.3,2.9,0.3,4,1.8c-1.4,1.3-2.9,2.6-4.4,4c1.4,0.8,2.4,0.3,3.5-0.1
		c0.4,1.2,0.3,1.6-0.8,1.8c-1.6,0.4-3.1,0-4.3-1.1c-1.1-1.1-1.3-2.6-0.8-4C22.5,82.4,23.5,81.5,24.9,81.2z M27,102.4
		c-0.2,0.6-0.3,1.2-0.5,1.3c-0.6,0-1.4,0.1-1.9-0.3c-0.4-0.3-0.7-1.1-0.8-1.7c-0.1-3,0-6,0-8.9c0-0.5,0-0.9,0.7-0.9s0.7,0.5,0.7,0.9
		c0,2.9,0,5.7,0,8.6C25.2,102.6,25.4,102.8,27,102.4z M21.3,41.4c-1.1,0-2.1-1-2.1-2.2c0-1.1,1.1-2.3,2.1-2.3c1.1,0,2,1,2.1,2.3
		C23.3,40.5,22.4,41.4,21.3,41.4z M16.7,99.9c0.4-1.2,1.3-1.9,2.4-2.1s2.4,0,3.3,1.6c-1.1,1-2.3,2-3.4,3c0,0.1,0.1,0.2,0.1,0.3
		c0.8,0,1.7-0.1,2.6-0.1c0.3,0.7,0,1.1-0.8,1.3C18,104.4,15.9,102.3,16.7,99.9z M49.3,103.6c-0.3,0-0.7,0-1.3,0c0-1.8,0-3.6,0-5.4
		c0-0.2,0.4-0.5,0.7-0.5s0.6,0.3,1,0.5c0.5-0.6,1.5-0.8,2-0.3c0.2,0.2,0.3,0.9,0.2,1.2c-0.4,0.8-1,0.6-1.7,0.1
		C48.8,100.4,49.9,102.2,49.3,103.6z M58.3,98.5c0,1.2-1.1,0.4-1.7,0.9c0,0.8-0.1,1.7,0,2.6c0.1,1,0.9,0.7,1.9,0.5
		c-0.3,0.6-0.4,1.1-0.6,1.3c-0.7,0.4-1.9,0.1-2.2-0.6c-0.3-0.5-0.4-1.2-0.4-1.8c-0.1-0.6,0-1.2,0-1.9c0-0.1,0-0.1-0.1-0.2
		c-1.8-0.3-1.8-0.3-1.6-1.4c0.2,0,0.5-0.1,0.7-0.1c0.3,0,0.5,0,1-0.1c0-0.7,0-1.4,0-2c0-1.2,0-1.2,1.4-1c0,1,0,1.9,0,2.7
		C57,98.1,58.3,97.1,58.3,98.5z M53,30.3c-0.4-0.5-0.7-0.8-1-1.2c0.1-0.1,0.2-0.2,0.2-0.3c0.6,0,1.2-0.1,1.7,0
		c0.3,0,0.6,0.3,0.9,0.4c-0.2,0.3-0.4,0.5-0.7,0.8c-0.1,0-0.1-0.1-0.2-0.1c0,0.7,0,1.4,0,2.1c0.2,0.1,0.4,0.1,0.6,0.2
		c0.1,0.1,0.3,0.4,0.3,0.5c0,0.2-0.3,0.4-0.4,0.4c-0.7,0-1.5,0-2.5,0C52.4,32.1,53.5,31.3,53,30.3z M52.4,81.8c0,0.4,0,0.9-0.3,1.2
		c-0.9,1-1.9,1.9-3,2.9c0.7,0.2,1.3,0.3,1.8,0.5c1.7,0.8,2.5,3,1.5,4.8c-0.4,0.7-0.9,1.3-1.5,1.8c-1.1,0.8-1.5,0.6-1.9-0.8
		c0.2-0.1,0.4-0.2,0.7-0.3c1.3-0.6,1.8-2.1,1.2-3.4c-0.5-1.1-1.9-1.4-3.2-0.8c-1,0.5-1,0.5-1.9-0.6c1.4-1.3,2.8-2.7,4.5-4.3
		c-1.7,0-3.1,0-4.5,0c-0.2-1.6-0.2-1.6,1.2-1.6s2.8,0,4.2,0C51.9,81.2,52.4,81.2,52.4,81.8z M51.3,29.9c-0.5,0-0.9,0.2-1.2,0
		c-0.7-0.3-1.4-0.1-1.7,0.5c-0.2,0.3-0.1,0.9,0.1,1.3c0.3,0.6,0.9,0.7,1.6,0.5c0.3-0.1,0.7,0,1,0c-0.2,0.3-0.4,0.7-0.7,0.9
		c-1.2,0.6-2.4,0.1-3.1-1.1c-0.6-1-0.3-2,0.8-2.8C49.2,28.5,50.2,28.7,51.3,29.9z M45.3,20.7c0.9,0.1,1.8,0,2.6,0.2
		c1.4,0.3,1.6,1.8,0.5,3.1c0.3,0.3,0.5,0.6,0.8,1c0,0.1-0.1,0.2-0.1,0.3c-0.4-0.1-0.9-0.2-1.3-0.4c-0.4-0.2-0.8-0.5-1.2-0.8
		c-0.1,0.5-0.1,0.8-0.2,1.1c-0.3,0-0.6,0-1,0C45.3,23.7,45.3,22.3,45.3,20.7z M45.7,30.2c0.2,0.9,0.1,1.9,0.2,2.9
		c-0.5,0-0.8,0-1.1,0c-0.1-0.3-0.2-0.6-0.2-0.9c-0.4,0-0.8,0-1.3,0c-0.2,0.4-0.1,1.3-1.1,0.8c0-0.9-0.1-1.8,0-2.8
		c0.1-0.8,0.7-1.4,1.6-1.5C44.7,28.7,45.5,29.3,45.7,30.2z M42.2,20.7c1.2,0,2,0.9,2,2.3c0,1.2-0.9,2.2-2,2.2s-2.1-1.1-2.1-2.3
		C40.1,21.6,41,20.7,42.2,20.7z M39.8,29.4c0-0.2,0.3-0.4,0.5-0.6c0.2,0.2,0.5,0.4,0.5,0.5c0,1.2,0,2.5,0,3.8
		c-1.6-0.1-1.7-1.7-2.7-2.3c0,0.7,0,1.4,0,2.2c-0.7,0.2-1.1,0.2-1.1-0.6c0-1,0-2,0-2.9c0-0.2,0.2-0.6,0.3-0.6c0.2,0,0.6,0.1,0.8,0.2
		c0.5,0.6,1,1.2,1.7,2C39.8,30.4,39.7,29.9,39.8,29.4z M38.8,21.9c0.5,1,0.2,2.5-0.9,2.9c-0.7,0.3-1.6,0.2-2.6,0.4
		c0-1.5,0-2.7,0-3.9c0-0.2,0.1-0.5,0.3-0.5C36.3,20.4,38.4,21.1,38.8,21.9z M36.3,12.6c1.2,0,2,0.9,2,2.3c0,1.3-0.8,2.1-2,2.1
		c-1.3,0-2.1-0.8-2.1-2.2C34.2,13.6,35.1,12.6,36.3,12.6z M33.9,22c0.2,1,0.2,2,0.2,2.9c-1,0.5-1.2-0.1-1.3-0.8c-0.5,0-0.9,0-1.4,0
		c-0.1,0.6-0.2,1.2-1.1,0.8c0-0.8,0-1.7,0-2.6c0.1-0.9,0.7-1.6,1.5-1.6C32.8,20.6,33.7,21.1,33.9,22z M27,13.2
		c0-0.2,0.3-0.5,0.6-0.6c0.7-0.1,1.5,0,2.3,0c0.2,1.7-1.3,0.6-1.8,1.4c0.4,0.1,0.7,0.1,1.1,0.2c0.3,0.1,0.5,0.3,0.8,0.5
		c-0.2,0.2-0.5,0.4-0.8,0.5s-1.1-0.3-0.9,0.7c0.4,0,0.7-0.1,1.1,0c0.2,0,0.4,0.3,0.6,0.4c0.5-0.2,0.8-0.4,1.1-0.4c0.7,0,1-0.3,1-1
		s0-1.5,0-2.3c0.7-0.2,1.1-0.1,1,0.6c0,0.7-0.1,1.4-0.1,2.1c-0.1,1.4-1.5,2.1-3.1,1c-0.2,0.2-0.3,0.5-0.5,0.5
		c-0.6,0.1-1.2,0.1-1.9,0c-0.2,0-0.5-0.4-0.5-0.6C27,15.3,27,14.3,27,13.2z M22.6,13.7c0.1-0.6,1-1.2,1.7-1.1c0.4,0,0.8,0.2,1.2,0.4
		c0.2,0.1,0.3,0.4,0.4,0.6c-0.2,0.1-0.5,0.2-0.7,0.2c-0.5,0-1-0.1-1.4-0.2c0,0.2-0.1,0.3-0.1,0.5c0.5,0.2,1.1,0.3,1.5,0.6
		s0.8,0.7,0.9,1.1c0.2,0.7-0.4,1.2-1,1.2c-0.7,0.1-1.5-0.1-2.2-0.2c-0.1,0-0.2-0.4-0.3-0.6c0.2-0.1,0.4-0.2,0.6-0.2
		c0.6,0,1.2,0.6,1.8-0.3c-0.5-0.2-1-0.4-1.4-0.6C23,14.9,22.5,14.5,22.6,13.7z M22.1,21.2c0-0.1,0.4-0.4,0.6-0.4s0.4,0.3,0.4,0.5
		c0.1,0.6-0.1,1.3,0.1,1.9c0.1,0.3,0.5,0.6,0.8,0.9c0.3-0.3,0.8-0.5,0.8-0.8c0.1-0.8,0-1.6,0-2.4c0.7-0.2,1.1-0.1,1.1,0.6
		s0,1.5-0.1,2.2c-0.1,0.9-0.7,1.4-1.6,1.5s-1.6-0.5-1.8-1.2C22.1,23.1,22.1,22.1,22.1,21.2z M24,28.8c1.1,0,2,1.1,2,2.3
		c0,1.1-1.1,2.2-2.1,2.2s-2.1-1.1-2.1-2.2C21.8,29.9,22.9,28.8,24,28.8z M17.9,13.1c0-0.2,0.2-0.5,0.3-0.5c0.3,0,0.6,0.1,0.8,0.3
		c0.5,0.5,0.9,1.2,1.4,1.7c0.1,0,0.2-0.1,0.2-0.1c0-0.6,0-1.2,0-1.9c0.3,0,0.6,0,1.1,0c0,1.3,0,2.6,0,3.9c0,0.1-0.2,0.4-0.3,0.4
		c-0.2,0-0.5-0.1-0.7-0.3c-0.6-0.6-1.1-1.3-1.7-2.1c0,0.8,0,1.4,0,1.9c0,0.2-0.3,0.3-0.4,0.5c-0.2-0.2-0.6-0.3-0.6-0.5
		C17.9,15.4,17.9,14.3,17.9,13.1z M17.5,21.5c0.7-0.8,1.8-1,2.8-0.5c0.2,0.1,0.3,0.5,0.5,0.7c-0.3,0.1-0.6,0.2-0.8,0.2
		c-0.7-0.2-1.3,0-1.6,0.5c-0.2,0.3-0.1,0.9,0.1,1.2c0.2,0.3,0.7,0.4,1.1,0.6c0-0.1,0-0.1,0-0.2c-0.3-0.3-0.5-0.7-0.9-1.3
		c0.9,0,1.5,0,2.1,0c0,0.7,0,1.5,0,2.2c-0.2,0-0.5,0-0.8,0.1c-1.3,0.3-2,0.1-2.6-1C16.8,23.2,16.9,22.1,17.5,21.5z M14.8,12.6
		c1.1,0,2.2,1.1,2.1,2.3c-0.1,1.1-0.8,2.4-2,2.2c-1.1,0.3-2.2-1.1-2.1-2.3C12.8,13.7,13.8,12.6,14.8,12.6z M10.1,24.6
		c-0.2-0.2-0.6-0.4-0.9-0.4c-0.1,0-0.2,0.5-0.4,0.9c-0.5,0.2-0.9,0.1-0.9-0.7c0-0.9,0-1.9,0-2.9c0-0.5,0.2-0.8,0.7-0.8
		c0.3,0,0.6,0,0.9,0c0.9,0.1,1.9,0.1,2.1,1.1c0.2,0.6-0.2,1.4-0.3,2.1c-0.1,0-0.2,0-0.3,0c0.3,0.3,0.6,0.6,0.9,1
		C11.2,25.2,10.6,25.2,10.1,24.6z M8.6,13.2c1-0.8,2.1-0.9,3-0.2c0.1,0.1,0.3,0.4,0.2,0.5c-0.1,0.2-0.4,0.3-0.6,0.3
		c-0.3,0-0.6-0.2-0.9-0.2c-0.7,0-1.2,0.3-1.3,1.1c0,0.6,0.7,1.2,1.4,1.2c0.1,0,0.2,0,0.3,0c0.4,0.1,1-0.7,1.2,0.2
		c0,0.2-0.8,0.6-1.2,0.9c-0.1,0.1-0.3,0-0.4,0C9,17,8.4,16.5,8,15.3C7.7,14.5,8,13.8,8.6,13.2z M8.4,98.8c1.1-1.3,2.7-1.5,4.3-0.3
		c0-2.3,0-4.4,0-6.5c1.2-0.3,1.4-0.2,1.4,0.9c0,2.8,0,5.6,0,8.5c0,1.3,0.2,1.4,1.7,1c-0.2,0.5-0.3,1.1-0.5,1.3
		c-0.7,0.5-1.6,0.2-2.4-0.8c-1.7,1.2-3.3,1.2-4.4,0.1C7.6,102,7.5,99.8,8.4,98.8z M40.3,145c-1.1,0-2.3,0-3.4,0
		c-6.9,0.1-13.9,0.2-20.8,0.2c-1.9,0-3.8-0.4-5.6-0.7c-1.5-0.3-2.7-1.2-2.6-3.2c0-1,0-2.1,0.1-3.1c0-0.3,0.3-0.7,0.6-0.8
		c1.8-0.8,3.3,0,4.6,1.2c0.6,0.5,1.1,1.2,1.8,1.7c1.5,1.1,3.2,1.3,4.7,0.4c2.3-1.3,4.1-0.8,5.9,0.9c1.5,1.5,3.5,1.8,5.6,1.3
		c1.4-0.3,2.8-0.7,4.2-0.8c2.1-0.1,3.7,1.1,5.1,2.6C40.4,144.8,40.3,144.9,40.3,145z M64.8,139.5c-0.2,2-2.1,3.1-4.1,3
		c-2-0.2-3.3-1.4-4.5-2.7c-2.1-2.1-4.3-2.2-6.9-0.9c-1.6,0.9-3.3,1.5-5.2,0.6c-0.7-0.3-1.2-0.8-1.8-1.3c-1.1-0.8-2-1.8-3.2-2.4
		c-2-1.1-3.9-0.3-5.7,0.5c-2.3,1.1-4,0.8-5.7-1.2c-2.1-2.4-4.5-2.9-7.3-1.4c-1.8,0.9-3.2,0.6-4.5-1c-0.5-0.6-1.1-1.2-1.7-1.8
		c2.1,0,4.1,0,6.1,0c2.2,0,4.4,0.2,6.6,0.1c4.2-0.2,8.3-0.6,12.5-0.9c2.6-0.2,5.3-0.5,7.9-0.8c3.6-0.5,7.2-1.1,10.7-1.6
		c1.7-0.2,3.4-0.2,5.1-0.3c0.8,0,1.4,0.4,1.5,1.2c0.2,1.1,0.4,2.3,0.4,3.5C65,134.5,65,137,64.8,139.5z M61.8,102.3
		c0,0.1,0.1,0.1,0.1,0.2c0.9,0,1.7,0,2.7,0c0.3,0.7,0,1.1-0.8,1.3c-2.3,0.5-4.4-1.1-4.3-3.1c0.1-1.5,0.9-2.7,2.2-2.9
		c1.3-0.2,2.5,0.1,3.4,1.4C64,100.3,62.9,101.3,61.8,102.3z"/>
	<path d="M268.1,63.6c-4.6,0.5-7.6,4.7-7,9.2s4.9,8.1,10.4,6.4c3.1-1,4.9-3.9,4.9-7.9c0.4-1.8-0.6-3.4-1.7-5
		C273.2,64.1,270.8,63.3,268.1,63.6z"/>
	<path d="M216.6,69.1c-1.6-1.5-1.5-3.3-0.4-5.1c-3.4-1-6.7,0.3-8.8,3.5c-2.1,3.3-1.3,7.9,1.5,10.2c3.1,2.5,7.3,2.6,10.5,0
		c2.4-1.9,3.5-6,2.3-8.2C219.8,70.6,218.1,70.6,216.6,69.1z"/>
	<path d="M199.4,103.7c-0.8-0.3-1.8-0.2-2.7-0.2c-0.1,0-0.2,0.3-0.2,0.5c0,1.2,0,2.3,0,3.6c0.8,0,1.4,0,2,0c1.2-0.1,1.9-0.8,2-1.8
		C200.5,104.8,200.2,104,199.4,103.7z"/>
	<path d="M58.9,87.5c1.3,0,2.2-1,2.2-2.5s-0.9-2.4-2.2-2.4c-1.4,0-2.3,1-2.3,2.5C56.5,86.5,57.5,87.5,58.9,87.5z"/>
	<path d="M10.8,102.7c1.3,0,1.9-0.6,1.9-1.9c0-1.2-0.7-1.8-1.8-1.8s-1.9,0.8-1.8,1.9C9.1,101.9,9.9,102.7,10.8,102.7z"/>
	<path d="M26.6,82.9c-0.7-0.5-1.7-0.4-2.5,0.2c-0.7,0.6-0.9,1.7-0.4,2.8C24.6,85,25.6,84,26.6,82.9z"/>
	<path d="M42.2,83c-0.8-0.5-1.6-0.5-2.5,0.3c-0.8,0.7-1,1.7-0.5,2.8C40.2,85,41.2,84,42.2,83z"/>
	<path d="M20.3,99.1c-0.8-0.2-1.5-0.3-2.1,0.4c-0.5,0.6-0.7,1.3-0.4,1.8C18.7,100.5,19.5,99.8,20.3,99.1z"/>
	<path d="M61.1,99.5c-0.5,0.6-0.6,1.3-0.2,1.9c0.8-0.8,1.6-1.5,2.4-2.2C62.3,98.8,61.6,98.9,61.1,99.5z"/>
	<path d="M42.4,99.5c-0.5,0.6-0.6,1.3-0.3,1.8c0.8-0.8,1.6-1.5,2.4-2.3C43.7,98.8,43,98.9,42.4,99.5z"/>
	<path d="M9,21.6c0,0.6,0,0.9,0,1.6c0.6-0.2,1.2-0.3,1.7-0.5c0.1,0,0-0.5,0-0.5C10.1,22,9.6,21.8,9,21.6z"/>
	<path d="M25.7,39.2c0.4,0.1,0.9,0,1.3-0.1c0.1,0,0.1-0.5,0.1-0.6c-0.4-0.2-0.9-0.3-1.4-0.5c-0.1,0.1-0.2,0.2-0.2,0.3
		C25.5,38.6,25.5,39.1,25.7,39.2z"/>
	<path d="M31.4,23c0.5,0,0.9,0,1.4,0c0.2-0.7,0-1.2-0.6-1.2C31.5,21.8,31.3,22.3,31.4,23z"/>
	<path d="M47.9,22.1c-0.5-0.2-1-0.3-1.5-0.4c0,0.6,0,0.9,0,1.6c0.7-0.2,1.2-0.4,1.6-0.6C48,22.7,48,22.1,47.9,22.1z"/>
	<path d="M43.2,31.1c0.5,0,1,0,1.4,0c0.2-0.7,0-1.2-0.7-1.2C43.3,29.9,43.1,30.4,43.2,31.1z"/>
	<path d="M10.5,38.6c-0.4-0.3-0.9-0.5-1.6-0.8c0,1,0,1.6,0,2.6c0.7-0.3,1.3-0.4,1.6-0.7C10.8,39.5,10.7,38.8,10.5,38.6z"/>
	<path d="M10.6,30.6c-0.3-0.7-0.9-0.7-1.6-0.7c0,0.7,0,1.4,0,2.4c0.6-0.3,1.2-0.4,1.6-0.7C10.7,31.5,10.7,30.9,10.6,30.6z"/>
	<path d="M36.3,24.3c0.6-0.2,1.2-0.3,1.4-0.6c0.2-0.3,0.3-1,0.1-1.2c-0.3-0.4-0.9-0.5-1.5-0.8C36.3,22.6,36.3,23.2,36.3,24.3z"/>
	<path d="M42.2,24.2c0.7,0,0.9-0.6,0.9-1.3c0-0.5-0.1-1.1-0.9-1.1c-0.9,0-1,0.6-1,1.3C41.2,23.7,41.5,24.2,42.2,24.2z"/>
	<path d="M23.9,32.3c0.7,0.1,0.9-0.5,1.2-1.3c-0.4-0.4-0.7-0.9-1.2-1c-0.8-0.1-1.1,0.7-1,1.2C23.1,31.6,23.5,32.2,23.9,32.3z"/>
	<path d="M14.8,16.1c0.7,0,0.9-0.6,0.9-1.3c0-0.6-0.1-1.2-0.9-1.2c-0.8,0-1,0.6-1,1.2C13.8,15.5,14,16.1,14.8,16.1z"/>
	<path d="M21.2,38c-0.8,0-0.9,0.7-0.9,1.3s0.2,1.2,1,1.2s0.9-0.6,0.9-1.2C22.2,38.5,21.9,37.9,21.2,38z"/>
	<path d="M36.2,16.1c0.8,0.1,1-0.5,1-1.2c0-0.6-0.1-1.3-0.9-1.3c-0.8,0-1,0.6-1,1.2C35.3,15.5,35.5,16.1,36.2,16.1z"/>
	<path d="M58.1,32.3c0.7,0,1-0.5,1.1-1.4c-0.4-0.3-0.7-0.9-1.2-1c-0.7-0.1-0.9,0.5-0.9,1.2C57.1,31.7,57.3,32.3,58.1,32.3z"/>
</g>
</svg>
