<svg xmlns="http://www.w3.org/2000/svg" viewBox="0 0 115.3 25.3" fill="#020203" xmlns:v="https://vecta.io/nano"><path d="M9.3 10.1C5.4 8.8 4 7.6 4 5.1S5.7.9 8.6.9c2.7 0 4.5 1.3 5.9 4.3l.6 1.3h.7l-.9-5.4C13.4.4 11.7 0 8.8 0 4.3 0 .6 2.9.6 7s2.4 6 7 7.5c4.1 1.4 5.6 2.7 5.6 5.2 0 2.9-1.9 4.6-5.4 4.6-3 0-5-1.3-6.5-4.3l-.7-1.3H0l.9 5.2c1.5.7 3.5 1.2 6.6 1.2 5 0 9.2-2.9 9.2-7.3 0-4-2.3-6-7.4-7.7zm17 13c-1.3 0-2.2-.9-2.2-2.5V9.3h4.6V7.8h-4.6V2.3H23l-2.7 5.3-2.7 1.1v.7h2.5v11.4c0 2.9 1.5 4.2 4.2 4.2 1.9 0 3.3-.7 4.8-2l-.4-.8c-.9.6-1.4.9-2.4.9zM38.8 7.3c-5.1 0-8.7 3.9-8.7 8.8 0 5.9 3.8 9.1 8.7 9.1 5.1 0 8.7-3.8 8.7-8.8 0-5.9-3.8-9.1-8.7-9.1zm.3 17c-3 0-4.7-3.7-4.7-9.2 0-5.1 1.5-6.9 3.9-6.9 3 0 4.8 3.6 4.7 9.2 0 5.1-1.4 6.9-3.9 6.9zm27.3-4.4v-7.4c0-3.6-1.7-5.3-4.9-5.3-2.2 0-4 1.1-5.9 2.7V7.6l-.5-.3-6 1.4v.4l.9.4c1.2.7 1.5 1.2 1.5 3V20c0 3.4-.2 4-1.7 4.2l-.7.1v.6h4.4 4.4v-.6l-.6-.1c-1.5-.3-1.8-.7-1.8-3.9v-9.4c1-.8 2.2-1.4 3.6-1.4 2 0 3.2 1.3 3.2 3.9v6.8c0 3.1-.3 3.6-1.8 3.9l-.6.1v.6h4.4 4.4v-.6l-.6-.1c-1.4-.2-1.7-.7-1.7-4.2zm19.1-5c-.1-4.8-2.4-7.4-7-7.4-4.1 0-8.5 3.6-8.5 9.4 0 5.3 3.3 8.4 7.9 8.4 3.1 0 5.6-1.6 7.4-4.2l-.5-.4c-1.5 1.5-2.9 2.2-4.8 2.2-3.6 0-6.2-3-6.3-8v-.3l11.8.3zm-11.9-1.2c.2-3.4 1.8-5.4 4.1-5.4 2.1 0 3.4 1.8 3.5 5.4h-7.6zm36.9 11.1h0 0 0z"/><path d="M109.7 24.1c-1.4-.3-2.3-1.2-3.6-3l-6.1-8.9 5-6.6c1.3-1.6 2.7-2.8 4.2-3.1l.6-.1v-.5l-3.9.1c-1.2 0-4-.1-4.6-.1v.5l1.2.2c1.1.2 1.5.6 1.5 1.3 0 .6-.5 1.5-1.4 2.8l-3.3 4.6L96 6.2c-.8-1.1-1.1-1.8-1.1-2.4s.5-1 1.5-1.1l1.1-.2V2l-5.7.1c-1.2 0-4.3-.1-4.9-.1v.5l.8.1c1.4.3 2.3 1.2 3.6 3l5.5 8.1-5.6 7.4c-1.2 1.6-2.7 2.8-4.2 3.1l-.6.1v.5l3.9-.1 4.6.1v-.5l-1.2-.2c-1.1-.2-1.5-.7-1.5-1.3s.5-1.5 1.4-2.8l3.9-5.3 3.9 5.9c.8 1.1 1.1 1.8 1.1 2.4s-.4.9-1.5 1.1l-1.1.2v.5l5.8-.1 4.8.1v-.6l-.8-.1zm5.5-21c-.1-.2-.2-.4-.4-.6s-.4-.3-.6-.4c-.3-.1-.5-.1-.8-.1s-.6 0-.8.1-.4.2-.6.4-.3.4-.4.6c-.1.3-.1.5-.1.8s0 .6.1.8.2.4.4.6.4.3.6.4c.3.1.5.1.8.1.2 0 .5 0 .8-.1.2-.1.4-.2.6-.4s.3-.4.4-.6c.1-.3.1-.5.1-.8s0-.6-.1-.8zm-.3 1.5c0 .2-.2.3-.3.5l-.4-.6c-.1-.1-.1-.2-.2-.2-.1-.1-.2-.1-.3-.1h-.1c.3 0 .5-.1.6-.2s.2-.3.2-.5-.1-.4-.2-.5-.3-.2-.6-.2h-1V5v.3h.5v-.9h.2.2s.1 0 .1.1l.4.7h.5c-.1.1-.3.2-.4.3-.2.1-.5.1-.7.1-.3 0-.4-.1-.7-.1-.2-.1-.4-.2-.5-.4-.1-.1-.2-.3-.3-.5s-.1-.5-.1-.7c0-.3 0-.5.1-.7 0-.2.2-.4.3-.5.1-.2.3-.3.5-.4s.5-.1.7-.1c.3 0 .5 0 .7.1s.4.3.5.4.2.3.3.5.1.5.1.7c0 .3 0 .5-.1.7zm-1.5-.7h-.4v-.7h.4c.1 0 .2 0 .3.1s.1.2.1.3 0 .2-.1.2c-.1.1-.2.1-.3.1z"/></svg>