<svg version="1.1" id="Layer_1" xmlns="http://www.w3.org/2000/svg" x="0" y="0" viewBox="0 0 175.7 48.3" style="enable-background:new 0 0 175.7 48.3" xml:space="preserve"><style>.st0{fill-rule:evenodd;clip-rule:evenodd}</style><path class="st0" d="M87.9 0c5.6 0 10.6 2.5 12.4 5.8-4.2-.9-8.7-1.4-10.8-1.4-.4-.1-1.2.3-1 .9v12.3h-1.2V5.2c.1-.6-.6-1-1.2-.9-2 0-6.6.6-10.7 1.4C77.2 2.5 82.1 0 87.9 0zm12.8 7.2c.1.4.3 1 .3 1.4 0 3.9-3.8 7.2-9 8.4l-1.7-8.5c-.1-.6-.1-1.2-.1-1.7.1-.4.6-.7 1-.7 3.2.1 6.5.5 9.5 1.1zm-17 9.9c-5.2-1.2-9-4.5-9-8.4 0-.4 0-1 .1-1.4 3.2-.6 6.4-1 9.5-1.2.6 0 1 .3 1 .7.1.6 0 1.2 0 1.7l-1.6 8.6zM78.8 24.6V22h-8.4v2.6h2.5v6.2h3.5v-6.2h2.4zm4.3 1-1.7 5.2h-3.5l3.3-8.8H85l3.3 8.8h-3.5l-1.7-5.2zm12.7-1V22h-8.4v2.6h2.5v6.2h3.5v-6.2h2.4zm4.4 1-1.7 5.2H95l3.3-8.8h3.8l3.3 8.8h-3.5l-1.7-5.2zM8.4 41.9v-2.5H0v2.5h2.5v6.2H6v-6.2h2.4zm4.3 1-1.9 5.2H7.5l3.3-8.7h3.6l3.3 8.7h-3.3l-1.7-5.2zm12.7-1v-2.5H17v2.5h2.5v6.2H23v-6.2h2.4zm4.4 1-1.9 5.2h-3.3l3.3-8.7h3.6l3.3 8.7h-3.3l-1.7-5.2zM44.8 46.7c-.4.1-1.2.3-1.7.3-1.9 0-3-1.3-3-3.2 0-2 1.3-3.2 3-3.2.7 0 1.3.1 1.7.3l.3-1.2c-.3-.1-1-.4-2.2-.4-2.6 0-4.6 1.7-4.6 4.6 0 2.6 1.7 4.3 4.5 4.3 1 0 1.9-.1 2.2-.4l-.2-1.1zm4.8 1.6c2.3 0 4-1.6 4-4.6 0-2.5-1.4-4.3-3.9-4.3s-4.2 1.9-4.2 4.5c0 2.5 1.6 4.4 4.1 4.4zm0-1.3c-1.4 0-2.3-1.4-2.3-3.2 0-1.7.7-3.2 2.3-3.2s2.5 1.4 2.5 3.2c-.1 1.7-.9 3.2-2.5 3.2zm6.9 1.1v-3c0-1.4 0-2.6-.1-3.8h.1c.4 1 1 2 1.4 3l2.3 3.8H62v-8.7h-1.6v3c0 1.3.1 2.5.1 3.6-.4-1-.9-2-1.4-2.9l-2.3-3.8h-1.7V48h1.4v.1zm6.9-.4c.4.3 1.3.6 2.3.6 2.2 0 3.2-1.2 3.2-2.6 0-1.3-.7-2-2.2-2.6-1.2-.4-1.7-.7-1.7-1.4 0-.4.6-1 1.4-1 .9 0 1.4.3 1.7.4l.4-1.3c-.4-.3-1.2-.4-2-.4-1.9 0-3.2 1-3.2 2.5 0 1.3 1 2 2.5 2.6 1 .3 1.4.7 1.4 1.4s-.6 1.2-1.6 1.2c-.7 0-1.6-.3-2-.6l-.2 1.2zm7-8.2v4.9c0 2.7 1.3 3.9 3.3 3.9 2.2 0 3.5-1.2 3.5-3.9v-4.9h-1.6v5.1c0 1.7-.7 2.5-1.9 2.5-1 0-1.7-.7-1.7-2.5v-5.1h-1.6zm8.7 8.6h5.1v-1.3h-3.5v-7.4h-1.6v8.7zm6.6 0h1.6v-7.4h2.6v-1.3h-6.6v1.3h2.5l-.1 7.4zm8.7-2.4.9 2.5h1.6l-2.7-8.7h-2l-2.7 8.7h1.6l.7-2.5h2.6zm-2.5-1.2.6-2.2c.3-.6.4-1.2.4-1.6h.1c.1.4.1 1 .4 1.6l.6 2.2h-2.1zm7.7 3.6v-3c0-1.4 0-2.6-.1-3.8h.1c.3 1 .9 2 1.4 3l2.3 3.8h1.6v-8.7h-1.4v3c0 1.3 0 2.5.1 3.6-.4-1-.9-2-1.4-2.9l-2.3-3.8h-1.7V48h1.4v.1zm13.1-1.4c-.4.1-1 .3-1.7.3-1.9 0-3-1.3-3-3.2 0-2 1.3-3.2 3-3.2.7 0 1.3.1 1.7.3l.3-1.2c-.3-.1-1-.4-2-.4-2.6 0-4.6 1.7-4.6 4.6 0 2.6 1.6 4.3 4.3 4.3 1.2 0 1.9-.1 2.3-.4l-.3-1.1zm5.2 1.4v-3.6l2.9-5.1h-1.9l-1 2.2c-.3.7-.4 1.2-.7 1.7-.3-.6-.4-1-.7-1.7l-1-2.2h-1.9l2.7 5.1v3.6h1.6zm6.1-.4c.6.3 1.4.6 2.5.6 2.2 0 3.2-1.2 3.2-2.6 0-1.3-.7-2-2.2-2.6-1.2-.4-1.7-.7-1.7-1.4 0-.4.4-1 1.4-1 .9 0 1.4.3 1.7.4l.4-1.3c-.4-.3-1.2-.4-2.2-.4-1.9 0-3 1-3 2.5 0 1.3 1 2 2.3 2.6 1.2.3 1.6.7 1.6 1.4s-.6 1.2-1.6 1.2c-.7 0-1.6-.3-2-.6l-.4 1.2zm12-4.8h-3.3v-2.2h3.5v-1.3h-5.1v8.7h5.2v-1.3h-3.6v-2.6h3.3v-1.3zm1.7 5.2h1.6v-3.6h.7c1 .1 1.4.4 1.6 1.6.3 1 .4 1.7.6 2h1.6c-.1-.3-.3-1.3-.6-2.5-.3-.9-.6-1.4-1.3-1.6v-.1c.9-.3 1.6-1 1.6-2.2 0-.7-.3-1.3-.7-1.7-.6-.4-1.4-.6-2.6-.6-1 0-1.9 0-2.5.1v8.6zm1.6-7.5h1c1 0 1.6.4 1.6 1.3s-.6 1.4-1.7 1.4h-.9v-2.7zm9.6 7.5 3-8.7h-1.7l-1.2 3.9c-.4 1.2-.7 2.2-.9 3.2h-.1c-.1-1-.4-2-.7-3.2l-1.3-3.9h-1.7l2.9 8.7h1.7zm5.6 0v-8.7h-1.6v8.7h1.6zm7.7-1.4c-.4.1-1 .3-1.7.3-1.9 0-3-1.3-3-3.2.1-2 1.3-3.2 3-3.2.7 0 1.3.1 1.7.3l.4-1.2c-.4-.1-1.2-.4-2.2-.4-2.6 0-4.6 1.7-4.6 4.6 0 2.6 1.6 4.3 4.5 4.3 1 0 1.9-.1 2.2-.4l-.3-1.1zm6.5-3.8h-3.3v-2.2h3.5v-1.3h-5.1v8.7h5.3v-1.3h-3.8v-2.6h3.3v-1.3h.1zm1.4 4.8c.4.3 1.4.6 2.3.6 2.2 0 3.3-1.2 3.3-2.6 0-1.3-.7-2-2.3-2.6-1.2-.4-1.6-.7-1.6-1.4 0-.4.4-1 1.4-1 .7 0 1.3.3 1.7.4l.3-1.3c-.4-.3-1.2-.4-2-.4-1.9 0-3 1-3 2.5 0 1.3.9 2 2.3 2.6 1 .3 1.4.7 1.4 1.4s-.4 1.2-1.4 1.2c-.9 0-1.6-.3-2.2-.6l-.2 1.2z"/></svg>