<?xml version="1.0" encoding="utf-8"?>
<!-- Generator: Adobe Illustrator 23.0.0, SVG Export Plug-In . SVG Version: 6.00 Build 0)  -->
<svg version="1.1" id="Layer_1" xmlns="http://www.w3.org/2000/svg" xmlns:xlink="http://www.w3.org/1999/xlink" x="0px" y="0px"
	 viewBox="0 0 175.7 50.6" style="enable-background:new 0 0 175.7 50.6;" xml:space="preserve">
<style type="text/css">
	.st0{fill-rule:evenodd;clip-rule:evenodd;}
</style>
<g>
	<path class="st0" d="M13.5,41.8h21.4c0.3,0,0.3,0.1,0,0.3c-2.4,1.1-5.9,4.6-5.9,4.6c-2.4,2.4-4.3,3.9-8.4,3.9H0.1
		c-0.1,0-0.1-0.3,0-0.3c2.3-1.3,5.6-4.8,5.6-4.8C7.1,43.9,10,41.8,13.5,41.8L13.5,41.8z"/>
	<path class="st0" d="M154.1,41.8h21.5c0.1,0,0.1,0.1,0,0.3c-2.5,1.1-5.9,4.6-5.9,4.6c-2.5,2.4-4.4,3.9-8.4,3.9h-20.5
		c-0.1,0-0.1-0.3,0-0.3c2.3-1.3,5.6-4.8,5.6-4.8C147.9,43.9,150.6,41.8,154.1,41.8L154.1,41.8z"/>
	<path class="st0" d="M48.6,41.8H70c0.3,0,0.3,0.1,0,0.3c-2.4,1.1-5.9,4.6-5.9,4.6c-2.4,2.4-4.3,3.9-8.4,3.9H35.4
		c-0.3,0-0.3-0.3-0.1-0.3c2.3-1.3,5.6-4.8,5.6-4.8C42.3,43.9,45.1,41.8,48.6,41.8L48.6,41.8z"/>
	<path class="st0" d="M83.8,41.8h21.4c0.3,0,0.3,0.1,0,0.3c-2.4,1.1-5.9,4.6-5.9,4.6c-2.4,2.4-4.3,3.9-8.3,3.9H70.5
		c-0.1,0-0.1-0.3-0.1-0.3c2.4-1.3,5.6-4.8,5.6-4.8C77.4,43.9,80.3,41.8,83.8,41.8L83.8,41.8z"/>
	<path class="st0" d="M119,41.8h21.5c0.1,0,0.1,0.1-0.1,0.3c-2.4,1.1-5.9,4.6-5.9,4.6c-2.4,2.4-4.3,3.9-8.3,3.9h-20.5
		c-0.1,0-0.1-0.3,0-0.3c2.3-1.3,5.6-4.8,5.6-4.8C112.6,43.9,115.5,41.8,119,41.8L119,41.8z"/>
	<path class="st0" d="M124.9,0c-13.5,0-22.5,7-22.5,17.6c0,9.8,8.3,16.3,20.5,16.3c4,0,7.5-0.5,11.6-1.6v-8.1
		c-2.9,3.3-6.4,4.5-10.1,4.5c-7.3,0-12.3-4.8-12.3-11.8c0-6.9,5.1-11.9,12.4-11.9c3.9,0,7,1.5,9.5,4.1V0.9
		C131.4,0.4,128.1,0,124.9,0L124.9,0z"/>
	<path class="st0" d="M24,5.8c5,0,11,1,13.5,3.1V1.1H2v7.8c2.5-2.1,7.9-3,13.6-3v21.3c0,3.1-0.3,4-1.5,5.6h11.4
		c-1.3-1.6-1.5-2.5-1.5-5.6V5.8L24,5.8z"/>
	<path class="st0" d="M60.3,13.4c-2,0.8-5.8,0.9-7.6,0.9h-3V5.9h4c3.6,0,9.8,0.8,12.1,2.9V1.1H39.9c1.3,1.5,1.5,2.5,1.5,5.5v20.5
		c0,3.1-0.3,4-1.4,5.6h27.5V25c-3.8,2.9-11,2.9-13.9,2.9h-4V19h2.9c2,0,5.6,0.3,7.8,1V13.4L60.3,13.4z"/>
	<path class="st0" d="M98.7,2.1C94.6,0.8,89.2,0,85.1,0c-7.5,0-14.8,2.4-14.8,10.4c0,13.8,22.5,6.5,22.5,15c0,2.8-4,3.9-7.3,3.9
		c-5.8,0-9.8-1-14.8-4.3v7c3.8,1.3,8.9,2,14.4,2c7.8,0,15-2.3,15-10.4c0-14.5-22.4-8-22.4-15c0-2.9,3.6-3.9,6.8-3.9
		c5.3,0,11,1.6,14.1,4.8V2.1H98.7z"/>
	<path class="st0" d="M156.5,0.5c-12.1,0-20.8,7-20.8,16.9c0,9.8,7.8,16.1,19.1,16.1c12.3,0,20.8-6.8,20.8-16.8
		C175.7,7,167.9,0.5,156.5,0.5L156.5,0.5z M155.6,28.8c-6.5,0-10.6-5.3-10.6-11.8s4.1-11.8,10.6-11.8c6.4,0,10.6,5.3,10.6,11.8
		C166.3,23.5,162,28.8,155.6,28.8L155.6,28.8z"/>
</g>
</svg>
