<svg xmlns="http://www.w3.org/2000/svg" viewBox="0 0 544.3 184"><path d="m183.9 88-.3-4-.4-4-.6-4-.8-3.9-1-3.9-1.1-3.8-1.3-3.8-1.5-3.8-1.6-3.7-1.8-3.6-1.9-3.5-2.1-3.4-2.2-3.3L165 36l-2.5-3.1-2.6-3-2.8-2.9-2.9-2.8-3-2.6L148 19l-3.2-2.4-3.3-2.2-3.5-2.1-3.5-1.9-3.6-1.8-3.7-1.6-3.7-1.5-3.8-1.3-3.9-1.1-3.9-.9-3.9-.8-4-.6-4-.4-4-.3-4-.1-4 .1-4 .3-4 .4-4 .6-3.9.8-3.9.9-3.9 1.1-3.8 1.3L56.8 7l-3.7 1.6-3.6 1.8-3.5 1.9-3.4 2.1-3.4 2.2L36 19l-3.1 2.5-3 2.6-2.9 2.8-2.7 2.9-2.7 3L19 36l-2.4 3.2-2.2 3.3-2.1 3.5-1.9 3.5-1.7 3.6L7 56.8l-1.4 3.8-1.3 3.8-1.1 3.8-1 3.9-.8 3.9-.6 4-.4 4-.3 4-.1 4 .1 4 .3 4 .4 4 .6 4 .8 3.9 1 3.9 1.1 3.8 1.3 3.8 1.4 3.8 1.6 3.7 1.7 3.6 1.9 3.5 2.1 3.4 2.2 3.3L19 148l2.5 3.1 2.7 3 2.7 2.9 2.9 2.8 3 2.6L36 165l3.2 2.4 3.4 2.2 3.4 2.1 3.5 1.9 3.6 1.8 3.7 1.6 3.8 1.5 3.8 1.3 3.9 1.1 3.9.9 3.9.8 4 .6 4 .4 4 .3 4 .1 4-.1 4-.3 4-.4 4-.6 3.9-.8 3.9-.9 3.9-1.1 3.8-1.3 3.7-1.5 3.7-1.6 3.6-1.8 3.5-1.9 3.5-2.1 3.3-2.2 3.2-2.4 3.1-2.5 3-2.6 2.9-2.8 2.8-2.9 2.6-3 2.5-3.1 2.4-3.2 2.2-3.3 2.1-3.4 1.9-3.5 1.8-3.6 1.6-3.7 1.5-3.8 1.3-3.8 1.1-3.8 1-3.9.8-3.9.6-4 .4-4 .3-4 .1-4-.2-4.2zm-42.6-39.6.3.2.2.3.3.8.5.7.6.6.7.5.8.3.9.2h.9l.9-.2.8-.4.7-.5.6-.6.5-.8.3-.8.1-.9v-.9l-.2-.8-.4-.8-.5-.7-.2-.3V44l.2-.3.3-.1 1.5-.2h1.5l1.5.2 1.4.3 1.4.5 1.3.6 1.3.8 1.2.9 1.1 1 1 1.1.9 1.2.7 1.3.6 1.4.4 1.4.3 1.4.2 1.5v1.5l-.2 1.5-.3 1.5-.4 1.4-.6 1.4-.7 1.3-.9 1.2-.3.2h-.4l-.3-.2-.2-.3-.3-.8-.5-.7-.6-.6-.7-.5-.8-.3-.9-.2h-.9l-.8.2-.8.4-.7.5-.6.6-.5.8-.3.8-.1.9v.9l.2.8.4.8.6.7.1.3v.3l-.2.3-.3.1-1.5.2H151l-1.5-.2-1.4-.3-1.4-.5-1.3-.6-1.3-.8-1.2-.9-1.1-1-1-1.1-.9-1.2-.7-1.3-.6-1.4-.5-1.4-.3-1.5-.2-1.5v-1.5l.1-1.5.3-1.5.5-1.4.6-1.4.7-1.3.8-1.2.3-.2.4.1zm-29-16.8.2-1.5.1-.3.3-.2h.3l.3.2.7.5.8.4.9.2h.8l.9-.1.8-.3.8-.5.6-.6.5-.7.4-.8.2-.9v-.9l-.1-.9-.3-.8-.5-.7-.6-.6-.7-.5-.8-.3-.3-.2-.2-.3v-.4l.2-.3 1.2-.9 1.3-.7 1.4-.6 1.4-.4 1.5-.3 1.5-.2h1.5l1.5.2 1.5.3 1.4.5 1.3.6 1.3.8 1.2.9 1.1 1 1 1.1.9 1.2.8 1.3.6 1.4.5 1.4.3 1.4.2 1.5v1.5l-.2 1.5-.1.3-.3.2h-.3l-.3-.2-.7-.5-.8-.4-.8-.2-.9-.1-.9.1-.8.3-.7.4-.6.6-.5.7-.4.8-.2.8v.9l.2.8.3.8.5.7.6.6.7.5.8.3.3.2.2.3v.3l-.2.3-1.2.9-1.3.7-1.3.6-1.4.4-1.5.3-1.5.2h-1.5l-1.5-.2-1.4-.3-1.4-.4-1.3-.6-1.3-.7-1.2-.9-1.1-1-1-1.1-.9-1.2-.7-1.3-.6-1.4-.4-1.4-.3-1.5-.2-1.5v-1.1zm-27.4-9.1-.1-.5-.1-.5-.2-.5-.2-.4-.3-.4-.3-.4-.4-.3-.4-.3-.5-.2-.5-.2-.5-.1-.4-.1h-1l-.5.1h-.2l-.2-.1-.2-.1-.1-.2-.1-.2v-.4l.4-.8.4-.8.5-.8.5-.7.5-.6.6-.7.6-.6.7-.6.7-.5.8-.5.8-.4.8-.4.8-.3.8-.3.9-.2.8-.5.9-.1.9-.1h1.8l.9.1.9.1.9.2.9.2.8.3.8.3.8.4.8.4.7.5.7.5.7.6.6.6.6 1 .5.7.5.7.5.8.4.8.3.8v.4l-.1.2-.1.2-.2.1-.2.1h-.2l-.5-.1h-1l-.5.1-.5.1-.4.2-.4.3-.4.3-.4.3-.3.4-.3.4-.2.4-.2.5-.1.3-.1.5v1l.1.5.2.5.2.4.2.4.3.4.3.4.4.3.4.3.4.2.4.2.5.1.5.1h1l.5-.1h.2l.2.1.2.1.1.2.1.2v.4l-.3.8-.4.8-.5.8-.5.8-.6.6-.6.7-.6.6-.7.6-.7.5-.7.6-.8.5-.8.4-.8.4-.8.3-.9.2-.9.2-.9.1-.9.1h-1.8l-.9-.1-.9-.1-.9-.2-.9-.2-.8-.3-.8-.4-.8-.4-.7-.5-.8-.5-.7-.5-.7-.6-.6-.6-.6-.8-.5-.7-.5-.8-.5-.8-.4-.7-.4-.8v-.4l.1-.2.1-.2.2-.1.2-.1h.2l.5.1h1l.5-.1.5-.1.5-.2.4-.2.4-.3.4-.3.3-.4.3-.4.2-.4.2-.4.1-.5.1-.5v-1zm-41.6 9 .2-1.5.3-1.4.5-1.4.6-1.4.7-1.3.9-1.2 1-1.1 1.1-1 1.2-.9 1.3-.8 1.4-.6 1.4-.5 1.4-.3 1.5-.2h1.5l1.5.2 1.5.3 1.4.4 1.3.6 1.3.7 1.2.9.2.3v.4l-.2.3-.3.2-.8.3-.7.5-.7.7-.5.7-.3.8-.2.9v.9l.2.9.4.8.5.7.7.6.7.5.8.3.9.1h.9l.9-.2.8-.4.7-.5.3-.2h.3l.3.2.1.3.2 1.5v1.5l-.2 1.5-.3 1.4-.5 1.4-.6 1.4-.7 1.2-.9 1.2-1 1.1-1.1 1-1.2.9-1.2.7-1.4.6-1.4.5-1.5.3-1.5.2h-1.5l-1.5-.2-1.3-.3-1.4-.4-1.4-.6-1.3-.7-1.2-.9-.2-.4v-.3l.1-.3.3-.2.8-.3.7-.5.6-.6.5-.7.3-.8.2-.8v-.9l-.2-.8-.4-.8-.5-.7-.6-.6-.7-.7-.8-.3-.8-.1-.9.1-1 .2-.8.4-.7.5-.3.2h-.3l-.3-.2-.2-.3-.1-1.5v-1.5zM18 56.7l.2-1.5.3-1.4.5-1.4.6-1.4.8-1.3.9-1.2 1-1.1 1.1-1 1.2-.9 1.3-.8 1.3-.6 1.4-.5 1.5-.3 1.5-.2h1.5l1.5.2.3.1.2.3.1.3-.2.3-.5.7-.6 1-.2.8-.1.9.1.9.3.8.4.8.6.6.7.5.8.4.8.2h.9l.9-.2.8-.3.7-.5.6-.6.5-.7.3-.8.2-.3.3-.2h.3l.3.2.9 1.2.7 1.3.6 1.4.4 1.4.3 1.5.2 1.5v1.5l-.2 1.5v1.4l-.5 1.4-.6 1.4-.8 1.3-.9 1.2-1 1.1-1.1 1-1.1.8-1.3.8-1.4.6-1.3.4-1.5.3-1.5.2h-1.5l-1.5-.2-.3-.1-.2-.3v-.3l.2-.3.5-.7.4-.8.2-.8.1-.9-.1-.9-.3-.8-.5-.8-.6-.6-.7-.5-.8-.4-.8-.2h-.9l-.8.2-.8.3-.8.4-.6.6-.5.7-.3.8-.2.3-.3.2h-.4l-.3-.2-.9-1.2-.7-1.3-.6-1.4-.4-1.4-.3-1.5-.3-1.4v-1.5zm-1.5 47.9-1.3-.8-1.2-.8-1.1-1-1-1.1-.9-1.2-.7-1.3-.6-1.4-.5-1.4-.2-1.4-.2-1.5v-1.5l.2-1.4.3-1.5.5-1.4.6-1.4.7-1.3.9-1.2 1-1.1 1.1-1 1.2-.9 1.3-.8 1.4-.6h.3l.3.2.2.3v.3l-.1.9.1.9.2.9.4.8.6.7.7.6.8.4.8.2.9.1.9-.1.8-.2.8-.4.7-.6.5-.7.4-.8.2-.9.1-.9-.1-.9v-.3l.2-.3.3-.2h.4l1.4.6 1.3.8.9 1 1.1 1 1 1.1.9 1.2.7 1.3.6 1.4.5 1.4.3 1.5.2 1.5v1.5l-.3 1.3-.3 1.4-.5 1.4-.6 1.4-.7 1.3-.9 1.2-1 1.1-1.1 1-1.2.9-1.3.8-1.4.6h-.4l-.3-.2-.2-.3v-.3l.1-.9-.1-.9-.2-.8-.4-.8-.5-.7-.7-.6-.8-.4-.8-.2-.7-.1-.9.1-.8.2-.8.4-.7.6-.6.7-.4.8-.2.8-.1.9.1.9v.3l-.2.3-.3.2h-.3l-1.3-.7zm26.2 31-.3-.2-.2-.3-.3-.8-.5-.7-.6-.6-.7-.5-.8-.3-.9-.2h-.9l-.8.2-.8.4-.7.5-.6.6-.4.8-.3.8-.1.9.1.9.2.8.4.8.5.7.2.3-.1.3-.2.3-.3.1-1.5.2h-1.5l-1.5-.2-1.5-.3-1.4-.5-1.3-.6-1.3-.7-1.2-.9-1.1-1-1-1.1-.9-1.2-.8-1.3-.6-1.4-.5-1.4-.3-1.4-.2-1.5v-1.5l.2-1.5.3-1.5.4-1.4.6-1.4.7-1.3.9-1.2.3-.2h.4l.3.2.2.3.3.8.5.7.6.6.7.5.8.3.8.2h.9l.8-.2.8-.4.7-.5.6-.6.4-.8.3-.8.1-.9-.1-.9-.2-.9-.4-.8-.5-.7-.2-.3v-.3l.2-.3.3-.1 1.5-.2h1.5l1.5.2 1.5.3 1.4.5 1.4.6 1.3.8 1.2.9 1.1 1 1 1.1.9 1.2.8 1.3.6 1.4.5 1.4.3 1.4.2 1.5v1.5l-.2 1.5-.3 1.5-.4 1.4-.6 1.3-.7 1.3-.9 1.2-.3.2-.3.1zm28.9 18.3-.1.3-.3.2h-.3l-.3-.2-.7-.5-.8-.4-.9-.2h-.9l-.9.1-.8.3-.7.5-.7.6-.5.7-.4.8-.2.8v.9l.2.9.3.8.5.7.6.6.7.5.8.3.3.2.2.3v.3l-.2.3-1.2.9-1.3.7-1.3.6-1.4.4-1.5.3-1.5.2h-1.5l-1.5-.2-1.4-.3-1.4-.5-1.4-.6-1.3-.8-1.2-.9-1.1-1-1-1.1-.9-1.2-.7-1.3-.6-1.4-.5-1.4-.3-1.4-.2-1.5v-1.5l.1-1.5.2-.3.3-.2h.3l.3.2.7.5.8.4.8.2.9.1.8-.1.8-.3.7-.5.6-.6.5-.7.4-.8.2-.8v-.9l-.2-.9-.3-.8-.5-.7-.6-.6-.7-.5-.8-.3-.3-.2-.1-.3v-.4l.2-.3 1.2-.9 1.3-.7 1.4-.6 1.4-.5 1.4-.3 1.5-.1h1.5l1.5.2 1.5.3 1.4.5 1.4.6 1.3.7 1.2.9 1.1 1 1 1.1.9 1.2.8 1.3.6 1.3.5 1.4.3 1.4.2 1.5v1.5l-.2 1.7zm27.6 8 .3.8.4.8.6.7.7.5.8.4.8.2.9.1.9-.1h.3l.3.2.2.3v.4l-.6 1.4-.8 1.3-1 1.1-1 1.1-1.1 1-1.2.9-1.3.7-1.3.6-1.4.5-1.5.3-1.5.2h-1.5l-1.5-.2-1.4-.3-1.4-.5-1.3-.6-1.3-.7-1.2-.9-1.1-1-1-1.1-.9-1.2-.7-1.3-.6-1.4v-.4l.1-.3.3-.2h.3l.9.1.9-.1.8-.2.8-.4.7-.5.6-.7.4-.8.3-.8.1-.9-.1-.9-.3-.9-.4-.8-.6-.7-.7-.5-.8-.4-.8-.2-.9-.1-.9.1h-.3l-.3-.2-.1-.3v-.3l.6-1.4.7-1.3.9-1 1-1.1 1.1-1 1.2-.9 1.3-.7 1.3-.6 1.4-.5 1.4-.3 1.5-.2h1.5l1.5.2 1.5.3 1.4.5 1.3.6 1.3.7 1.2.9 1.1 1 1 1.1.9 1.2.8 1.3.6 1.4v.3l-.2.3-.3.2h-.3l-.9-.1-.9.1-.8.2-.8.4-.7.5-.6.7-.4.8-.3.9-.1.9.2.8zm11.9-28.1-1.2.5-1.2.5-1.2.5-1.2.4-1.3.4-1.2.4-1.3.3-1.3.3-1.3.2-1.3.2-1.3.2-1.3.1-1.3.1-1.3.1h-2.6l-1.3-.1-1.3-.1-1.3-.1-1.3-.2-1.3-.2-1.3-.2-1.3-.3-1.3-.3-1.3-.4-1.2-.4-1.2-.4-1.2-.5-1.2-.5-1.2-.5-1.2-.6-1.2-.6-1.1-.6-1.2-.7-1.1-.7-1.3-.6-1.1-.8-1.1-.8-1-.8-1-.8-1-.9-.8-.9-.9-.9-.9-1-.9-1-.8-1-.8-1-.8-1-.7-1.1-.7-1.1-.7-1.1-.7-1.1-.6-1.1-.6-1.2-.6-1.2-.5-1.2-.5-1.2-.5-1.2-.4-1.3-.4-1.3-.4-1.3-.3-1.3-.3-1.3-.2-1.3-.2-1.3-.2-1.3-.1-1.3-.1-1.3-.2-1.3v-2.6l.1-1.3.1-1.3.1-1.3.2-1.3.2-1.3.2-1.3.3-1.3.3-1.3.4-1.3.4-1.3.4-1.2.5-1.2.5-1.2.5-1.2.6-1.2.6-1.2.6-1.2.7-1.1.7-1.1.6-1.1.7-1.1.8-1 .8-1 .8-1 .9-1 .9-1L60 59l.9-.9 1-.9 1-.8 1-.8 1.1-.8 1-.8 1.1-.7 1.1-.7 1.2-.7 1.1-.6 1.2-.6 1.2-.6 1.2-.5 1.2-.5 1.2-.5 1.2-.4 1.2-.4 1.3-.4 1.3-.3 1.3-.3 1.3-.2 1.3-.2 1.3-.2 1.3-.1 1.3-.1 1.3-.1h2.6l1.3.1 1.3.1 1.3.1 1.3.2 1.3.2 1.3.2 1.3.3 1.3.3 1.2.4 1.3.4 1.2.4 1.2.5 1.2.5 1.2.5 1.2.6 1.2.6 1.2.6 1.1.7 1.1.7 1.3.7 1.1.8 1.1.8 1 .8 1 .8 1 .9 1 .9.9.9.9 1 .9 1 .8 1 .8 1 .8 1 .7 1.1.7 1.1.7 1.1.7 1.1.6 1.2.6 1.2.6 1.2.5 1.2.5 1.2.5 1.2.4 1.2.4 1.3.3 1.3.3 1.3.3 1.3.3 1.3.2 1.3.2 1.3.1 1.3.1 1.3v5.2l-.1 1.3-.1 1.3-.2 1.3-.2 1.3-.3 1.3-.3 1.3-.3 1.3-.3 1.3-.4 1.3-.4 1.3-.5 1.2-.5 1.2-.5 1.2-.6 1.2-.6 1.2-.6 1.1-.7 1.1-.7 1.1-.7 1.1-.8 1.1-.8 1-.8 1-.8 1-.9 1-.9 1-.9.9-1 .9-1 .9-1 .8-1 .8-1.1.8-1 .8-1.1.7-1.1.7-1.1.7-1.2.6-1.2.6-1.2.5zm29.6 18.7-.2 1.5-.3 1.4-.5 1.4-.6 1.4-.8 1.3-.9 1.2-1 1.1-1.1 1-1.2.9-1.3.8-1.3.6-1.4.5-1.5.3-1.5.2h-1.5l-1.5-.2-1.5-.3-1.4-.4-1.4-.6-1.3-.7-1.2-.9-.2-.3v-.3l.2-.3.3-.2.8-.3.7-.5.6-.6.5-.7.3-.8.1-.9v-.9l-.2-.8-.4-.8-.5-.7-.6-.6-.8-.5-.8-.3-.9-.1h-.8l-.9.2-.8.4-.7.5-.3.2h-.3l-.3-.2-.1-.3-.2-1.5v-1.5l.2-1.5.3-1.4.4-1.4.6-1.3.7-1.3.9-1.2 1-1.1 1.1-1 1.2-.9 1.3-.7 1.3-.6 1.4-.5 1.4-.3 1.5-.2h1.5l1.5.1 1.5.3 1.4.5 1.3.6 1.3.7 1.2.9.2.3v.4l-.2.3-.3.2-.8.3-.7.5-.6.6-.5.7-.3.8-.2.9v.9l.2.8.4.8.5.7.6.6.7.5.8.3.9.1.9-.1.8-.2.8-.4.7-.5.3-.2h.3l.3.2.1.3.2 1.5v1.3zm25.3-25.2-.2 1.5-.3 1.4-.4 1.4-.6 1.4-.7 1.3-.9 1.2-1 1.1-1.1 1-1.2.9-1.3.7-1.3.6-1.4.5-1.4.3-1.5.2h-1.5l-1.5-.2-.3-.1-.2-.3v-.3l.2-.3.5-.7.4-.8.2-.8v-.9l-.1-.9-.3-.8-.5-.8-.6-.6-.7-.5-.8-.4-.9-.2h-.9l-.9.2-.8.3-.7.5-.6.6-.5.7-.3.8-.2.3-.3.2h-.3l-.3-.2-.8-1.2-.7-1.3-.6-1.3-.5-1.4-.3-1.5-.1-1.5v-1.5l.2-1.5.3-1.4.5-1.4.6-1.4.7-1.3.9-1.2 1-1.1 1.1-1 1.2-.9 1.3-.8 1.3-.6 1.4-.5 1.4-.3 1.5-.2h1.5l1.5.2.3.1.2.3v.3l-.1.3-.6.7-.4.8-.2.9v.9l.1.9.3.8.5.8.6.6.7.5.8.4.8.2h.9l.9-.2.8-.3.7-.5.6-.6.5-.7.3-.8.2-.3.3-.2h.4l.3.2.9 1.2.7 1.3.6 1.4.4 1.4.3 1.5.2 1.5-.2 1.4zm9.2-34.6-.2 1.5-.3 1.4-.5 1.4-.6 1.4-.8 1.3-.9 1.2-1 1.1-1.1 1-1.2.9-1.3.8-1.4.6h-.4l-.3-.2-.2-.3v-.3l.1-.9-.1-.9-.2-.8-.4-.8-.6-.7-.7-.6-.8-.4-.8-.2-.9-.1-.9.1-.8.2-.8.4-.7.6-.5.7-.4.8-.2.8-.1.9.1.9v.3l-.2.3-.3.2h-.3l-1.4-.6-1.3-.8-.8-.9-1.1-1-1-1.1-.9-1.2-.7-1.3-.6-1.4-.5-1.4-.3-1.4-.2-1.5v-1.5l.2-1.5.3-1.5.5-1.4.6-1.4.7-1.3.9-1.2 1-1.1 1.1-1 1.2-.9 1.3-.8 1.4-.6h.3l.3.2.2.3v.3l-.1.9.1.9.2.9.4.8.5.7.7.6.8.4.8.2.9.1.9-.1.8-.2.8-.4.7-.6.6-.7.4-.8.2-.9.1-.9-.1-.9V79l.2-.3.3-.2h.4l1.4.6 1.3.8 1 1.1 1.1 1 1 1.1.9 1.2.8 1.3.6 1.4.5 1.4.3 1.5.2 1.5v1.3z" fill="#bb5f24"/><path d="m122.9 115.8.8-.3.5-.7-.1-.9-25.9-53.8-.6-.6-.9-.1-6.4 1.8-.7.6-29.6 52-.2.9.5.8.8.3h5.7l1.1-.7 23.8-41.7.7-.6h.9l.6.6 1.8 3.6-.1 1.2-20.2 35.6-.2.9.4.8.9.3h5.7l1.1-.7L98.7 88l.7-.6.9.1.7.6 12.9 26.9 1.2.8zm194.3-46.6c4.5 0 17.2 1.9 17.2 7.6 0 2.1-1.9 5.2-3.7 7.1h-.5s-6-9.7-15.2-9.7c-10.5 0-14.3 11.7-14.3 20.9 0 12.6 7 22.7 17.8 22.7 8.2 0 17.3-6.9 17.3-6.9l.4.4s-4.5 14.4-22.2 14.4c-14.2 0-25.7-11.6-25.7-26.6-.1-16.4 11.6-29.9 28.9-29.9zM346.5 86c0-9.1-.8-9.5-4.9-10.8v-4.5c4.6 0 14.7-8.9 16.1-12.5l2.4.8-2.1 11.8h8.7c4.4 0 5.8-1.1 5.8-1.1.1.7.1 2.4.1 2.9 0 4.5-2.1 5.4-6 5.4-1.2 0-8.6-.2-8.6-.2l-.3 20.7c0 10.5 1 19.5 9.2 19.5 5.2 0 11.3-5 11.3-5l.5.4s-3.5 12.3-16.5 12.3c-12.5 0-16.1-8.7-16.1-20.7 0-6.9.4-14.9.4-19zm65.6 5.1v-1c0-9-2-14-10.2-14-5.2 0-10.8 2.9-14.7 6.4l-.4-.4c1.7-6.4 10.3-13 19.7-13 15.1 0 17.2 9.1 17.2 18.8 0 5.6-.3 12.8-.3 18.7v1.3c0 4.2.1 11.8 5.3 11.8 2.1 0 4.1-1.5 4.1-1.5l.4.3s-2.7 6.6-11.8 6.6c-4.4 0-8.9-1.8-9-7.5l-.4-.2c-2.5 4.5-7.8 8.2-14.5 8.2-8.9 0-14.2-6.5-14.2-14.3-.2-15.4 17.2-20 28.8-20.2zm-9.8 27c3.6 0 9.5-3.3 9.5-7.3 0-4.3.3-9.9.3-15.3-4.4.7-16.9 2.7-16.9 14-.1 6.3 3.3 8.6 7.1 8.6zm38-36.4c0-10-.2-19.6-.5-26.4-.5-9.8-1.9-11.9-1.9-11.9l.3-.4c7.1.1 13.7 1.3 13.7 7.9l-.4 33.2.4 28.6c.1 3.6 1.1 7 4.8 7 2.1 0 4.1-1.5 4.1-1.5l.4.3s-2.7 6.6-11.8 6.6c-4.7 0-9.6-2.1-9.6-9.3l.5-34.1zm28.5 16.6c0-24.3-2.5-27.6-2.6-27.6 1.8-.5 3.5-1 5.2-1 4.8 0 9.1 2.6 9.1 6.8 0 11.3-.5 24.1-.5 32 0 4.8.1 11.2 5.3 11.2 2.1 0 4.1-1.5 4.1-1.5l.4.3s-2.7 6.6-11.8 6.6c-4.7 0-9.6-2.2-9.6-8.6 0-6.1.4-12.3.4-18.2zm-1.7-44.8c0-4 3.3-7.3 7.1-7.3 3.9 0 7.2 3.3 7.2 7.3 0 3.8-3.3 7.1-7.2 7.1-3.8.1-7.1-3.2-7.1-7.1zm56.2 37.6v-1c0-9-2-14-10.2-14-5.2 0-10.8 2.9-14.7 6.4l-.4-.4c1.7-6.4 10.3-13 19.7-13 15.1 0 17.2 9.1 17.2 18.8 0 5.6-.3 12.8-.3 18.7v1.3c0 4.2.1 11.8 5.3 11.8 2.1 0 4-1.5 4-1.5l.4.3s-2.7 6.6-11.8 6.6c-4.4 0-9-1.8-9.1-7.5l-.4-.2c-2.4 4.5-7.8 8.2-14.5 8.2-9 0-14.2-6.5-14.2-14.3.1-15.4 17.4-20 29-20.2zm-9.8 27c3.6 0 9.5-3.3 9.5-7.3 0-4.3.3-9.9.3-15.3-4.4.7-16.9 2.7-16.9 14 0 6.3 3.4 8.6 7.1 8.6zm-227 7.6 1.1-.4.6-1-.1-1.1L253.3 51l-.8-.9h-1.2l-8.6 2.3-1 .8-39.7 69.9-.2 1.2.6 1 1.1.4h7.7l1.5-.9 31.8-56.1 1-.7h1.2l.9.8 2.3 4.8-.1 1.6-27.2 47.9-.2 1.2.6 1 1.1.4h7.7l1.5-.9L254 88.4l.9-.8 1.3.1.9.8 17.4 36.2 1.5 1z" fill="#fff"/></svg>