<svg version="1.1" id="_x30_" xmlns="http://www.w3.org/2000/svg" x="0" y="0" viewBox="0 0 286 286" style="enable-background:new 0 0 286 286" xml:space="preserve"><style>.st1{fill:none;stroke:#000;stroke-width:11;stroke-linecap:round;stroke-linejoin:round;stroke-miterlimit:10}</style><circle cx="143" cy="143" r="143" style="fill:#fff"/><path class="st1" d="M14 143C14 72.1 71.4 14.7 142.2 14.7S270.5 72.1 270.5 143s-57.4 128.3-128.3 128.3S14 213.8 14 143h0z" id="CIRCLE"/><path class="st1" d="M143 143H14" id="LINE"/><path class="st1" d="M143 179.3H19.2" id="LINE_1_"/><path class="st1" d="M143 106.7H19.2" id="LINE_2_"/><path class="st1" d="M111.1 267.4c13.7 3.4 27.7-4.9 31.1-18.7.5-2 .8-4.1.8-6.2V43.8c0-2.2.3-4.4.9-6.6 3.6-13.7 17.7-21.8 31.4-18.2" id="ARC_1_"/><path class="st1" d="M267.8 117c-14.3-19.3-41.6-23.3-60.9-9s-23.3 41.6-9 60.9 41.6 23.3 60.9 9c3.4-2.5 6.4-5.6 9-9" id="ARC_2_"/></svg>