<svg xmlns="http://www.w3.org/2000/svg" viewBox="0 0 500 88" style="enable-background:new 0 0 500 88" xml:space="preserve"><path d="M87 38.9c-3.1-1.4-6.4-2.6-9.7-3.4-6.3-1.6-20.6-3.5-27.4-4.2-7.1-.7-19.5-1.8-24.5-3.3-1.5-.5-4.6-1.9-4.6-5.5 0-2.5 1.4-4.7 4.2-6.4 4.4-2.8 13.3-4.5 22.5-4.5 8.9-.1 17.8 1.6 26.1 5.1 2.2 1 4.3 2.2 6.2 3.7 3.1 2.6 5.2 6.2 6.1 10.2h9.9V3.9h-11V7c0 1-1 2.3-3 1.2-5-2.6-18.9-8.2-36-8.2-9.7 0-20.7 1.8-30 6C7.1 9.9 0 16.1 0 26.4 0 31.8 2 37.1 5.8 41c2.5 2.3 6.6 6.3 17.1 8.6 4.7 1 14.8 2.6 24.9 3.7s19.8 2 23.8 3.1c3.2.8 8.5 1.9 8.5 7.9s-5.6 7.8-6.6 8.2c-1 .4-7.7 3.5-19.9 3.5-8-.2-16-1.6-23.7-4.1-4.5-1.6-9.3-3.8-13.7-9.2-1.8-2.5-2.8-5.6-2.8-8.7h-11v30.8h12.2v-4.2c0-1 .8-1.7 1.7-1.8.3 0 .6.1.9.3 5.8 2.5 11.7 4.4 17.9 5.8 6.4 1.3 10.6 2.3 18.5 2.3 8.4.2 16.8-1 24.9-3.5 5.3-1.5 10.4-3.9 14.8-7.3 5-3.9 8-9.9 7.9-16.2 0-5.9-2.3-11.7-6.4-15.9-2.2-2.3-4.9-4.1-7.8-5.4zM324.9 14.7H335c4.6 0 5.4 1.8 5.5 6.1l.5 32.7-53.8-48.6h-38.4v9.8h8.6c6.2 0 6.6 3.4 6.6 6.4v45.8c0 2.7.2 6.5-3.8 6.5h-10.6v9.8h45.1v-9.8h-11c-4.4 0-4.6-2-4.6-6.3V27.9L341 83.2h15.8l-.8-62.4c.1-4.6.4-6.1 5.1-6.1h9.9V4.9h-46v9.8h-.1zM455.8 4.9v9.8h6.7c.4 0 .9.1 1.2.4.8.6 1 1.8.4 2.6-.1.2-18.5 21.8-18.7 22s-.4.2-.5-.1c-.2-.2-18.3-21.9-18.3-21.9-1.3-1.6-.3-3 1.2-3h6.5V4.9h-53.9v9.8h9.5c4.2 0 6.9 2.6 8.5 4.3 1.3 1.4 28.8 32.6 29.4 33.4.7.8.7.8.7 1.3v15.5c0 .7-.1 1.4-.2 2.1-.4.9-1.2 1.6-2.1 1.9-.9.1-1.8.2-2.7.2h-9.6v9.8h53.6v-9.8h-10.1c-.9 0-1.8-.1-2.7-.2-.9-.3-1.7-1-2.1-1.9-.1-.7-.2-1.4-.2-2.1V53.8c-.1-.5.1-1 .4-1.4l29.8-33.9c2.7-3 4.2-3.7 7.7-3.7h9.9V4.9h-44.4zM224.4 15.5C212.7 4.8 197.3 0 178.1 0c-17.3 0-35.7 6-46.1 15.5-8 7.3-12.6 17.6-12.5 28.5-.1 10.9 4.4 21.3 12.5 28.6 11.2 10 28 15.4 46.1 15.4 18.2 0 35.3-5.3 46.3-15.5 7.9-7.4 12.3-17.8 12.4-28.6s-4.4-21.1-12.4-28.4zm-21.5 51.4c-6.2 6.2-15.2 9.5-24.8 9.5-9.5 0-18.7-3.4-24.8-9.5-5.9-6.2-9.2-14.4-9-23 0-8.8 3.1-17.1 9-23 6.2-6.1 15.3-9.5 24.8-9.5s18.6 3.4 24.8 9.5c6 5.9 9.1 14.1 9.1 23 0 9.3-2.9 16.8-9.1 23z"/><script/></svg>